%TF.GenerationSoftware,KiCad,Pcbnew,(2017-11-18 revision ff5ee05de)-makepkg*%
%TF.CreationDate,2018-01-18T20:10:03+01:00*%
%TF.ProjectId,MPPT_charger_20A,4D5050545F636861726765725F323041,0.9*%
%TF.SameCoordinates,Original*%
%TF.FileFunction,Legend,Bot*%
%TF.FilePolarity,Positive*%
%FSLAX46Y46*%
G04 Gerber Fmt 4.6, Leading zero omitted, Abs format (unit mm)*
G04 Created by KiCad (PCBNEW (2017-11-18 revision ff5ee05de)-makepkg) date 01/18/18 20:10:03*
%MOMM*%
%LPD*%
G01*
G04 APERTURE LIST*
%ADD10C,0.150000*%
%ADD11C,0.200000*%
%ADD12C,0.300000*%
%ADD13C,0.100000*%
%ADD14C,0.010000*%
G04 APERTURE END LIST*
D10*
X163252380Y-89985714D02*
X163061904Y-90652380D01*
X162871428Y-90176190D01*
X162680952Y-90652380D01*
X162490476Y-89985714D01*
X161680952Y-90652380D02*
X161680952Y-90128571D01*
X161728571Y-90033333D01*
X161823809Y-89985714D01*
X162014285Y-89985714D01*
X162109523Y-90033333D01*
X161680952Y-90604761D02*
X161776190Y-90652380D01*
X162014285Y-90652380D01*
X162109523Y-90604761D01*
X162157142Y-90509523D01*
X162157142Y-90414285D01*
X162109523Y-90319047D01*
X162014285Y-90271428D01*
X161776190Y-90271428D01*
X161680952Y-90223809D01*
X161347619Y-89985714D02*
X160966666Y-89985714D01*
X161204761Y-89652380D02*
X161204761Y-90509523D01*
X161157142Y-90604761D01*
X161061904Y-90652380D01*
X160966666Y-90652380D01*
X160776190Y-89985714D02*
X160395238Y-89985714D01*
X160633333Y-89652380D02*
X160633333Y-90509523D01*
X160585714Y-90604761D01*
X160490476Y-90652380D01*
X160395238Y-90652380D01*
X159680952Y-90604761D02*
X159776190Y-90652380D01*
X159966666Y-90652380D01*
X160061904Y-90604761D01*
X160109523Y-90509523D01*
X160109523Y-90128571D01*
X160061904Y-90033333D01*
X159966666Y-89985714D01*
X159776190Y-89985714D01*
X159680952Y-90033333D01*
X159633333Y-90128571D01*
X159633333Y-90223809D01*
X160109523Y-90319047D01*
X159204761Y-90652380D02*
X159204761Y-89985714D01*
X159204761Y-90176190D02*
X159157142Y-90080952D01*
X159109523Y-90033333D01*
X159014285Y-89985714D01*
X158919047Y-89985714D01*
X158442857Y-90652380D02*
X158538095Y-90604761D01*
X158585714Y-90557142D01*
X158633333Y-90461904D01*
X158633333Y-90176190D01*
X158585714Y-90080952D01*
X158538095Y-90033333D01*
X158442857Y-89985714D01*
X158300000Y-89985714D01*
X158204761Y-90033333D01*
X158157142Y-90080952D01*
X158109523Y-90176190D01*
X158109523Y-90461904D01*
X158157142Y-90557142D01*
X158204761Y-90604761D01*
X158300000Y-90652380D01*
X158442857Y-90652380D01*
X157823809Y-89985714D02*
X157442857Y-89985714D01*
X157680952Y-89652380D02*
X157680952Y-90509523D01*
X157633333Y-90604761D01*
X157538095Y-90652380D01*
X157442857Y-90652380D01*
X157252380Y-89985714D02*
X156871428Y-89985714D01*
X157109523Y-89652380D02*
X157109523Y-90509523D01*
X157061904Y-90604761D01*
X156966666Y-90652380D01*
X156871428Y-90652380D01*
X156538095Y-90557142D02*
X156490476Y-90604761D01*
X156538095Y-90652380D01*
X156585714Y-90604761D01*
X156538095Y-90557142D01*
X156538095Y-90652380D01*
X155633333Y-90604761D02*
X155728571Y-90652380D01*
X155919047Y-90652380D01*
X156014285Y-90604761D01*
X156061904Y-90557142D01*
X156109523Y-90461904D01*
X156109523Y-90176190D01*
X156061904Y-90080952D01*
X156014285Y-90033333D01*
X155919047Y-89985714D01*
X155728571Y-89985714D01*
X155633333Y-90033333D01*
X155061904Y-90652380D02*
X155157142Y-90604761D01*
X155204761Y-90557142D01*
X155252380Y-90461904D01*
X155252380Y-90176190D01*
X155204761Y-90080952D01*
X155157142Y-90033333D01*
X155061904Y-89985714D01*
X154919047Y-89985714D01*
X154823809Y-90033333D01*
X154776190Y-90080952D01*
X154728571Y-90176190D01*
X154728571Y-90461904D01*
X154776190Y-90557142D01*
X154823809Y-90604761D01*
X154919047Y-90652380D01*
X155061904Y-90652380D01*
X154300000Y-90652380D02*
X154300000Y-89985714D01*
X154300000Y-90080952D02*
X154252380Y-90033333D01*
X154157142Y-89985714D01*
X154014285Y-89985714D01*
X153919047Y-90033333D01*
X153871428Y-90128571D01*
X153871428Y-90652380D01*
X153871428Y-90128571D02*
X153823809Y-90033333D01*
X153728571Y-89985714D01*
X153585714Y-89985714D01*
X153490476Y-90033333D01*
X153442857Y-90128571D01*
X153442857Y-90652380D01*
X165861904Y-98600000D02*
X165957142Y-98552380D01*
X166100000Y-98552380D01*
X166242857Y-98600000D01*
X166338095Y-98695238D01*
X166385714Y-98790476D01*
X166433333Y-98980952D01*
X166433333Y-99123809D01*
X166385714Y-99314285D01*
X166338095Y-99409523D01*
X166242857Y-99504761D01*
X166100000Y-99552380D01*
X166004761Y-99552380D01*
X165861904Y-99504761D01*
X165814285Y-99457142D01*
X165814285Y-99123809D01*
X166004761Y-99123809D01*
X165385714Y-99552380D02*
X165385714Y-98552380D01*
X164814285Y-99552380D01*
X164814285Y-98552380D01*
X164338095Y-99552380D02*
X164338095Y-98552380D01*
X164100000Y-98552380D01*
X163957142Y-98600000D01*
X163861904Y-98695238D01*
X163814285Y-98790476D01*
X163766666Y-98980952D01*
X163766666Y-99123809D01*
X163814285Y-99314285D01*
X163861904Y-99409523D01*
X163957142Y-99504761D01*
X164100000Y-99552380D01*
X164338095Y-99552380D01*
X153471428Y-106352380D02*
X153471428Y-105352380D01*
X153233333Y-105352380D01*
X153090476Y-105400000D01*
X152995238Y-105495238D01*
X152947619Y-105590476D01*
X152900000Y-105780952D01*
X152900000Y-105923809D01*
X152947619Y-106114285D01*
X152995238Y-106209523D01*
X153090476Y-106304761D01*
X153233333Y-106352380D01*
X153471428Y-106352380D01*
X151900000Y-106257142D02*
X151947619Y-106304761D01*
X152090476Y-106352380D01*
X152185714Y-106352380D01*
X152328571Y-106304761D01*
X152423809Y-106209523D01*
X152471428Y-106114285D01*
X152519047Y-105923809D01*
X152519047Y-105780952D01*
X152471428Y-105590476D01*
X152423809Y-105495238D01*
X152328571Y-105400000D01*
X152185714Y-105352380D01*
X152090476Y-105352380D01*
X151947619Y-105400000D01*
X151900000Y-105447619D01*
X151471428Y-106352380D02*
X151471428Y-105352380D01*
X151233333Y-105352380D01*
X151090476Y-105400000D01*
X150995238Y-105495238D01*
X150947619Y-105590476D01*
X150900000Y-105780952D01*
X150900000Y-105923809D01*
X150947619Y-106114285D01*
X150995238Y-106209523D01*
X151090476Y-106304761D01*
X151233333Y-106352380D01*
X151471428Y-106352380D01*
X149900000Y-106257142D02*
X149947619Y-106304761D01*
X150090476Y-106352380D01*
X150185714Y-106352380D01*
X150328571Y-106304761D01*
X150423809Y-106209523D01*
X150471428Y-106114285D01*
X150519047Y-105923809D01*
X150519047Y-105780952D01*
X150471428Y-105590476D01*
X150423809Y-105495238D01*
X150328571Y-105400000D01*
X150185714Y-105352380D01*
X150090476Y-105352380D01*
X149947619Y-105400000D01*
X149900000Y-105447619D01*
X149709523Y-106447619D02*
X148947619Y-106447619D01*
X148519047Y-105352380D02*
X148328571Y-105352380D01*
X148233333Y-105400000D01*
X148138095Y-105495238D01*
X148090476Y-105685714D01*
X148090476Y-106019047D01*
X148138095Y-106209523D01*
X148233333Y-106304761D01*
X148328571Y-106352380D01*
X148519047Y-106352380D01*
X148614285Y-106304761D01*
X148709523Y-106209523D01*
X148757142Y-106019047D01*
X148757142Y-105685714D01*
X148709523Y-105495238D01*
X148614285Y-105400000D01*
X148519047Y-105352380D01*
X147661904Y-105352380D02*
X147661904Y-106161904D01*
X147614285Y-106257142D01*
X147566666Y-106304761D01*
X147471428Y-106352380D01*
X147280952Y-106352380D01*
X147185714Y-106304761D01*
X147138095Y-106257142D01*
X147090476Y-106161904D01*
X147090476Y-105352380D01*
X146757142Y-105352380D02*
X146185714Y-105352380D01*
X146471428Y-106352380D02*
X146471428Y-105352380D01*
X129957142Y-101504761D02*
X129814285Y-101552380D01*
X129576190Y-101552380D01*
X129480952Y-101504761D01*
X129433333Y-101457142D01*
X129385714Y-101361904D01*
X129385714Y-101266666D01*
X129433333Y-101171428D01*
X129480952Y-101123809D01*
X129576190Y-101076190D01*
X129766666Y-101028571D01*
X129861904Y-100980952D01*
X129909523Y-100933333D01*
X129957142Y-100838095D01*
X129957142Y-100742857D01*
X129909523Y-100647619D01*
X129861904Y-100600000D01*
X129766666Y-100552380D01*
X129528571Y-100552380D01*
X129385714Y-100600000D01*
X129052380Y-100552380D02*
X128814285Y-101552380D01*
X128623809Y-100838095D01*
X128433333Y-101552380D01*
X128195238Y-100552380D01*
X112004761Y-92152380D02*
X112004761Y-91152380D01*
X111766666Y-91152380D01*
X111623809Y-91200000D01*
X111528571Y-91295238D01*
X111480952Y-91390476D01*
X111433333Y-91580952D01*
X111433333Y-91723809D01*
X111480952Y-91914285D01*
X111528571Y-92009523D01*
X111623809Y-92104761D01*
X111766666Y-92152380D01*
X112004761Y-92152380D01*
X110433333Y-92057142D02*
X110480952Y-92104761D01*
X110623809Y-92152380D01*
X110719047Y-92152380D01*
X110861904Y-92104761D01*
X110957142Y-92009523D01*
X111004761Y-91914285D01*
X111052380Y-91723809D01*
X111052380Y-91580952D01*
X111004761Y-91390476D01*
X110957142Y-91295238D01*
X110861904Y-91200000D01*
X110719047Y-91152380D01*
X110623809Y-91152380D01*
X110480952Y-91200000D01*
X110433333Y-91247619D01*
X110004761Y-92152380D02*
X110004761Y-91152380D01*
X109766666Y-91152380D01*
X109623809Y-91200000D01*
X109528571Y-91295238D01*
X109480952Y-91390476D01*
X109433333Y-91580952D01*
X109433333Y-91723809D01*
X109480952Y-91914285D01*
X109528571Y-92009523D01*
X109623809Y-92104761D01*
X109766666Y-92152380D01*
X110004761Y-92152380D01*
X108433333Y-92057142D02*
X108480952Y-92104761D01*
X108623809Y-92152380D01*
X108719047Y-92152380D01*
X108861904Y-92104761D01*
X108957142Y-92009523D01*
X109004761Y-91914285D01*
X109052380Y-91723809D01*
X109052380Y-91580952D01*
X109004761Y-91390476D01*
X108957142Y-91295238D01*
X108861904Y-91200000D01*
X108719047Y-91152380D01*
X108623809Y-91152380D01*
X108480952Y-91200000D01*
X108433333Y-91247619D01*
X108242857Y-92247619D02*
X107480952Y-92247619D01*
X107242857Y-92152380D02*
X107242857Y-91152380D01*
X106766666Y-92152380D02*
X106766666Y-91152380D01*
X106195238Y-92152380D01*
X106195238Y-91152380D01*
X121061904Y-115800000D02*
X121157142Y-115752380D01*
X121300000Y-115752380D01*
X121442857Y-115800000D01*
X121538095Y-115895238D01*
X121585714Y-115990476D01*
X121633333Y-116180952D01*
X121633333Y-116323809D01*
X121585714Y-116514285D01*
X121538095Y-116609523D01*
X121442857Y-116704761D01*
X121300000Y-116752380D01*
X121204761Y-116752380D01*
X121061904Y-116704761D01*
X121014285Y-116657142D01*
X121014285Y-116323809D01*
X121204761Y-116323809D01*
X120585714Y-116752380D02*
X120585714Y-115752380D01*
X120014285Y-116752380D01*
X120014285Y-115752380D01*
X119538095Y-116752380D02*
X119538095Y-115752380D01*
X119300000Y-115752380D01*
X119157142Y-115800000D01*
X119061904Y-115895238D01*
X119014285Y-115990476D01*
X118966666Y-116180952D01*
X118966666Y-116323809D01*
X119014285Y-116514285D01*
X119061904Y-116609523D01*
X119157142Y-116704761D01*
X119300000Y-116752380D01*
X119538095Y-116752380D01*
X133952380Y-79752380D02*
X134285714Y-79276190D01*
X134523809Y-79752380D02*
X134523809Y-78752380D01*
X134142857Y-78752380D01*
X134047619Y-78800000D01*
X134000000Y-78847619D01*
X133952380Y-78942857D01*
X133952380Y-79085714D01*
X134000000Y-79180952D01*
X134047619Y-79228571D01*
X134142857Y-79276190D01*
X134523809Y-79276190D01*
X133523809Y-79228571D02*
X133190476Y-79228571D01*
X133047619Y-79752380D02*
X133523809Y-79752380D01*
X133523809Y-78752380D01*
X133047619Y-78752380D01*
X132666666Y-79704761D02*
X132523809Y-79752380D01*
X132285714Y-79752380D01*
X132190476Y-79704761D01*
X132142857Y-79657142D01*
X132095238Y-79561904D01*
X132095238Y-79466666D01*
X132142857Y-79371428D01*
X132190476Y-79323809D01*
X132285714Y-79276190D01*
X132476190Y-79228571D01*
X132571428Y-79180952D01*
X132619047Y-79133333D01*
X132666666Y-79038095D01*
X132666666Y-78942857D01*
X132619047Y-78847619D01*
X132571428Y-78800000D01*
X132476190Y-78752380D01*
X132238095Y-78752380D01*
X132095238Y-78800000D01*
X131666666Y-79228571D02*
X131333333Y-79228571D01*
X131190476Y-79752380D02*
X131666666Y-79752380D01*
X131666666Y-78752380D01*
X131190476Y-78752380D01*
X130904761Y-78752380D02*
X130333333Y-78752380D01*
X130619047Y-79752380D02*
X130619047Y-78752380D01*
X148361904Y-80252380D02*
X148361904Y-81061904D01*
X148314285Y-81157142D01*
X148266666Y-81204761D01*
X148171428Y-81252380D01*
X147980952Y-81252380D01*
X147885714Y-81204761D01*
X147838095Y-81157142D01*
X147790476Y-81061904D01*
X147790476Y-80252380D01*
X147361904Y-81204761D02*
X147219047Y-81252380D01*
X146980952Y-81252380D01*
X146885714Y-81204761D01*
X146838095Y-81157142D01*
X146790476Y-81061904D01*
X146790476Y-80966666D01*
X146838095Y-80871428D01*
X146885714Y-80823809D01*
X146980952Y-80776190D01*
X147171428Y-80728571D01*
X147266666Y-80680952D01*
X147314285Y-80633333D01*
X147361904Y-80538095D01*
X147361904Y-80442857D01*
X147314285Y-80347619D01*
X147266666Y-80300000D01*
X147171428Y-80252380D01*
X146933333Y-80252380D01*
X146790476Y-80300000D01*
X146028571Y-80728571D02*
X145885714Y-80776190D01*
X145838095Y-80823809D01*
X145790476Y-80919047D01*
X145790476Y-81061904D01*
X145838095Y-81157142D01*
X145885714Y-81204761D01*
X145980952Y-81252380D01*
X146361904Y-81252380D01*
X146361904Y-80252380D01*
X146028571Y-80252380D01*
X145933333Y-80300000D01*
X145885714Y-80347619D01*
X145838095Y-80442857D01*
X145838095Y-80538095D01*
X145885714Y-80633333D01*
X145933333Y-80680952D01*
X146028571Y-80728571D01*
X146361904Y-80728571D01*
D11*
X203275000Y-108790000D02*
X193115000Y-108790000D01*
X203275000Y-106250000D02*
X193115000Y-106250000D01*
X203275000Y-103710000D02*
X193115000Y-103710000D01*
X203275000Y-101170000D02*
X193115000Y-101170000D01*
X198195000Y-98630000D02*
X198195000Y-111330000D01*
X203275000Y-111330000D02*
X203275000Y-98630000D01*
X193115000Y-111330000D02*
X203275000Y-111330000D01*
X193115000Y-98630000D02*
X193115000Y-111330000D01*
X203275000Y-98630000D02*
X193115000Y-98630000D01*
D10*
X197226428Y-107972380D02*
X197226428Y-106972380D01*
X196893095Y-107686666D01*
X196559761Y-106972380D01*
X196559761Y-107972380D01*
X196083571Y-107972380D02*
X196083571Y-106972380D01*
X195655000Y-107924761D02*
X195512142Y-107972380D01*
X195274047Y-107972380D01*
X195178809Y-107924761D01*
X195131190Y-107877142D01*
X195083571Y-107781904D01*
X195083571Y-107686666D01*
X195131190Y-107591428D01*
X195178809Y-107543809D01*
X195274047Y-107496190D01*
X195464523Y-107448571D01*
X195559761Y-107400952D01*
X195607380Y-107353333D01*
X195655000Y-107258095D01*
X195655000Y-107162857D01*
X195607380Y-107067619D01*
X195559761Y-107020000D01*
X195464523Y-106972380D01*
X195226428Y-106972380D01*
X195083571Y-107020000D01*
X194464523Y-106972380D02*
X194274047Y-106972380D01*
X194178809Y-107020000D01*
X194083571Y-107115238D01*
X194035952Y-107305714D01*
X194035952Y-107639047D01*
X194083571Y-107829523D01*
X194178809Y-107924761D01*
X194274047Y-107972380D01*
X194464523Y-107972380D01*
X194559761Y-107924761D01*
X194655000Y-107829523D01*
X194702619Y-107639047D01*
X194702619Y-107305714D01*
X194655000Y-107115238D01*
X194559761Y-107020000D01*
X194464523Y-106972380D01*
X196940714Y-110464761D02*
X196797857Y-110512380D01*
X196559761Y-110512380D01*
X196464523Y-110464761D01*
X196416904Y-110417142D01*
X196369285Y-110321904D01*
X196369285Y-110226666D01*
X196416904Y-110131428D01*
X196464523Y-110083809D01*
X196559761Y-110036190D01*
X196750238Y-109988571D01*
X196845476Y-109940952D01*
X196893095Y-109893333D01*
X196940714Y-109798095D01*
X196940714Y-109702857D01*
X196893095Y-109607619D01*
X196845476Y-109560000D01*
X196750238Y-109512380D01*
X196512142Y-109512380D01*
X196369285Y-109560000D01*
X195369285Y-110417142D02*
X195416904Y-110464761D01*
X195559761Y-110512380D01*
X195655000Y-110512380D01*
X195797857Y-110464761D01*
X195893095Y-110369523D01*
X195940714Y-110274285D01*
X195988333Y-110083809D01*
X195988333Y-109940952D01*
X195940714Y-109750476D01*
X195893095Y-109655238D01*
X195797857Y-109560000D01*
X195655000Y-109512380D01*
X195559761Y-109512380D01*
X195416904Y-109560000D01*
X195369285Y-109607619D01*
X194940714Y-110512380D02*
X194940714Y-109512380D01*
X194369285Y-110512380D02*
X194797857Y-109940952D01*
X194369285Y-109512380D02*
X194940714Y-110083809D01*
X202354047Y-110464761D02*
X202211190Y-110512380D01*
X201973095Y-110512380D01*
X201877857Y-110464761D01*
X201830238Y-110417142D01*
X201782619Y-110321904D01*
X201782619Y-110226666D01*
X201830238Y-110131428D01*
X201877857Y-110083809D01*
X201973095Y-110036190D01*
X202163571Y-109988571D01*
X202258809Y-109940952D01*
X202306428Y-109893333D01*
X202354047Y-109798095D01*
X202354047Y-109702857D01*
X202306428Y-109607619D01*
X202258809Y-109560000D01*
X202163571Y-109512380D01*
X201925476Y-109512380D01*
X201782619Y-109560000D01*
X201401666Y-110464761D02*
X201258809Y-110512380D01*
X201020714Y-110512380D01*
X200925476Y-110464761D01*
X200877857Y-110417142D01*
X200830238Y-110321904D01*
X200830238Y-110226666D01*
X200877857Y-110131428D01*
X200925476Y-110083809D01*
X201020714Y-110036190D01*
X201211190Y-109988571D01*
X201306428Y-109940952D01*
X201354047Y-109893333D01*
X201401666Y-109798095D01*
X201401666Y-109702857D01*
X201354047Y-109607619D01*
X201306428Y-109560000D01*
X201211190Y-109512380D01*
X200973095Y-109512380D01*
X200830238Y-109560000D01*
X200401666Y-109988571D02*
X200068333Y-109988571D01*
X199925476Y-110512380D02*
X200401666Y-110512380D01*
X200401666Y-109512380D01*
X199925476Y-109512380D01*
X199020714Y-110512380D02*
X199496904Y-110512380D01*
X199496904Y-109512380D01*
X202306428Y-107972380D02*
X202306428Y-106972380D01*
X201973095Y-107686666D01*
X201639761Y-106972380D01*
X201639761Y-107972380D01*
X200973095Y-106972380D02*
X200782619Y-106972380D01*
X200687380Y-107020000D01*
X200592142Y-107115238D01*
X200544523Y-107305714D01*
X200544523Y-107639047D01*
X200592142Y-107829523D01*
X200687380Y-107924761D01*
X200782619Y-107972380D01*
X200973095Y-107972380D01*
X201068333Y-107924761D01*
X201163571Y-107829523D01*
X201211190Y-107639047D01*
X201211190Y-107305714D01*
X201163571Y-107115238D01*
X201068333Y-107020000D01*
X200973095Y-106972380D01*
X200163571Y-107924761D02*
X200020714Y-107972380D01*
X199782619Y-107972380D01*
X199687380Y-107924761D01*
X199639761Y-107877142D01*
X199592142Y-107781904D01*
X199592142Y-107686666D01*
X199639761Y-107591428D01*
X199687380Y-107543809D01*
X199782619Y-107496190D01*
X199973095Y-107448571D01*
X200068333Y-107400952D01*
X200115952Y-107353333D01*
X200163571Y-107258095D01*
X200163571Y-107162857D01*
X200115952Y-107067619D01*
X200068333Y-107020000D01*
X199973095Y-106972380D01*
X199735000Y-106972380D01*
X199592142Y-107020000D01*
X199163571Y-107972380D02*
X199163571Y-106972380D01*
X196845476Y-105384761D02*
X196702619Y-105432380D01*
X196464523Y-105432380D01*
X196369285Y-105384761D01*
X196321666Y-105337142D01*
X196274047Y-105241904D01*
X196274047Y-105146666D01*
X196321666Y-105051428D01*
X196369285Y-105003809D01*
X196464523Y-104956190D01*
X196655000Y-104908571D01*
X196750238Y-104860952D01*
X196797857Y-104813333D01*
X196845476Y-104718095D01*
X196845476Y-104622857D01*
X196797857Y-104527619D01*
X196750238Y-104480000D01*
X196655000Y-104432380D01*
X196416904Y-104432380D01*
X196274047Y-104480000D01*
X195274047Y-105337142D02*
X195321666Y-105384761D01*
X195464523Y-105432380D01*
X195559761Y-105432380D01*
X195702619Y-105384761D01*
X195797857Y-105289523D01*
X195845476Y-105194285D01*
X195893095Y-105003809D01*
X195893095Y-104860952D01*
X195845476Y-104670476D01*
X195797857Y-104575238D01*
X195702619Y-104480000D01*
X195559761Y-104432380D01*
X195464523Y-104432380D01*
X195321666Y-104480000D01*
X195274047Y-104527619D01*
X194369285Y-105432380D02*
X194845476Y-105432380D01*
X194845476Y-104432380D01*
X201949285Y-105384761D02*
X201806428Y-105432380D01*
X201568333Y-105432380D01*
X201473095Y-105384761D01*
X201425476Y-105337142D01*
X201377857Y-105241904D01*
X201377857Y-105146666D01*
X201425476Y-105051428D01*
X201473095Y-105003809D01*
X201568333Y-104956190D01*
X201758809Y-104908571D01*
X201854047Y-104860952D01*
X201901666Y-104813333D01*
X201949285Y-104718095D01*
X201949285Y-104622857D01*
X201901666Y-104527619D01*
X201854047Y-104480000D01*
X201758809Y-104432380D01*
X201520714Y-104432380D01*
X201377857Y-104480000D01*
X200949285Y-105432380D02*
X200949285Y-104432380D01*
X200711190Y-104432380D01*
X200568333Y-104480000D01*
X200473095Y-104575238D01*
X200425476Y-104670476D01*
X200377857Y-104860952D01*
X200377857Y-105003809D01*
X200425476Y-105194285D01*
X200473095Y-105289523D01*
X200568333Y-105384761D01*
X200711190Y-105432380D01*
X200949285Y-105432380D01*
X199996904Y-105146666D02*
X199520714Y-105146666D01*
X200092142Y-105432380D02*
X199758809Y-104432380D01*
X199425476Y-105432380D01*
X196416904Y-101892380D02*
X195845476Y-101892380D01*
X196131190Y-102892380D02*
X196131190Y-101892380D01*
X195607380Y-101892380D02*
X194940714Y-102892380D01*
X194940714Y-101892380D02*
X195607380Y-102892380D01*
X200901666Y-102892380D02*
X201235000Y-102416190D01*
X201473095Y-102892380D02*
X201473095Y-101892380D01*
X201092142Y-101892380D01*
X200996904Y-101940000D01*
X200949285Y-101987619D01*
X200901666Y-102082857D01*
X200901666Y-102225714D01*
X200949285Y-102320952D01*
X200996904Y-102368571D01*
X201092142Y-102416190D01*
X201473095Y-102416190D01*
X200568333Y-101892380D02*
X199901666Y-102892380D01*
X199901666Y-101892380D02*
X200568333Y-102892380D01*
X196893095Y-99352380D02*
X196274047Y-99352380D01*
X196607380Y-99733333D01*
X196464523Y-99733333D01*
X196369285Y-99780952D01*
X196321666Y-99828571D01*
X196274047Y-99923809D01*
X196274047Y-100161904D01*
X196321666Y-100257142D01*
X196369285Y-100304761D01*
X196464523Y-100352380D01*
X196750238Y-100352380D01*
X196845476Y-100304761D01*
X196893095Y-100257142D01*
X195988333Y-99352380D02*
X195655000Y-100352380D01*
X195321666Y-99352380D01*
X195083571Y-99352380D02*
X194464523Y-99352380D01*
X194797857Y-99733333D01*
X194655000Y-99733333D01*
X194559761Y-99780952D01*
X194512142Y-99828571D01*
X194464523Y-99923809D01*
X194464523Y-100161904D01*
X194512142Y-100257142D01*
X194559761Y-100304761D01*
X194655000Y-100352380D01*
X194940714Y-100352380D01*
X195035952Y-100304761D01*
X195083571Y-100257142D01*
X201496904Y-99400000D02*
X201592142Y-99352380D01*
X201735000Y-99352380D01*
X201877857Y-99400000D01*
X201973095Y-99495238D01*
X202020714Y-99590476D01*
X202068333Y-99780952D01*
X202068333Y-99923809D01*
X202020714Y-100114285D01*
X201973095Y-100209523D01*
X201877857Y-100304761D01*
X201735000Y-100352380D01*
X201639761Y-100352380D01*
X201496904Y-100304761D01*
X201449285Y-100257142D01*
X201449285Y-99923809D01*
X201639761Y-99923809D01*
X201020714Y-100352380D02*
X201020714Y-99352380D01*
X200449285Y-100352380D01*
X200449285Y-99352380D01*
X199973095Y-100352380D02*
X199973095Y-99352380D01*
X199735000Y-99352380D01*
X199592142Y-99400000D01*
X199496904Y-99495238D01*
X199449285Y-99590476D01*
X199401666Y-99780952D01*
X199401666Y-99923809D01*
X199449285Y-100114285D01*
X199496904Y-100209523D01*
X199592142Y-100304761D01*
X199735000Y-100352380D01*
X199973095Y-100352380D01*
X202728571Y-78927380D02*
X202157142Y-78927380D01*
X202442857Y-79927380D02*
X202442857Y-78927380D01*
X201442857Y-79879761D02*
X201538095Y-79927380D01*
X201728571Y-79927380D01*
X201823809Y-79879761D01*
X201871428Y-79784523D01*
X201871428Y-79403571D01*
X201823809Y-79308333D01*
X201728571Y-79260714D01*
X201538095Y-79260714D01*
X201442857Y-79308333D01*
X201395238Y-79403571D01*
X201395238Y-79498809D01*
X201871428Y-79594047D01*
X200966666Y-79927380D02*
X200966666Y-79260714D01*
X200966666Y-79451190D02*
X200919047Y-79355952D01*
X200871428Y-79308333D01*
X200776190Y-79260714D01*
X200680952Y-79260714D01*
X200347619Y-79927380D02*
X200347619Y-79260714D01*
X200347619Y-79355952D02*
X200300000Y-79308333D01*
X200204761Y-79260714D01*
X200061904Y-79260714D01*
X199966666Y-79308333D01*
X199919047Y-79403571D01*
X199919047Y-79927380D01*
X199919047Y-79403571D02*
X199871428Y-79308333D01*
X199776190Y-79260714D01*
X199633333Y-79260714D01*
X199538095Y-79308333D01*
X199490476Y-79403571D01*
X199490476Y-79927380D01*
X199014285Y-79832142D02*
X198966666Y-79879761D01*
X199014285Y-79927380D01*
X199061904Y-79879761D01*
X199014285Y-79832142D01*
X199014285Y-79927380D01*
X201966666Y-81577380D02*
X202538095Y-81577380D01*
X202252380Y-81577380D02*
X202252380Y-80577380D01*
X202347619Y-80720238D01*
X202442857Y-80815476D01*
X202538095Y-80863095D01*
X201585714Y-80672619D02*
X201538095Y-80625000D01*
X201442857Y-80577380D01*
X201204761Y-80577380D01*
X201109523Y-80625000D01*
X201061904Y-80672619D01*
X201014285Y-80767857D01*
X201014285Y-80863095D01*
X201061904Y-81005952D01*
X201633333Y-81577380D01*
X201014285Y-81577380D01*
X200395238Y-80577380D02*
X200300000Y-80577380D01*
X200204761Y-80625000D01*
X200157142Y-80672619D01*
X200109523Y-80767857D01*
X200061904Y-80958333D01*
X200061904Y-81196428D01*
X200109523Y-81386904D01*
X200157142Y-81482142D01*
X200204761Y-81529761D01*
X200300000Y-81577380D01*
X200395238Y-81577380D01*
X200490476Y-81529761D01*
X200538095Y-81482142D01*
X200585714Y-81386904D01*
X200633333Y-81196428D01*
X200633333Y-80958333D01*
X200585714Y-80767857D01*
X200538095Y-80672619D01*
X200490476Y-80625000D01*
X200395238Y-80577380D01*
X199061904Y-81577380D02*
X199395238Y-81101190D01*
X199633333Y-81577380D02*
X199633333Y-80577380D01*
X199252380Y-80577380D01*
X199157142Y-80625000D01*
X199109523Y-80672619D01*
X199061904Y-80767857D01*
X199061904Y-80910714D01*
X199109523Y-81005952D01*
X199157142Y-81053571D01*
X199252380Y-81101190D01*
X199633333Y-81101190D01*
X201615000Y-116425625D02*
X201615000Y-115602500D01*
X200247619Y-115792976D02*
X200723809Y-116126309D01*
X200247619Y-116364404D02*
X201247619Y-116364404D01*
X201247619Y-115983452D01*
X201200000Y-115888214D01*
X201152380Y-115840595D01*
X201057142Y-115792976D01*
X200914285Y-115792976D01*
X200819047Y-115840595D01*
X200771428Y-115888214D01*
X200723809Y-115983452D01*
X200723809Y-116364404D01*
X201615000Y-115602500D02*
X201615000Y-114697738D01*
X200771428Y-115364404D02*
X200771428Y-115031071D01*
X200247619Y-114888214D02*
X200247619Y-115364404D01*
X201247619Y-115364404D01*
X201247619Y-114888214D01*
X201615000Y-114697738D02*
X201615000Y-113745357D01*
X200295238Y-114507261D02*
X200247619Y-114364404D01*
X200247619Y-114126309D01*
X200295238Y-114031071D01*
X200342857Y-113983452D01*
X200438095Y-113935833D01*
X200533333Y-113935833D01*
X200628571Y-113983452D01*
X200676190Y-114031071D01*
X200723809Y-114126309D01*
X200771428Y-114316785D01*
X200819047Y-114412023D01*
X200866666Y-114459642D01*
X200961904Y-114507261D01*
X201057142Y-114507261D01*
X201152380Y-114459642D01*
X201200000Y-114412023D01*
X201247619Y-114316785D01*
X201247619Y-114078690D01*
X201200000Y-113935833D01*
X201615000Y-113745357D02*
X201615000Y-112840595D01*
X200771428Y-113507261D02*
X200771428Y-113173928D01*
X200247619Y-113031071D02*
X200247619Y-113507261D01*
X201247619Y-113507261D01*
X201247619Y-113031071D01*
X201615000Y-112840595D02*
X201615000Y-112078690D01*
X201247619Y-112745357D02*
X201247619Y-112173928D01*
X200247619Y-112459642D02*
X201247619Y-112459642D01*
X202895238Y-116412023D02*
X202847619Y-116269166D01*
X202847619Y-116031071D01*
X202895238Y-115935833D01*
X202942857Y-115888214D01*
X203038095Y-115840595D01*
X203133333Y-115840595D01*
X203228571Y-115888214D01*
X203276190Y-115935833D01*
X203323809Y-116031071D01*
X203371428Y-116221547D01*
X203419047Y-116316785D01*
X203466666Y-116364404D01*
X203561904Y-116412023D01*
X203657142Y-116412023D01*
X203752380Y-116364404D01*
X203800000Y-116316785D01*
X203847619Y-116221547D01*
X203847619Y-115983452D01*
X203800000Y-115840595D01*
X203847619Y-115507261D02*
X202847619Y-115269166D01*
X203561904Y-115078690D01*
X202847619Y-114888214D01*
X203847619Y-114650119D01*
X202847619Y-114269166D02*
X203847619Y-114269166D01*
X203847619Y-114031071D01*
X203800000Y-113888214D01*
X203704761Y-113792976D01*
X203609523Y-113745357D01*
X203419047Y-113697738D01*
X203276190Y-113697738D01*
X203085714Y-113745357D01*
X202990476Y-113792976D01*
X202895238Y-113888214D01*
X202847619Y-114031071D01*
X202847619Y-114269166D01*
X202847619Y-113269166D02*
X203847619Y-113269166D01*
X203847619Y-112602500D02*
X203847619Y-112412023D01*
X203800000Y-112316785D01*
X203704761Y-112221547D01*
X203514285Y-112173928D01*
X203180952Y-112173928D01*
X202990476Y-112221547D01*
X202895238Y-112316785D01*
X202847619Y-112412023D01*
X202847619Y-112602500D01*
X202895238Y-112697738D01*
X202990476Y-112792976D01*
X203180952Y-112840595D01*
X203514285Y-112840595D01*
X203704761Y-112792976D01*
X203800000Y-112697738D01*
X203847619Y-112602500D01*
X206300000Y-115840595D02*
X206347619Y-115935833D01*
X206347619Y-116078690D01*
X206300000Y-116221547D01*
X206204761Y-116316785D01*
X206109523Y-116364404D01*
X205919047Y-116412023D01*
X205776190Y-116412023D01*
X205585714Y-116364404D01*
X205490476Y-116316785D01*
X205395238Y-116221547D01*
X205347619Y-116078690D01*
X205347619Y-115983452D01*
X205395238Y-115840595D01*
X205442857Y-115792976D01*
X205776190Y-115792976D01*
X205776190Y-115983452D01*
X205347619Y-115364404D02*
X206347619Y-115364404D01*
X205347619Y-114792976D01*
X206347619Y-114792976D01*
X205347619Y-114316785D02*
X206347619Y-114316785D01*
X206347619Y-114078690D01*
X206300000Y-113935833D01*
X206204761Y-113840595D01*
X206109523Y-113792976D01*
X205919047Y-113745357D01*
X205776190Y-113745357D01*
X205585714Y-113792976D01*
X205490476Y-113840595D01*
X205395238Y-113935833D01*
X205347619Y-114078690D01*
X205347619Y-114316785D01*
X211347619Y-116459642D02*
X211347619Y-115840595D01*
X210966666Y-116173928D01*
X210966666Y-116031071D01*
X210919047Y-115935833D01*
X210871428Y-115888214D01*
X210776190Y-115840595D01*
X210538095Y-115840595D01*
X210442857Y-115888214D01*
X210395238Y-115935833D01*
X210347619Y-116031071D01*
X210347619Y-116316785D01*
X210395238Y-116412023D01*
X210442857Y-116459642D01*
X211347619Y-115554880D02*
X210347619Y-115221547D01*
X211347619Y-114888214D01*
X211347619Y-114650119D02*
X211347619Y-114031071D01*
X210966666Y-114364404D01*
X210966666Y-114221547D01*
X210919047Y-114126309D01*
X210871428Y-114078690D01*
X210776190Y-114031071D01*
X210538095Y-114031071D01*
X210442857Y-114078690D01*
X210395238Y-114126309D01*
X210347619Y-114221547D01*
X210347619Y-114507261D01*
X210395238Y-114602500D01*
X210442857Y-114650119D01*
X207895238Y-116412023D02*
X207847619Y-116269166D01*
X207847619Y-116031071D01*
X207895238Y-115935833D01*
X207942857Y-115888214D01*
X208038095Y-115840595D01*
X208133333Y-115840595D01*
X208228571Y-115888214D01*
X208276190Y-115935833D01*
X208323809Y-116031071D01*
X208371428Y-116221547D01*
X208419047Y-116316785D01*
X208466666Y-116364404D01*
X208561904Y-116412023D01*
X208657142Y-116412023D01*
X208752380Y-116364404D01*
X208800000Y-116316785D01*
X208847619Y-116221547D01*
X208847619Y-115983452D01*
X208800000Y-115840595D01*
X208847619Y-115507261D02*
X207847619Y-115269166D01*
X208561904Y-115078690D01*
X207847619Y-114888214D01*
X208847619Y-114650119D01*
X207942857Y-113697738D02*
X207895238Y-113745357D01*
X207847619Y-113888214D01*
X207847619Y-113983452D01*
X207895238Y-114126309D01*
X207990476Y-114221547D01*
X208085714Y-114269166D01*
X208276190Y-114316785D01*
X208419047Y-114316785D01*
X208609523Y-114269166D01*
X208704761Y-114221547D01*
X208800000Y-114126309D01*
X208847619Y-113983452D01*
X208847619Y-113888214D01*
X208800000Y-113745357D01*
X208752380Y-113697738D01*
X207847619Y-112792976D02*
X207847619Y-113269166D01*
X208847619Y-113269166D01*
X207847619Y-112459642D02*
X208847619Y-112459642D01*
X207847619Y-111888214D02*
X208419047Y-112316785D01*
X208847619Y-111888214D02*
X208276190Y-112459642D01*
X189247619Y-130790476D02*
X189247619Y-131266666D01*
X188771428Y-131314285D01*
X188819047Y-131266666D01*
X188866666Y-131171428D01*
X188866666Y-130933333D01*
X188819047Y-130838095D01*
X188771428Y-130790476D01*
X188676190Y-130742857D01*
X188438095Y-130742857D01*
X188342857Y-130790476D01*
X188295238Y-130838095D01*
X188247619Y-130933333D01*
X188247619Y-131171428D01*
X188295238Y-131266666D01*
X188342857Y-131314285D01*
X189247619Y-130457142D02*
X188247619Y-130123809D01*
X189247619Y-129790476D01*
X185500000Y-130861904D02*
X185547619Y-130957142D01*
X185547619Y-131100000D01*
X185500000Y-131242857D01*
X185404761Y-131338095D01*
X185309523Y-131385714D01*
X185119047Y-131433333D01*
X184976190Y-131433333D01*
X184785714Y-131385714D01*
X184690476Y-131338095D01*
X184595238Y-131242857D01*
X184547619Y-131100000D01*
X184547619Y-131004761D01*
X184595238Y-130861904D01*
X184642857Y-130814285D01*
X184976190Y-130814285D01*
X184976190Y-131004761D01*
X184547619Y-130385714D02*
X185547619Y-130385714D01*
X184547619Y-129814285D01*
X185547619Y-129814285D01*
X184547619Y-129338095D02*
X185547619Y-129338095D01*
X185547619Y-129100000D01*
X185500000Y-128957142D01*
X185404761Y-128861904D01*
X185309523Y-128814285D01*
X185119047Y-128766666D01*
X184976190Y-128766666D01*
X184785714Y-128814285D01*
X184690476Y-128861904D01*
X184595238Y-128957142D01*
X184547619Y-129100000D01*
X184547619Y-129338095D01*
D12*
X132471428Y-134707142D02*
X131328571Y-134707142D01*
X131900000Y-135278571D02*
X131900000Y-134135714D01*
X129542857Y-135207142D02*
X129328571Y-135278571D01*
X128971428Y-135278571D01*
X128828571Y-135207142D01*
X128757142Y-135135714D01*
X128685714Y-134992857D01*
X128685714Y-134850000D01*
X128757142Y-134707142D01*
X128828571Y-134635714D01*
X128971428Y-134564285D01*
X129257142Y-134492857D01*
X129400000Y-134421428D01*
X129471428Y-134350000D01*
X129542857Y-134207142D01*
X129542857Y-134064285D01*
X129471428Y-133921428D01*
X129400000Y-133850000D01*
X129257142Y-133778571D01*
X128900000Y-133778571D01*
X128685714Y-133850000D01*
X127828571Y-135278571D02*
X127971428Y-135207142D01*
X128042857Y-135135714D01*
X128114285Y-134992857D01*
X128114285Y-134564285D01*
X128042857Y-134421428D01*
X127971428Y-134350000D01*
X127828571Y-134278571D01*
X127614285Y-134278571D01*
X127471428Y-134350000D01*
X127400000Y-134421428D01*
X127328571Y-134564285D01*
X127328571Y-134992857D01*
X127400000Y-135135714D01*
X127471428Y-135207142D01*
X127614285Y-135278571D01*
X127828571Y-135278571D01*
X126471428Y-135278571D02*
X126614285Y-135207142D01*
X126685714Y-135064285D01*
X126685714Y-133778571D01*
X125257142Y-135278571D02*
X125257142Y-134492857D01*
X125328571Y-134350000D01*
X125471428Y-134278571D01*
X125757142Y-134278571D01*
X125900000Y-134350000D01*
X125257142Y-135207142D02*
X125400000Y-135278571D01*
X125757142Y-135278571D01*
X125900000Y-135207142D01*
X125971428Y-135064285D01*
X125971428Y-134921428D01*
X125900000Y-134778571D01*
X125757142Y-134707142D01*
X125400000Y-134707142D01*
X125257142Y-134635714D01*
X124542857Y-135278571D02*
X124542857Y-134278571D01*
X124542857Y-134564285D02*
X124471428Y-134421428D01*
X124400000Y-134350000D01*
X124257142Y-134278571D01*
X124114285Y-134278571D01*
X122471428Y-134707142D02*
X121328571Y-134707142D01*
D10*
X201461904Y-123352380D02*
X200890476Y-123352380D01*
X201176190Y-124352380D02*
X201176190Y-123352380D01*
X200652380Y-123352380D02*
X199985714Y-124352380D01*
X199985714Y-123352380D02*
X200652380Y-124352380D01*
X198266666Y-124352380D02*
X198600000Y-123876190D01*
X198838095Y-124352380D02*
X198838095Y-123352380D01*
X198457142Y-123352380D01*
X198361904Y-123400000D01*
X198314285Y-123447619D01*
X198266666Y-123542857D01*
X198266666Y-123685714D01*
X198314285Y-123780952D01*
X198361904Y-123828571D01*
X198457142Y-123876190D01*
X198838095Y-123876190D01*
X197933333Y-123352380D02*
X197266666Y-124352380D01*
X197266666Y-123352380D02*
X197933333Y-124352380D01*
X180647619Y-131466666D02*
X181647619Y-131466666D01*
X180647619Y-130895238D01*
X181647619Y-130895238D01*
X181647619Y-130561904D02*
X181647619Y-129990476D01*
X180647619Y-130276190D02*
X181647619Y-130276190D01*
X180742857Y-129085714D02*
X180695238Y-129133333D01*
X180647619Y-129276190D01*
X180647619Y-129371428D01*
X180695238Y-129514285D01*
X180790476Y-129609523D01*
X180885714Y-129657142D01*
X181076190Y-129704761D01*
X181219047Y-129704761D01*
X181409523Y-129657142D01*
X181504761Y-129609523D01*
X181600000Y-129514285D01*
X181647619Y-129371428D01*
X181647619Y-129276190D01*
X181600000Y-129133333D01*
X181552380Y-129085714D01*
D12*
X170557142Y-134707142D02*
X169414285Y-134707142D01*
X166842857Y-135278571D02*
X167557142Y-135278571D01*
X167557142Y-133778571D01*
X166128571Y-135278571D02*
X166271428Y-135207142D01*
X166342857Y-135135714D01*
X166414285Y-134992857D01*
X166414285Y-134564285D01*
X166342857Y-134421428D01*
X166271428Y-134350000D01*
X166128571Y-134278571D01*
X165914285Y-134278571D01*
X165771428Y-134350000D01*
X165700000Y-134421428D01*
X165628571Y-134564285D01*
X165628571Y-134992857D01*
X165700000Y-135135714D01*
X165771428Y-135207142D01*
X165914285Y-135278571D01*
X166128571Y-135278571D01*
X164342857Y-135278571D02*
X164342857Y-134492857D01*
X164414285Y-134350000D01*
X164557142Y-134278571D01*
X164842857Y-134278571D01*
X164985714Y-134350000D01*
X164342857Y-135207142D02*
X164485714Y-135278571D01*
X164842857Y-135278571D01*
X164985714Y-135207142D01*
X165057142Y-135064285D01*
X165057142Y-134921428D01*
X164985714Y-134778571D01*
X164842857Y-134707142D01*
X164485714Y-134707142D01*
X164342857Y-134635714D01*
X162985714Y-135278571D02*
X162985714Y-133778571D01*
X162985714Y-135207142D02*
X163128571Y-135278571D01*
X163414285Y-135278571D01*
X163557142Y-135207142D01*
X163628571Y-135135714D01*
X163700000Y-134992857D01*
X163700000Y-134564285D01*
X163628571Y-134421428D01*
X163557142Y-134350000D01*
X163414285Y-134278571D01*
X163128571Y-134278571D01*
X162985714Y-134350000D01*
X159985714Y-134707142D02*
X158842857Y-134707142D01*
X159414285Y-135278571D02*
X159414285Y-134135714D01*
X151342857Y-134607142D02*
X150200000Y-134607142D01*
X150771428Y-135178571D02*
X150771428Y-134035714D01*
X146700000Y-134392857D02*
X146485714Y-134464285D01*
X146414285Y-134535714D01*
X146342857Y-134678571D01*
X146342857Y-134892857D01*
X146414285Y-135035714D01*
X146485714Y-135107142D01*
X146628571Y-135178571D01*
X147200000Y-135178571D01*
X147200000Y-133678571D01*
X146700000Y-133678571D01*
X146557142Y-133750000D01*
X146485714Y-133821428D01*
X146414285Y-133964285D01*
X146414285Y-134107142D01*
X146485714Y-134250000D01*
X146557142Y-134321428D01*
X146700000Y-134392857D01*
X147200000Y-134392857D01*
X145057142Y-135178571D02*
X145057142Y-134392857D01*
X145128571Y-134250000D01*
X145271428Y-134178571D01*
X145557142Y-134178571D01*
X145700000Y-134250000D01*
X145057142Y-135107142D02*
X145200000Y-135178571D01*
X145557142Y-135178571D01*
X145700000Y-135107142D01*
X145771428Y-134964285D01*
X145771428Y-134821428D01*
X145700000Y-134678571D01*
X145557142Y-134607142D01*
X145200000Y-134607142D01*
X145057142Y-134535714D01*
X144557142Y-134178571D02*
X143985714Y-134178571D01*
X144342857Y-133678571D02*
X144342857Y-134964285D01*
X144271428Y-135107142D01*
X144128571Y-135178571D01*
X143985714Y-135178571D01*
X141200000Y-134607142D02*
X140057142Y-134607142D01*
D10*
X186214285Y-85857142D02*
X186261904Y-85904761D01*
X186404761Y-85952380D01*
X186500000Y-85952380D01*
X186642857Y-85904761D01*
X186738095Y-85809523D01*
X186785714Y-85714285D01*
X186833333Y-85523809D01*
X186833333Y-85380952D01*
X186785714Y-85190476D01*
X186738095Y-85095238D01*
X186642857Y-85000000D01*
X186500000Y-84952380D01*
X186404761Y-84952380D01*
X186261904Y-85000000D01*
X186214285Y-85047619D01*
X185833333Y-85666666D02*
X185357142Y-85666666D01*
X185928571Y-85952380D02*
X185595238Y-84952380D01*
X185261904Y-85952380D01*
X184928571Y-85952380D02*
X184928571Y-84952380D01*
X184357142Y-85952380D01*
X184357142Y-84952380D01*
X183119047Y-85952380D02*
X183119047Y-84952380D01*
X183119047Y-85333333D02*
X183023809Y-85285714D01*
X182833333Y-85285714D01*
X182738095Y-85333333D01*
X182690476Y-85380952D01*
X182642857Y-85476190D01*
X182642857Y-85761904D01*
X182690476Y-85857142D01*
X182738095Y-85904761D01*
X182833333Y-85952380D01*
X183023809Y-85952380D01*
X183119047Y-85904761D01*
X181785714Y-85285714D02*
X181785714Y-85952380D01*
X182214285Y-85285714D02*
X182214285Y-85809523D01*
X182166666Y-85904761D01*
X182071428Y-85952380D01*
X181928571Y-85952380D01*
X181833333Y-85904761D01*
X181785714Y-85857142D01*
X181357142Y-85904761D02*
X181261904Y-85952380D01*
X181071428Y-85952380D01*
X180976190Y-85904761D01*
X180928571Y-85809523D01*
X180928571Y-85761904D01*
X180976190Y-85666666D01*
X181071428Y-85619047D01*
X181214285Y-85619047D01*
X181309523Y-85571428D01*
X181357142Y-85476190D01*
X181357142Y-85428571D01*
X181309523Y-85333333D01*
X181214285Y-85285714D01*
X181071428Y-85285714D01*
X180976190Y-85333333D01*
X179452380Y-86333333D02*
X179500000Y-86285714D01*
X179595238Y-86142857D01*
X179642857Y-86047619D01*
X179690476Y-85904761D01*
X179738095Y-85666666D01*
X179738095Y-85476190D01*
X179690476Y-85238095D01*
X179642857Y-85095238D01*
X179595238Y-85000000D01*
X179500000Y-84857142D01*
X179452380Y-84809523D01*
X178642857Y-85952380D02*
X178642857Y-84952380D01*
X178642857Y-85904761D02*
X178738095Y-85952380D01*
X178928571Y-85952380D01*
X179023809Y-85904761D01*
X179071428Y-85857142D01*
X179119047Y-85761904D01*
X179119047Y-85476190D01*
X179071428Y-85380952D01*
X179023809Y-85333333D01*
X178928571Y-85285714D01*
X178738095Y-85285714D01*
X178642857Y-85333333D01*
X177738095Y-85952380D02*
X177738095Y-85428571D01*
X177785714Y-85333333D01*
X177880952Y-85285714D01*
X178071428Y-85285714D01*
X178166666Y-85333333D01*
X177738095Y-85904761D02*
X177833333Y-85952380D01*
X178071428Y-85952380D01*
X178166666Y-85904761D01*
X178214285Y-85809523D01*
X178214285Y-85714285D01*
X178166666Y-85619047D01*
X178071428Y-85571428D01*
X177833333Y-85571428D01*
X177738095Y-85523809D01*
X177261904Y-85952380D02*
X177261904Y-85285714D01*
X177261904Y-84952380D02*
X177309523Y-85000000D01*
X177261904Y-85047619D01*
X177214285Y-85000000D01*
X177261904Y-84952380D01*
X177261904Y-85047619D01*
X176833333Y-85904761D02*
X176738095Y-85952380D01*
X176547619Y-85952380D01*
X176452380Y-85904761D01*
X176404761Y-85809523D01*
X176404761Y-85761904D01*
X176452380Y-85666666D01*
X176547619Y-85619047D01*
X176690476Y-85619047D01*
X176785714Y-85571428D01*
X176833333Y-85476190D01*
X176833333Y-85428571D01*
X176785714Y-85333333D01*
X176690476Y-85285714D01*
X176547619Y-85285714D01*
X176452380Y-85333333D01*
X176071428Y-85285714D02*
X175833333Y-85952380D01*
X175595238Y-85285714D02*
X175833333Y-85952380D01*
X175928571Y-86190476D01*
X175976190Y-86238095D01*
X176071428Y-86285714D01*
X174023809Y-85904761D02*
X174119047Y-85952380D01*
X174309523Y-85952380D01*
X174404761Y-85904761D01*
X174452380Y-85857142D01*
X174500000Y-85761904D01*
X174500000Y-85476190D01*
X174452380Y-85380952D01*
X174404761Y-85333333D01*
X174309523Y-85285714D01*
X174119047Y-85285714D01*
X174023809Y-85333333D01*
X173595238Y-85952380D02*
X173595238Y-84952380D01*
X173166666Y-85952380D02*
X173166666Y-85428571D01*
X173214285Y-85333333D01*
X173309523Y-85285714D01*
X173452380Y-85285714D01*
X173547619Y-85333333D01*
X173595238Y-85380952D01*
X172261904Y-85952380D02*
X172261904Y-85428571D01*
X172309523Y-85333333D01*
X172404761Y-85285714D01*
X172595238Y-85285714D01*
X172690476Y-85333333D01*
X172261904Y-85904761D02*
X172357142Y-85952380D01*
X172595238Y-85952380D01*
X172690476Y-85904761D01*
X172738095Y-85809523D01*
X172738095Y-85714285D01*
X172690476Y-85619047D01*
X172595238Y-85571428D01*
X172357142Y-85571428D01*
X172261904Y-85523809D01*
X171785714Y-85952380D02*
X171785714Y-85285714D01*
X171785714Y-84952380D02*
X171833333Y-85000000D01*
X171785714Y-85047619D01*
X171738095Y-85000000D01*
X171785714Y-84952380D01*
X171785714Y-85047619D01*
X171309523Y-85285714D02*
X171309523Y-85952380D01*
X171309523Y-85380952D02*
X171261904Y-85333333D01*
X171166666Y-85285714D01*
X171023809Y-85285714D01*
X170928571Y-85333333D01*
X170880952Y-85428571D01*
X170880952Y-85952380D01*
X170500000Y-86333333D02*
X170452380Y-86285714D01*
X170357142Y-86142857D01*
X170309523Y-86047619D01*
X170261904Y-85904761D01*
X170214285Y-85666666D01*
X170214285Y-85476190D01*
X170261904Y-85238095D01*
X170309523Y-85095238D01*
X170357142Y-85000000D01*
X170452380Y-84857142D01*
X170500000Y-84809523D01*
D13*
%TO.C,LOGO?*%
G36*
X160951100Y-85050600D02*
X160900300Y-85050600D01*
X160900300Y-85025200D01*
X160951100Y-85025200D01*
X160951100Y-85050600D01*
G37*
G36*
X160925700Y-85076000D02*
X160874900Y-85076000D01*
X160874900Y-85050600D01*
X160925700Y-85050600D01*
X160925700Y-85076000D01*
G37*
G36*
X160900300Y-85101400D02*
X160824100Y-85101400D01*
X160824100Y-85076000D01*
X160900300Y-85076000D01*
X160900300Y-85101400D01*
G37*
G36*
X160874900Y-85126800D02*
X160773300Y-85126800D01*
X160773300Y-85101400D01*
X160874900Y-85101400D01*
X160874900Y-85126800D01*
G37*
G36*
X160824100Y-85152200D02*
X160722500Y-85152200D01*
X160722500Y-85126800D01*
X160824100Y-85126800D01*
X160824100Y-85152200D01*
G37*
G36*
X160798700Y-85177600D02*
X160697100Y-85177600D01*
X160697100Y-85152200D01*
X160798700Y-85152200D01*
X160798700Y-85177600D01*
G37*
G36*
X155210700Y-85203000D02*
X155185300Y-85203000D01*
X155185300Y-85177600D01*
X155210700Y-85177600D01*
X155210700Y-85203000D01*
G37*
G36*
X160773300Y-85203000D02*
X160646300Y-85203000D01*
X160646300Y-85177600D01*
X160773300Y-85177600D01*
X160773300Y-85203000D01*
G37*
G36*
X155286900Y-85228400D02*
X155210700Y-85228400D01*
X155210700Y-85203000D01*
X155286900Y-85203000D01*
X155286900Y-85228400D01*
G37*
G36*
X160747900Y-85228400D02*
X160595500Y-85228400D01*
X160595500Y-85203000D01*
X160747900Y-85203000D01*
X160747900Y-85228400D01*
G37*
G36*
X155363100Y-85253800D02*
X155261500Y-85253800D01*
X155261500Y-85228400D01*
X155363100Y-85228400D01*
X155363100Y-85253800D01*
G37*
G36*
X160722500Y-85253800D02*
X160544700Y-85253800D01*
X160544700Y-85228400D01*
X160722500Y-85228400D01*
X160722500Y-85253800D01*
G37*
G36*
X155439300Y-85279200D02*
X155312300Y-85279200D01*
X155312300Y-85253800D01*
X155439300Y-85253800D01*
X155439300Y-85279200D01*
G37*
G36*
X160671700Y-85279200D02*
X160519300Y-85279200D01*
X160519300Y-85253800D01*
X160671700Y-85253800D01*
X160671700Y-85279200D01*
G37*
G36*
X155515500Y-85304600D02*
X155363100Y-85304600D01*
X155363100Y-85279200D01*
X155515500Y-85279200D01*
X155515500Y-85304600D01*
G37*
G36*
X160646300Y-85304600D02*
X160468500Y-85304600D01*
X160468500Y-85279200D01*
X160646300Y-85279200D01*
X160646300Y-85304600D01*
G37*
G36*
X155591700Y-85330000D02*
X155413900Y-85330000D01*
X155413900Y-85304600D01*
X155591700Y-85304600D01*
X155591700Y-85330000D01*
G37*
G36*
X158563500Y-85330000D02*
X158538100Y-85330000D01*
X158538100Y-85304600D01*
X158563500Y-85304600D01*
X158563500Y-85330000D01*
G37*
G36*
X160620900Y-85330000D02*
X160417700Y-85330000D01*
X160417700Y-85304600D01*
X160620900Y-85304600D01*
X160620900Y-85330000D01*
G37*
G36*
X155667900Y-85355400D02*
X155464700Y-85355400D01*
X155464700Y-85330000D01*
X155667900Y-85330000D01*
X155667900Y-85355400D01*
G37*
G36*
X158563500Y-85355400D02*
X158538100Y-85355400D01*
X158538100Y-85330000D01*
X158563500Y-85330000D01*
X158563500Y-85355400D01*
G37*
G36*
X160595500Y-85355400D02*
X160366900Y-85355400D01*
X160366900Y-85330000D01*
X160595500Y-85330000D01*
X160595500Y-85355400D01*
G37*
G36*
X155744100Y-85380800D02*
X155515500Y-85380800D01*
X155515500Y-85355400D01*
X155744100Y-85355400D01*
X155744100Y-85380800D01*
G37*
G36*
X158563500Y-85380800D02*
X158512700Y-85380800D01*
X158512700Y-85355400D01*
X158563500Y-85355400D01*
X158563500Y-85380800D01*
G37*
G36*
X160570100Y-85380800D02*
X160316100Y-85380800D01*
X160316100Y-85355400D01*
X160570100Y-85355400D01*
X160570100Y-85380800D01*
G37*
G36*
X155820300Y-85406200D02*
X155566300Y-85406200D01*
X155566300Y-85380800D01*
X155820300Y-85380800D01*
X155820300Y-85406200D01*
G37*
G36*
X158588900Y-85406200D02*
X158512700Y-85406200D01*
X158512700Y-85380800D01*
X158588900Y-85380800D01*
X158588900Y-85406200D01*
G37*
G36*
X160519300Y-85406200D02*
X160290700Y-85406200D01*
X160290700Y-85380800D01*
X160519300Y-85380800D01*
X160519300Y-85406200D01*
G37*
G36*
X155896500Y-85431600D02*
X155617100Y-85431600D01*
X155617100Y-85406200D01*
X155896500Y-85406200D01*
X155896500Y-85431600D01*
G37*
G36*
X158588900Y-85431600D02*
X158512700Y-85431600D01*
X158512700Y-85406200D01*
X158588900Y-85406200D01*
X158588900Y-85431600D01*
G37*
G36*
X160493900Y-85431600D02*
X160239900Y-85431600D01*
X160239900Y-85406200D01*
X160493900Y-85406200D01*
X160493900Y-85431600D01*
G37*
G36*
X155972700Y-85457000D02*
X155667900Y-85457000D01*
X155667900Y-85431600D01*
X155972700Y-85431600D01*
X155972700Y-85457000D01*
G37*
G36*
X158588900Y-85457000D02*
X158487300Y-85457000D01*
X158487300Y-85431600D01*
X158588900Y-85431600D01*
X158588900Y-85457000D01*
G37*
G36*
X160468500Y-85457000D02*
X160189100Y-85457000D01*
X160189100Y-85431600D01*
X160468500Y-85431600D01*
X160468500Y-85457000D01*
G37*
G36*
X156048900Y-85482400D02*
X155718700Y-85482400D01*
X155718700Y-85457000D01*
X156048900Y-85457000D01*
X156048900Y-85482400D01*
G37*
G36*
X158614300Y-85482400D02*
X158487300Y-85482400D01*
X158487300Y-85457000D01*
X158614300Y-85457000D01*
X158614300Y-85482400D01*
G37*
G36*
X160443100Y-85482400D02*
X160138300Y-85482400D01*
X160138300Y-85457000D01*
X160443100Y-85457000D01*
X160443100Y-85482400D01*
G37*
G36*
X156125100Y-85507800D02*
X155769500Y-85507800D01*
X155769500Y-85482400D01*
X156125100Y-85482400D01*
X156125100Y-85507800D01*
G37*
G36*
X158614300Y-85507800D02*
X158461900Y-85507800D01*
X158461900Y-85482400D01*
X158614300Y-85482400D01*
X158614300Y-85507800D01*
G37*
G36*
X160417700Y-85507800D02*
X160112900Y-85507800D01*
X160112900Y-85482400D01*
X160417700Y-85482400D01*
X160417700Y-85507800D01*
G37*
G36*
X156201300Y-85533200D02*
X155820300Y-85533200D01*
X155820300Y-85507800D01*
X156201300Y-85507800D01*
X156201300Y-85533200D01*
G37*
G36*
X158614300Y-85533200D02*
X158461900Y-85533200D01*
X158461900Y-85507800D01*
X158614300Y-85507800D01*
X158614300Y-85533200D01*
G37*
G36*
X160366900Y-85533200D02*
X160062100Y-85533200D01*
X160062100Y-85507800D01*
X160366900Y-85507800D01*
X160366900Y-85533200D01*
G37*
G36*
X156277500Y-85558600D02*
X155871100Y-85558600D01*
X155871100Y-85533200D01*
X156277500Y-85533200D01*
X156277500Y-85558600D01*
G37*
G36*
X158639700Y-85558600D02*
X158461900Y-85558600D01*
X158461900Y-85533200D01*
X158639700Y-85533200D01*
X158639700Y-85558600D01*
G37*
G36*
X160341500Y-85558600D02*
X160011300Y-85558600D01*
X160011300Y-85533200D01*
X160341500Y-85533200D01*
X160341500Y-85558600D01*
G37*
G36*
X156353700Y-85584000D02*
X155921900Y-85584000D01*
X155921900Y-85558600D01*
X156353700Y-85558600D01*
X156353700Y-85584000D01*
G37*
G36*
X158639700Y-85584000D02*
X158436500Y-85584000D01*
X158436500Y-85558600D01*
X158639700Y-85558600D01*
X158639700Y-85584000D01*
G37*
G36*
X160316100Y-85584000D02*
X159960500Y-85584000D01*
X159960500Y-85558600D01*
X160316100Y-85558600D01*
X160316100Y-85584000D01*
G37*
G36*
X156429900Y-85609400D02*
X155972700Y-85609400D01*
X155972700Y-85584000D01*
X156429900Y-85584000D01*
X156429900Y-85609400D01*
G37*
G36*
X158639700Y-85609400D02*
X158436500Y-85609400D01*
X158436500Y-85584000D01*
X158639700Y-85584000D01*
X158639700Y-85609400D01*
G37*
G36*
X160290700Y-85609400D02*
X159935100Y-85609400D01*
X159935100Y-85584000D01*
X160290700Y-85584000D01*
X160290700Y-85609400D01*
G37*
G36*
X156506100Y-85634800D02*
X156023500Y-85634800D01*
X156023500Y-85609400D01*
X156506100Y-85609400D01*
X156506100Y-85634800D01*
G37*
G36*
X158665100Y-85634800D02*
X158411100Y-85634800D01*
X158411100Y-85609400D01*
X158665100Y-85609400D01*
X158665100Y-85634800D01*
G37*
G36*
X160265300Y-85634800D02*
X159884300Y-85634800D01*
X159884300Y-85609400D01*
X160265300Y-85609400D01*
X160265300Y-85634800D01*
G37*
G36*
X156582300Y-85660200D02*
X156074300Y-85660200D01*
X156074300Y-85634800D01*
X156582300Y-85634800D01*
X156582300Y-85660200D01*
G37*
G36*
X158665100Y-85660200D02*
X158411100Y-85660200D01*
X158411100Y-85634800D01*
X158665100Y-85634800D01*
X158665100Y-85660200D01*
G37*
G36*
X160214500Y-85660200D02*
X159833500Y-85660200D01*
X159833500Y-85634800D01*
X160214500Y-85634800D01*
X160214500Y-85660200D01*
G37*
G36*
X156658500Y-85685600D02*
X156125100Y-85685600D01*
X156125100Y-85660200D01*
X156658500Y-85660200D01*
X156658500Y-85685600D01*
G37*
G36*
X158665100Y-85685600D02*
X158411100Y-85685600D01*
X158411100Y-85660200D01*
X158665100Y-85660200D01*
X158665100Y-85685600D01*
G37*
G36*
X160189100Y-85685600D02*
X159782700Y-85685600D01*
X159782700Y-85660200D01*
X160189100Y-85660200D01*
X160189100Y-85685600D01*
G37*
G36*
X156734700Y-85711000D02*
X156175900Y-85711000D01*
X156175900Y-85685600D01*
X156734700Y-85685600D01*
X156734700Y-85711000D01*
G37*
G36*
X158665100Y-85711000D02*
X158385700Y-85711000D01*
X158385700Y-85685600D01*
X158665100Y-85685600D01*
X158665100Y-85711000D01*
G37*
G36*
X160163700Y-85711000D02*
X159731900Y-85711000D01*
X159731900Y-85685600D01*
X160163700Y-85685600D01*
X160163700Y-85711000D01*
G37*
G36*
X156810900Y-85736400D02*
X156226700Y-85736400D01*
X156226700Y-85711000D01*
X156810900Y-85711000D01*
X156810900Y-85736400D01*
G37*
G36*
X158690500Y-85736400D02*
X158385700Y-85736400D01*
X158385700Y-85711000D01*
X158690500Y-85711000D01*
X158690500Y-85736400D01*
G37*
G36*
X160138300Y-85736400D02*
X159706500Y-85736400D01*
X159706500Y-85711000D01*
X160138300Y-85711000D01*
X160138300Y-85736400D01*
G37*
G36*
X156887100Y-85761800D02*
X156302900Y-85761800D01*
X156302900Y-85736400D01*
X156887100Y-85736400D01*
X156887100Y-85761800D01*
G37*
G36*
X158690500Y-85761800D02*
X158385700Y-85761800D01*
X158385700Y-85736400D01*
X158690500Y-85736400D01*
X158690500Y-85761800D01*
G37*
G36*
X160087500Y-85761800D02*
X159655700Y-85761800D01*
X159655700Y-85736400D01*
X160087500Y-85736400D01*
X160087500Y-85761800D01*
G37*
G36*
X156963300Y-85787200D02*
X156353700Y-85787200D01*
X156353700Y-85761800D01*
X156963300Y-85761800D01*
X156963300Y-85787200D01*
G37*
G36*
X158690500Y-85787200D02*
X158360300Y-85787200D01*
X158360300Y-85761800D01*
X158690500Y-85761800D01*
X158690500Y-85787200D01*
G37*
G36*
X160062100Y-85787200D02*
X159604900Y-85787200D01*
X159604900Y-85761800D01*
X160062100Y-85761800D01*
X160062100Y-85787200D01*
G37*
G36*
X157039500Y-85812600D02*
X156404500Y-85812600D01*
X156404500Y-85787200D01*
X157039500Y-85787200D01*
X157039500Y-85812600D01*
G37*
G36*
X158715900Y-85812600D02*
X158360300Y-85812600D01*
X158360300Y-85787200D01*
X158715900Y-85787200D01*
X158715900Y-85812600D01*
G37*
G36*
X160036700Y-85812600D02*
X159554100Y-85812600D01*
X159554100Y-85787200D01*
X160036700Y-85787200D01*
X160036700Y-85812600D01*
G37*
G36*
X157115700Y-85838000D02*
X156455300Y-85838000D01*
X156455300Y-85812600D01*
X157115700Y-85812600D01*
X157115700Y-85838000D01*
G37*
G36*
X158715900Y-85838000D02*
X158334900Y-85838000D01*
X158334900Y-85812600D01*
X158715900Y-85812600D01*
X158715900Y-85838000D01*
G37*
G36*
X160011300Y-85838000D02*
X159528700Y-85838000D01*
X159528700Y-85812600D01*
X160011300Y-85812600D01*
X160011300Y-85838000D01*
G37*
G36*
X157191900Y-85863400D02*
X156506100Y-85863400D01*
X156506100Y-85838000D01*
X157191900Y-85838000D01*
X157191900Y-85863400D01*
G37*
G36*
X158715900Y-85863400D02*
X158334900Y-85863400D01*
X158334900Y-85838000D01*
X158715900Y-85838000D01*
X158715900Y-85863400D01*
G37*
G36*
X159985900Y-85863400D02*
X159477900Y-85863400D01*
X159477900Y-85838000D01*
X159985900Y-85838000D01*
X159985900Y-85863400D01*
G37*
G36*
X157268100Y-85888800D02*
X156556900Y-85888800D01*
X156556900Y-85863400D01*
X157268100Y-85863400D01*
X157268100Y-85888800D01*
G37*
G36*
X158741300Y-85888800D02*
X158334900Y-85888800D01*
X158334900Y-85863400D01*
X158741300Y-85863400D01*
X158741300Y-85888800D01*
G37*
G36*
X159935100Y-85888800D02*
X159427100Y-85888800D01*
X159427100Y-85863400D01*
X159935100Y-85863400D01*
X159935100Y-85888800D01*
G37*
G36*
X157344300Y-85914200D02*
X156607700Y-85914200D01*
X156607700Y-85888800D01*
X157344300Y-85888800D01*
X157344300Y-85914200D01*
G37*
G36*
X158741300Y-85914200D02*
X158309500Y-85914200D01*
X158309500Y-85888800D01*
X158741300Y-85888800D01*
X158741300Y-85914200D01*
G37*
G36*
X159909700Y-85914200D02*
X159376300Y-85914200D01*
X159376300Y-85888800D01*
X159909700Y-85888800D01*
X159909700Y-85914200D01*
G37*
G36*
X157420500Y-85939600D02*
X156658500Y-85939600D01*
X156658500Y-85914200D01*
X157420500Y-85914200D01*
X157420500Y-85939600D01*
G37*
G36*
X158741300Y-85939600D02*
X158309500Y-85939600D01*
X158309500Y-85914200D01*
X158741300Y-85914200D01*
X158741300Y-85939600D01*
G37*
G36*
X159884300Y-85939600D02*
X159350900Y-85939600D01*
X159350900Y-85914200D01*
X159884300Y-85914200D01*
X159884300Y-85939600D01*
G37*
G36*
X157496700Y-85965000D02*
X156709300Y-85965000D01*
X156709300Y-85939600D01*
X157496700Y-85939600D01*
X157496700Y-85965000D01*
G37*
G36*
X158766700Y-85965000D02*
X158309500Y-85965000D01*
X158309500Y-85939600D01*
X158766700Y-85939600D01*
X158766700Y-85965000D01*
G37*
G36*
X159858900Y-85965000D02*
X159300100Y-85965000D01*
X159300100Y-85939600D01*
X159858900Y-85939600D01*
X159858900Y-85965000D01*
G37*
G36*
X157572900Y-85990400D02*
X156760100Y-85990400D01*
X156760100Y-85965000D01*
X157572900Y-85965000D01*
X157572900Y-85990400D01*
G37*
G36*
X158766700Y-85990400D02*
X158284100Y-85990400D01*
X158284100Y-85965000D01*
X158766700Y-85965000D01*
X158766700Y-85990400D01*
G37*
G36*
X159833500Y-85990400D02*
X159249300Y-85990400D01*
X159249300Y-85965000D01*
X159833500Y-85965000D01*
X159833500Y-85990400D01*
G37*
G36*
X157649100Y-86015800D02*
X156810900Y-86015800D01*
X156810900Y-85990400D01*
X157649100Y-85990400D01*
X157649100Y-86015800D01*
G37*
G36*
X158766700Y-86015800D02*
X158284100Y-86015800D01*
X158284100Y-85990400D01*
X158766700Y-85990400D01*
X158766700Y-86015800D01*
G37*
G36*
X159782700Y-86015800D02*
X159198500Y-86015800D01*
X159198500Y-85990400D01*
X159782700Y-85990400D01*
X159782700Y-86015800D01*
G37*
G36*
X157725300Y-86041200D02*
X156861700Y-86041200D01*
X156861700Y-86015800D01*
X157725300Y-86015800D01*
X157725300Y-86041200D01*
G37*
G36*
X158766700Y-86041200D02*
X158258700Y-86041200D01*
X158258700Y-86015800D01*
X158766700Y-86015800D01*
X158766700Y-86041200D01*
G37*
G36*
X159757300Y-86041200D02*
X159147700Y-86041200D01*
X159147700Y-86015800D01*
X159757300Y-86015800D01*
X159757300Y-86041200D01*
G37*
G36*
X157801500Y-86066600D02*
X156912500Y-86066600D01*
X156912500Y-86041200D01*
X157801500Y-86041200D01*
X157801500Y-86066600D01*
G37*
G36*
X158792100Y-86066600D02*
X158258700Y-86066600D01*
X158258700Y-86041200D01*
X158792100Y-86041200D01*
X158792100Y-86066600D01*
G37*
G36*
X159731900Y-86066600D02*
X159122300Y-86066600D01*
X159122300Y-86041200D01*
X159731900Y-86041200D01*
X159731900Y-86066600D01*
G37*
G36*
X157877700Y-86092000D02*
X156963300Y-86092000D01*
X156963300Y-86066600D01*
X157877700Y-86066600D01*
X157877700Y-86092000D01*
G37*
G36*
X158792100Y-86092000D02*
X158258700Y-86092000D01*
X158258700Y-86066600D01*
X158792100Y-86066600D01*
X158792100Y-86092000D01*
G37*
G36*
X159706500Y-86092000D02*
X159071500Y-86092000D01*
X159071500Y-86066600D01*
X159706500Y-86066600D01*
X159706500Y-86092000D01*
G37*
G36*
X157953900Y-86117400D02*
X157014100Y-86117400D01*
X157014100Y-86092000D01*
X157953900Y-86092000D01*
X157953900Y-86117400D01*
G37*
G36*
X158792100Y-86117400D02*
X158233300Y-86117400D01*
X158233300Y-86092000D01*
X158792100Y-86092000D01*
X158792100Y-86117400D01*
G37*
G36*
X159681100Y-86117400D02*
X159020700Y-86117400D01*
X159020700Y-86092000D01*
X159681100Y-86092000D01*
X159681100Y-86117400D01*
G37*
G36*
X158030100Y-86142800D02*
X157064900Y-86142800D01*
X157064900Y-86117400D01*
X158030100Y-86117400D01*
X158030100Y-86142800D01*
G37*
G36*
X158817500Y-86142800D02*
X158233300Y-86142800D01*
X158233300Y-86117400D01*
X158817500Y-86117400D01*
X158817500Y-86142800D01*
G37*
G36*
X159630300Y-86142800D02*
X158969900Y-86142800D01*
X158969900Y-86117400D01*
X159630300Y-86117400D01*
X159630300Y-86142800D01*
G37*
G36*
X158106300Y-86168200D02*
X157115700Y-86168200D01*
X157115700Y-86142800D01*
X158106300Y-86142800D01*
X158106300Y-86168200D01*
G37*
G36*
X158817500Y-86168200D02*
X158207900Y-86168200D01*
X158207900Y-86142800D01*
X158817500Y-86142800D01*
X158817500Y-86168200D01*
G37*
G36*
X159604900Y-86168200D02*
X158944500Y-86168200D01*
X158944500Y-86142800D01*
X159604900Y-86142800D01*
X159604900Y-86168200D01*
G37*
G36*
X158182500Y-86193600D02*
X157166500Y-86193600D01*
X157166500Y-86168200D01*
X158182500Y-86168200D01*
X158182500Y-86193600D01*
G37*
G36*
X158817500Y-86193600D02*
X158207900Y-86193600D01*
X158207900Y-86168200D01*
X158817500Y-86168200D01*
X158817500Y-86193600D01*
G37*
G36*
X159579500Y-86193600D02*
X158893700Y-86193600D01*
X158893700Y-86168200D01*
X159579500Y-86168200D01*
X159579500Y-86193600D01*
G37*
G36*
X159554100Y-86219000D02*
X157217300Y-86219000D01*
X157217300Y-86193600D01*
X159554100Y-86193600D01*
X159554100Y-86219000D01*
G37*
G36*
X159528700Y-86244400D02*
X157268100Y-86244400D01*
X157268100Y-86219000D01*
X159528700Y-86219000D01*
X159528700Y-86244400D01*
G37*
G36*
X159477900Y-86269800D02*
X157318900Y-86269800D01*
X157318900Y-86244400D01*
X159477900Y-86244400D01*
X159477900Y-86269800D01*
G37*
G36*
X159452500Y-86295200D02*
X157369700Y-86295200D01*
X157369700Y-86269800D01*
X159452500Y-86269800D01*
X159452500Y-86295200D01*
G37*
G36*
X159427100Y-86320600D02*
X157420500Y-86320600D01*
X157420500Y-86295200D01*
X159427100Y-86295200D01*
X159427100Y-86320600D01*
G37*
G36*
X159401700Y-86346000D02*
X157471300Y-86346000D01*
X157471300Y-86320600D01*
X159401700Y-86320600D01*
X159401700Y-86346000D01*
G37*
G36*
X159376300Y-86371400D02*
X157522100Y-86371400D01*
X157522100Y-86346000D01*
X159376300Y-86346000D01*
X159376300Y-86371400D01*
G37*
G36*
X159325500Y-86396800D02*
X157572900Y-86396800D01*
X157572900Y-86371400D01*
X159325500Y-86371400D01*
X159325500Y-86396800D01*
G37*
G36*
X159300100Y-86422200D02*
X157623700Y-86422200D01*
X157623700Y-86396800D01*
X159300100Y-86396800D01*
X159300100Y-86422200D01*
G37*
G36*
X159274700Y-86447600D02*
X157674500Y-86447600D01*
X157674500Y-86422200D01*
X159274700Y-86422200D01*
X159274700Y-86447600D01*
G37*
G36*
X159249300Y-86473000D02*
X157750700Y-86473000D01*
X157750700Y-86447600D01*
X159249300Y-86447600D01*
X159249300Y-86473000D01*
G37*
G36*
X159223900Y-86498400D02*
X157801500Y-86498400D01*
X157801500Y-86473000D01*
X159223900Y-86473000D01*
X159223900Y-86498400D01*
G37*
G36*
X159173100Y-86523800D02*
X157852300Y-86523800D01*
X157852300Y-86498400D01*
X159173100Y-86498400D01*
X159173100Y-86523800D01*
G37*
G36*
X159147700Y-86549200D02*
X157293500Y-86549200D01*
X157293500Y-86523800D01*
X159147700Y-86523800D01*
X159147700Y-86549200D01*
G37*
G36*
X159122300Y-86574600D02*
X156734700Y-86574600D01*
X156734700Y-86549200D01*
X159122300Y-86549200D01*
X159122300Y-86574600D01*
G37*
G36*
X159122300Y-86600000D02*
X156150500Y-86600000D01*
X156150500Y-86574600D01*
X159122300Y-86574600D01*
X159122300Y-86600000D01*
G37*
G36*
X159173100Y-86625400D02*
X155591700Y-86625400D01*
X155591700Y-86600000D01*
X159173100Y-86600000D01*
X159173100Y-86625400D01*
G37*
G36*
X159223900Y-86650800D02*
X155032900Y-86650800D01*
X155032900Y-86625400D01*
X159223900Y-86625400D01*
X159223900Y-86650800D01*
G37*
G36*
X159274700Y-86676200D02*
X154474100Y-86676200D01*
X154474100Y-86650800D01*
X159274700Y-86650800D01*
X159274700Y-86676200D01*
G37*
G36*
X159325500Y-86701600D02*
X154093100Y-86701600D01*
X154093100Y-86676200D01*
X159325500Y-86676200D01*
X159325500Y-86701600D01*
G37*
G36*
X159376300Y-86727000D02*
X154296300Y-86727000D01*
X154296300Y-86701600D01*
X159376300Y-86701600D01*
X159376300Y-86727000D01*
G37*
G36*
X159427100Y-86752400D02*
X154905900Y-86752400D01*
X154905900Y-86727000D01*
X159427100Y-86727000D01*
X159427100Y-86752400D01*
G37*
G36*
X159477900Y-86777800D02*
X155540900Y-86777800D01*
X155540900Y-86752400D01*
X159477900Y-86752400D01*
X159477900Y-86777800D01*
G37*
G36*
X159528700Y-86803200D02*
X156150500Y-86803200D01*
X156150500Y-86777800D01*
X159528700Y-86777800D01*
X159528700Y-86803200D01*
G37*
G36*
X159579500Y-86828600D02*
X156785500Y-86828600D01*
X156785500Y-86803200D01*
X159579500Y-86803200D01*
X159579500Y-86828600D01*
G37*
G36*
X159630300Y-86854000D02*
X157395100Y-86854000D01*
X157395100Y-86828600D01*
X159630300Y-86828600D01*
X159630300Y-86854000D01*
G37*
G36*
X159681100Y-86879400D02*
X158004700Y-86879400D01*
X158004700Y-86854000D01*
X159681100Y-86854000D01*
X159681100Y-86879400D01*
G37*
G36*
X159731900Y-86904800D02*
X158284100Y-86904800D01*
X158284100Y-86879400D01*
X159731900Y-86879400D01*
X159731900Y-86904800D01*
G37*
G36*
X159808100Y-86930200D02*
X158284100Y-86930200D01*
X158284100Y-86904800D01*
X159808100Y-86904800D01*
X159808100Y-86930200D01*
G37*
G36*
X159858900Y-86955600D02*
X158284100Y-86955600D01*
X158284100Y-86930200D01*
X159858900Y-86930200D01*
X159858900Y-86955600D01*
G37*
G36*
X159909700Y-86981000D02*
X158284100Y-86981000D01*
X158284100Y-86955600D01*
X159909700Y-86955600D01*
X159909700Y-86981000D01*
G37*
G36*
X159960500Y-87006400D02*
X158284100Y-87006400D01*
X158284100Y-86981000D01*
X159960500Y-86981000D01*
X159960500Y-87006400D01*
G37*
G36*
X158817500Y-87031800D02*
X158309500Y-87031800D01*
X158309500Y-87006400D01*
X158817500Y-87006400D01*
X158817500Y-87031800D01*
G37*
G36*
X160011300Y-87031800D02*
X158919100Y-87031800D01*
X158919100Y-87006400D01*
X160011300Y-87006400D01*
X160011300Y-87031800D01*
G37*
G36*
X158817500Y-87057200D02*
X158309500Y-87057200D01*
X158309500Y-87031800D01*
X158817500Y-87031800D01*
X158817500Y-87057200D01*
G37*
G36*
X160062100Y-87057200D02*
X158995300Y-87057200D01*
X158995300Y-87031800D01*
X160062100Y-87031800D01*
X160062100Y-87057200D01*
G37*
G36*
X158817500Y-87082600D02*
X158309500Y-87082600D01*
X158309500Y-87057200D01*
X158817500Y-87057200D01*
X158817500Y-87082600D01*
G37*
G36*
X160112900Y-87082600D02*
X159071500Y-87082600D01*
X159071500Y-87057200D01*
X160112900Y-87057200D01*
X160112900Y-87082600D01*
G37*
G36*
X158817500Y-87108000D02*
X158309500Y-87108000D01*
X158309500Y-87082600D01*
X158817500Y-87082600D01*
X158817500Y-87108000D01*
G37*
G36*
X160163700Y-87108000D02*
X159147700Y-87108000D01*
X159147700Y-87082600D01*
X160163700Y-87082600D01*
X160163700Y-87108000D01*
G37*
G36*
X158817500Y-87133400D02*
X158309500Y-87133400D01*
X158309500Y-87108000D01*
X158817500Y-87108000D01*
X158817500Y-87133400D01*
G37*
G36*
X160214500Y-87133400D02*
X159249300Y-87133400D01*
X159249300Y-87108000D01*
X160214500Y-87108000D01*
X160214500Y-87133400D01*
G37*
G36*
X158817500Y-87158800D02*
X158334900Y-87158800D01*
X158334900Y-87133400D01*
X158817500Y-87133400D01*
X158817500Y-87158800D01*
G37*
G36*
X160265300Y-87158800D02*
X159325500Y-87158800D01*
X159325500Y-87133400D01*
X160265300Y-87133400D01*
X160265300Y-87158800D01*
G37*
G36*
X158817500Y-87184200D02*
X158334900Y-87184200D01*
X158334900Y-87158800D01*
X158817500Y-87158800D01*
X158817500Y-87184200D01*
G37*
G36*
X160316100Y-87184200D02*
X159401700Y-87184200D01*
X159401700Y-87158800D01*
X160316100Y-87158800D01*
X160316100Y-87184200D01*
G37*
G36*
X158817500Y-87209600D02*
X158334900Y-87209600D01*
X158334900Y-87184200D01*
X158817500Y-87184200D01*
X158817500Y-87209600D01*
G37*
G36*
X160366900Y-87209600D02*
X159503300Y-87209600D01*
X159503300Y-87184200D01*
X160366900Y-87184200D01*
X160366900Y-87209600D01*
G37*
G36*
X158817500Y-87235000D02*
X158334900Y-87235000D01*
X158334900Y-87209600D01*
X158817500Y-87209600D01*
X158817500Y-87235000D01*
G37*
G36*
X160417700Y-87235000D02*
X159579500Y-87235000D01*
X159579500Y-87209600D01*
X160417700Y-87209600D01*
X160417700Y-87235000D01*
G37*
G36*
X158817500Y-87260400D02*
X158334900Y-87260400D01*
X158334900Y-87235000D01*
X158817500Y-87235000D01*
X158817500Y-87260400D01*
G37*
G36*
X160468500Y-87260400D02*
X159655700Y-87260400D01*
X159655700Y-87235000D01*
X160468500Y-87235000D01*
X160468500Y-87260400D01*
G37*
G36*
X158817500Y-87285800D02*
X158360300Y-87285800D01*
X158360300Y-87260400D01*
X158817500Y-87260400D01*
X158817500Y-87285800D01*
G37*
G36*
X160519300Y-87285800D02*
X159731900Y-87285800D01*
X159731900Y-87260400D01*
X160519300Y-87260400D01*
X160519300Y-87285800D01*
G37*
G36*
X158792100Y-87311200D02*
X158360300Y-87311200D01*
X158360300Y-87285800D01*
X158792100Y-87285800D01*
X158792100Y-87311200D01*
G37*
G36*
X160570100Y-87311200D02*
X159833500Y-87311200D01*
X159833500Y-87285800D01*
X160570100Y-87285800D01*
X160570100Y-87311200D01*
G37*
G36*
X158792100Y-87336600D02*
X158360300Y-87336600D01*
X158360300Y-87311200D01*
X158792100Y-87311200D01*
X158792100Y-87336600D01*
G37*
G36*
X160620900Y-87336600D02*
X159909700Y-87336600D01*
X159909700Y-87311200D01*
X160620900Y-87311200D01*
X160620900Y-87336600D01*
G37*
G36*
X158792100Y-87362000D02*
X158360300Y-87362000D01*
X158360300Y-87336600D01*
X158792100Y-87336600D01*
X158792100Y-87362000D01*
G37*
G36*
X160671700Y-87362000D02*
X159985900Y-87362000D01*
X159985900Y-87336600D01*
X160671700Y-87336600D01*
X160671700Y-87362000D01*
G37*
G36*
X158792100Y-87387400D02*
X158360300Y-87387400D01*
X158360300Y-87362000D01*
X158792100Y-87362000D01*
X158792100Y-87387400D01*
G37*
G36*
X160722500Y-87387400D02*
X160087500Y-87387400D01*
X160087500Y-87362000D01*
X160722500Y-87362000D01*
X160722500Y-87387400D01*
G37*
G36*
X158792100Y-87412800D02*
X158385700Y-87412800D01*
X158385700Y-87387400D01*
X158792100Y-87387400D01*
X158792100Y-87412800D01*
G37*
G36*
X160773300Y-87412800D02*
X160163700Y-87412800D01*
X160163700Y-87387400D01*
X160773300Y-87387400D01*
X160773300Y-87412800D01*
G37*
G36*
X158792100Y-87438200D02*
X158385700Y-87438200D01*
X158385700Y-87412800D01*
X158792100Y-87412800D01*
X158792100Y-87438200D01*
G37*
G36*
X160849500Y-87438200D02*
X160239900Y-87438200D01*
X160239900Y-87412800D01*
X160849500Y-87412800D01*
X160849500Y-87438200D01*
G37*
G36*
X158792100Y-87463600D02*
X158385700Y-87463600D01*
X158385700Y-87438200D01*
X158792100Y-87438200D01*
X158792100Y-87463600D01*
G37*
G36*
X160900300Y-87463600D02*
X160316100Y-87463600D01*
X160316100Y-87438200D01*
X160900300Y-87438200D01*
X160900300Y-87463600D01*
G37*
G36*
X158792100Y-87489000D02*
X158385700Y-87489000D01*
X158385700Y-87463600D01*
X158792100Y-87463600D01*
X158792100Y-87489000D01*
G37*
G36*
X160951100Y-87489000D02*
X160417700Y-87489000D01*
X160417700Y-87463600D01*
X160951100Y-87463600D01*
X160951100Y-87489000D01*
G37*
G36*
X158792100Y-87514400D02*
X158385700Y-87514400D01*
X158385700Y-87489000D01*
X158792100Y-87489000D01*
X158792100Y-87514400D01*
G37*
G36*
X161001900Y-87514400D02*
X160493900Y-87514400D01*
X160493900Y-87489000D01*
X161001900Y-87489000D01*
X161001900Y-87514400D01*
G37*
G36*
X158792100Y-87539800D02*
X158411100Y-87539800D01*
X158411100Y-87514400D01*
X158792100Y-87514400D01*
X158792100Y-87539800D01*
G37*
G36*
X161052700Y-87539800D02*
X160570100Y-87539800D01*
X160570100Y-87514400D01*
X161052700Y-87514400D01*
X161052700Y-87539800D01*
G37*
G36*
X158792100Y-87565200D02*
X158411100Y-87565200D01*
X158411100Y-87539800D01*
X158792100Y-87539800D01*
X158792100Y-87565200D01*
G37*
G36*
X161103500Y-87565200D02*
X160646300Y-87565200D01*
X160646300Y-87539800D01*
X161103500Y-87539800D01*
X161103500Y-87565200D01*
G37*
G36*
X158792100Y-87590600D02*
X158411100Y-87590600D01*
X158411100Y-87565200D01*
X158792100Y-87565200D01*
X158792100Y-87590600D01*
G37*
G36*
X161154300Y-87590600D02*
X160747900Y-87590600D01*
X160747900Y-87565200D01*
X161154300Y-87565200D01*
X161154300Y-87590600D01*
G37*
G36*
X158792100Y-87616000D02*
X158411100Y-87616000D01*
X158411100Y-87590600D01*
X158792100Y-87590600D01*
X158792100Y-87616000D01*
G37*
G36*
X161205100Y-87616000D02*
X160824100Y-87616000D01*
X160824100Y-87590600D01*
X161205100Y-87590600D01*
X161205100Y-87616000D01*
G37*
G36*
X158766700Y-87641400D02*
X158411100Y-87641400D01*
X158411100Y-87616000D01*
X158766700Y-87616000D01*
X158766700Y-87641400D01*
G37*
G36*
X161255900Y-87641400D02*
X160900300Y-87641400D01*
X160900300Y-87616000D01*
X161255900Y-87616000D01*
X161255900Y-87641400D01*
G37*
G36*
X158766700Y-87666800D02*
X158436500Y-87666800D01*
X158436500Y-87641400D01*
X158766700Y-87641400D01*
X158766700Y-87666800D01*
G37*
G36*
X161306700Y-87666800D02*
X161001900Y-87666800D01*
X161001900Y-87641400D01*
X161306700Y-87641400D01*
X161306700Y-87666800D01*
G37*
G36*
X158766700Y-87692200D02*
X158436500Y-87692200D01*
X158436500Y-87666800D01*
X158766700Y-87666800D01*
X158766700Y-87692200D01*
G37*
G36*
X161357500Y-87692200D02*
X161078100Y-87692200D01*
X161078100Y-87666800D01*
X161357500Y-87666800D01*
X161357500Y-87692200D01*
G37*
G36*
X158766700Y-87717600D02*
X158436500Y-87717600D01*
X158436500Y-87692200D01*
X158766700Y-87692200D01*
X158766700Y-87717600D01*
G37*
G36*
X161408300Y-87717600D02*
X161154300Y-87717600D01*
X161154300Y-87692200D01*
X161408300Y-87692200D01*
X161408300Y-87717600D01*
G37*
G36*
X158766700Y-87743000D02*
X158436500Y-87743000D01*
X158436500Y-87717600D01*
X158766700Y-87717600D01*
X158766700Y-87743000D01*
G37*
G36*
X161459100Y-87743000D02*
X161230500Y-87743000D01*
X161230500Y-87717600D01*
X161459100Y-87717600D01*
X161459100Y-87743000D01*
G37*
G36*
X158766700Y-87768400D02*
X158436500Y-87768400D01*
X158436500Y-87743000D01*
X158766700Y-87743000D01*
X158766700Y-87768400D01*
G37*
G36*
X161509900Y-87768400D02*
X161332100Y-87768400D01*
X161332100Y-87743000D01*
X161509900Y-87743000D01*
X161509900Y-87768400D01*
G37*
G36*
X158766700Y-87793800D02*
X158461900Y-87793800D01*
X158461900Y-87768400D01*
X158766700Y-87768400D01*
X158766700Y-87793800D01*
G37*
G36*
X161560700Y-87793800D02*
X161408300Y-87793800D01*
X161408300Y-87768400D01*
X161560700Y-87768400D01*
X161560700Y-87793800D01*
G37*
G36*
X158766700Y-87819200D02*
X158461900Y-87819200D01*
X158461900Y-87793800D01*
X158766700Y-87793800D01*
X158766700Y-87819200D01*
G37*
G36*
X161611500Y-87819200D02*
X161484500Y-87819200D01*
X161484500Y-87793800D01*
X161611500Y-87793800D01*
X161611500Y-87819200D01*
G37*
G36*
X158766700Y-87844600D02*
X158461900Y-87844600D01*
X158461900Y-87819200D01*
X158766700Y-87819200D01*
X158766700Y-87844600D01*
G37*
G36*
X161662300Y-87844600D02*
X161586100Y-87844600D01*
X161586100Y-87819200D01*
X161662300Y-87819200D01*
X161662300Y-87844600D01*
G37*
G36*
X158766700Y-87870000D02*
X158461900Y-87870000D01*
X158461900Y-87844600D01*
X158766700Y-87844600D01*
X158766700Y-87870000D01*
G37*
G36*
X161687700Y-87870000D02*
X161662300Y-87870000D01*
X161662300Y-87844600D01*
X161687700Y-87844600D01*
X161687700Y-87870000D01*
G37*
G36*
X158766700Y-87895400D02*
X158461900Y-87895400D01*
X158461900Y-87870000D01*
X158766700Y-87870000D01*
X158766700Y-87895400D01*
G37*
G36*
X158766700Y-87920800D02*
X158487300Y-87920800D01*
X158487300Y-87895400D01*
X158766700Y-87895400D01*
X158766700Y-87920800D01*
G37*
G36*
X158766700Y-87946200D02*
X158487300Y-87946200D01*
X158487300Y-87920800D01*
X158766700Y-87920800D01*
X158766700Y-87946200D01*
G37*
G36*
X158741300Y-87971600D02*
X158487300Y-87971600D01*
X158487300Y-87946200D01*
X158741300Y-87946200D01*
X158741300Y-87971600D01*
G37*
G36*
X158741300Y-87997000D02*
X158487300Y-87997000D01*
X158487300Y-87971600D01*
X158741300Y-87971600D01*
X158741300Y-87997000D01*
G37*
G36*
X158741300Y-88022400D02*
X158487300Y-88022400D01*
X158487300Y-87997000D01*
X158741300Y-87997000D01*
X158741300Y-88022400D01*
G37*
G36*
X158741300Y-88047800D02*
X158512700Y-88047800D01*
X158512700Y-88022400D01*
X158741300Y-88022400D01*
X158741300Y-88047800D01*
G37*
G36*
X158741300Y-88073200D02*
X158512700Y-88073200D01*
X158512700Y-88047800D01*
X158741300Y-88047800D01*
X158741300Y-88073200D01*
G37*
G36*
X158741300Y-88098600D02*
X158512700Y-88098600D01*
X158512700Y-88073200D01*
X158741300Y-88073200D01*
X158741300Y-88098600D01*
G37*
G36*
X158741300Y-88124000D02*
X158512700Y-88124000D01*
X158512700Y-88098600D01*
X158741300Y-88098600D01*
X158741300Y-88124000D01*
G37*
G36*
X158741300Y-88149400D02*
X158512700Y-88149400D01*
X158512700Y-88124000D01*
X158741300Y-88124000D01*
X158741300Y-88149400D01*
G37*
G36*
X158741300Y-88174800D02*
X158538100Y-88174800D01*
X158538100Y-88149400D01*
X158741300Y-88149400D01*
X158741300Y-88174800D01*
G37*
G36*
X158741300Y-88200200D02*
X158538100Y-88200200D01*
X158538100Y-88174800D01*
X158741300Y-88174800D01*
X158741300Y-88200200D01*
G37*
G36*
X158741300Y-88225600D02*
X158538100Y-88225600D01*
X158538100Y-88200200D01*
X158741300Y-88200200D01*
X158741300Y-88225600D01*
G37*
G36*
X158741300Y-88251000D02*
X158538100Y-88251000D01*
X158538100Y-88225600D01*
X158741300Y-88225600D01*
X158741300Y-88251000D01*
G37*
G36*
X158741300Y-88276400D02*
X158538100Y-88276400D01*
X158538100Y-88251000D01*
X158741300Y-88251000D01*
X158741300Y-88276400D01*
G37*
G36*
X158741300Y-88301800D02*
X158563500Y-88301800D01*
X158563500Y-88276400D01*
X158741300Y-88276400D01*
X158741300Y-88301800D01*
G37*
G36*
X158715900Y-88327200D02*
X158563500Y-88327200D01*
X158563500Y-88301800D01*
X158715900Y-88301800D01*
X158715900Y-88327200D01*
G37*
G36*
X158715900Y-88352600D02*
X158563500Y-88352600D01*
X158563500Y-88327200D01*
X158715900Y-88327200D01*
X158715900Y-88352600D01*
G37*
G36*
X158715900Y-88378000D02*
X158563500Y-88378000D01*
X158563500Y-88352600D01*
X158715900Y-88352600D01*
X158715900Y-88378000D01*
G37*
G36*
X158715900Y-88403400D02*
X158563500Y-88403400D01*
X158563500Y-88378000D01*
X158715900Y-88378000D01*
X158715900Y-88403400D01*
G37*
G36*
X158715900Y-88428800D02*
X158588900Y-88428800D01*
X158588900Y-88403400D01*
X158715900Y-88403400D01*
X158715900Y-88428800D01*
G37*
G36*
X158715900Y-88454200D02*
X158588900Y-88454200D01*
X158588900Y-88428800D01*
X158715900Y-88428800D01*
X158715900Y-88454200D01*
G37*
G36*
X158715900Y-88479600D02*
X158588900Y-88479600D01*
X158588900Y-88454200D01*
X158715900Y-88454200D01*
X158715900Y-88479600D01*
G37*
G36*
X158715900Y-88505000D02*
X158588900Y-88505000D01*
X158588900Y-88479600D01*
X158715900Y-88479600D01*
X158715900Y-88505000D01*
G37*
G36*
X158715900Y-88530400D02*
X158588900Y-88530400D01*
X158588900Y-88505000D01*
X158715900Y-88505000D01*
X158715900Y-88530400D01*
G37*
G36*
X158715900Y-88555800D02*
X158614300Y-88555800D01*
X158614300Y-88530400D01*
X158715900Y-88530400D01*
X158715900Y-88555800D01*
G37*
G36*
X158715900Y-88581200D02*
X158614300Y-88581200D01*
X158614300Y-88555800D01*
X158715900Y-88555800D01*
X158715900Y-88581200D01*
G37*
G36*
X158715900Y-88606600D02*
X158614300Y-88606600D01*
X158614300Y-88581200D01*
X158715900Y-88581200D01*
X158715900Y-88606600D01*
G37*
G36*
X158715900Y-88632000D02*
X158614300Y-88632000D01*
X158614300Y-88606600D01*
X158715900Y-88606600D01*
X158715900Y-88632000D01*
G37*
G36*
X158690500Y-88657400D02*
X158614300Y-88657400D01*
X158614300Y-88632000D01*
X158690500Y-88632000D01*
X158690500Y-88657400D01*
G37*
G36*
X158690500Y-88682800D02*
X158639700Y-88682800D01*
X158639700Y-88657400D01*
X158690500Y-88657400D01*
X158690500Y-88682800D01*
G37*
G36*
X158690500Y-88708200D02*
X158639700Y-88708200D01*
X158639700Y-88682800D01*
X158690500Y-88682800D01*
X158690500Y-88708200D01*
G37*
G36*
X158690500Y-88733600D02*
X158639700Y-88733600D01*
X158639700Y-88708200D01*
X158690500Y-88708200D01*
X158690500Y-88733600D01*
G37*
G36*
X158690500Y-88759000D02*
X158639700Y-88759000D01*
X158639700Y-88733600D01*
X158690500Y-88733600D01*
X158690500Y-88759000D01*
G37*
G36*
X158690500Y-88784400D02*
X158639700Y-88784400D01*
X158639700Y-88759000D01*
X158690500Y-88759000D01*
X158690500Y-88784400D01*
G37*
G36*
X158690500Y-88809800D02*
X158665100Y-88809800D01*
X158665100Y-88784400D01*
X158690500Y-88784400D01*
X158690500Y-88809800D01*
G37*
G36*
X158690500Y-88835200D02*
X158665100Y-88835200D01*
X158665100Y-88809800D01*
X158690500Y-88809800D01*
X158690500Y-88835200D01*
G37*
D14*
%TO.C,REF\002A\002A\002A*%
G36*
X148752178Y-90617822D02*
X152272971Y-90617822D01*
X152272971Y-89750198D01*
X148752178Y-89750198D01*
X148752178Y-90617822D01*
X148752178Y-90617822D01*
G37*
X148752178Y-90617822D02*
X152272971Y-90617822D01*
X152272971Y-89750198D01*
X148752178Y-89750198D01*
X148752178Y-90617822D01*
G36*
X148375570Y-84664848D02*
X148376189Y-84751931D01*
X148827914Y-85210891D01*
X149279639Y-85669852D01*
X149279968Y-85880471D01*
X149280297Y-86091089D01*
X149555390Y-86091089D01*
X149562478Y-86144530D01*
X149565162Y-86168888D01*
X149569687Y-86214759D01*
X149575809Y-86279405D01*
X149583288Y-86360091D01*
X149591881Y-86454081D01*
X149601346Y-86558637D01*
X149611442Y-86671025D01*
X149621926Y-86788507D01*
X149632556Y-86908348D01*
X149643091Y-87027811D01*
X149653287Y-87144159D01*
X149662905Y-87254657D01*
X149671700Y-87356569D01*
X149679432Y-87447158D01*
X149685858Y-87523687D01*
X149690737Y-87583421D01*
X149693825Y-87623624D01*
X149694883Y-87641559D01*
X149694882Y-87641644D01*
X149687173Y-87656035D01*
X149664019Y-87685748D01*
X149625105Y-87731131D01*
X149570116Y-87792529D01*
X149498736Y-87870288D01*
X149410651Y-87964754D01*
X149305546Y-88076272D01*
X149183105Y-88205188D01*
X149148690Y-88241287D01*
X148602863Y-88813416D01*
X148691119Y-88901436D01*
X148762515Y-88823758D01*
X148788634Y-88795686D01*
X148829434Y-88752274D01*
X148882223Y-88696366D01*
X148944309Y-88630808D01*
X149013000Y-88558441D01*
X149085604Y-88482112D01*
X149129040Y-88436524D01*
X149210584Y-88351119D01*
X149276496Y-88282710D01*
X149328456Y-88230053D01*
X149368145Y-88191905D01*
X149397243Y-88167020D01*
X149417431Y-88154156D01*
X149430390Y-88152068D01*
X149437800Y-88159513D01*
X149441342Y-88175246D01*
X149442697Y-88198023D01*
X149442879Y-88204239D01*
X149452297Y-88247061D01*
X149475503Y-88298819D01*
X149507864Y-88351328D01*
X149544748Y-88396403D01*
X149559507Y-88410328D01*
X149635233Y-88459047D01*
X149723692Y-88486306D01*
X149801900Y-88492773D01*
X149890532Y-88480576D01*
X149972388Y-88444813D01*
X150044836Y-88386722D01*
X150058203Y-88372262D01*
X150107082Y-88316733D01*
X150952674Y-88316733D01*
X150952674Y-88492773D01*
X151179010Y-88492773D01*
X151179010Y-88410531D01*
X151181850Y-88354386D01*
X151191393Y-88315416D01*
X151202991Y-88294219D01*
X151211277Y-88279052D01*
X151218373Y-88257062D01*
X151224748Y-88224987D01*
X151230872Y-88179569D01*
X151237216Y-88117548D01*
X151244250Y-88035662D01*
X151249066Y-87974746D01*
X151271161Y-87689343D01*
X151813565Y-88238805D01*
X151911637Y-88338228D01*
X152005784Y-88433815D01*
X152094285Y-88523810D01*
X152175420Y-88606457D01*
X152247469Y-88680001D01*
X152308712Y-88742684D01*
X152357427Y-88792752D01*
X152391896Y-88828448D01*
X152410379Y-88847995D01*
X152440743Y-88878944D01*
X152466071Y-88900530D01*
X152479695Y-88907723D01*
X152497095Y-88899297D01*
X152522460Y-88878245D01*
X152531058Y-88869671D01*
X152567514Y-88831620D01*
X152366802Y-88627658D01*
X152315596Y-88575699D01*
X152249569Y-88508820D01*
X152171618Y-88429950D01*
X152084638Y-88342014D01*
X151991526Y-88247941D01*
X151895179Y-88150658D01*
X151798492Y-88053093D01*
X151729134Y-87983145D01*
X151623703Y-87876550D01*
X151535129Y-87786307D01*
X151462281Y-87711192D01*
X151404023Y-87649986D01*
X151359225Y-87601466D01*
X151337021Y-87576129D01*
X151158724Y-87576129D01*
X151136401Y-87861555D01*
X151129669Y-87945219D01*
X151123157Y-88021727D01*
X151117234Y-88087081D01*
X151112268Y-88137281D01*
X151108629Y-88168329D01*
X151107458Y-88175273D01*
X151100838Y-88203565D01*
X150151364Y-88203565D01*
X150145026Y-88124606D01*
X150125890Y-88031315D01*
X150085846Y-87948791D01*
X150027418Y-87880038D01*
X149953129Y-87828063D01*
X149869748Y-87796863D01*
X149842698Y-87782228D01*
X149829156Y-87750819D01*
X149828872Y-87749434D01*
X149827247Y-87736174D01*
X149829256Y-87722595D01*
X149836858Y-87706181D01*
X149852016Y-87684411D01*
X149876688Y-87654767D01*
X149912836Y-87614732D01*
X149962420Y-87561785D01*
X150027401Y-87493409D01*
X150031599Y-87489005D01*
X150101493Y-87415611D01*
X150175800Y-87337437D01*
X150249414Y-87259864D01*
X150317229Y-87188275D01*
X150374140Y-87128051D01*
X150386832Y-87114587D01*
X150435487Y-87063820D01*
X150478709Y-87020375D01*
X150513395Y-86987241D01*
X150536444Y-86967405D01*
X150544182Y-86963046D01*
X150555722Y-86972170D01*
X150582710Y-86997200D01*
X150623021Y-87036052D01*
X150674529Y-87086643D01*
X150735109Y-87146888D01*
X150802636Y-87214704D01*
X150857826Y-87270565D01*
X151158724Y-87576129D01*
X151337021Y-87576129D01*
X151326751Y-87564411D01*
X151305471Y-87537599D01*
X151294251Y-87519808D01*
X151291754Y-87511570D01*
X151292700Y-87493590D01*
X151295573Y-87452892D01*
X151300187Y-87391819D01*
X151306358Y-87312713D01*
X151313898Y-87217914D01*
X151322621Y-87109767D01*
X151332343Y-86990612D01*
X151342876Y-86862791D01*
X151351365Y-86760635D01*
X151399396Y-86184674D01*
X151275805Y-86184674D01*
X151275273Y-86197104D01*
X151272769Y-86232110D01*
X151268496Y-86287215D01*
X151262653Y-86359943D01*
X151255443Y-86447814D01*
X151247066Y-86548351D01*
X151237723Y-86659077D01*
X151228758Y-86764205D01*
X151218602Y-86883483D01*
X151209142Y-86996080D01*
X151200596Y-87099305D01*
X151193179Y-87190473D01*
X151187108Y-87266895D01*
X151182601Y-87325883D01*
X151179873Y-87364749D01*
X151179116Y-87379844D01*
X151177935Y-87389238D01*
X151173256Y-87392966D01*
X151163276Y-87389471D01*
X151146190Y-87377199D01*
X151120196Y-87354594D01*
X151083490Y-87320100D01*
X151034267Y-87272162D01*
X150970726Y-87209224D01*
X150903305Y-87141968D01*
X150627601Y-86866477D01*
X150629533Y-86864406D01*
X150447290Y-86864406D01*
X150438984Y-86875780D01*
X150415733Y-86902563D01*
X150379865Y-86942292D01*
X150333713Y-86992507D01*
X150279606Y-87050746D01*
X150219874Y-87114547D01*
X150156848Y-87181449D01*
X150092858Y-87248990D01*
X150030236Y-87314710D01*
X149971310Y-87376146D01*
X149918412Y-87430837D01*
X149873872Y-87476322D01*
X149840020Y-87510138D01*
X149819188Y-87529826D01*
X149813506Y-87533837D01*
X149811634Y-87520891D01*
X149807746Y-87485134D01*
X149802057Y-87428804D01*
X149794781Y-87354140D01*
X149786131Y-87263380D01*
X149776322Y-87158762D01*
X149765566Y-87042526D01*
X149754079Y-86916908D01*
X149744907Y-86815618D01*
X149733174Y-86684279D01*
X149722335Y-86560552D01*
X149712570Y-86446681D01*
X149704063Y-86344911D01*
X149696995Y-86257487D01*
X149691549Y-86186653D01*
X149687908Y-86134653D01*
X149686253Y-86103732D01*
X149686442Y-86095703D01*
X149696334Y-86102854D01*
X149721524Y-86125841D01*
X149759810Y-86162439D01*
X149808989Y-86210422D01*
X149866861Y-86267566D01*
X149931222Y-86331647D01*
X149999871Y-86400438D01*
X150070605Y-86471716D01*
X150141222Y-86543255D01*
X150209520Y-86612830D01*
X150273296Y-86678217D01*
X150330350Y-86737191D01*
X150378478Y-86787527D01*
X150415478Y-86826999D01*
X150439148Y-86853383D01*
X150447290Y-86864406D01*
X150629533Y-86864406D01*
X150730409Y-86756295D01*
X150782768Y-86700377D01*
X150841535Y-86637948D01*
X150904385Y-86571443D01*
X150968995Y-86503298D01*
X151033042Y-86435948D01*
X151094203Y-86371828D01*
X151150153Y-86313372D01*
X151198570Y-86263018D01*
X151237130Y-86223198D01*
X151263509Y-86196350D01*
X151275384Y-86184908D01*
X151275805Y-86184674D01*
X151399396Y-86184674D01*
X151411401Y-86040726D01*
X152011938Y-85409158D01*
X152612475Y-84777589D01*
X152612034Y-84689315D01*
X152611592Y-84601040D01*
X152514583Y-84704666D01*
X152460291Y-84762463D01*
X152396192Y-84830368D01*
X152324016Y-84906572D01*
X152245492Y-84989269D01*
X152162349Y-85076653D01*
X152076319Y-85166915D01*
X151989130Y-85258250D01*
X151902513Y-85348849D01*
X151818197Y-85436907D01*
X151737912Y-85520615D01*
X151663387Y-85598167D01*
X151596354Y-85667757D01*
X151538541Y-85727576D01*
X151491679Y-85775818D01*
X151457496Y-85810676D01*
X151437724Y-85830343D01*
X151433390Y-85834116D01*
X151433092Y-85820992D01*
X151434731Y-85787389D01*
X151438023Y-85737880D01*
X151442682Y-85677037D01*
X151444682Y-85652732D01*
X151459577Y-85474951D01*
X151342955Y-85474951D01*
X151336934Y-85503243D01*
X151333863Y-85525618D01*
X151329548Y-85567717D01*
X151324488Y-85624178D01*
X151319181Y-85689635D01*
X151317344Y-85713862D01*
X151311927Y-85783421D01*
X151306459Y-85848018D01*
X151301488Y-85901548D01*
X151297561Y-85937910D01*
X151296675Y-85944509D01*
X151293334Y-85958056D01*
X151286101Y-85973914D01*
X151273440Y-85993861D01*
X151253811Y-86019673D01*
X151225678Y-86053129D01*
X151187502Y-86096007D01*
X151137746Y-86150083D01*
X151074871Y-86217136D01*
X150997341Y-86298943D01*
X150918251Y-86381950D01*
X150839564Y-86464094D01*
X150766112Y-86540169D01*
X150699724Y-86608325D01*
X150642227Y-86666712D01*
X150595451Y-86713481D01*
X150561224Y-86746782D01*
X150541373Y-86764767D01*
X150537140Y-86767442D01*
X150526003Y-86757741D01*
X150499971Y-86732441D01*
X150461570Y-86694082D01*
X150413328Y-86645200D01*
X150357770Y-86588334D01*
X150317592Y-86546906D01*
X150107831Y-86330000D01*
X150726337Y-86330000D01*
X150726337Y-86091089D01*
X149971881Y-86091089D01*
X149971881Y-86197542D01*
X149833565Y-86059654D01*
X149735447Y-85961840D01*
X149544357Y-85961840D01*
X149542529Y-85977270D01*
X149533277Y-85985867D01*
X149510950Y-85989613D01*
X149469895Y-85990489D01*
X149462624Y-85990495D01*
X149380891Y-85990495D01*
X149380891Y-85771172D01*
X149462624Y-85852179D01*
X149508730Y-85901428D01*
X149536306Y-85939159D01*
X149544357Y-85961840D01*
X149735447Y-85961840D01*
X149695248Y-85921766D01*
X149695248Y-85798952D01*
X149694863Y-85742450D01*
X149693100Y-85706505D01*
X149689050Y-85686530D01*
X149681801Y-85677937D01*
X149670870Y-85676139D01*
X149658712Y-85673498D01*
X149649727Y-85662912D01*
X149642826Y-85640381D01*
X149636924Y-85601909D01*
X149630935Y-85543498D01*
X149629013Y-85522104D01*
X149624852Y-85474951D01*
X151342955Y-85474951D01*
X151459577Y-85474951D01*
X151619109Y-85474951D01*
X151619109Y-85361782D01*
X151551314Y-85361782D01*
X151511662Y-85360696D01*
X151490116Y-85355454D01*
X151487480Y-85352334D01*
X151348616Y-85352334D01*
X151341308Y-85359462D01*
X151315993Y-85361662D01*
X151298908Y-85361782D01*
X151241881Y-85361782D01*
X151029221Y-85361782D01*
X149614698Y-85361782D01*
X149662542Y-85312786D01*
X149736850Y-85252324D01*
X149828816Y-85205691D01*
X149939998Y-85172249D01*
X150050471Y-85153753D01*
X150122773Y-85145122D01*
X150122773Y-85236040D01*
X150701188Y-85236040D01*
X150701188Y-85132893D01*
X150786065Y-85141496D01*
X150845368Y-85148756D01*
X150908551Y-85158379D01*
X150946386Y-85165252D01*
X151021832Y-85180407D01*
X151025526Y-85271095D01*
X151029221Y-85361782D01*
X151241881Y-85361782D01*
X151241881Y-85311485D01*
X151243544Y-85279976D01*
X151247697Y-85262463D01*
X151249371Y-85261188D01*
X151267987Y-85269254D01*
X151295183Y-85288820D01*
X151322448Y-85312944D01*
X151341267Y-85334682D01*
X151342943Y-85337508D01*
X151348616Y-85352334D01*
X151487480Y-85352334D01*
X151479662Y-85343081D01*
X151475442Y-85329604D01*
X151458219Y-85294627D01*
X151425138Y-85252579D01*
X151381893Y-85209356D01*
X151334174Y-85170854D01*
X151302830Y-85150801D01*
X151267123Y-85128851D01*
X151248819Y-85110411D01*
X151242388Y-85088668D01*
X151241894Y-85075718D01*
X151241894Y-85072575D01*
X150600594Y-85072575D01*
X150600594Y-85135446D01*
X150223367Y-85135446D01*
X150223367Y-85072575D01*
X150600594Y-85072575D01*
X151241894Y-85072575D01*
X151241881Y-85034852D01*
X151136048Y-85034852D01*
X151087355Y-85036029D01*
X151049405Y-85039165D01*
X151028308Y-85043671D01*
X151026023Y-85045495D01*
X151012641Y-85048295D01*
X150980074Y-85047148D01*
X150933916Y-85042393D01*
X150902376Y-85038003D01*
X150845188Y-85029378D01*
X150792886Y-85021591D01*
X150753582Y-85015847D01*
X150742055Y-85014215D01*
X150711937Y-85004888D01*
X150701188Y-84990272D01*
X150697920Y-84984320D01*
X150686230Y-84979778D01*
X150663288Y-84976470D01*
X150626265Y-84974215D01*
X150572332Y-84972834D01*
X150498660Y-84972150D01*
X150411980Y-84971980D01*
X150319471Y-84972077D01*
X150249094Y-84972530D01*
X150197836Y-84973590D01*
X150162680Y-84975503D01*
X150140611Y-84978519D01*
X150128615Y-84982885D01*
X150123676Y-84988849D01*
X150122773Y-84995784D01*
X150115079Y-85017795D01*
X150089879Y-85030321D01*
X150043991Y-85034788D01*
X150035736Y-85034852D01*
X149958027Y-85042868D01*
X149869767Y-85064936D01*
X149778915Y-85098084D01*
X149693430Y-85139339D01*
X149621274Y-85185731D01*
X149611928Y-85193082D01*
X149581467Y-85216998D01*
X149563428Y-85226576D01*
X149550831Y-85223480D01*
X149537900Y-85210704D01*
X149499707Y-85185678D01*
X149450002Y-85176071D01*
X149396476Y-85181067D01*
X149346822Y-85199851D01*
X149308733Y-85231606D01*
X149305975Y-85235297D01*
X149277474Y-85294575D01*
X149272172Y-85355934D01*
X149289482Y-85414427D01*
X149328820Y-85465104D01*
X149333630Y-85469289D01*
X149361560Y-85489167D01*
X149389898Y-85497921D01*
X149429737Y-85498553D01*
X149439689Y-85497992D01*
X149478668Y-85496562D01*
X149498746Y-85499839D01*
X149506015Y-85509728D01*
X149506760Y-85518961D01*
X149508284Y-85545744D01*
X149512065Y-85586025D01*
X149514782Y-85610124D01*
X149518723Y-85648401D01*
X149517084Y-85667996D01*
X149507579Y-85675158D01*
X149490649Y-85676139D01*
X149480608Y-85672901D01*
X149464410Y-85662420D01*
X149440855Y-85643548D01*
X149408743Y-85615135D01*
X149366872Y-85576035D01*
X149314043Y-85525097D01*
X149249055Y-85461173D01*
X149170709Y-85383114D01*
X149077803Y-85289772D01*
X148969137Y-85179998D01*
X148916769Y-85126952D01*
X148374951Y-84577767D01*
X148375570Y-84664848D01*
X148375570Y-84664848D01*
G37*
X148375570Y-84664848D02*
X148376189Y-84751931D01*
X148827914Y-85210891D01*
X149279639Y-85669852D01*
X149279968Y-85880471D01*
X149280297Y-86091089D01*
X149555390Y-86091089D01*
X149562478Y-86144530D01*
X149565162Y-86168888D01*
X149569687Y-86214759D01*
X149575809Y-86279405D01*
X149583288Y-86360091D01*
X149591881Y-86454081D01*
X149601346Y-86558637D01*
X149611442Y-86671025D01*
X149621926Y-86788507D01*
X149632556Y-86908348D01*
X149643091Y-87027811D01*
X149653287Y-87144159D01*
X149662905Y-87254657D01*
X149671700Y-87356569D01*
X149679432Y-87447158D01*
X149685858Y-87523687D01*
X149690737Y-87583421D01*
X149693825Y-87623624D01*
X149694883Y-87641559D01*
X149694882Y-87641644D01*
X149687173Y-87656035D01*
X149664019Y-87685748D01*
X149625105Y-87731131D01*
X149570116Y-87792529D01*
X149498736Y-87870288D01*
X149410651Y-87964754D01*
X149305546Y-88076272D01*
X149183105Y-88205188D01*
X149148690Y-88241287D01*
X148602863Y-88813416D01*
X148691119Y-88901436D01*
X148762515Y-88823758D01*
X148788634Y-88795686D01*
X148829434Y-88752274D01*
X148882223Y-88696366D01*
X148944309Y-88630808D01*
X149013000Y-88558441D01*
X149085604Y-88482112D01*
X149129040Y-88436524D01*
X149210584Y-88351119D01*
X149276496Y-88282710D01*
X149328456Y-88230053D01*
X149368145Y-88191905D01*
X149397243Y-88167020D01*
X149417431Y-88154156D01*
X149430390Y-88152068D01*
X149437800Y-88159513D01*
X149441342Y-88175246D01*
X149442697Y-88198023D01*
X149442879Y-88204239D01*
X149452297Y-88247061D01*
X149475503Y-88298819D01*
X149507864Y-88351328D01*
X149544748Y-88396403D01*
X149559507Y-88410328D01*
X149635233Y-88459047D01*
X149723692Y-88486306D01*
X149801900Y-88492773D01*
X149890532Y-88480576D01*
X149972388Y-88444813D01*
X150044836Y-88386722D01*
X150058203Y-88372262D01*
X150107082Y-88316733D01*
X150952674Y-88316733D01*
X150952674Y-88492773D01*
X151179010Y-88492773D01*
X151179010Y-88410531D01*
X151181850Y-88354386D01*
X151191393Y-88315416D01*
X151202991Y-88294219D01*
X151211277Y-88279052D01*
X151218373Y-88257062D01*
X151224748Y-88224987D01*
X151230872Y-88179569D01*
X151237216Y-88117548D01*
X151244250Y-88035662D01*
X151249066Y-87974746D01*
X151271161Y-87689343D01*
X151813565Y-88238805D01*
X151911637Y-88338228D01*
X152005784Y-88433815D01*
X152094285Y-88523810D01*
X152175420Y-88606457D01*
X152247469Y-88680001D01*
X152308712Y-88742684D01*
X152357427Y-88792752D01*
X152391896Y-88828448D01*
X152410379Y-88847995D01*
X152440743Y-88878944D01*
X152466071Y-88900530D01*
X152479695Y-88907723D01*
X152497095Y-88899297D01*
X152522460Y-88878245D01*
X152531058Y-88869671D01*
X152567514Y-88831620D01*
X152366802Y-88627658D01*
X152315596Y-88575699D01*
X152249569Y-88508820D01*
X152171618Y-88429950D01*
X152084638Y-88342014D01*
X151991526Y-88247941D01*
X151895179Y-88150658D01*
X151798492Y-88053093D01*
X151729134Y-87983145D01*
X151623703Y-87876550D01*
X151535129Y-87786307D01*
X151462281Y-87711192D01*
X151404023Y-87649986D01*
X151359225Y-87601466D01*
X151337021Y-87576129D01*
X151158724Y-87576129D01*
X151136401Y-87861555D01*
X151129669Y-87945219D01*
X151123157Y-88021727D01*
X151117234Y-88087081D01*
X151112268Y-88137281D01*
X151108629Y-88168329D01*
X151107458Y-88175273D01*
X151100838Y-88203565D01*
X150151364Y-88203565D01*
X150145026Y-88124606D01*
X150125890Y-88031315D01*
X150085846Y-87948791D01*
X150027418Y-87880038D01*
X149953129Y-87828063D01*
X149869748Y-87796863D01*
X149842698Y-87782228D01*
X149829156Y-87750819D01*
X149828872Y-87749434D01*
X149827247Y-87736174D01*
X149829256Y-87722595D01*
X149836858Y-87706181D01*
X149852016Y-87684411D01*
X149876688Y-87654767D01*
X149912836Y-87614732D01*
X149962420Y-87561785D01*
X150027401Y-87493409D01*
X150031599Y-87489005D01*
X150101493Y-87415611D01*
X150175800Y-87337437D01*
X150249414Y-87259864D01*
X150317229Y-87188275D01*
X150374140Y-87128051D01*
X150386832Y-87114587D01*
X150435487Y-87063820D01*
X150478709Y-87020375D01*
X150513395Y-86987241D01*
X150536444Y-86967405D01*
X150544182Y-86963046D01*
X150555722Y-86972170D01*
X150582710Y-86997200D01*
X150623021Y-87036052D01*
X150674529Y-87086643D01*
X150735109Y-87146888D01*
X150802636Y-87214704D01*
X150857826Y-87270565D01*
X151158724Y-87576129D01*
X151337021Y-87576129D01*
X151326751Y-87564411D01*
X151305471Y-87537599D01*
X151294251Y-87519808D01*
X151291754Y-87511570D01*
X151292700Y-87493590D01*
X151295573Y-87452892D01*
X151300187Y-87391819D01*
X151306358Y-87312713D01*
X151313898Y-87217914D01*
X151322621Y-87109767D01*
X151332343Y-86990612D01*
X151342876Y-86862791D01*
X151351365Y-86760635D01*
X151399396Y-86184674D01*
X151275805Y-86184674D01*
X151275273Y-86197104D01*
X151272769Y-86232110D01*
X151268496Y-86287215D01*
X151262653Y-86359943D01*
X151255443Y-86447814D01*
X151247066Y-86548351D01*
X151237723Y-86659077D01*
X151228758Y-86764205D01*
X151218602Y-86883483D01*
X151209142Y-86996080D01*
X151200596Y-87099305D01*
X151193179Y-87190473D01*
X151187108Y-87266895D01*
X151182601Y-87325883D01*
X151179873Y-87364749D01*
X151179116Y-87379844D01*
X151177935Y-87389238D01*
X151173256Y-87392966D01*
X151163276Y-87389471D01*
X151146190Y-87377199D01*
X151120196Y-87354594D01*
X151083490Y-87320100D01*
X151034267Y-87272162D01*
X150970726Y-87209224D01*
X150903305Y-87141968D01*
X150627601Y-86866477D01*
X150629533Y-86864406D01*
X150447290Y-86864406D01*
X150438984Y-86875780D01*
X150415733Y-86902563D01*
X150379865Y-86942292D01*
X150333713Y-86992507D01*
X150279606Y-87050746D01*
X150219874Y-87114547D01*
X150156848Y-87181449D01*
X150092858Y-87248990D01*
X150030236Y-87314710D01*
X149971310Y-87376146D01*
X149918412Y-87430837D01*
X149873872Y-87476322D01*
X149840020Y-87510138D01*
X149819188Y-87529826D01*
X149813506Y-87533837D01*
X149811634Y-87520891D01*
X149807746Y-87485134D01*
X149802057Y-87428804D01*
X149794781Y-87354140D01*
X149786131Y-87263380D01*
X149776322Y-87158762D01*
X149765566Y-87042526D01*
X149754079Y-86916908D01*
X149744907Y-86815618D01*
X149733174Y-86684279D01*
X149722335Y-86560552D01*
X149712570Y-86446681D01*
X149704063Y-86344911D01*
X149696995Y-86257487D01*
X149691549Y-86186653D01*
X149687908Y-86134653D01*
X149686253Y-86103732D01*
X149686442Y-86095703D01*
X149696334Y-86102854D01*
X149721524Y-86125841D01*
X149759810Y-86162439D01*
X149808989Y-86210422D01*
X149866861Y-86267566D01*
X149931222Y-86331647D01*
X149999871Y-86400438D01*
X150070605Y-86471716D01*
X150141222Y-86543255D01*
X150209520Y-86612830D01*
X150273296Y-86678217D01*
X150330350Y-86737191D01*
X150378478Y-86787527D01*
X150415478Y-86826999D01*
X150439148Y-86853383D01*
X150447290Y-86864406D01*
X150629533Y-86864406D01*
X150730409Y-86756295D01*
X150782768Y-86700377D01*
X150841535Y-86637948D01*
X150904385Y-86571443D01*
X150968995Y-86503298D01*
X151033042Y-86435948D01*
X151094203Y-86371828D01*
X151150153Y-86313372D01*
X151198570Y-86263018D01*
X151237130Y-86223198D01*
X151263509Y-86196350D01*
X151275384Y-86184908D01*
X151275805Y-86184674D01*
X151399396Y-86184674D01*
X151411401Y-86040726D01*
X152011938Y-85409158D01*
X152612475Y-84777589D01*
X152612034Y-84689315D01*
X152611592Y-84601040D01*
X152514583Y-84704666D01*
X152460291Y-84762463D01*
X152396192Y-84830368D01*
X152324016Y-84906572D01*
X152245492Y-84989269D01*
X152162349Y-85076653D01*
X152076319Y-85166915D01*
X151989130Y-85258250D01*
X151902513Y-85348849D01*
X151818197Y-85436907D01*
X151737912Y-85520615D01*
X151663387Y-85598167D01*
X151596354Y-85667757D01*
X151538541Y-85727576D01*
X151491679Y-85775818D01*
X151457496Y-85810676D01*
X151437724Y-85830343D01*
X151433390Y-85834116D01*
X151433092Y-85820992D01*
X151434731Y-85787389D01*
X151438023Y-85737880D01*
X151442682Y-85677037D01*
X151444682Y-85652732D01*
X151459577Y-85474951D01*
X151342955Y-85474951D01*
X151336934Y-85503243D01*
X151333863Y-85525618D01*
X151329548Y-85567717D01*
X151324488Y-85624178D01*
X151319181Y-85689635D01*
X151317344Y-85713862D01*
X151311927Y-85783421D01*
X151306459Y-85848018D01*
X151301488Y-85901548D01*
X151297561Y-85937910D01*
X151296675Y-85944509D01*
X151293334Y-85958056D01*
X151286101Y-85973914D01*
X151273440Y-85993861D01*
X151253811Y-86019673D01*
X151225678Y-86053129D01*
X151187502Y-86096007D01*
X151137746Y-86150083D01*
X151074871Y-86217136D01*
X150997341Y-86298943D01*
X150918251Y-86381950D01*
X150839564Y-86464094D01*
X150766112Y-86540169D01*
X150699724Y-86608325D01*
X150642227Y-86666712D01*
X150595451Y-86713481D01*
X150561224Y-86746782D01*
X150541373Y-86764767D01*
X150537140Y-86767442D01*
X150526003Y-86757741D01*
X150499971Y-86732441D01*
X150461570Y-86694082D01*
X150413328Y-86645200D01*
X150357770Y-86588334D01*
X150317592Y-86546906D01*
X150107831Y-86330000D01*
X150726337Y-86330000D01*
X150726337Y-86091089D01*
X149971881Y-86091089D01*
X149971881Y-86197542D01*
X149833565Y-86059654D01*
X149735447Y-85961840D01*
X149544357Y-85961840D01*
X149542529Y-85977270D01*
X149533277Y-85985867D01*
X149510950Y-85989613D01*
X149469895Y-85990489D01*
X149462624Y-85990495D01*
X149380891Y-85990495D01*
X149380891Y-85771172D01*
X149462624Y-85852179D01*
X149508730Y-85901428D01*
X149536306Y-85939159D01*
X149544357Y-85961840D01*
X149735447Y-85961840D01*
X149695248Y-85921766D01*
X149695248Y-85798952D01*
X149694863Y-85742450D01*
X149693100Y-85706505D01*
X149689050Y-85686530D01*
X149681801Y-85677937D01*
X149670870Y-85676139D01*
X149658712Y-85673498D01*
X149649727Y-85662912D01*
X149642826Y-85640381D01*
X149636924Y-85601909D01*
X149630935Y-85543498D01*
X149629013Y-85522104D01*
X149624852Y-85474951D01*
X151342955Y-85474951D01*
X151459577Y-85474951D01*
X151619109Y-85474951D01*
X151619109Y-85361782D01*
X151551314Y-85361782D01*
X151511662Y-85360696D01*
X151490116Y-85355454D01*
X151487480Y-85352334D01*
X151348616Y-85352334D01*
X151341308Y-85359462D01*
X151315993Y-85361662D01*
X151298908Y-85361782D01*
X151241881Y-85361782D01*
X151029221Y-85361782D01*
X149614698Y-85361782D01*
X149662542Y-85312786D01*
X149736850Y-85252324D01*
X149828816Y-85205691D01*
X149939998Y-85172249D01*
X150050471Y-85153753D01*
X150122773Y-85145122D01*
X150122773Y-85236040D01*
X150701188Y-85236040D01*
X150701188Y-85132893D01*
X150786065Y-85141496D01*
X150845368Y-85148756D01*
X150908551Y-85158379D01*
X150946386Y-85165252D01*
X151021832Y-85180407D01*
X151025526Y-85271095D01*
X151029221Y-85361782D01*
X151241881Y-85361782D01*
X151241881Y-85311485D01*
X151243544Y-85279976D01*
X151247697Y-85262463D01*
X151249371Y-85261188D01*
X151267987Y-85269254D01*
X151295183Y-85288820D01*
X151322448Y-85312944D01*
X151341267Y-85334682D01*
X151342943Y-85337508D01*
X151348616Y-85352334D01*
X151487480Y-85352334D01*
X151479662Y-85343081D01*
X151475442Y-85329604D01*
X151458219Y-85294627D01*
X151425138Y-85252579D01*
X151381893Y-85209356D01*
X151334174Y-85170854D01*
X151302830Y-85150801D01*
X151267123Y-85128851D01*
X151248819Y-85110411D01*
X151242388Y-85088668D01*
X151241894Y-85075718D01*
X151241894Y-85072575D01*
X150600594Y-85072575D01*
X150600594Y-85135446D01*
X150223367Y-85135446D01*
X150223367Y-85072575D01*
X150600594Y-85072575D01*
X151241894Y-85072575D01*
X151241881Y-85034852D01*
X151136048Y-85034852D01*
X151087355Y-85036029D01*
X151049405Y-85039165D01*
X151028308Y-85043671D01*
X151026023Y-85045495D01*
X151012641Y-85048295D01*
X150980074Y-85047148D01*
X150933916Y-85042393D01*
X150902376Y-85038003D01*
X150845188Y-85029378D01*
X150792886Y-85021591D01*
X150753582Y-85015847D01*
X150742055Y-85014215D01*
X150711937Y-85004888D01*
X150701188Y-84990272D01*
X150697920Y-84984320D01*
X150686230Y-84979778D01*
X150663288Y-84976470D01*
X150626265Y-84974215D01*
X150572332Y-84972834D01*
X150498660Y-84972150D01*
X150411980Y-84971980D01*
X150319471Y-84972077D01*
X150249094Y-84972530D01*
X150197836Y-84973590D01*
X150162680Y-84975503D01*
X150140611Y-84978519D01*
X150128615Y-84982885D01*
X150123676Y-84988849D01*
X150122773Y-84995784D01*
X150115079Y-85017795D01*
X150089879Y-85030321D01*
X150043991Y-85034788D01*
X150035736Y-85034852D01*
X149958027Y-85042868D01*
X149869767Y-85064936D01*
X149778915Y-85098084D01*
X149693430Y-85139339D01*
X149621274Y-85185731D01*
X149611928Y-85193082D01*
X149581467Y-85216998D01*
X149563428Y-85226576D01*
X149550831Y-85223480D01*
X149537900Y-85210704D01*
X149499707Y-85185678D01*
X149450002Y-85176071D01*
X149396476Y-85181067D01*
X149346822Y-85199851D01*
X149308733Y-85231606D01*
X149305975Y-85235297D01*
X149277474Y-85294575D01*
X149272172Y-85355934D01*
X149289482Y-85414427D01*
X149328820Y-85465104D01*
X149333630Y-85469289D01*
X149361560Y-85489167D01*
X149389898Y-85497921D01*
X149429737Y-85498553D01*
X149439689Y-85497992D01*
X149478668Y-85496562D01*
X149498746Y-85499839D01*
X149506015Y-85509728D01*
X149506760Y-85518961D01*
X149508284Y-85545744D01*
X149512065Y-85586025D01*
X149514782Y-85610124D01*
X149518723Y-85648401D01*
X149517084Y-85667996D01*
X149507579Y-85675158D01*
X149490649Y-85676139D01*
X149480608Y-85672901D01*
X149464410Y-85662420D01*
X149440855Y-85643548D01*
X149408743Y-85615135D01*
X149366872Y-85576035D01*
X149314043Y-85525097D01*
X149249055Y-85461173D01*
X149170709Y-85383114D01*
X149077803Y-85289772D01*
X148969137Y-85179998D01*
X148916769Y-85126952D01*
X148374951Y-84577767D01*
X148375570Y-84664848D01*
%TD*%
M02*
