G04 #@! TF.FileFunction,Soldermask,Bot*
%FSLAX46Y46*%
G04 Gerber Fmt 4.6, Leading zero omitted, Abs format (unit mm)*
G04 Created by KiCad (PCBNEW 4.0.4-stable) date 03/22/17 10:00:08*
%MOMM*%
%LPD*%
G01*
G04 APERTURE LIST*
%ADD10C,0.100000*%
%ADD11C,2.200000*%
%ADD12C,5.400000*%
%ADD13C,4.050000*%
%ADD14R,1.900000X1.900000*%
%ADD15C,1.900000*%
%ADD16C,2.900000*%
%ADD17R,2.900000X2.900000*%
%ADD18R,1.700000X1.700000*%
%ADD19C,1.700000*%
%ADD20R,2.200000X2.200000*%
%ADD21R,2.100000X2.100000*%
%ADD22O,2.100000X2.100000*%
%ADD23C,3.200000*%
%ADD24R,2.800000X2.800000*%
%ADD25C,2.800000*%
%ADD26C,2.400000*%
%ADD27C,1.920000*%
%ADD28C,3.100000*%
%ADD29C,1.200000*%
G04 APERTURE END LIST*
D10*
D11*
X178500000Y-128190000D03*
X175960000Y-128190000D03*
X181040000Y-128190000D03*
X175960000Y-135810000D03*
X178500000Y-135810000D03*
X181040000Y-135810000D03*
D12*
X119620338Y-97074931D03*
X132620338Y-97074931D03*
D13*
X129170000Y-67650000D03*
X117300000Y-67650000D03*
D14*
X118790000Y-74000000D03*
D15*
X120060000Y-76540000D03*
X121330000Y-74000000D03*
X122600000Y-76540000D03*
X123870000Y-74000000D03*
X125140000Y-76540000D03*
X126410000Y-74000000D03*
X127680000Y-76540000D03*
D16*
X114500000Y-130500000D03*
X105000000Y-130500000D03*
D17*
X165700000Y-133200000D03*
D16*
X160700000Y-133200000D03*
D18*
X149500000Y-112750000D03*
D19*
X149500000Y-117750000D03*
D18*
X156750000Y-104750000D03*
D19*
X156750000Y-109750000D03*
D20*
X169700000Y-129600000D03*
D11*
X172240000Y-129600000D03*
D20*
X169700000Y-135200000D03*
D11*
X172240000Y-135200000D03*
D21*
X177180000Y-71540000D03*
D22*
X177180000Y-69000000D03*
X174640000Y-71540000D03*
X174640000Y-69000000D03*
X172100000Y-71540000D03*
X172100000Y-69000000D03*
X169560000Y-71540000D03*
X169560000Y-69000000D03*
X167020000Y-71540000D03*
X167020000Y-69000000D03*
D13*
X113370000Y-67650000D03*
X101500000Y-67650000D03*
D14*
X102990000Y-74000000D03*
D15*
X104260000Y-76540000D03*
X105530000Y-74000000D03*
X106800000Y-76540000D03*
X108070000Y-74000000D03*
X109340000Y-76540000D03*
X110610000Y-74000000D03*
X111880000Y-76540000D03*
D21*
X133100000Y-76340000D03*
D22*
X133100000Y-73800000D03*
D16*
X152500000Y-130500000D03*
X143000000Y-130500000D03*
X133500000Y-130500000D03*
X124000000Y-130500000D03*
D23*
X139735000Y-116800000D03*
X139735000Y-120200000D03*
X126265000Y-116800000D03*
X126265000Y-120200000D03*
D17*
X125300000Y-70500000D03*
D16*
X120300000Y-70500000D03*
D21*
X181500000Y-100640000D03*
D22*
X181500000Y-98100000D03*
D21*
X181500000Y-81500000D03*
D22*
X181500000Y-84040000D03*
X181500000Y-86580000D03*
X181500000Y-89120000D03*
X181500000Y-91660000D03*
X181500000Y-94200000D03*
D24*
X107400000Y-107000000D03*
D25*
X107400000Y-114500000D03*
D26*
X158500000Y-67800000D03*
X154000000Y-67800000D03*
X158500000Y-74300000D03*
X154000000Y-74300000D03*
D24*
X107300000Y-90400000D03*
D25*
X107300000Y-97900000D03*
D27*
X142700000Y-74200000D03*
X145240000Y-74200000D03*
X145240000Y-72200000D03*
X142700000Y-72200000D03*
D28*
X137970000Y-69500000D03*
X149970000Y-69500000D03*
D29*
X147080000Y-70600000D03*
X148080000Y-71250000D03*
X147080000Y-71900000D03*
X148080000Y-72550000D03*
X147080000Y-73200000D03*
D15*
X147300000Y-68325000D03*
X147300000Y-75475000D03*
M02*
