G04 #@! TF.GenerationSoftware,KiCad,Pcbnew,(2017-06-06 revision a18d72b5d)-makepkg*
G04 #@! TF.CreationDate,2017-08-15T07:41:38+02:00*
G04 #@! TF.ProjectId,MPPT_charger_20A,4D5050545F636861726765725F323041,rev?*
G04 #@! TF.FileFunction,Soldermask,Bot*
G04 #@! TF.FilePolarity,Negative*
%FSLAX46Y46*%
G04 Gerber Fmt 4.6, Leading zero omitted, Abs format (unit mm)*
G04 Created by KiCad (PCBNEW (2017-06-06 revision a18d72b5d)-makepkg) date 08/15/17 07:41:38*
%MOMM*%
%LPD*%
G01*
G04 APERTURE LIST*
%ADD10C,0.100000*%
%ADD11C,5.500000*%
%ADD12C,1.700000*%
%ADD13R,1.700000X1.700000*%
%ADD14C,3.200000*%
%ADD15C,2.500000*%
%ADD16C,2.000000*%
%ADD17R,2.000000X2.000000*%
%ADD18C,2.200000*%
%ADD19O,1.200000X1.700000*%
%ADD20C,1.100000*%
%ADD21C,2.400000*%
%ADD22R,2.400000X2.400000*%
%ADD23O,1.700000X1.700000*%
%ADD24C,3.650000*%
%ADD25R,1.500000X1.500000*%
%ADD26C,1.500000*%
%ADD27C,2.800000*%
%ADD28R,1.800000X1.800000*%
%ADD29C,1.800000*%
G04 APERTURE END LIST*
D10*
D11*
X142500000Y-95000000D03*
X129500000Y-95000000D03*
D12*
X209040000Y-110160000D03*
X206500000Y-110160000D03*
X209040000Y-107620000D03*
X206500000Y-107620000D03*
X209040000Y-105080000D03*
X206500000Y-105080000D03*
X209040000Y-102540000D03*
X206500000Y-102540000D03*
X209040000Y-100000000D03*
D13*
X206500000Y-100000000D03*
D14*
X113500000Y-88000000D03*
D15*
X122000000Y-130500000D03*
X131500000Y-130500000D03*
D16*
X132500000Y-114000000D03*
D17*
X137500000Y-114000000D03*
D18*
X185000000Y-130500000D03*
X181190000Y-130500000D03*
X188810000Y-130500000D03*
D14*
X198000000Y-127500000D03*
X198000000Y-88000000D03*
D19*
X146270000Y-79620000D03*
X151730000Y-79620000D03*
D20*
X146580000Y-82700000D03*
X151420000Y-82700000D03*
D21*
X112000000Y-119000000D03*
D22*
X112000000Y-111500000D03*
D21*
X107000000Y-103000000D03*
D22*
X107000000Y-95500000D03*
D15*
X169500000Y-130500000D03*
X160000000Y-130500000D03*
X141000000Y-130500000D03*
X150500000Y-130500000D03*
D23*
X201600000Y-83400000D03*
D13*
X201600000Y-80860000D03*
D24*
X165035000Y-82940000D03*
X176465000Y-82940000D03*
D25*
X175195000Y-89290000D03*
D26*
X173925000Y-91830000D03*
X172655000Y-89290000D03*
X171385000Y-91830000D03*
X170115000Y-89290000D03*
X168845000Y-91830000D03*
X167575000Y-89290000D03*
X166305000Y-91830000D03*
X181805000Y-91830000D03*
X183075000Y-89290000D03*
X184345000Y-91830000D03*
X185615000Y-89290000D03*
X186885000Y-91830000D03*
X188155000Y-89290000D03*
X189425000Y-91830000D03*
D25*
X190695000Y-89290000D03*
D24*
X191965000Y-82940000D03*
X180535000Y-82940000D03*
D13*
X210900000Y-117800000D03*
D23*
X208360000Y-117800000D03*
X205820000Y-117800000D03*
X203280000Y-117800000D03*
X200740000Y-117800000D03*
X198200000Y-117800000D03*
D13*
X200700000Y-121600000D03*
D23*
X198160000Y-121600000D03*
D27*
X147030000Y-120000000D03*
X147030000Y-123400000D03*
X160500000Y-120000000D03*
X160500000Y-123400000D03*
D28*
X205500000Y-125100000D03*
D29*
X202960000Y-125100000D03*
D28*
X210600000Y-125100000D03*
D29*
X208060000Y-125100000D03*
M02*
