M48
;DRILL file {KiCad (2017-11-18 revision ff5ee05de)-makepkg} date 01/18/18 20:06:34
;FORMAT={-:-/ absolute / metric / decimal}
FMAT,2
METRIC,TZ
T1C0.300
T2C0.400
T3C0.650
T4C0.900
T5C1.000
T6C1.200
T7C1.300
T8C1.600
T9C3.500
%
G90
G05
M71
T1
X99.6Y-127.2
X134.3Y-122.
X152.5Y-78.7
X155.Y-101.5
X164.343Y-104.85
X165.018Y-106.889
X165.872Y-107.173
X166.3Y-105.8
X166.634Y-109.707
X167.9Y-80.6
X168.1Y-108.3
X168.5Y-78.9
X170.Y-93.
X171.5Y-95.5
X172.6Y-99.1
X172.7Y-102.6
X173.195Y-106.198
X173.382Y-95.4
X174.Y-106.6
X175.2Y-107.65
X175.4Y-102.8
X176.295Y-104.085
X176.7Y-109.8
X176.842Y-105.397
X176.916Y-88.43
X178.031Y-91.171
X178.341Y-106.572
X178.9Y-129.9
X179.343Y-89.507
X180.1Y-98.8
X182.1Y-100.4
X182.1Y-102.
X182.1Y-103.6
X182.1Y-105.2
X182.7Y-98.5
X183.029Y-95.4
X184.55Y-95.319
X185.85Y-96.295
X185.9Y-95.2
X188.3Y-116.9
X190.079Y-103.485
X190.1Y-101.147
X190.1Y-102.047
X191.3Y-105.8
X191.45Y-102.11
X191.5Y-126.3
X192.3Y-105.5
X193.252Y-100.675
X193.3Y-137.
X193.552Y-91.888
X193.7Y-91.
X194.949Y-101.269
X195.103Y-105.594
X195.6Y-102.025
X195.625Y-100.675
X196.4Y-107.3
X196.8Y-99.1
X197.925Y-115.508
X198.2Y-108.9
X198.2Y-110.4
X199.5Y-123.6
X200.3Y-101.175
X201.2Y-100.8
X201.3Y-89.5
X201.4Y-91.3
X201.5Y-125.2
X202.077Y-95.567
X202.7Y-99.775
X202.79Y-94.861
X203.4Y-99.2
X203.91Y-93.278
X205.3Y-90.4
X205.579Y-97.379
X206.4Y-91.3
X206.9Y-93.3
X207.2Y-115.7
X210.625Y-96.05
X211.075Y-96.861
X212.1Y-94.8
T2
X100.Y-89.
X100.Y-91.
X100.Y-93.
X100.Y-95.
X100.Y-97.
X100.Y-99.
X102.5Y-103.
X102.5Y-105.
X102.5Y-107.
X102.5Y-109.
X104.5Y-103.
X104.5Y-105.
X104.5Y-107.
X104.5Y-109.
X104.5Y-111.
X104.5Y-113.
X104.5Y-115.
X104.5Y-117.
X104.5Y-119.
X104.5Y-121.
X104.5Y-123.
X106.5Y-105.
X106.5Y-107.
X106.5Y-109.
X106.5Y-111.
X106.5Y-113.
X106.5Y-115.
X106.5Y-117.
X106.5Y-119.
X106.5Y-121.
X106.5Y-123.
X107.Y-128.
X107.Y-129.5
X107.Y-131.
X108.5Y-79.5
X108.5Y-105.
X108.5Y-107.
X108.5Y-109.
X108.5Y-111.
X108.5Y-113.
X108.5Y-115.
X108.5Y-117.
X108.5Y-119.
X108.5Y-121.
X108.5Y-123.
X108.5Y-128.
X108.5Y-129.5
X108.5Y-131.
X110.5Y-79.5
X110.5Y-115.
X110.5Y-117.
X110.5Y-119.
X110.5Y-121.
X110.5Y-123.
X112.5Y-79.5
X112.5Y-121.
X112.5Y-123.
X114.5Y-79.5
X114.5Y-128.
X114.5Y-129.5
X114.5Y-131.
X115.5Y-96.
X115.5Y-97.5
X115.5Y-99.
X115.5Y-100.5
X115.5Y-102.
X115.5Y-103.5
X115.5Y-105.
X116.Y-126.5
X116.Y-128.
X116.Y-129.5
X116.Y-131.
X116.5Y-79.5
X117.5Y-96.
X117.5Y-97.5
X117.5Y-99.
X117.5Y-100.5
X117.5Y-102.
X117.5Y-103.5
X117.5Y-105.
X117.5Y-126.5
X118.5Y-79.5
X119.Y-96.
X119.Y-97.5
X119.Y-105.
X119.Y-126.5
X120.5Y-79.5
X120.5Y-81.5
X120.5Y-83.5
X120.5Y-85.5
X120.5Y-87.5
X120.5Y-89.5
X120.5Y-91.5
X120.5Y-93.5
X120.5Y-96.
X120.5Y-105.
X120.7Y-98.2
X120.7Y-103.8
X122.Y-93.5
X122.Y-95.
X122.Y-96.5
X122.1Y-98.2
X122.1Y-103.8
X122.5Y-79.5
X125.5Y-98.
X126.5Y-107.
X126.5Y-108.5
X126.5Y-110.
X126.5Y-111.5
X126.9Y-78.3
X127.Y-90.5
X127.Y-98.
X127.5Y-125.
X127.5Y-127.
X127.5Y-129.
X127.5Y-131.
X127.5Y-133.
X127.5Y-135.
X128.Y-107.
X128.Y-108.5
X128.Y-110.
X128.Y-111.5
X128.Y-113.
X128.5Y-90.5
X128.5Y-98.
X129.5Y-107.
X129.5Y-108.5
X129.5Y-110.
X129.5Y-111.5
X129.5Y-113.
X129.5Y-123.
X129.5Y-125.
X129.5Y-127.
X129.5Y-129.
X129.5Y-131.
X129.5Y-133.
X129.5Y-135.
X130.Y-90.5
X130.Y-98.
X131.Y-107.
X131.Y-108.5
X131.Y-110.
X131.5Y-89.
X131.5Y-90.5
X131.5Y-98.
X131.5Y-99.5
X131.5Y-101.
X131.5Y-102.
X131.5Y-123.
X131.5Y-125.
X131.5Y-127.
X131.5Y-133.
X131.5Y-135.
X132.5Y-107.
X132.5Y-108.5
X132.5Y-110.
X133.Y-89.
X133.Y-98.
X133.Y-99.5
X133.Y-101.
X133.Y-102.
X133.5Y-119.
X133.5Y-123.
X133.5Y-125.
X133.5Y-127.
X133.5Y-133.
X133.5Y-135.
X134.Y-107.
X134.Y-108.5
X134.Y-110.
X134.5Y-89.
X134.5Y-98.
X134.5Y-99.5
X134.5Y-101.
X134.5Y-102.
X135.5Y-117.
X135.5Y-119.
X135.5Y-121.
X136.Y-89.
X136.Y-90.5
X136.Y-92.
X136.Y-93.5
X136.Y-95.
X136.Y-96.5
X136.Y-98.
X136.Y-99.5
X136.Y-101.
X137.5Y-117.
X137.5Y-119.
X137.5Y-121.
X137.5Y-123.
X137.5Y-125.
X137.5Y-127.
X137.5Y-129.
X137.5Y-131.
X137.5Y-133.
X137.5Y-135.
X138.6Y-78.7
X139.Y-103.
X139.5Y-117.
X139.5Y-127.
X139.5Y-129.
X139.5Y-133.
X139.5Y-135.
X140.Y-104.
X140.4Y-81.1
X140.5Y-78.8
X141.Y-105.
X141.5Y-127.
X141.5Y-133.
X141.5Y-135.
X142.Y-106.
X143.Y-107.
X143.7Y-83.8
X144.Y-108.
X144.3Y-86.2
X145.Y-109.
X146.5Y-109.
X148.Y-109.
X148.273Y-89.21
X149.5Y-109.
X151.Y-109.
X152.5Y-100.
X152.5Y-101.5
X152.5Y-109.
X154.2Y-80.9
X156.7Y-80.7
X156.9Y-96.5
X160.5Y-133.
X160.5Y-135.
X161.9Y-110.7
X162.5Y-127.
X162.5Y-129.
X162.5Y-131.
X162.5Y-133.
X162.5Y-135.
X163.Y-119.5
X163.Y-121.
X163.Y-122.5
X163.Y-124.
X167.Y-129.
X167.Y-131.
X167.Y-133.
X167.Y-135.
X167.1Y-104.7
X169.Y-97.
X169.Y-119.
X169.Y-121.
X169.Y-133.
X169.Y-135.
X170.Y-112.5
X170.006Y-105.3
X171.Y-112.5
X171.Y-119.
X171.Y-121.
X171.Y-129.
X171.Y-133.
X171.Y-135.
X171.2Y-102.9
X172.Y-112.5
X172.98Y-101.076
X173.Y-112.5
X173.Y-119.
X173.Y-121.
X173.Y-123.
X173.Y-125.
X173.Y-127.
X173.Y-129.
X173.Y-131.
X173.Y-133.
X173.Y-135.
X174.Y-113.5
X174.Y-114.5
X174.Y-115.5
X174.Y-116.5
X174.Y-117.5
X174.849Y-101.249
X174.9Y-95.9
X174.999Y-98.811
X175.Y-119.
X175.Y-121.
X175.Y-123.
X175.Y-125.
X175.Y-127.
X175.Y-129.
X175.Y-131.
X175.Y-133.
X175.Y-135.
X175.72Y-92.198
X179.2Y-116.4
X179.5Y-107.75
X179.9Y-96.
X180.3Y-129.1
X182.Y-130.
X185.8Y-106.3
X186.5Y-116.8
X186.5Y-118.2
X186.6Y-94.3
X188.4Y-118.2
X189.3Y-110.7
X189.315Y-125.393
X189.5Y-116.2
X190.9Y-118.2
X191.3Y-135.6
X191.5Y-85.8
X191.6Y-110.6
X191.9Y-94.
X192.9Y-116.6
X193.028Y-87.361
X194.1Y-119.
X195.708Y-133.392
X195.8Y-110.6
X196.568Y-111.241
X197.3Y-131.4
X199.475Y-114.
X200.884Y-97.783
X201.7Y-87.2
X201.9Y-96.5
X202.1Y-128.2
X202.2Y-80.8
X202.4Y-93.2
X202.5Y-135.2
X202.762Y-102.028
X203.3Y-123.6
X203.368Y-109.112
X203.9Y-104.6
X204.3Y-100.8
X204.9Y-87.9
X205.1Y-98.2
X210.Y-91.7
X211.4Y-123.7
T3
X144.58Y-82.4
X149.42Y-82.4
T4
X166.305Y-91.33
X167.575Y-88.79
X168.845Y-91.33
X170.115Y-88.79
X171.385Y-91.33
X172.655Y-88.79
X173.925Y-91.33
X175.195Y-88.79
X181.805Y-91.33
X183.075Y-88.79
X184.345Y-91.33
X185.615Y-88.79
X186.885Y-91.33
X188.155Y-88.79
X189.425Y-91.33
X190.695Y-88.79
T5
X132.5Y-114.
X137.5Y-114.
X198.2Y-117.8
X200.74Y-117.8
X203.28Y-117.8
X205.82Y-117.8
X208.36Y-117.8
X210.9Y-117.8
X199.5Y-83.5
X202.04Y-83.5
X206.5Y-100.
X206.5Y-102.54
X206.5Y-105.08
X206.5Y-107.62
X206.5Y-110.16
X209.04Y-100.
X209.04Y-102.54
X209.04Y-105.08
X209.04Y-107.62
X209.04Y-110.16
X198.16Y-121.6
X200.7Y-121.6
T6
X144.27Y-79.32
X149.73Y-79.32
X181.19Y-133.
X185.Y-133.
X188.81Y-133.
X112.5Y-111.
X112.5Y-118.5
X107.5Y-95.
X107.5Y-102.5
T7
X160.Y-130.5
X169.5Y-130.5
X141.Y-130.5
X150.5Y-130.5
X122.Y-130.5
X131.5Y-130.5
T8
X147.03Y-120.
X147.03Y-123.4
X160.5Y-120.
X160.5Y-123.4
T9
X128.5Y-94.6
X141.5Y-94.6
T0
M30
