G04 #@! TF.FileFunction,Soldermask,Top*
%FSLAX46Y46*%
G04 Gerber Fmt 4.6, Leading zero omitted, Abs format (unit mm)*
G04 Created by KiCad (PCBNEW 4.0.4-stable) date 03/22/17 10:00:08*
%MOMM*%
%LPD*%
G01*
G04 APERTURE LIST*
%ADD10C,0.100000*%
%ADD11R,1.400000X2.000000*%
%ADD12R,1.400000X1.650000*%
%ADD13R,1.200000X1.150000*%
%ADD14R,2.800000X1.900000*%
%ADD15R,1.450000X1.900000*%
%ADD16R,1.460000X1.050000*%
%ADD17R,1.700000X1.100000*%
%ADD18R,0.900000X1.300000*%
%ADD19R,1.901140X5.700980*%
%ADD20R,1.600000X1.300000*%
%ADD21R,1.650000X1.400000*%
%ADD22R,1.150000X1.200000*%
%ADD23R,1.300000X0.900000*%
%ADD24C,2.200000*%
%ADD25R,1.950000X1.000000*%
%ADD26R,4.400000X3.500000*%
%ADD27C,5.400000*%
%ADD28R,1.700000X0.650000*%
%ADD29R,0.650000X1.700000*%
%ADD30C,4.050000*%
%ADD31R,1.900000X1.900000*%
%ADD32C,1.900000*%
%ADD33R,2.400000X0.800000*%
%ADD34C,2.900000*%
%ADD35R,2.900000X2.900000*%
%ADD36R,1.700000X1.700000*%
%ADD37C,1.700000*%
%ADD38R,2.200000X2.200000*%
%ADD39R,1.100000X1.700000*%
%ADD40R,1.200000X1.300000*%
%ADD41R,1.300000X1.200000*%
%ADD42R,1.300000X1.600000*%
%ADD43R,2.100000X2.100000*%
%ADD44O,2.100000X2.100000*%
%ADD45R,1.300000X2.100000*%
%ADD46R,2.100000X1.300000*%
%ADD47R,1.900000X2.800000*%
%ADD48R,1.900000X1.450000*%
%ADD49R,1.000000X1.950000*%
%ADD50R,1.700000X2.300000*%
%ADD51C,3.200000*%
%ADD52R,2.800000X2.800000*%
%ADD53C,2.800000*%
%ADD54C,2.400000*%
%ADD55C,1.920000*%
%ADD56C,3.100000*%
%ADD57C,1.200000*%
%ADD58R,0.850000X1.300000*%
%ADD59R,4.850000X1.700000*%
%ADD60R,4.350000X3.250000*%
%ADD61R,1.300000X0.850000*%
%ADD62R,1.700000X4.850000*%
%ADD63R,3.250000X4.350000*%
%ADD64R,3.500000X4.400000*%
G04 APERTURE END LIST*
D10*
D11*
X169300000Y-114800000D03*
X172300000Y-114800000D03*
D12*
X169300000Y-117000000D03*
X171300000Y-117000000D03*
D13*
X169450000Y-112800000D03*
X170950000Y-112800000D03*
D14*
X170050000Y-110700000D03*
D15*
X172425000Y-110700000D03*
D16*
X165200000Y-110550000D03*
X165200000Y-111500000D03*
X165200000Y-112450000D03*
X167400000Y-112450000D03*
X167400000Y-110550000D03*
X167400000Y-111500000D03*
D17*
X167300000Y-116250000D03*
X167300000Y-114350000D03*
D13*
X164750000Y-108900000D03*
X166250000Y-108900000D03*
D18*
X165450000Y-114300000D03*
X163950000Y-114300000D03*
D19*
X167941000Y-106300000D03*
X172259000Y-106300000D03*
D20*
X165200000Y-107250000D03*
X165200000Y-103950000D03*
D21*
X176300000Y-107900000D03*
X176300000Y-109900000D03*
X174300000Y-107900000D03*
X174300000Y-109900000D03*
D13*
X168250000Y-98500000D03*
X166750000Y-98500000D03*
D22*
X173800000Y-101600000D03*
X173800000Y-100100000D03*
D16*
X172000000Y-101600000D03*
X172000000Y-100650000D03*
X172000000Y-99700000D03*
X169800000Y-99700000D03*
X169800000Y-101600000D03*
D22*
X168000000Y-101750000D03*
X168000000Y-100250000D03*
D23*
X160800000Y-124650000D03*
X160800000Y-126150000D03*
X160800000Y-123150000D03*
X160800000Y-121650000D03*
X162800000Y-123150000D03*
X162800000Y-121650000D03*
X162800000Y-126150000D03*
X162800000Y-124650000D03*
D24*
X178500000Y-128190000D03*
X175960000Y-128190000D03*
X181040000Y-128190000D03*
X175960000Y-135810000D03*
X178500000Y-135810000D03*
X181040000Y-135810000D03*
D25*
X165000000Y-121795000D03*
X165000000Y-123065000D03*
X165000000Y-124335000D03*
X165000000Y-125605000D03*
X170400000Y-125605000D03*
X170400000Y-124335000D03*
X170400000Y-123065000D03*
X170400000Y-121795000D03*
D23*
X174500000Y-124350000D03*
X174500000Y-125850000D03*
X172600000Y-125850000D03*
X172600000Y-124350000D03*
D13*
X169850000Y-119900000D03*
X168350000Y-119900000D03*
D23*
X174500000Y-121450000D03*
X174500000Y-122950000D03*
X172600000Y-122950000D03*
X172600000Y-121450000D03*
D26*
X133500000Y-112900000D03*
X133500000Y-117300000D03*
D27*
X119620338Y-97074931D03*
X132620338Y-97074931D03*
D13*
X156250000Y-90600000D03*
X154750000Y-90600000D03*
X151750000Y-90600000D03*
X153250000Y-90600000D03*
D18*
X153250000Y-92200000D03*
X151750000Y-92200000D03*
X154750000Y-92200000D03*
X156250000Y-92200000D03*
D28*
X166650000Y-81350000D03*
X166650000Y-81850000D03*
X166650000Y-82350000D03*
X166650000Y-82850000D03*
X166650000Y-83350000D03*
X166650000Y-83850000D03*
X166650000Y-84350000D03*
X166650000Y-84850000D03*
X166650000Y-85350000D03*
X166650000Y-85850000D03*
X166650000Y-86350000D03*
X166650000Y-86850000D03*
D29*
X168250000Y-88450000D03*
X168750000Y-88450000D03*
X169250000Y-88450000D03*
X169750000Y-88450000D03*
X170250000Y-88450000D03*
X170750000Y-88450000D03*
X171250000Y-88450000D03*
X171750000Y-88450000D03*
X172250000Y-88450000D03*
X172750000Y-88450000D03*
X173250000Y-88450000D03*
X173750000Y-88450000D03*
D28*
X175350000Y-86850000D03*
X175350000Y-86350000D03*
X175350000Y-85850000D03*
X175350000Y-85350000D03*
X175350000Y-84850000D03*
X175350000Y-84350000D03*
X175350000Y-83850000D03*
X175350000Y-83350000D03*
X175350000Y-82850000D03*
X175350000Y-82350000D03*
X175350000Y-81850000D03*
X175350000Y-81350000D03*
D29*
X173750000Y-79750000D03*
X173250000Y-79750000D03*
X172750000Y-79750000D03*
X172250000Y-79750000D03*
X171750000Y-79750000D03*
X171250000Y-79750000D03*
X170750000Y-79750000D03*
X170250000Y-79750000D03*
X169750000Y-79750000D03*
X169250000Y-79750000D03*
X168750000Y-79750000D03*
X168250000Y-79750000D03*
D30*
X129170000Y-67650000D03*
X117300000Y-67650000D03*
D31*
X118790000Y-74000000D03*
D32*
X120060000Y-76540000D03*
X121330000Y-74000000D03*
X122600000Y-76540000D03*
X123870000Y-74000000D03*
X125140000Y-76540000D03*
X126410000Y-74000000D03*
X127680000Y-76540000D03*
D33*
X162500000Y-82800000D03*
X162500000Y-85200000D03*
X162500000Y-84000000D03*
D16*
X103500000Y-81650000D03*
X103500000Y-82600000D03*
X103500000Y-83550000D03*
X105700000Y-83550000D03*
X105700000Y-81650000D03*
X105700000Y-82600000D03*
D22*
X177300000Y-80450000D03*
X177300000Y-81950000D03*
D34*
X114500000Y-130500000D03*
X105000000Y-130500000D03*
D35*
X165700000Y-133200000D03*
D34*
X160700000Y-133200000D03*
D22*
X175101100Y-89653600D03*
X175101100Y-91153600D03*
D12*
X114500000Y-109000000D03*
X116500000Y-109000000D03*
X110000000Y-130200000D03*
X112000000Y-130200000D03*
X127000000Y-106700000D03*
X125000000Y-106700000D03*
D36*
X149500000Y-112750000D03*
D37*
X149500000Y-117750000D03*
D36*
X156750000Y-104750000D03*
D37*
X156750000Y-109750000D03*
D13*
X121250000Y-86000000D03*
X119750000Y-86000000D03*
X168150000Y-92200000D03*
X169650000Y-92200000D03*
X116750000Y-80200000D03*
X115250000Y-80200000D03*
X172850000Y-92200000D03*
X171350000Y-92200000D03*
X166450000Y-92200000D03*
X164950000Y-92200000D03*
X161750000Y-92200000D03*
X163250000Y-92200000D03*
X157250000Y-79200000D03*
X155750000Y-79200000D03*
X157250000Y-85600000D03*
X155750000Y-85600000D03*
D22*
X156700000Y-71750000D03*
X156700000Y-70250000D03*
D13*
X165150000Y-79600000D03*
X166650000Y-79600000D03*
D22*
X179100000Y-80450000D03*
X179100000Y-81950000D03*
D13*
X151850000Y-87200000D03*
X150350000Y-87200000D03*
D22*
X161900000Y-73750000D03*
X161900000Y-72250000D03*
D18*
X148350000Y-85000000D03*
X149850000Y-85000000D03*
D38*
X169700000Y-129600000D03*
D24*
X172240000Y-129600000D03*
D38*
X169700000Y-135200000D03*
D24*
X172240000Y-135200000D03*
D23*
X116700000Y-106050000D03*
X116700000Y-107550000D03*
D17*
X116300000Y-93050000D03*
X116300000Y-91150000D03*
X114100000Y-93050000D03*
X114100000Y-91150000D03*
D18*
X157750000Y-114000000D03*
X156250000Y-114000000D03*
D39*
X121450000Y-88000000D03*
X119550000Y-88000000D03*
D18*
X169850000Y-94000000D03*
X168350000Y-94000000D03*
X153250000Y-118000000D03*
X154750000Y-118000000D03*
X153250000Y-114000000D03*
X154750000Y-114000000D03*
X153250000Y-116000000D03*
X154750000Y-116000000D03*
X171150000Y-94000000D03*
X172650000Y-94000000D03*
X164750000Y-95800000D03*
X166250000Y-95800000D03*
X163450000Y-95800000D03*
X161950000Y-95800000D03*
X166250000Y-94000000D03*
X164750000Y-94000000D03*
X161950000Y-94000000D03*
X163450000Y-94000000D03*
D23*
X162300000Y-79650000D03*
X162300000Y-81150000D03*
D18*
X153450000Y-94000000D03*
X151950000Y-94000000D03*
D23*
X163700000Y-75250000D03*
X163700000Y-76750000D03*
X161900000Y-75250000D03*
X161900000Y-76750000D03*
X163700000Y-72050000D03*
X163700000Y-73550000D03*
D18*
X174250000Y-131200000D03*
X175750000Y-131200000D03*
X174250000Y-133100000D03*
X175750000Y-133100000D03*
D23*
X158500000Y-71750000D03*
X158500000Y-70250000D03*
D40*
X158200000Y-116000000D03*
X156300000Y-116000000D03*
X157250000Y-118000000D03*
D41*
X161700000Y-68250000D03*
X161700000Y-70150000D03*
X163700000Y-69200000D03*
D11*
X114000000Y-111500000D03*
X117000000Y-111500000D03*
D42*
X114650000Y-115350000D03*
X111350000Y-115350000D03*
D22*
X101500000Y-81250000D03*
X101500000Y-82750000D03*
D12*
X106700000Y-79700000D03*
X104700000Y-79700000D03*
D13*
X144550000Y-68350000D03*
X143050000Y-68350000D03*
D22*
X137300000Y-81650000D03*
X137300000Y-83150000D03*
D21*
X107900000Y-81600000D03*
X107900000Y-83600000D03*
D13*
X129850000Y-78800000D03*
X128350000Y-78800000D03*
D16*
X145200000Y-78550000D03*
X145200000Y-77600000D03*
X145200000Y-76650000D03*
X143000000Y-76650000D03*
X143000000Y-78550000D03*
X143000000Y-77600000D03*
D41*
X127100000Y-82350000D03*
X127100000Y-80450000D03*
X125100000Y-81400000D03*
D40*
X159850000Y-90800000D03*
X157950000Y-90800000D03*
X158900000Y-92800000D03*
D43*
X177180000Y-71540000D03*
D44*
X177180000Y-69000000D03*
X174640000Y-71540000D03*
X174640000Y-69000000D03*
X172100000Y-71540000D03*
X172100000Y-69000000D03*
X169560000Y-71540000D03*
X169560000Y-69000000D03*
X167020000Y-71540000D03*
X167020000Y-69000000D03*
D30*
X113370000Y-67650000D03*
X101500000Y-67650000D03*
D31*
X102990000Y-74000000D03*
D32*
X104260000Y-76540000D03*
X105530000Y-74000000D03*
X106800000Y-76540000D03*
X108070000Y-74000000D03*
X109340000Y-76540000D03*
X110610000Y-74000000D03*
X111880000Y-76540000D03*
D43*
X133100000Y-76340000D03*
D44*
X133100000Y-73800000D03*
D18*
X111500000Y-117500000D03*
X113000000Y-117500000D03*
D45*
X127950000Y-104300000D03*
X125050000Y-104300000D03*
X127950000Y-102000000D03*
X125050000Y-102000000D03*
D23*
X163600000Y-112950000D03*
X163600000Y-111450000D03*
D18*
X147000000Y-78850000D03*
X148500000Y-78850000D03*
X148700000Y-76700000D03*
X150200000Y-76700000D03*
X171350000Y-76000000D03*
X172850000Y-76000000D03*
X171350000Y-74400000D03*
X172850000Y-74400000D03*
D46*
X136300000Y-75550000D03*
X136300000Y-78450000D03*
D34*
X152500000Y-130500000D03*
X143000000Y-130500000D03*
X133500000Y-130500000D03*
X124000000Y-130500000D03*
D25*
X135200000Y-84305000D03*
X135200000Y-83035000D03*
X135200000Y-81765000D03*
X135200000Y-80495000D03*
X129800000Y-80495000D03*
X129800000Y-81765000D03*
X129800000Y-83035000D03*
X129800000Y-84305000D03*
D47*
X110600000Y-82550000D03*
D48*
X110600000Y-80175000D03*
D49*
X117905000Y-82300000D03*
X116635000Y-82300000D03*
X115365000Y-82300000D03*
X114095000Y-82300000D03*
X114095000Y-87700000D03*
X115365000Y-87700000D03*
X116635000Y-87700000D03*
X117905000Y-87700000D03*
D50*
X159251100Y-80803600D03*
X153751100Y-80803600D03*
X153751100Y-84003600D03*
X159251100Y-84003600D03*
D51*
X139735000Y-116800000D03*
X139735000Y-120200000D03*
X126265000Y-116800000D03*
X126265000Y-120200000D03*
D35*
X125300000Y-70500000D03*
D34*
X120300000Y-70500000D03*
D43*
X181500000Y-100640000D03*
D44*
X181500000Y-98100000D03*
D43*
X181500000Y-81500000D03*
D44*
X181500000Y-84040000D03*
X181500000Y-86580000D03*
X181500000Y-89120000D03*
X181500000Y-91660000D03*
X181500000Y-94200000D03*
D52*
X107400000Y-107000000D03*
D53*
X107400000Y-114500000D03*
D54*
X158500000Y-67800000D03*
X154000000Y-67800000D03*
X158500000Y-74300000D03*
X154000000Y-74300000D03*
D52*
X107300000Y-90400000D03*
D53*
X107300000Y-97900000D03*
D55*
X142700000Y-74200000D03*
X145240000Y-74200000D03*
X145240000Y-72200000D03*
X142700000Y-72200000D03*
D56*
X137970000Y-69500000D03*
X149970000Y-69500000D03*
D18*
X165450000Y-117600000D03*
X163950000Y-117600000D03*
X165450000Y-116000000D03*
X163950000Y-116000000D03*
D23*
X149450000Y-72300000D03*
X149450000Y-73800000D03*
D57*
X147080000Y-70600000D03*
X148080000Y-71250000D03*
X147080000Y-71900000D03*
X148080000Y-72550000D03*
X147080000Y-73200000D03*
D32*
X147300000Y-68325000D03*
X147300000Y-75475000D03*
D58*
X119865000Y-107875000D03*
X118595000Y-107875000D03*
X121135000Y-107875000D03*
D59*
X120500000Y-102400000D03*
D60*
X120500000Y-104700000D03*
D58*
X122405000Y-107875000D03*
D61*
X116325000Y-103235000D03*
X116325000Y-104505000D03*
X116325000Y-101965000D03*
D62*
X110850000Y-102600000D03*
D63*
X113150000Y-102600000D03*
D61*
X116325000Y-100695000D03*
D58*
X117635000Y-117625000D03*
X118905000Y-117625000D03*
X116365000Y-117625000D03*
D59*
X117000000Y-123100000D03*
D60*
X117000000Y-120800000D03*
D58*
X115095000Y-117625000D03*
D61*
X147875000Y-124740000D03*
X147875000Y-123470000D03*
X147875000Y-126010000D03*
D62*
X153350000Y-125375000D03*
D63*
X151050000Y-125375000D03*
D61*
X147875000Y-127280000D03*
D64*
X137100000Y-125000000D03*
X141500000Y-125000000D03*
D22*
X176400000Y-121550000D03*
X176400000Y-123050000D03*
M02*
