%TF.GenerationSoftware,KiCad,Pcbnew,(2017-11-18 revision ff5ee05de)-makepkg*%
%TF.CreationDate,2018-01-26T17:49:48+01:00*%
%TF.ProjectId,MPPT_charger_20A,4D5050545F636861726765725F323041,0.9*%
%TF.SameCoordinates,Original*%
%TF.FileFunction,Other,Fab,Bot*%
%FSLAX46Y46*%
G04 Gerber Fmt 4.6, Leading zero omitted, Abs format (unit mm)*
G04 Created by KiCad (PCBNEW (2017-11-18 revision ff5ee05de)-makepkg) date 01/26/18 17:49:48*
%MOMM*%
%LPD*%
G01*
G04 APERTURE LIST*
%ADD10C,0.150000*%
G04 APERTURE END LIST*
%TO.C,LOGO?*%
D10*
X156833333Y-89747619D02*
X156357142Y-89747619D01*
X156357142Y-90747619D01*
X157357142Y-90747619D02*
X157547619Y-90747619D01*
X157642857Y-90700000D01*
X157738095Y-90604761D01*
X157785714Y-90414285D01*
X157785714Y-90080952D01*
X157738095Y-89890476D01*
X157642857Y-89795238D01*
X157547619Y-89747619D01*
X157357142Y-89747619D01*
X157261904Y-89795238D01*
X157166666Y-89890476D01*
X157119047Y-90080952D01*
X157119047Y-90414285D01*
X157166666Y-90604761D01*
X157261904Y-90700000D01*
X157357142Y-90747619D01*
X158738095Y-90700000D02*
X158642857Y-90747619D01*
X158500000Y-90747619D01*
X158357142Y-90700000D01*
X158261904Y-90604761D01*
X158214285Y-90509523D01*
X158166666Y-90319047D01*
X158166666Y-90176190D01*
X158214285Y-89985714D01*
X158261904Y-89890476D01*
X158357142Y-89795238D01*
X158500000Y-89747619D01*
X158595238Y-89747619D01*
X158738095Y-89795238D01*
X158785714Y-89842857D01*
X158785714Y-90176190D01*
X158595238Y-90176190D01*
X159404761Y-90747619D02*
X159595238Y-90747619D01*
X159690476Y-90700000D01*
X159785714Y-90604761D01*
X159833333Y-90414285D01*
X159833333Y-90080952D01*
X159785714Y-89890476D01*
X159690476Y-89795238D01*
X159595238Y-89747619D01*
X159404761Y-89747619D01*
X159309523Y-89795238D01*
X159214285Y-89890476D01*
X159166666Y-90080952D01*
X159166666Y-90414285D01*
X159214285Y-90604761D01*
X159309523Y-90700000D01*
X159404761Y-90747619D01*
X160404761Y-89842857D02*
X160452380Y-89795238D01*
X160404761Y-89747619D01*
X160357142Y-89795238D01*
X160404761Y-89842857D01*
X160404761Y-89747619D01*
X160214285Y-90700000D02*
X160309523Y-90747619D01*
X160547619Y-90747619D01*
X160642857Y-90700000D01*
X160690476Y-90604761D01*
X160690476Y-90509523D01*
X160642857Y-90414285D01*
X160595238Y-90366666D01*
X160500000Y-90319047D01*
X160452380Y-90271428D01*
X160404761Y-90176190D01*
X160404761Y-90128571D01*
%TD*%
M02*
