%TF.GenerationSoftware,KiCad,Pcbnew,(2017-11-18 revision ff5ee05de)-makepkg*%
%TF.CreationDate,2017-12-11T11:21:48+01:00*%
%TF.ProjectId,MPPT_charger_20A,4D5050545F636861726765725F323041,0.9*%
%TF.SameCoordinates,Original*%
%TF.FileFunction,Other,Fab,Top*%
%FSLAX46Y46*%
G04 Gerber Fmt 4.6, Leading zero omitted, Abs format (unit mm)*
G04 Created by KiCad (PCBNEW (2017-11-18 revision ff5ee05de)-makepkg) date 12/11/17 11:21:48*
%MOMM*%
%LPD*%
G01*
G04 APERTURE LIST*
%ADD10C,0.100000*%
%ADD11C,0.150000*%
%ADD12C,0.075000*%
%ADD13C,0.105000*%
%ADD14C,0.120000*%
G04 APERTURE END LIST*
D10*
%TO.C,J1*%
X117100000Y-135700000D02*
X117300000Y-135700000D01*
X117000000Y-135800000D02*
X117100000Y-135700000D01*
X116700000Y-135800000D02*
X117000000Y-135800000D01*
X116700000Y-135200000D02*
X116700000Y-135800000D01*
X117000000Y-135200000D02*
X116700000Y-135200000D01*
X117100000Y-135300000D02*
X117000000Y-135200000D01*
X117300000Y-135300000D02*
X117100000Y-135300000D01*
X117100000Y-127100000D02*
X117300000Y-127100000D01*
X117000000Y-127200000D02*
X117100000Y-127100000D01*
X116700000Y-127200000D02*
X117000000Y-127200000D01*
X116700000Y-126600000D02*
X116700000Y-127200000D01*
X117000000Y-126600000D02*
X116700000Y-126600000D01*
X117100000Y-126700000D02*
X117000000Y-126600000D01*
X117300000Y-126700000D02*
X117100000Y-126700000D01*
X117300000Y-138400000D02*
X117300000Y-125900000D01*
X136200000Y-138400000D02*
X117300000Y-138400000D01*
X136200000Y-125900000D02*
X136200000Y-138400000D01*
X117300000Y-125900000D02*
X136200000Y-125900000D01*
%TO.C,J2*%
X155100000Y-135700000D02*
X155300000Y-135700000D01*
X155000000Y-135800000D02*
X155100000Y-135700000D01*
X154700000Y-135800000D02*
X155000000Y-135800000D01*
X154700000Y-135200000D02*
X154700000Y-135800000D01*
X155000000Y-135200000D02*
X154700000Y-135200000D01*
X155100000Y-135300000D02*
X155000000Y-135200000D01*
X155300000Y-135300000D02*
X155100000Y-135300000D01*
X155100000Y-127100000D02*
X155300000Y-127100000D01*
X155000000Y-127200000D02*
X155100000Y-127100000D01*
X154700000Y-127200000D02*
X155000000Y-127200000D01*
X154700000Y-126600000D02*
X154700000Y-127200000D01*
X155000000Y-126600000D02*
X154700000Y-126600000D01*
X155100000Y-126700000D02*
X155000000Y-126600000D01*
X155300000Y-126700000D02*
X155100000Y-126700000D01*
X155300000Y-138400000D02*
X155300000Y-125900000D01*
X174200000Y-138400000D02*
X155300000Y-138400000D01*
X174200000Y-125900000D02*
X174200000Y-138400000D01*
X155300000Y-125900000D02*
X174200000Y-125900000D01*
%TO.C,J3*%
X136100000Y-135700000D02*
X136300000Y-135700000D01*
X136000000Y-135800000D02*
X136100000Y-135700000D01*
X135700000Y-135800000D02*
X136000000Y-135800000D01*
X135700000Y-135200000D02*
X135700000Y-135800000D01*
X136000000Y-135200000D02*
X135700000Y-135200000D01*
X136100000Y-135300000D02*
X136000000Y-135200000D01*
X136300000Y-135300000D02*
X136100000Y-135300000D01*
X136100000Y-127100000D02*
X136300000Y-127100000D01*
X136000000Y-127200000D02*
X136100000Y-127100000D01*
X135700000Y-127200000D02*
X136000000Y-127200000D01*
X135700000Y-126600000D02*
X135700000Y-127200000D01*
X136000000Y-126600000D02*
X135700000Y-126600000D01*
X136100000Y-126700000D02*
X136000000Y-126600000D01*
X136300000Y-126700000D02*
X136100000Y-126700000D01*
X136300000Y-138400000D02*
X136300000Y-125900000D01*
X155200000Y-138400000D02*
X136300000Y-138400000D01*
X155200000Y-125900000D02*
X155200000Y-138400000D01*
X136300000Y-125900000D02*
X155200000Y-125900000D01*
%TO.C,F1*%
X163565000Y-118300000D02*
X163565000Y-125100000D01*
X143965000Y-118300000D02*
X163565000Y-118300000D01*
X143965000Y-125100000D02*
X143965000Y-118300000D01*
X163565000Y-125100000D02*
X143965000Y-125100000D01*
%TO.C,Q3*%
X173900000Y-112600000D02*
X173900000Y-118400000D01*
X173900000Y-118400000D02*
X166100000Y-118400000D01*
X166100000Y-118400000D02*
X166100000Y-113400000D01*
X166900000Y-112600000D02*
X173900000Y-112600000D01*
X166900000Y-112600000D02*
X166100000Y-113400000D01*
%TO.C,Q2*%
X114400000Y-132600000D02*
X108600000Y-132600000D01*
X108600000Y-132600000D02*
X108600000Y-124800000D01*
X108600000Y-124800000D02*
X113600000Y-124800000D01*
X114400000Y-125600000D02*
X114400000Y-132600000D01*
X114400000Y-125600000D02*
X113600000Y-124800000D01*
%TO.C,Q1*%
X118000000Y-103900000D02*
X118000000Y-98100000D01*
X118000000Y-98100000D02*
X125800000Y-98100000D01*
X125800000Y-98100000D02*
X125800000Y-103100000D01*
X125000000Y-103900000D02*
X118000000Y-103900000D01*
X125000000Y-103900000D02*
X125800000Y-103100000D01*
%TO.C,Q4*%
X125800000Y-98500000D02*
X131600000Y-98500000D01*
X131600000Y-98500000D02*
X131600000Y-106300000D01*
X131600000Y-106300000D02*
X126600000Y-106300000D01*
X125800000Y-105500000D02*
X125800000Y-98500000D01*
X125800000Y-105500000D02*
X126600000Y-106300000D01*
%TO.C,C23*%
X189420000Y-113100000D02*
X189420000Y-115100000D01*
X189420000Y-115100000D02*
X188180000Y-115100000D01*
X188180000Y-115100000D02*
X188180000Y-113100000D01*
X188180000Y-113100000D02*
X189420000Y-113100000D01*
%TO.C,C12*%
X125700000Y-78780000D02*
X125700000Y-80020000D01*
X123700000Y-78780000D02*
X125700000Y-78780000D01*
X123700000Y-80020000D02*
X123700000Y-78780000D01*
X125700000Y-80020000D02*
X123700000Y-80020000D01*
%TO.C,R35*%
X199900000Y-103900000D02*
X199900000Y-102300000D01*
X199900000Y-102300000D02*
X200700000Y-102300000D01*
X200700000Y-102300000D02*
X200700000Y-103900000D01*
X200700000Y-103900000D02*
X199900000Y-103900000D01*
%TO.C,Q6*%
X196000000Y-93850000D02*
X196000000Y-96300000D01*
X196550000Y-93280000D02*
X197400000Y-93280000D01*
X196000000Y-93850000D02*
X196550000Y-93280000D01*
X197400000Y-93280000D02*
X197400000Y-96320000D01*
X196000000Y-96320000D02*
X197400000Y-96320000D01*
%TO.C,JP3*%
X202360000Y-79460000D02*
X202360000Y-73460000D01*
X201720000Y-73460000D02*
X202360000Y-73460000D01*
X201720000Y-79460000D02*
X201720000Y-73460000D01*
X202360000Y-83820000D02*
X202360000Y-82000000D01*
X201720000Y-83820000D02*
X202360000Y-83820000D01*
X201720000Y-83820000D02*
X201720000Y-82000000D01*
X199820000Y-79460000D02*
X199820000Y-73460000D01*
X199180000Y-73460000D02*
X199820000Y-73460000D01*
X199180000Y-79460000D02*
X199180000Y-73460000D01*
X199820000Y-83820000D02*
X199820000Y-82000000D01*
X199180000Y-83820000D02*
X199820000Y-83820000D01*
X199180000Y-83820000D02*
X199180000Y-82000000D01*
X198865000Y-82000000D02*
X198230000Y-81365000D01*
X203310000Y-82000000D02*
X198865000Y-82000000D01*
X203310000Y-79460000D02*
X203310000Y-82000000D01*
X198230000Y-79460000D02*
X203310000Y-79460000D01*
X198230000Y-81365000D02*
X198230000Y-79460000D01*
%TO.C,L1*%
X161868567Y-94600000D02*
G75*
G03X161868567Y-94600000I-16368567J0D01*
G01*
X147750000Y-94600000D02*
G75*
G03X147750000Y-94600000I-2250000J0D01*
G01*
%TO.C,C28*%
X172700000Y-109000000D02*
X172700000Y-108200000D01*
X174300000Y-109000000D02*
X172700000Y-109000000D01*
X174300000Y-108200000D02*
X174300000Y-109000000D01*
X172700000Y-108200000D02*
X174300000Y-108200000D01*
%TO.C,C27*%
X164900000Y-118980000D02*
X166900000Y-118980000D01*
X166900000Y-118980000D02*
X166900000Y-120220000D01*
X166900000Y-120220000D02*
X164900000Y-120220000D01*
X164900000Y-120220000D02*
X164900000Y-118980000D01*
%TO.C,C7*%
X146500000Y-117620000D02*
X146500000Y-116380000D01*
X148500000Y-117620000D02*
X146500000Y-117620000D01*
X148500000Y-116380000D02*
X148500000Y-117620000D01*
X146500000Y-116380000D02*
X148500000Y-116380000D01*
%TO.C,D5*%
X170000000Y-125200000D02*
X165400000Y-125200000D01*
X165400000Y-125200000D02*
X165400000Y-121200000D01*
X170000000Y-121200000D02*
X170000000Y-125200000D01*
X170000000Y-121200000D02*
X165400000Y-121200000D01*
X167050560Y-123201020D02*
X166148860Y-123201020D01*
X168201180Y-123201020D02*
X169199400Y-123201020D01*
X167050560Y-122400920D02*
X167050560Y-124001120D01*
X168201180Y-123950320D02*
X168201180Y-122400920D01*
X167050560Y-123201020D02*
X168201180Y-123950320D01*
X167050560Y-123201020D02*
X168201180Y-122400920D01*
%TO.C,D8*%
X157300000Y-99800000D02*
X157300000Y-98000000D01*
X157300000Y-98000000D02*
X158700000Y-98000000D01*
X158700000Y-98000000D02*
X158700000Y-99800000D01*
X158700000Y-99800000D02*
X157300000Y-99800000D01*
X157650000Y-99200000D02*
X158350000Y-99200000D01*
X158000000Y-99200000D02*
X158000000Y-99400000D01*
X158000000Y-99200000D02*
X157650000Y-98700000D01*
X157650000Y-98700000D02*
X158350000Y-98700000D01*
X158350000Y-98700000D02*
X158000000Y-99200000D01*
X158000000Y-98700000D02*
X158000000Y-98450000D01*
%TO.C,R5*%
X201100000Y-96200000D02*
X199500000Y-96200000D01*
X199500000Y-96200000D02*
X199500000Y-95400000D01*
X199500000Y-95400000D02*
X201100000Y-95400000D01*
X201100000Y-95400000D02*
X201100000Y-96200000D01*
%TO.C,R49*%
X164400000Y-100000000D02*
X164400000Y-99200000D01*
X166000000Y-100000000D02*
X164400000Y-100000000D01*
X166000000Y-99200000D02*
X166000000Y-100000000D01*
X164400000Y-99200000D02*
X166000000Y-99200000D01*
%TO.C,R48*%
X171900000Y-97500000D02*
X173500000Y-97500000D01*
X173500000Y-97500000D02*
X173500000Y-98300000D01*
X173500000Y-98300000D02*
X171900000Y-98300000D01*
X171900000Y-98300000D02*
X171900000Y-97500000D01*
%TO.C,R30*%
X167300000Y-100000000D02*
X167300000Y-99200000D01*
X168900000Y-100000000D02*
X167300000Y-100000000D01*
X168900000Y-99200000D02*
X168900000Y-100000000D01*
X167300000Y-99200000D02*
X168900000Y-99200000D01*
%TO.C,T3*%
X168500000Y-98420000D02*
X169900000Y-98420000D01*
X169900000Y-95380000D02*
X169900000Y-98420000D01*
X168500000Y-95950000D02*
X169050000Y-95380000D01*
X169050000Y-95380000D02*
X169900000Y-95380000D01*
X168500000Y-95950000D02*
X168500000Y-98400000D01*
%TO.C,Q7*%
X160400000Y-100520000D02*
X161800000Y-100520000D01*
X161800000Y-97480000D02*
X161800000Y-100520000D01*
X160400000Y-98050000D02*
X160950000Y-97480000D01*
X160950000Y-97480000D02*
X161800000Y-97480000D01*
X160400000Y-98050000D02*
X160400000Y-100500000D01*
%TO.C,U7*%
X163850000Y-103350000D02*
X164850000Y-102350000D01*
X163850000Y-107250000D02*
X163850000Y-103350000D01*
X167750000Y-107250000D02*
X163850000Y-107250000D01*
X167750000Y-102350000D02*
X167750000Y-107250000D01*
X164850000Y-102350000D02*
X167750000Y-102350000D01*
%TO.C,C4*%
X121800000Y-107150000D02*
X121800000Y-104650000D01*
X125000000Y-107150000D02*
X121800000Y-107150000D01*
X125000000Y-104650000D02*
X125000000Y-107150000D01*
X121800000Y-104650000D02*
X125000000Y-104650000D01*
%TO.C,U1*%
X127250000Y-83250000D02*
X127250000Y-86150000D01*
X127250000Y-86150000D02*
X122350000Y-86150000D01*
X122350000Y-86150000D02*
X122350000Y-82250000D01*
X122350000Y-82250000D02*
X126250000Y-82250000D01*
X126250000Y-82250000D02*
X127250000Y-83250000D01*
%TO.C,U8*%
X206550000Y-92350000D02*
X203650000Y-92350000D01*
X203650000Y-92350000D02*
X203650000Y-87450000D01*
X203650000Y-87450000D02*
X207550000Y-87450000D01*
X207550000Y-87450000D02*
X207550000Y-91350000D01*
X207550000Y-91350000D02*
X206550000Y-92350000D01*
%TO.C,D3*%
X146450000Y-85800000D02*
X149550000Y-85800000D01*
X149550000Y-85800000D02*
X149550000Y-87600000D01*
X147100000Y-87600000D02*
X149550000Y-87600000D01*
X146450000Y-85800000D02*
X146450000Y-86950000D01*
X147100000Y-87600000D02*
X146450000Y-86950000D01*
%TO.C,U4*%
X187765391Y-124392647D02*
X190865391Y-124392647D01*
X190865391Y-124392647D02*
X190865391Y-126192647D01*
X188415391Y-126192647D02*
X190865391Y-126192647D01*
X187765391Y-124392647D02*
X187765391Y-125542647D01*
X188415391Y-126192647D02*
X187765391Y-125542647D01*
%TO.C,Y1*%
X193900000Y-94500000D02*
X193900000Y-96700000D01*
X189900000Y-94500000D02*
X193900000Y-94500000D01*
X189900000Y-96700000D02*
X189900000Y-94500000D01*
X193900000Y-96700000D02*
X189900000Y-96700000D01*
%TO.C,LED1*%
X209300000Y-124800000D02*
X209300000Y-125200000D01*
X209350000Y-125000000D02*
X209650000Y-124800000D01*
X209650000Y-125200000D02*
X209350000Y-125000000D01*
X209650000Y-124800000D02*
X209650000Y-125200000D01*
X210300000Y-125400000D02*
X208700000Y-125400000D01*
X210300000Y-124600000D02*
X210300000Y-125400000D01*
X208700000Y-124600000D02*
X210300000Y-124600000D01*
X208700000Y-125400000D02*
X208700000Y-124600000D01*
%TO.C,LED2*%
X203700000Y-125400000D02*
X203700000Y-124600000D01*
X203700000Y-124600000D02*
X205300000Y-124600000D01*
X205300000Y-124600000D02*
X205300000Y-125400000D01*
X205300000Y-125400000D02*
X203700000Y-125400000D01*
X204650000Y-124800000D02*
X204650000Y-125200000D01*
X204650000Y-125200000D02*
X204350000Y-125000000D01*
X204350000Y-125000000D02*
X204650000Y-124800000D01*
X204300000Y-124800000D02*
X204300000Y-125200000D01*
%TO.C,C15*%
X189650000Y-122700000D02*
X189650000Y-119500000D01*
X189650000Y-119500000D02*
X192150000Y-119500000D01*
X192150000Y-119500000D02*
X192150000Y-122700000D01*
X192150000Y-122700000D02*
X189650000Y-122700000D01*
%TO.C,SW1*%
X133450000Y-76900000D02*
X131750000Y-76900000D01*
X131750000Y-76900000D02*
X131750000Y-77550000D01*
X133450000Y-76900000D02*
X133450000Y-77550000D01*
X134350000Y-80450000D02*
X130850000Y-80450000D01*
X130850000Y-80450000D02*
X130850000Y-77550000D01*
X130850000Y-77550000D02*
X134350000Y-77550000D01*
X134350000Y-77550000D02*
X134350000Y-80400000D01*
%TO.C,D4*%
X199600000Y-92150000D02*
X199600000Y-94600000D01*
X200150000Y-91580000D02*
X201000000Y-91580000D01*
X199600000Y-92150000D02*
X200150000Y-91580000D01*
X201000000Y-91580000D02*
X201000000Y-94620000D01*
X199600000Y-94620000D02*
X201000000Y-94620000D01*
%TO.C,D1*%
X102350000Y-127600000D02*
X101850000Y-127600000D01*
X102350000Y-127200000D02*
X102950000Y-127600000D01*
X102350000Y-128000000D02*
X102350000Y-127200000D01*
X102950000Y-127600000D02*
X102350000Y-128000000D01*
X102950000Y-127600000D02*
X102950000Y-127050000D01*
X102950000Y-127600000D02*
X102950000Y-128150000D01*
X103350000Y-127600000D02*
X102950000Y-127600000D01*
X104000000Y-126700000D02*
X104000000Y-128500000D01*
X101200000Y-126700000D02*
X104000000Y-126700000D01*
X101200000Y-128500000D02*
X101200000Y-126700000D01*
X104000000Y-128500000D02*
X101200000Y-128500000D01*
%TO.C,D9*%
X160600000Y-94650000D02*
X160600000Y-95150000D01*
X160200000Y-94650000D02*
X160600000Y-94050000D01*
X161000000Y-94650000D02*
X160200000Y-94650000D01*
X160600000Y-94050000D02*
X161000000Y-94650000D01*
X160600000Y-94050000D02*
X160050000Y-94050000D01*
X160600000Y-94050000D02*
X161150000Y-94050000D01*
X160600000Y-93650000D02*
X160600000Y-94050000D01*
X159700000Y-93000000D02*
X161500000Y-93000000D01*
X159700000Y-95800000D02*
X159700000Y-93000000D01*
X161500000Y-95800000D02*
X159700000Y-95800000D01*
X161500000Y-93000000D02*
X161500000Y-95800000D01*
%TO.C,D10*%
X158000000Y-94150000D02*
X158000000Y-93650000D01*
X158400000Y-94150000D02*
X158000000Y-94750000D01*
X157600000Y-94150000D02*
X158400000Y-94150000D01*
X158000000Y-94750000D02*
X157600000Y-94150000D01*
X158000000Y-94750000D02*
X158550000Y-94750000D01*
X158000000Y-94750000D02*
X157450000Y-94750000D01*
X158000000Y-95150000D02*
X158000000Y-94750000D01*
X158900000Y-95800000D02*
X157100000Y-95800000D01*
X158900000Y-93000000D02*
X158900000Y-95800000D01*
X157100000Y-93000000D02*
X158900000Y-93000000D01*
X157100000Y-95800000D02*
X157100000Y-93000000D01*
%TO.C,R31*%
X201200000Y-107800000D02*
X201200000Y-109400000D01*
X201200000Y-109400000D02*
X200400000Y-109400000D01*
X200400000Y-109400000D02*
X200400000Y-107800000D01*
X200400000Y-107800000D02*
X201200000Y-107800000D01*
%TO.C,C42*%
X172000000Y-106600000D02*
X170400000Y-106600000D01*
X170400000Y-106600000D02*
X170400000Y-105800000D01*
X170400000Y-105800000D02*
X172000000Y-105800000D01*
X172000000Y-105800000D02*
X172000000Y-106600000D01*
%TO.C,D2*%
X187652468Y-120398646D02*
X187652468Y-119998646D01*
X187152468Y-120398646D02*
X187652468Y-121198646D01*
X188152468Y-120398646D02*
X187152468Y-120398646D01*
X187652468Y-121198646D02*
X188152468Y-120398646D01*
X187652468Y-121198646D02*
X188152468Y-121198646D01*
X187652468Y-121198646D02*
X187152468Y-121198646D01*
X187652468Y-121498646D02*
X187652468Y-121198646D01*
X188552468Y-122098646D02*
X186752468Y-122098646D01*
X188552468Y-119298646D02*
X188552468Y-122098646D01*
X186752468Y-119298646D02*
X188552468Y-119298646D01*
X186752468Y-122098646D02*
X186752468Y-119298646D01*
%TO.C,L3*%
X179952468Y-126498646D02*
X179952468Y-120698646D01*
X185752468Y-126498646D02*
X185752468Y-120698646D01*
X185752468Y-126498646D02*
X179952468Y-126498646D01*
X179952468Y-120698646D02*
X185752468Y-120698646D01*
%TO.C,J4*%
X205300000Y-98800000D02*
X207600000Y-98800000D01*
X205300000Y-101200000D02*
X205300000Y-98800000D01*
X207600000Y-101200000D02*
X205300000Y-101200000D01*
X207600000Y-98800000D02*
X207600000Y-101200000D01*
X203000000Y-94700000D02*
X212500000Y-94700000D01*
X203000000Y-115500000D02*
X203000000Y-94700000D01*
X212500000Y-115500000D02*
X203000000Y-115500000D01*
X212500000Y-94700000D02*
X212500000Y-115500000D01*
%TO.C,C11*%
X184500000Y-104000000D02*
X182900000Y-104000000D01*
X182900000Y-104000000D02*
X182900000Y-103200000D01*
X182900000Y-103200000D02*
X184500000Y-103200000D01*
X184500000Y-103200000D02*
X184500000Y-104000000D01*
%TO.C,C5*%
X140000000Y-114000000D02*
G75*
G03X140000000Y-114000000I-5000000J0D01*
G01*
X140200000Y-114000000D02*
X138700000Y-114000000D01*
X139450000Y-114750000D02*
X139450000Y-113250000D01*
%TO.C,R6*%
X142600000Y-118650000D02*
X142600000Y-124950000D01*
X142600000Y-124950000D02*
X139400000Y-124950000D01*
X139400000Y-124950000D02*
X139400000Y-118650000D01*
X139400000Y-118650000D02*
X142600000Y-118650000D01*
%TO.C,R10*%
X128900000Y-89620000D02*
X126900000Y-89620000D01*
X126900000Y-89620000D02*
X126900000Y-88380000D01*
X126900000Y-88380000D02*
X128900000Y-88380000D01*
X128900000Y-88380000D02*
X128900000Y-89620000D01*
%TO.C,Q5*%
X194400000Y-132450000D02*
X194400000Y-130000000D01*
X193850000Y-133020000D02*
X193000000Y-133020000D01*
X194400000Y-132450000D02*
X193850000Y-133020000D01*
X193000000Y-133020000D02*
X193000000Y-129980000D01*
X194400000Y-129980000D02*
X193000000Y-129980000D01*
%TO.C,T4*%
X203400000Y-132700000D02*
X203400000Y-130250000D01*
X202850000Y-133270000D02*
X202000000Y-133270000D01*
X203400000Y-132700000D02*
X202850000Y-133270000D01*
X202000000Y-133270000D02*
X202000000Y-130230000D01*
X203400000Y-130230000D02*
X202000000Y-130230000D01*
%TO.C,F3*%
X163300000Y-95500000D02*
X166500000Y-95500000D01*
X166500000Y-95500000D02*
X166500000Y-97100000D01*
X166500000Y-97100000D02*
X163300000Y-97100000D01*
X163300000Y-97100000D02*
X163300000Y-95500000D01*
%TO.C,R33*%
X198500000Y-134000000D02*
X200100000Y-134000000D01*
X200100000Y-134000000D02*
X200100000Y-134800000D01*
X200100000Y-134800000D02*
X198500000Y-134800000D01*
X198500000Y-134800000D02*
X198500000Y-134000000D01*
%TO.C,R38*%
X200100000Y-136400000D02*
X198500000Y-136400000D01*
X198500000Y-136400000D02*
X198500000Y-135600000D01*
X198500000Y-135600000D02*
X200100000Y-135600000D01*
X200100000Y-135600000D02*
X200100000Y-136400000D01*
%TO.C,R47*%
X203400000Y-136400000D02*
X201800000Y-136400000D01*
X201800000Y-136400000D02*
X201800000Y-135600000D01*
X201800000Y-135600000D02*
X203400000Y-135600000D01*
X203400000Y-135600000D02*
X203400000Y-136400000D01*
%TO.C,J5*%
X178600000Y-141000000D02*
X178600000Y-131800000D01*
X191400000Y-141000000D02*
X178600000Y-141000000D01*
X191400000Y-131800000D02*
X191400000Y-141000000D01*
X178600000Y-131800000D02*
X191400000Y-131800000D01*
%TO.C,R1*%
X124380000Y-90800000D02*
X124380000Y-88800000D01*
X124380000Y-88800000D02*
X125620000Y-88800000D01*
X125620000Y-88800000D02*
X125620000Y-90800000D01*
X125620000Y-90800000D02*
X124380000Y-90800000D01*
%TO.C,C3*%
X121800000Y-107950000D02*
X125000000Y-107950000D01*
X125000000Y-107950000D02*
X125000000Y-110450000D01*
X125000000Y-110450000D02*
X121800000Y-110450000D01*
X121800000Y-110450000D02*
X121800000Y-107950000D01*
%TO.C,T2*%
X156050000Y-82300000D02*
X153600000Y-82300000D01*
X156620000Y-82850000D02*
X156620000Y-83700000D01*
X156050000Y-82300000D02*
X156620000Y-82850000D01*
X156620000Y-83700000D02*
X153580000Y-83700000D01*
X153580000Y-82300000D02*
X153580000Y-83700000D01*
%TO.C,T1*%
X165950000Y-110400000D02*
X168400000Y-110400000D01*
X165380000Y-109850000D02*
X165380000Y-109000000D01*
X165950000Y-110400000D02*
X165380000Y-109850000D01*
X165380000Y-109000000D02*
X168420000Y-109000000D01*
X168420000Y-110400000D02*
X168420000Y-109000000D01*
%TO.C,P3*%
X151000000Y-76500000D02*
X151000000Y-83800000D01*
X143000000Y-76500000D02*
X151000000Y-76500000D01*
X143000000Y-83800000D02*
X143000000Y-76500000D01*
X151000000Y-83800000D02*
X143000000Y-83800000D01*
%TO.C,C1*%
X113400000Y-108700000D02*
X111600000Y-108700000D01*
X112500000Y-107800000D02*
X112500000Y-109600000D01*
X120500000Y-114750000D02*
G75*
G03X120500000Y-114750000I-8000000J0D01*
G01*
%TO.C,C2*%
X108400000Y-92700000D02*
X106600000Y-92700000D01*
X107500000Y-91800000D02*
X107500000Y-93600000D01*
X115500000Y-98750000D02*
G75*
G03X115500000Y-98750000I-8000000J0D01*
G01*
%TO.C,R36*%
X196900000Y-80200000D02*
X196900000Y-83400000D01*
X196900000Y-83400000D02*
X195300000Y-83400000D01*
X195300000Y-83400000D02*
X195300000Y-80200000D01*
X195300000Y-80200000D02*
X196900000Y-80200000D01*
%TO.C,F2*%
X156200000Y-88600000D02*
X153000000Y-88600000D01*
X153000000Y-88600000D02*
X153000000Y-87000000D01*
X153000000Y-87000000D02*
X156200000Y-87000000D01*
X156200000Y-87000000D02*
X156200000Y-88600000D01*
%TO.C,C22*%
X201700000Y-115200000D02*
X200100000Y-115200000D01*
X200100000Y-115200000D02*
X200100000Y-114400000D01*
X200100000Y-114400000D02*
X201700000Y-114400000D01*
X201700000Y-114400000D02*
X201700000Y-115200000D01*
%TO.C,C24*%
X177180000Y-110700000D02*
X177180000Y-108700000D01*
X177180000Y-108700000D02*
X178420000Y-108700000D01*
X178420000Y-108700000D02*
X178420000Y-110700000D01*
X178420000Y-110700000D02*
X177180000Y-110700000D01*
%TO.C,U6*%
X199900000Y-111000000D02*
X200550000Y-110350000D01*
X201700000Y-110350000D02*
X200550000Y-110350000D01*
X199900000Y-111000000D02*
X199900000Y-113450000D01*
X201700000Y-113450000D02*
X199900000Y-113450000D01*
X201700000Y-110350000D02*
X201700000Y-113450000D01*
%TO.C,JP1*%
X178350000Y-74550000D02*
X178350000Y-92550000D01*
X163150000Y-74550000D02*
X178350000Y-74550000D01*
X163150000Y-92550000D02*
X163150000Y-74550000D01*
X178350000Y-92550000D02*
X163150000Y-92550000D01*
%TO.C,JP2*%
X193850000Y-74550000D02*
X193850000Y-92550000D01*
X178650000Y-74550000D02*
X193850000Y-74550000D01*
X178650000Y-92550000D02*
X178650000Y-74550000D01*
X193850000Y-92550000D02*
X178650000Y-92550000D01*
%TO.C,C33*%
X190200000Y-110100000D02*
X188600000Y-110100000D01*
X188600000Y-110100000D02*
X188600000Y-109300000D01*
X188600000Y-109300000D02*
X190200000Y-109300000D01*
X190200000Y-109300000D02*
X190200000Y-110100000D01*
%TO.C,C30*%
X187600000Y-107700000D02*
X186000000Y-107700000D01*
X186000000Y-107700000D02*
X186000000Y-106900000D01*
X186000000Y-106900000D02*
X187600000Y-106900000D01*
X187600000Y-106900000D02*
X187600000Y-107700000D01*
%TO.C,C9*%
X170400000Y-103400000D02*
X172000000Y-103400000D01*
X172000000Y-103400000D02*
X172000000Y-104200000D01*
X172000000Y-104200000D02*
X170400000Y-104200000D01*
X170400000Y-104200000D02*
X170400000Y-103400000D01*
%TO.C,C18*%
X184500000Y-100800000D02*
X182900000Y-100800000D01*
X182900000Y-100800000D02*
X182900000Y-100000000D01*
X182900000Y-100000000D02*
X184500000Y-100000000D01*
X184500000Y-100000000D02*
X184500000Y-100800000D01*
%TO.C,C25*%
X142100000Y-79100000D02*
X142100000Y-80700000D01*
X142100000Y-80700000D02*
X141300000Y-80700000D01*
X141300000Y-80700000D02*
X141300000Y-79100000D01*
X141300000Y-79100000D02*
X142100000Y-79100000D01*
%TO.C,C10*%
X128100000Y-87300000D02*
X128100000Y-85700000D01*
X128100000Y-85700000D02*
X128900000Y-85700000D01*
X128900000Y-85700000D02*
X128900000Y-87300000D01*
X128900000Y-87300000D02*
X128100000Y-87300000D01*
%TO.C,C26*%
X210600000Y-89200000D02*
X210600000Y-90800000D01*
X210600000Y-90800000D02*
X209800000Y-90800000D01*
X209800000Y-90800000D02*
X209800000Y-89200000D01*
X209800000Y-89200000D02*
X210600000Y-89200000D01*
%TO.C,C29*%
X158100000Y-79400000D02*
X158100000Y-81000000D01*
X158100000Y-81000000D02*
X157300000Y-81000000D01*
X157300000Y-81000000D02*
X157300000Y-79400000D01*
X157300000Y-79400000D02*
X158100000Y-79400000D01*
%TO.C,C31*%
X198300000Y-97600000D02*
X199900000Y-97600000D01*
X199900000Y-97600000D02*
X199900000Y-98400000D01*
X199900000Y-98400000D02*
X198300000Y-98400000D01*
X198300000Y-98400000D02*
X198300000Y-97600000D01*
%TO.C,C32*%
X197100000Y-110000000D02*
X195500000Y-110000000D01*
X195500000Y-110000000D02*
X195500000Y-109200000D01*
X195500000Y-109200000D02*
X197100000Y-109200000D01*
X197100000Y-109200000D02*
X197100000Y-110000000D01*
%TO.C,C16*%
X177500000Y-96800000D02*
X175900000Y-96800000D01*
X175900000Y-96800000D02*
X175900000Y-96000000D01*
X175900000Y-96000000D02*
X177500000Y-96000000D01*
X177500000Y-96000000D02*
X177500000Y-96800000D01*
%TO.C,C17*%
X184500000Y-102400000D02*
X182900000Y-102400000D01*
X182900000Y-102400000D02*
X182900000Y-101600000D01*
X182900000Y-101600000D02*
X184500000Y-101600000D01*
X184500000Y-101600000D02*
X184500000Y-102400000D01*
%TO.C,C35*%
X194700000Y-114600000D02*
X194700000Y-116200000D01*
X194700000Y-116200000D02*
X193900000Y-116200000D01*
X193900000Y-116200000D02*
X193900000Y-114600000D01*
X193900000Y-114600000D02*
X194700000Y-114600000D01*
%TO.C,C40*%
X194100000Y-136400000D02*
X192500000Y-136400000D01*
X192500000Y-136400000D02*
X192500000Y-135600000D01*
X192500000Y-135600000D02*
X194100000Y-135600000D01*
X194100000Y-135600000D02*
X194100000Y-136400000D01*
%TO.C,C39*%
X203700000Y-86600000D02*
X202100000Y-86600000D01*
X202100000Y-86600000D02*
X202100000Y-85800000D01*
X202100000Y-85800000D02*
X203700000Y-85800000D01*
X203700000Y-85800000D02*
X203700000Y-86600000D01*
%TO.C,C38*%
X190200000Y-112000000D02*
X188600000Y-112000000D01*
X188600000Y-112000000D02*
X188600000Y-111200000D01*
X188600000Y-111200000D02*
X190200000Y-111200000D01*
X190200000Y-111200000D02*
X190200000Y-112000000D01*
%TO.C,C36*%
X159100000Y-84200000D02*
X159100000Y-82600000D01*
X159100000Y-82600000D02*
X159900000Y-82600000D01*
X159900000Y-82600000D02*
X159900000Y-84200000D01*
X159900000Y-84200000D02*
X159100000Y-84200000D01*
%TO.C,C13*%
X184500000Y-105600000D02*
X182900000Y-105600000D01*
X182900000Y-105600000D02*
X182900000Y-104800000D01*
X182900000Y-104800000D02*
X184500000Y-104800000D01*
X184500000Y-104800000D02*
X184500000Y-105600000D01*
%TO.C,C6*%
X134100000Y-105500000D02*
X132500000Y-105500000D01*
X132500000Y-105500000D02*
X132500000Y-104700000D01*
X132500000Y-104700000D02*
X134100000Y-104700000D01*
X134100000Y-104700000D02*
X134100000Y-105500000D01*
%TO.C,C19*%
X188300000Y-128600000D02*
X186700000Y-128600000D01*
X186700000Y-128600000D02*
X186700000Y-127800000D01*
X186700000Y-127800000D02*
X188300000Y-127800000D01*
X188300000Y-127800000D02*
X188300000Y-128600000D01*
%TO.C,C34*%
X188900000Y-95600000D02*
X187300000Y-95600000D01*
X187300000Y-95600000D02*
X187300000Y-94800000D01*
X187300000Y-94800000D02*
X188900000Y-94800000D01*
X188900000Y-94800000D02*
X188900000Y-95600000D01*
%TO.C,C21*%
X183100000Y-116178646D02*
X185100000Y-116178646D01*
X185100000Y-116178646D02*
X185100000Y-117418646D01*
X185100000Y-117418646D02*
X183100000Y-117418646D01*
X183100000Y-117418646D02*
X183100000Y-116178646D01*
%TO.C,C20*%
X183100000Y-118180000D02*
X185100000Y-118180000D01*
X185100000Y-118180000D02*
X185100000Y-119420000D01*
X185100000Y-119420000D02*
X183100000Y-119420000D01*
X183100000Y-119420000D02*
X183100000Y-118180000D01*
%TO.C,C8*%
X123700000Y-125420000D02*
X121700000Y-125420000D01*
X121700000Y-125420000D02*
X121700000Y-124180000D01*
X121700000Y-124180000D02*
X123700000Y-124180000D01*
X123700000Y-124180000D02*
X123700000Y-125420000D01*
%TO.C,C14*%
X193280000Y-122400000D02*
X193280000Y-120400000D01*
X193280000Y-120400000D02*
X194520000Y-120400000D01*
X194520000Y-120400000D02*
X194520000Y-122400000D01*
X194520000Y-122400000D02*
X193280000Y-122400000D01*
%TO.C,R43*%
X205000000Y-122300000D02*
X203400000Y-122300000D01*
X203400000Y-122300000D02*
X203400000Y-121500000D01*
X203400000Y-121500000D02*
X205000000Y-121500000D01*
X205000000Y-121500000D02*
X205000000Y-122300000D01*
%TO.C,R34*%
X201400000Y-103900000D02*
X201400000Y-102300000D01*
X201400000Y-102300000D02*
X202200000Y-102300000D01*
X202200000Y-102300000D02*
X202200000Y-103900000D01*
X202200000Y-103900000D02*
X201400000Y-103900000D01*
%TO.C,R37*%
X183500000Y-96900000D02*
X185100000Y-96900000D01*
X185100000Y-96900000D02*
X185100000Y-97700000D01*
X185100000Y-97700000D02*
X183500000Y-97700000D01*
X183500000Y-97700000D02*
X183500000Y-96900000D01*
%TO.C,R39*%
X160900000Y-84200000D02*
X160900000Y-82600000D01*
X160900000Y-82600000D02*
X161700000Y-82600000D01*
X161700000Y-82600000D02*
X161700000Y-84200000D01*
X161700000Y-84200000D02*
X160900000Y-84200000D01*
%TO.C,R41*%
X158100000Y-82600000D02*
X158100000Y-84200000D01*
X158100000Y-84200000D02*
X157300000Y-84200000D01*
X157300000Y-84200000D02*
X157300000Y-82600000D01*
X157300000Y-82600000D02*
X158100000Y-82600000D01*
%TO.C,R42*%
X210300000Y-122300000D02*
X208700000Y-122300000D01*
X208700000Y-122300000D02*
X208700000Y-121500000D01*
X208700000Y-121500000D02*
X210300000Y-121500000D01*
X210300000Y-121500000D02*
X210300000Y-122300000D01*
%TO.C,R44*%
X192500000Y-134000000D02*
X194100000Y-134000000D01*
X194100000Y-134000000D02*
X194100000Y-134800000D01*
X194100000Y-134800000D02*
X192500000Y-134800000D01*
X192500000Y-134800000D02*
X192500000Y-134000000D01*
%TO.C,R45*%
X159900000Y-79400000D02*
X159900000Y-81000000D01*
X159900000Y-81000000D02*
X159100000Y-81000000D01*
X159100000Y-81000000D02*
X159100000Y-79400000D01*
X159100000Y-79400000D02*
X159900000Y-79400000D01*
%TO.C,R11*%
X179500000Y-103200000D02*
X181100000Y-103200000D01*
X181100000Y-103200000D02*
X181100000Y-104000000D01*
X181100000Y-104000000D02*
X179500000Y-104000000D01*
X179500000Y-104000000D02*
X179500000Y-103200000D01*
%TO.C,R46*%
X145800000Y-85400000D02*
X145800000Y-87000000D01*
X145800000Y-87000000D02*
X145000000Y-87000000D01*
X145000000Y-87000000D02*
X145000000Y-85400000D01*
X145000000Y-85400000D02*
X145800000Y-85400000D01*
%TO.C,RT1*%
X134100000Y-103200000D02*
X134100000Y-104000000D01*
X132500000Y-103200000D02*
X134100000Y-103200000D01*
X132500000Y-104000000D02*
X132500000Y-103200000D01*
X134100000Y-104000000D02*
X132500000Y-104000000D01*
%TO.C,R7*%
X158400000Y-106200000D02*
X156800000Y-106200000D01*
X156800000Y-106200000D02*
X156800000Y-105400000D01*
X156800000Y-105400000D02*
X158400000Y-105400000D01*
X158400000Y-105400000D02*
X158400000Y-106200000D01*
%TO.C,R8*%
X158400000Y-107800000D02*
X156800000Y-107800000D01*
X156800000Y-107800000D02*
X156800000Y-107000000D01*
X156800000Y-107000000D02*
X158400000Y-107000000D01*
X158400000Y-107000000D02*
X158400000Y-107800000D01*
%TO.C,R9*%
X164400000Y-111400000D02*
X162800000Y-111400000D01*
X162800000Y-111400000D02*
X162800000Y-110600000D01*
X162800000Y-110600000D02*
X164400000Y-110600000D01*
X164400000Y-110600000D02*
X164400000Y-111400000D01*
%TO.C,R26*%
X179500000Y-101600000D02*
X181100000Y-101600000D01*
X181100000Y-101600000D02*
X181100000Y-102400000D01*
X181100000Y-102400000D02*
X179500000Y-102400000D01*
X179500000Y-102400000D02*
X179500000Y-101600000D01*
%TO.C,R32*%
X199600000Y-107800000D02*
X199600000Y-109400000D01*
X199600000Y-109400000D02*
X198800000Y-109400000D01*
X198800000Y-109400000D02*
X198800000Y-107800000D01*
X198800000Y-107800000D02*
X199600000Y-107800000D01*
%TO.C,R12*%
X171200000Y-109000000D02*
X169600000Y-109000000D01*
X169600000Y-109000000D02*
X169600000Y-108200000D01*
X169600000Y-108200000D02*
X171200000Y-108200000D01*
X171200000Y-108200000D02*
X171200000Y-109000000D01*
%TO.C,R21*%
X159700000Y-103800000D02*
X161300000Y-103800000D01*
X161300000Y-103800000D02*
X161300000Y-104600000D01*
X161300000Y-104600000D02*
X159700000Y-104600000D01*
X159700000Y-104600000D02*
X159700000Y-103800000D01*
%TO.C,R22*%
X159700000Y-102200000D02*
X161300000Y-102200000D01*
X161300000Y-102200000D02*
X161300000Y-103000000D01*
X161300000Y-103000000D02*
X159700000Y-103000000D01*
X159700000Y-103000000D02*
X159700000Y-102200000D01*
%TO.C,R23*%
X175900000Y-97600000D02*
X177500000Y-97600000D01*
X177500000Y-97600000D02*
X177500000Y-98400000D01*
X177500000Y-98400000D02*
X175900000Y-98400000D01*
X175900000Y-98400000D02*
X175900000Y-97600000D01*
%TO.C,R24*%
X176400000Y-101600000D02*
X178000000Y-101600000D01*
X178000000Y-101600000D02*
X178000000Y-102400000D01*
X178000000Y-102400000D02*
X176400000Y-102400000D01*
X176400000Y-102400000D02*
X176400000Y-101600000D01*
%TO.C,R25*%
X176400000Y-100000000D02*
X178000000Y-100000000D01*
X178000000Y-100000000D02*
X178000000Y-100800000D01*
X178000000Y-100800000D02*
X176400000Y-100800000D01*
X176400000Y-100800000D02*
X176400000Y-100000000D01*
%TO.C,R20*%
X179500000Y-104800000D02*
X181100000Y-104800000D01*
X181100000Y-104800000D02*
X181100000Y-105600000D01*
X181100000Y-105600000D02*
X179500000Y-105600000D01*
X179500000Y-105600000D02*
X179500000Y-104800000D01*
%TO.C,R27*%
X179500000Y-100000000D02*
X181100000Y-100000000D01*
X181100000Y-100000000D02*
X181100000Y-100800000D01*
X181100000Y-100800000D02*
X179500000Y-100800000D01*
X179500000Y-100800000D02*
X179500000Y-100000000D01*
%TO.C,R28*%
X193200000Y-126600000D02*
X193200000Y-128200000D01*
X193200000Y-128200000D02*
X192400000Y-128200000D01*
X192400000Y-128200000D02*
X192400000Y-126600000D01*
X192400000Y-126600000D02*
X193200000Y-126600000D01*
%TO.C,R19*%
X158400000Y-104600000D02*
X156800000Y-104600000D01*
X156800000Y-104600000D02*
X156800000Y-103800000D01*
X156800000Y-103800000D02*
X158400000Y-103800000D01*
X158400000Y-103800000D02*
X158400000Y-104600000D01*
%TO.C,R29*%
X191300000Y-128600000D02*
X189700000Y-128600000D01*
X189700000Y-128600000D02*
X189700000Y-127800000D01*
X189700000Y-127800000D02*
X191300000Y-127800000D01*
X191300000Y-127800000D02*
X191300000Y-128600000D01*
%TO.C,R18*%
X158400000Y-103000000D02*
X156800000Y-103000000D01*
X156800000Y-103000000D02*
X156800000Y-102200000D01*
X156800000Y-102200000D02*
X158400000Y-102200000D01*
X158400000Y-102200000D02*
X158400000Y-103000000D01*
%TO.C,R16*%
X159800000Y-109100000D02*
X161400000Y-109100000D01*
X161400000Y-109100000D02*
X161400000Y-109900000D01*
X161400000Y-109900000D02*
X159800000Y-109900000D01*
X159800000Y-109900000D02*
X159800000Y-109100000D01*
%TO.C,R15*%
X159700000Y-105400000D02*
X161300000Y-105400000D01*
X161300000Y-105400000D02*
X161300000Y-106200000D01*
X161300000Y-106200000D02*
X159700000Y-106200000D01*
X159700000Y-106200000D02*
X159700000Y-105400000D01*
%TO.C,R14*%
X161300000Y-107800000D02*
X159700000Y-107800000D01*
X159700000Y-107800000D02*
X159700000Y-107000000D01*
X159700000Y-107000000D02*
X161300000Y-107000000D01*
X161300000Y-107000000D02*
X161300000Y-107800000D01*
%TO.C,R13*%
X162800000Y-109000000D02*
X164400000Y-109000000D01*
X164400000Y-109000000D02*
X164400000Y-109800000D01*
X164400000Y-109800000D02*
X162800000Y-109800000D01*
X162800000Y-109800000D02*
X162800000Y-109000000D01*
%TO.C,R2*%
X107900000Y-125200000D02*
X107900000Y-126800000D01*
X107900000Y-126800000D02*
X107100000Y-126800000D01*
X107100000Y-126800000D02*
X107100000Y-125200000D01*
X107100000Y-125200000D02*
X107900000Y-125200000D01*
%TO.C,R40*%
X161700000Y-79400000D02*
X161700000Y-81000000D01*
X161700000Y-81000000D02*
X160900000Y-81000000D01*
X160900000Y-81000000D02*
X160900000Y-79400000D01*
X160900000Y-79400000D02*
X161700000Y-79400000D01*
%TO.C,R3*%
X122380000Y-90800000D02*
X122380000Y-88800000D01*
X122380000Y-88800000D02*
X123620000Y-88800000D01*
X123620000Y-88800000D02*
X123620000Y-90800000D01*
X123620000Y-90800000D02*
X122380000Y-90800000D01*
%TO.C,R4*%
X135200000Y-105100000D02*
X135200000Y-101900000D01*
X135200000Y-101900000D02*
X136800000Y-101900000D01*
X136800000Y-101900000D02*
X136800000Y-105100000D01*
X136800000Y-105100000D02*
X135200000Y-105100000D01*
%TO.C,D6*%
X180700000Y-97950000D02*
X180700000Y-95500000D01*
X180150000Y-98520000D02*
X179300000Y-98520000D01*
X180700000Y-97950000D02*
X180150000Y-98520000D01*
X179300000Y-98520000D02*
X179300000Y-95480000D01*
X180700000Y-95480000D02*
X179300000Y-95480000D01*
%TO.C,U5*%
X192600000Y-112650000D02*
X192600000Y-115750000D01*
X192600000Y-115750000D02*
X190800000Y-115750000D01*
X190800000Y-113300000D02*
X190800000Y-115750000D01*
X192600000Y-112650000D02*
X191450000Y-112650000D01*
X190800000Y-113300000D02*
X191450000Y-112650000D01*
D11*
%TO.C,U2*%
X196450000Y-100850000D02*
X196450000Y-106850000D01*
X196450000Y-106850000D02*
X189450000Y-106850000D01*
X189450000Y-106850000D02*
X189450000Y-99850000D01*
X189450000Y-99850000D02*
X195450000Y-99850000D01*
X195450000Y-99850000D02*
X196450000Y-100850000D01*
D10*
%TO.C,U3*%
X181550000Y-109350000D02*
X182550000Y-108350000D01*
X181550000Y-109350000D02*
X181550000Y-115050000D01*
X182550000Y-108350000D02*
X185250000Y-108350000D01*
X181550000Y-115050000D02*
X185250000Y-115050000D01*
X185250000Y-108350000D02*
X185250000Y-115050000D01*
%TO.C,R17*%
X155850000Y-113400000D02*
X162150000Y-113400000D01*
X162150000Y-113400000D02*
X162150000Y-116600000D01*
X162150000Y-116600000D02*
X155850000Y-116600000D01*
X155850000Y-116600000D02*
X155850000Y-113400000D01*
%TO.C,SWD1*%
X212170000Y-117165000D02*
X212170000Y-119070000D01*
X212170000Y-119070000D02*
X196930000Y-119070000D01*
X196930000Y-119070000D02*
X196930000Y-116530000D01*
X196930000Y-116530000D02*
X211535000Y-116530000D01*
X211535000Y-116530000D02*
X212170000Y-117165000D01*
%TO.C,P1*%
X201970000Y-120965000D02*
X201970000Y-122870000D01*
X201970000Y-122870000D02*
X196890000Y-122870000D01*
X196890000Y-122870000D02*
X196890000Y-120330000D01*
X196890000Y-120330000D02*
X201335000Y-120330000D01*
X201335000Y-120330000D02*
X201970000Y-120965000D01*
%TO.C,L4*%
X187300000Y-97200000D02*
X187300000Y-96400000D01*
X188900000Y-97200000D02*
X187300000Y-97200000D01*
X188900000Y-96400000D02*
X188900000Y-97200000D01*
X187300000Y-96400000D02*
X188900000Y-96400000D01*
%TO.C,L2*%
X194150000Y-123880000D02*
X194150000Y-125120000D01*
X192150000Y-123880000D02*
X194150000Y-123880000D01*
X192150000Y-125120000D02*
X192150000Y-123880000D01*
X194150000Y-125120000D02*
X192150000Y-125120000D01*
%TD*%
%TO.C,J1*%
D11*
X126566666Y-130052380D02*
X126566666Y-130766666D01*
X126519047Y-130909523D01*
X126423809Y-131004761D01*
X126280952Y-131052380D01*
X126185714Y-131052380D01*
X127566666Y-131052380D02*
X126995238Y-131052380D01*
X127280952Y-131052380D02*
X127280952Y-130052380D01*
X127185714Y-130195238D01*
X127090476Y-130290476D01*
X126995238Y-130338095D01*
%TO.C,J2*%
X164566666Y-130052380D02*
X164566666Y-130766666D01*
X164519047Y-130909523D01*
X164423809Y-131004761D01*
X164280952Y-131052380D01*
X164185714Y-131052380D01*
X164995238Y-130147619D02*
X165042857Y-130100000D01*
X165138095Y-130052380D01*
X165376190Y-130052380D01*
X165471428Y-130100000D01*
X165519047Y-130147619D01*
X165566666Y-130242857D01*
X165566666Y-130338095D01*
X165519047Y-130480952D01*
X164947619Y-131052380D01*
X165566666Y-131052380D01*
%TO.C,J3*%
X145566666Y-130052380D02*
X145566666Y-130766666D01*
X145519047Y-130909523D01*
X145423809Y-131004761D01*
X145280952Y-131052380D01*
X145185714Y-131052380D01*
X145947619Y-130052380D02*
X146566666Y-130052380D01*
X146233333Y-130433333D01*
X146376190Y-130433333D01*
X146471428Y-130480952D01*
X146519047Y-130528571D01*
X146566666Y-130623809D01*
X146566666Y-130861904D01*
X146519047Y-130957142D01*
X146471428Y-131004761D01*
X146376190Y-131052380D01*
X146090476Y-131052380D01*
X145995238Y-131004761D01*
X145947619Y-130957142D01*
%TO.C,F1*%
X154098333Y-121771428D02*
X154431666Y-121771428D01*
X154431666Y-121247619D02*
X154431666Y-122247619D01*
X153955476Y-122247619D01*
X153050714Y-121247619D02*
X153622142Y-121247619D01*
X153336428Y-121247619D02*
X153336428Y-122247619D01*
X153431666Y-122104761D01*
X153526904Y-122009523D01*
X153622142Y-121961904D01*
%TO.C,Q3*%
X167452380Y-115404761D02*
X167500000Y-115309523D01*
X167595238Y-115214285D01*
X167738095Y-115071428D01*
X167785714Y-114976190D01*
X167785714Y-114880952D01*
X167547619Y-114928571D02*
X167595238Y-114833333D01*
X167690476Y-114738095D01*
X167880952Y-114690476D01*
X168214285Y-114690476D01*
X168404761Y-114738095D01*
X168500000Y-114833333D01*
X168547619Y-114928571D01*
X168547619Y-115119047D01*
X168500000Y-115214285D01*
X168404761Y-115309523D01*
X168214285Y-115357142D01*
X167880952Y-115357142D01*
X167690476Y-115309523D01*
X167595238Y-115214285D01*
X167547619Y-115119047D01*
X167547619Y-114928571D01*
X168547619Y-115690476D02*
X168547619Y-116309523D01*
X168166666Y-115976190D01*
X168166666Y-116119047D01*
X168119047Y-116214285D01*
X168071428Y-116261904D01*
X167976190Y-116309523D01*
X167738095Y-116309523D01*
X167642857Y-116261904D01*
X167595238Y-116214285D01*
X167547619Y-116119047D01*
X167547619Y-115833333D01*
X167595238Y-115738095D01*
X167642857Y-115690476D01*
%TO.C,Q2*%
X111595238Y-126152380D02*
X111690476Y-126200000D01*
X111785714Y-126295238D01*
X111928571Y-126438095D01*
X112023809Y-126485714D01*
X112119047Y-126485714D01*
X112071428Y-126247619D02*
X112166666Y-126295238D01*
X112261904Y-126390476D01*
X112309523Y-126580952D01*
X112309523Y-126914285D01*
X112261904Y-127104761D01*
X112166666Y-127200000D01*
X112071428Y-127247619D01*
X111880952Y-127247619D01*
X111785714Y-127200000D01*
X111690476Y-127104761D01*
X111642857Y-126914285D01*
X111642857Y-126580952D01*
X111690476Y-126390476D01*
X111785714Y-126295238D01*
X111880952Y-126247619D01*
X112071428Y-126247619D01*
X111261904Y-127152380D02*
X111214285Y-127200000D01*
X111119047Y-127247619D01*
X110880952Y-127247619D01*
X110785714Y-127200000D01*
X110738095Y-127152380D01*
X110690476Y-127057142D01*
X110690476Y-126961904D01*
X110738095Y-126819047D01*
X111309523Y-126247619D01*
X110690476Y-126247619D01*
%TO.C,Q1*%
X124447619Y-101095238D02*
X124400000Y-101190476D01*
X124304761Y-101285714D01*
X124161904Y-101428571D01*
X124114285Y-101523809D01*
X124114285Y-101619047D01*
X124352380Y-101571428D02*
X124304761Y-101666666D01*
X124209523Y-101761904D01*
X124019047Y-101809523D01*
X123685714Y-101809523D01*
X123495238Y-101761904D01*
X123400000Y-101666666D01*
X123352380Y-101571428D01*
X123352380Y-101380952D01*
X123400000Y-101285714D01*
X123495238Y-101190476D01*
X123685714Y-101142857D01*
X124019047Y-101142857D01*
X124209523Y-101190476D01*
X124304761Y-101285714D01*
X124352380Y-101380952D01*
X124352380Y-101571428D01*
X124352380Y-100190476D02*
X124352380Y-100761904D01*
X124352380Y-100476190D02*
X123352380Y-100476190D01*
X123495238Y-100571428D01*
X123590476Y-100666666D01*
X123638095Y-100761904D01*
%TO.C,Q4*%
X128604761Y-104947619D02*
X128509523Y-104900000D01*
X128414285Y-104804761D01*
X128271428Y-104661904D01*
X128176190Y-104614285D01*
X128080952Y-104614285D01*
X128128571Y-104852380D02*
X128033333Y-104804761D01*
X127938095Y-104709523D01*
X127890476Y-104519047D01*
X127890476Y-104185714D01*
X127938095Y-103995238D01*
X128033333Y-103900000D01*
X128128571Y-103852380D01*
X128319047Y-103852380D01*
X128414285Y-103900000D01*
X128509523Y-103995238D01*
X128557142Y-104185714D01*
X128557142Y-104519047D01*
X128509523Y-104709523D01*
X128414285Y-104804761D01*
X128319047Y-104852380D01*
X128128571Y-104852380D01*
X129414285Y-104185714D02*
X129414285Y-104852380D01*
X129176190Y-103804761D02*
X128938095Y-104519047D01*
X129557142Y-104519047D01*
%TO.C,C23*%
D12*
X188621428Y-113778571D02*
X188597619Y-113754761D01*
X188573809Y-113683333D01*
X188573809Y-113635714D01*
X188597619Y-113564285D01*
X188645238Y-113516666D01*
X188692857Y-113492857D01*
X188788095Y-113469047D01*
X188859523Y-113469047D01*
X188954761Y-113492857D01*
X189002380Y-113516666D01*
X189050000Y-113564285D01*
X189073809Y-113635714D01*
X189073809Y-113683333D01*
X189050000Y-113754761D01*
X189026190Y-113778571D01*
X189026190Y-113969047D02*
X189050000Y-113992857D01*
X189073809Y-114040476D01*
X189073809Y-114159523D01*
X189050000Y-114207142D01*
X189026190Y-114230952D01*
X188978571Y-114254761D01*
X188930952Y-114254761D01*
X188859523Y-114230952D01*
X188573809Y-113945238D01*
X188573809Y-114254761D01*
X189073809Y-114421428D02*
X189073809Y-114730952D01*
X188883333Y-114564285D01*
X188883333Y-114635714D01*
X188859523Y-114683333D01*
X188835714Y-114707142D01*
X188788095Y-114730952D01*
X188669047Y-114730952D01*
X188621428Y-114707142D01*
X188597619Y-114683333D01*
X188573809Y-114635714D01*
X188573809Y-114492857D01*
X188597619Y-114445238D01*
X188621428Y-114421428D01*
%TO.C,C12*%
X125021428Y-79221428D02*
X125045238Y-79197619D01*
X125116666Y-79173809D01*
X125164285Y-79173809D01*
X125235714Y-79197619D01*
X125283333Y-79245238D01*
X125307142Y-79292857D01*
X125330952Y-79388095D01*
X125330952Y-79459523D01*
X125307142Y-79554761D01*
X125283333Y-79602380D01*
X125235714Y-79650000D01*
X125164285Y-79673809D01*
X125116666Y-79673809D01*
X125045238Y-79650000D01*
X125021428Y-79626190D01*
X124545238Y-79173809D02*
X124830952Y-79173809D01*
X124688095Y-79173809D02*
X124688095Y-79673809D01*
X124735714Y-79602380D01*
X124783333Y-79554761D01*
X124830952Y-79530952D01*
X124354761Y-79626190D02*
X124330952Y-79650000D01*
X124283333Y-79673809D01*
X124164285Y-79673809D01*
X124116666Y-79650000D01*
X124092857Y-79626190D01*
X124069047Y-79578571D01*
X124069047Y-79530952D01*
X124092857Y-79459523D01*
X124378571Y-79173809D01*
X124069047Y-79173809D01*
%TO.C,R35*%
X200526190Y-103421428D02*
X200288095Y-103588095D01*
X200526190Y-103707142D02*
X200026190Y-103707142D01*
X200026190Y-103516666D01*
X200050000Y-103469047D01*
X200073809Y-103445238D01*
X200121428Y-103421428D01*
X200192857Y-103421428D01*
X200240476Y-103445238D01*
X200264285Y-103469047D01*
X200288095Y-103516666D01*
X200288095Y-103707142D01*
X200026190Y-103254761D02*
X200026190Y-102945238D01*
X200216666Y-103111904D01*
X200216666Y-103040476D01*
X200240476Y-102992857D01*
X200264285Y-102969047D01*
X200311904Y-102945238D01*
X200430952Y-102945238D01*
X200478571Y-102969047D01*
X200502380Y-102992857D01*
X200526190Y-103040476D01*
X200526190Y-103183333D01*
X200502380Y-103230952D01*
X200478571Y-103254761D01*
X200026190Y-102492857D02*
X200026190Y-102730952D01*
X200264285Y-102754761D01*
X200240476Y-102730952D01*
X200216666Y-102683333D01*
X200216666Y-102564285D01*
X200240476Y-102516666D01*
X200264285Y-102492857D01*
X200311904Y-102469047D01*
X200430952Y-102469047D01*
X200478571Y-102492857D01*
X200502380Y-102516666D01*
X200526190Y-102564285D01*
X200526190Y-102683333D01*
X200502380Y-102730952D01*
X200478571Y-102754761D01*
%TO.C,Q6*%
X196973809Y-94847619D02*
X196950000Y-94895238D01*
X196902380Y-94942857D01*
X196830952Y-95014285D01*
X196807142Y-95061904D01*
X196807142Y-95109523D01*
X196926190Y-95085714D02*
X196902380Y-95133333D01*
X196854761Y-95180952D01*
X196759523Y-95204761D01*
X196592857Y-95204761D01*
X196497619Y-95180952D01*
X196450000Y-95133333D01*
X196426190Y-95085714D01*
X196426190Y-94990476D01*
X196450000Y-94942857D01*
X196497619Y-94895238D01*
X196592857Y-94871428D01*
X196759523Y-94871428D01*
X196854761Y-94895238D01*
X196902380Y-94942857D01*
X196926190Y-94990476D01*
X196926190Y-95085714D01*
X196426190Y-94442857D02*
X196426190Y-94538095D01*
X196450000Y-94585714D01*
X196473809Y-94609523D01*
X196545238Y-94657142D01*
X196640476Y-94680952D01*
X196830952Y-94680952D01*
X196878571Y-94657142D01*
X196902380Y-94633333D01*
X196926190Y-94585714D01*
X196926190Y-94490476D01*
X196902380Y-94442857D01*
X196878571Y-94419047D01*
X196830952Y-94395238D01*
X196711904Y-94395238D01*
X196664285Y-94419047D01*
X196640476Y-94442857D01*
X196616666Y-94490476D01*
X196616666Y-94585714D01*
X196640476Y-94633333D01*
X196664285Y-94657142D01*
X196711904Y-94680952D01*
%TO.C,JP3*%
D11*
X201603333Y-81277619D02*
X201603333Y-80563333D01*
X201650952Y-80420476D01*
X201746190Y-80325238D01*
X201889047Y-80277619D01*
X201984285Y-80277619D01*
X201127142Y-80277619D02*
X201127142Y-81277619D01*
X200746190Y-81277619D01*
X200650952Y-81230000D01*
X200603333Y-81182380D01*
X200555714Y-81087142D01*
X200555714Y-80944285D01*
X200603333Y-80849047D01*
X200650952Y-80801428D01*
X200746190Y-80753809D01*
X201127142Y-80753809D01*
X200222380Y-81277619D02*
X199603333Y-81277619D01*
X199936666Y-80896666D01*
X199793809Y-80896666D01*
X199698571Y-80849047D01*
X199650952Y-80801428D01*
X199603333Y-80706190D01*
X199603333Y-80468095D01*
X199650952Y-80372857D01*
X199698571Y-80325238D01*
X199793809Y-80277619D01*
X200079523Y-80277619D01*
X200174761Y-80325238D01*
X200222380Y-80372857D01*
%TO.C,L1*%
X145433333Y-80652380D02*
X144957142Y-80652380D01*
X144957142Y-79652380D01*
X146290476Y-80652380D02*
X145719047Y-80652380D01*
X146004761Y-80652380D02*
X146004761Y-79652380D01*
X145909523Y-79795238D01*
X145814285Y-79890476D01*
X145719047Y-79938095D01*
%TO.C,C28*%
D12*
X173178571Y-108778571D02*
X173154761Y-108802380D01*
X173083333Y-108826190D01*
X173035714Y-108826190D01*
X172964285Y-108802380D01*
X172916666Y-108754761D01*
X172892857Y-108707142D01*
X172869047Y-108611904D01*
X172869047Y-108540476D01*
X172892857Y-108445238D01*
X172916666Y-108397619D01*
X172964285Y-108350000D01*
X173035714Y-108326190D01*
X173083333Y-108326190D01*
X173154761Y-108350000D01*
X173178571Y-108373809D01*
X173369047Y-108373809D02*
X173392857Y-108350000D01*
X173440476Y-108326190D01*
X173559523Y-108326190D01*
X173607142Y-108350000D01*
X173630952Y-108373809D01*
X173654761Y-108421428D01*
X173654761Y-108469047D01*
X173630952Y-108540476D01*
X173345238Y-108826190D01*
X173654761Y-108826190D01*
X173940476Y-108540476D02*
X173892857Y-108516666D01*
X173869047Y-108492857D01*
X173845238Y-108445238D01*
X173845238Y-108421428D01*
X173869047Y-108373809D01*
X173892857Y-108350000D01*
X173940476Y-108326190D01*
X174035714Y-108326190D01*
X174083333Y-108350000D01*
X174107142Y-108373809D01*
X174130952Y-108421428D01*
X174130952Y-108445238D01*
X174107142Y-108492857D01*
X174083333Y-108516666D01*
X174035714Y-108540476D01*
X173940476Y-108540476D01*
X173892857Y-108564285D01*
X173869047Y-108588095D01*
X173845238Y-108635714D01*
X173845238Y-108730952D01*
X173869047Y-108778571D01*
X173892857Y-108802380D01*
X173940476Y-108826190D01*
X174035714Y-108826190D01*
X174083333Y-108802380D01*
X174107142Y-108778571D01*
X174130952Y-108730952D01*
X174130952Y-108635714D01*
X174107142Y-108588095D01*
X174083333Y-108564285D01*
X174035714Y-108540476D01*
%TO.C,C27*%
X165578571Y-119778571D02*
X165554761Y-119802380D01*
X165483333Y-119826190D01*
X165435714Y-119826190D01*
X165364285Y-119802380D01*
X165316666Y-119754761D01*
X165292857Y-119707142D01*
X165269047Y-119611904D01*
X165269047Y-119540476D01*
X165292857Y-119445238D01*
X165316666Y-119397619D01*
X165364285Y-119350000D01*
X165435714Y-119326190D01*
X165483333Y-119326190D01*
X165554761Y-119350000D01*
X165578571Y-119373809D01*
X165769047Y-119373809D02*
X165792857Y-119350000D01*
X165840476Y-119326190D01*
X165959523Y-119326190D01*
X166007142Y-119350000D01*
X166030952Y-119373809D01*
X166054761Y-119421428D01*
X166054761Y-119469047D01*
X166030952Y-119540476D01*
X165745238Y-119826190D01*
X166054761Y-119826190D01*
X166221428Y-119326190D02*
X166554761Y-119326190D01*
X166340476Y-119826190D01*
%TO.C,C7*%
X147416666Y-117178571D02*
X147392857Y-117202380D01*
X147321428Y-117226190D01*
X147273809Y-117226190D01*
X147202380Y-117202380D01*
X147154761Y-117154761D01*
X147130952Y-117107142D01*
X147107142Y-117011904D01*
X147107142Y-116940476D01*
X147130952Y-116845238D01*
X147154761Y-116797619D01*
X147202380Y-116750000D01*
X147273809Y-116726190D01*
X147321428Y-116726190D01*
X147392857Y-116750000D01*
X147416666Y-116773809D01*
X147583333Y-116726190D02*
X147916666Y-116726190D01*
X147702380Y-117226190D01*
%TO.C,D5*%
D11*
X166961904Y-120452380D02*
X166961904Y-119452380D01*
X167200000Y-119452380D01*
X167342857Y-119500000D01*
X167438095Y-119595238D01*
X167485714Y-119690476D01*
X167533333Y-119880952D01*
X167533333Y-120023809D01*
X167485714Y-120214285D01*
X167438095Y-120309523D01*
X167342857Y-120404761D01*
X167200000Y-120452380D01*
X166961904Y-120452380D01*
X168438095Y-119452380D02*
X167961904Y-119452380D01*
X167914285Y-119928571D01*
X167961904Y-119880952D01*
X168057142Y-119833333D01*
X168295238Y-119833333D01*
X168390476Y-119880952D01*
X168438095Y-119928571D01*
X168485714Y-120023809D01*
X168485714Y-120261904D01*
X168438095Y-120357142D01*
X168390476Y-120404761D01*
X168295238Y-120452380D01*
X168057142Y-120452380D01*
X167961904Y-120404761D01*
X167914285Y-120357142D01*
%TO.C,D8*%
X156752380Y-99638095D02*
X155752380Y-99638095D01*
X155752380Y-99400000D01*
X155800000Y-99257142D01*
X155895238Y-99161904D01*
X155990476Y-99114285D01*
X156180952Y-99066666D01*
X156323809Y-99066666D01*
X156514285Y-99114285D01*
X156609523Y-99161904D01*
X156704761Y-99257142D01*
X156752380Y-99400000D01*
X156752380Y-99638095D01*
X156180952Y-98495238D02*
X156133333Y-98590476D01*
X156085714Y-98638095D01*
X155990476Y-98685714D01*
X155942857Y-98685714D01*
X155847619Y-98638095D01*
X155800000Y-98590476D01*
X155752380Y-98495238D01*
X155752380Y-98304761D01*
X155800000Y-98209523D01*
X155847619Y-98161904D01*
X155942857Y-98114285D01*
X155990476Y-98114285D01*
X156085714Y-98161904D01*
X156133333Y-98209523D01*
X156180952Y-98304761D01*
X156180952Y-98495238D01*
X156228571Y-98590476D01*
X156276190Y-98638095D01*
X156371428Y-98685714D01*
X156561904Y-98685714D01*
X156657142Y-98638095D01*
X156704761Y-98590476D01*
X156752380Y-98495238D01*
X156752380Y-98304761D01*
X156704761Y-98209523D01*
X156657142Y-98161904D01*
X156561904Y-98114285D01*
X156371428Y-98114285D01*
X156276190Y-98161904D01*
X156228571Y-98209523D01*
X156180952Y-98304761D01*
%TO.C,R5*%
D12*
X200383333Y-95573809D02*
X200550000Y-95811904D01*
X200669047Y-95573809D02*
X200669047Y-96073809D01*
X200478571Y-96073809D01*
X200430952Y-96050000D01*
X200407142Y-96026190D01*
X200383333Y-95978571D01*
X200383333Y-95907142D01*
X200407142Y-95859523D01*
X200430952Y-95835714D01*
X200478571Y-95811904D01*
X200669047Y-95811904D01*
X199930952Y-96073809D02*
X200169047Y-96073809D01*
X200192857Y-95835714D01*
X200169047Y-95859523D01*
X200121428Y-95883333D01*
X200002380Y-95883333D01*
X199954761Y-95859523D01*
X199930952Y-95835714D01*
X199907142Y-95788095D01*
X199907142Y-95669047D01*
X199930952Y-95621428D01*
X199954761Y-95597619D01*
X200002380Y-95573809D01*
X200121428Y-95573809D01*
X200169047Y-95597619D01*
X200192857Y-95621428D01*
%TO.C,R49*%
X164878571Y-99826190D02*
X164711904Y-99588095D01*
X164592857Y-99826190D02*
X164592857Y-99326190D01*
X164783333Y-99326190D01*
X164830952Y-99350000D01*
X164854761Y-99373809D01*
X164878571Y-99421428D01*
X164878571Y-99492857D01*
X164854761Y-99540476D01*
X164830952Y-99564285D01*
X164783333Y-99588095D01*
X164592857Y-99588095D01*
X165307142Y-99492857D02*
X165307142Y-99826190D01*
X165188095Y-99302380D02*
X165069047Y-99659523D01*
X165378571Y-99659523D01*
X165592857Y-99826190D02*
X165688095Y-99826190D01*
X165735714Y-99802380D01*
X165759523Y-99778571D01*
X165807142Y-99707142D01*
X165830952Y-99611904D01*
X165830952Y-99421428D01*
X165807142Y-99373809D01*
X165783333Y-99350000D01*
X165735714Y-99326190D01*
X165640476Y-99326190D01*
X165592857Y-99350000D01*
X165569047Y-99373809D01*
X165545238Y-99421428D01*
X165545238Y-99540476D01*
X165569047Y-99588095D01*
X165592857Y-99611904D01*
X165640476Y-99635714D01*
X165735714Y-99635714D01*
X165783333Y-99611904D01*
X165807142Y-99588095D01*
X165830952Y-99540476D01*
%TO.C,R48*%
X172378571Y-98126190D02*
X172211904Y-97888095D01*
X172092857Y-98126190D02*
X172092857Y-97626190D01*
X172283333Y-97626190D01*
X172330952Y-97650000D01*
X172354761Y-97673809D01*
X172378571Y-97721428D01*
X172378571Y-97792857D01*
X172354761Y-97840476D01*
X172330952Y-97864285D01*
X172283333Y-97888095D01*
X172092857Y-97888095D01*
X172807142Y-97792857D02*
X172807142Y-98126190D01*
X172688095Y-97602380D02*
X172569047Y-97959523D01*
X172878571Y-97959523D01*
X173140476Y-97840476D02*
X173092857Y-97816666D01*
X173069047Y-97792857D01*
X173045238Y-97745238D01*
X173045238Y-97721428D01*
X173069047Y-97673809D01*
X173092857Y-97650000D01*
X173140476Y-97626190D01*
X173235714Y-97626190D01*
X173283333Y-97650000D01*
X173307142Y-97673809D01*
X173330952Y-97721428D01*
X173330952Y-97745238D01*
X173307142Y-97792857D01*
X173283333Y-97816666D01*
X173235714Y-97840476D01*
X173140476Y-97840476D01*
X173092857Y-97864285D01*
X173069047Y-97888095D01*
X173045238Y-97935714D01*
X173045238Y-98030952D01*
X173069047Y-98078571D01*
X173092857Y-98102380D01*
X173140476Y-98126190D01*
X173235714Y-98126190D01*
X173283333Y-98102380D01*
X173307142Y-98078571D01*
X173330952Y-98030952D01*
X173330952Y-97935714D01*
X173307142Y-97888095D01*
X173283333Y-97864285D01*
X173235714Y-97840476D01*
%TO.C,R30*%
X167778571Y-99826190D02*
X167611904Y-99588095D01*
X167492857Y-99826190D02*
X167492857Y-99326190D01*
X167683333Y-99326190D01*
X167730952Y-99350000D01*
X167754761Y-99373809D01*
X167778571Y-99421428D01*
X167778571Y-99492857D01*
X167754761Y-99540476D01*
X167730952Y-99564285D01*
X167683333Y-99588095D01*
X167492857Y-99588095D01*
X167945238Y-99326190D02*
X168254761Y-99326190D01*
X168088095Y-99516666D01*
X168159523Y-99516666D01*
X168207142Y-99540476D01*
X168230952Y-99564285D01*
X168254761Y-99611904D01*
X168254761Y-99730952D01*
X168230952Y-99778571D01*
X168207142Y-99802380D01*
X168159523Y-99826190D01*
X168016666Y-99826190D01*
X167969047Y-99802380D01*
X167945238Y-99778571D01*
X168564285Y-99326190D02*
X168611904Y-99326190D01*
X168659523Y-99350000D01*
X168683333Y-99373809D01*
X168707142Y-99421428D01*
X168730952Y-99516666D01*
X168730952Y-99635714D01*
X168707142Y-99730952D01*
X168683333Y-99778571D01*
X168659523Y-99802380D01*
X168611904Y-99826190D01*
X168564285Y-99826190D01*
X168516666Y-99802380D01*
X168492857Y-99778571D01*
X168469047Y-99730952D01*
X168445238Y-99635714D01*
X168445238Y-99516666D01*
X168469047Y-99421428D01*
X168492857Y-99373809D01*
X168516666Y-99350000D01*
X168564285Y-99326190D01*
%TO.C,T3*%
X168926190Y-97280952D02*
X168926190Y-96995238D01*
X169426190Y-97138095D02*
X168926190Y-97138095D01*
X168926190Y-96876190D02*
X168926190Y-96566666D01*
X169116666Y-96733333D01*
X169116666Y-96661904D01*
X169140476Y-96614285D01*
X169164285Y-96590476D01*
X169211904Y-96566666D01*
X169330952Y-96566666D01*
X169378571Y-96590476D01*
X169402380Y-96614285D01*
X169426190Y-96661904D01*
X169426190Y-96804761D01*
X169402380Y-96852380D01*
X169378571Y-96876190D01*
%TO.C,Q7*%
X161373809Y-99047619D02*
X161350000Y-99095238D01*
X161302380Y-99142857D01*
X161230952Y-99214285D01*
X161207142Y-99261904D01*
X161207142Y-99309523D01*
X161326190Y-99285714D02*
X161302380Y-99333333D01*
X161254761Y-99380952D01*
X161159523Y-99404761D01*
X160992857Y-99404761D01*
X160897619Y-99380952D01*
X160850000Y-99333333D01*
X160826190Y-99285714D01*
X160826190Y-99190476D01*
X160850000Y-99142857D01*
X160897619Y-99095238D01*
X160992857Y-99071428D01*
X161159523Y-99071428D01*
X161254761Y-99095238D01*
X161302380Y-99142857D01*
X161326190Y-99190476D01*
X161326190Y-99285714D01*
X160826190Y-98904761D02*
X160826190Y-98571428D01*
X161326190Y-98785714D01*
%TO.C,U7*%
D11*
X165038095Y-104252380D02*
X165038095Y-105061904D01*
X165085714Y-105157142D01*
X165133333Y-105204761D01*
X165228571Y-105252380D01*
X165419047Y-105252380D01*
X165514285Y-105204761D01*
X165561904Y-105157142D01*
X165609523Y-105061904D01*
X165609523Y-104252380D01*
X165990476Y-104252380D02*
X166657142Y-104252380D01*
X166228571Y-105252380D01*
%TO.C,C4*%
X123233333Y-106257142D02*
X123185714Y-106304761D01*
X123042857Y-106352380D01*
X122947619Y-106352380D01*
X122804761Y-106304761D01*
X122709523Y-106209523D01*
X122661904Y-106114285D01*
X122614285Y-105923809D01*
X122614285Y-105780952D01*
X122661904Y-105590476D01*
X122709523Y-105495238D01*
X122804761Y-105400000D01*
X122947619Y-105352380D01*
X123042857Y-105352380D01*
X123185714Y-105400000D01*
X123233333Y-105447619D01*
X124090476Y-105685714D02*
X124090476Y-106352380D01*
X123852380Y-105304761D02*
X123614285Y-106019047D01*
X124233333Y-106019047D01*
%TO.C,U1*%
X125347619Y-83438095D02*
X124538095Y-83438095D01*
X124442857Y-83485714D01*
X124395238Y-83533333D01*
X124347619Y-83628571D01*
X124347619Y-83819047D01*
X124395238Y-83914285D01*
X124442857Y-83961904D01*
X124538095Y-84009523D01*
X125347619Y-84009523D01*
X124347619Y-85009523D02*
X124347619Y-84438095D01*
X124347619Y-84723809D02*
X125347619Y-84723809D01*
X125204761Y-84628571D01*
X125109523Y-84533333D01*
X125061904Y-84438095D01*
%TO.C,U8*%
X206361904Y-90447619D02*
X206361904Y-89638095D01*
X206314285Y-89542857D01*
X206266666Y-89495238D01*
X206171428Y-89447619D01*
X205980952Y-89447619D01*
X205885714Y-89495238D01*
X205838095Y-89542857D01*
X205790476Y-89638095D01*
X205790476Y-90447619D01*
X205171428Y-90019047D02*
X205266666Y-90066666D01*
X205314285Y-90114285D01*
X205361904Y-90209523D01*
X205361904Y-90257142D01*
X205314285Y-90352380D01*
X205266666Y-90400000D01*
X205171428Y-90447619D01*
X204980952Y-90447619D01*
X204885714Y-90400000D01*
X204838095Y-90352380D01*
X204790476Y-90257142D01*
X204790476Y-90209523D01*
X204838095Y-90114285D01*
X204885714Y-90066666D01*
X204980952Y-90019047D01*
X205171428Y-90019047D01*
X205266666Y-89971428D01*
X205314285Y-89923809D01*
X205361904Y-89828571D01*
X205361904Y-89638095D01*
X205314285Y-89542857D01*
X205266666Y-89495238D01*
X205171428Y-89447619D01*
X204980952Y-89447619D01*
X204885714Y-89495238D01*
X204838095Y-89542857D01*
X204790476Y-89638095D01*
X204790476Y-89828571D01*
X204838095Y-89923809D01*
X204885714Y-89971428D01*
X204980952Y-90019047D01*
%TO.C,D3*%
D12*
X148226190Y-87069047D02*
X147726190Y-87069047D01*
X147726190Y-86950000D01*
X147750000Y-86878571D01*
X147797619Y-86830952D01*
X147845238Y-86807142D01*
X147940476Y-86783333D01*
X148011904Y-86783333D01*
X148107142Y-86807142D01*
X148154761Y-86830952D01*
X148202380Y-86878571D01*
X148226190Y-86950000D01*
X148226190Y-87069047D01*
X147726190Y-86616666D02*
X147726190Y-86307142D01*
X147916666Y-86473809D01*
X147916666Y-86402380D01*
X147940476Y-86354761D01*
X147964285Y-86330952D01*
X148011904Y-86307142D01*
X148130952Y-86307142D01*
X148178571Y-86330952D01*
X148202380Y-86354761D01*
X148226190Y-86402380D01*
X148226190Y-86545238D01*
X148202380Y-86592857D01*
X148178571Y-86616666D01*
%TO.C,U4*%
X189041581Y-125673599D02*
X189446343Y-125673599D01*
X189493962Y-125649789D01*
X189517771Y-125625980D01*
X189541581Y-125578361D01*
X189541581Y-125483123D01*
X189517771Y-125435504D01*
X189493962Y-125411694D01*
X189446343Y-125387885D01*
X189041581Y-125387885D01*
X189208248Y-124935504D02*
X189541581Y-124935504D01*
X189017771Y-125054551D02*
X189374914Y-125173599D01*
X189374914Y-124864075D01*
%TO.C,Y1*%
D11*
X192376190Y-95623809D02*
X192376190Y-95147619D01*
X192709523Y-96147619D02*
X192376190Y-95623809D01*
X192042857Y-96147619D01*
X191185714Y-95147619D02*
X191757142Y-95147619D01*
X191471428Y-95147619D02*
X191471428Y-96147619D01*
X191566666Y-96004761D01*
X191661904Y-95909523D01*
X191757142Y-95861904D01*
%TO.C,C15*%
X191257142Y-121742857D02*
X191304761Y-121790476D01*
X191352380Y-121933333D01*
X191352380Y-122028571D01*
X191304761Y-122171428D01*
X191209523Y-122266666D01*
X191114285Y-122314285D01*
X190923809Y-122361904D01*
X190780952Y-122361904D01*
X190590476Y-122314285D01*
X190495238Y-122266666D01*
X190400000Y-122171428D01*
X190352380Y-122028571D01*
X190352380Y-121933333D01*
X190400000Y-121790476D01*
X190447619Y-121742857D01*
X191352380Y-120790476D02*
X191352380Y-121361904D01*
X191352380Y-121076190D02*
X190352380Y-121076190D01*
X190495238Y-121171428D01*
X190590476Y-121266666D01*
X190638095Y-121361904D01*
X190352380Y-119885714D02*
X190352380Y-120361904D01*
X190828571Y-120409523D01*
X190780952Y-120361904D01*
X190733333Y-120266666D01*
X190733333Y-120028571D01*
X190780952Y-119933333D01*
X190828571Y-119885714D01*
X190923809Y-119838095D01*
X191161904Y-119838095D01*
X191257142Y-119885714D01*
X191304761Y-119933333D01*
X191352380Y-120028571D01*
X191352380Y-120266666D01*
X191304761Y-120361904D01*
X191257142Y-120409523D01*
%TO.C,SW1*%
X133933333Y-81095238D02*
X133790476Y-81047619D01*
X133552380Y-81047619D01*
X133457142Y-81095238D01*
X133409523Y-81142857D01*
X133361904Y-81238095D01*
X133361904Y-81333333D01*
X133409523Y-81428571D01*
X133457142Y-81476190D01*
X133552380Y-81523809D01*
X133742857Y-81571428D01*
X133838095Y-81619047D01*
X133885714Y-81666666D01*
X133933333Y-81761904D01*
X133933333Y-81857142D01*
X133885714Y-81952380D01*
X133838095Y-82000000D01*
X133742857Y-82047619D01*
X133504761Y-82047619D01*
X133361904Y-82000000D01*
X133028571Y-82047619D02*
X132790476Y-81047619D01*
X132600000Y-81761904D01*
X132409523Y-81047619D01*
X132171428Y-82047619D01*
X131266666Y-81047619D02*
X131838095Y-81047619D01*
X131552380Y-81047619D02*
X131552380Y-82047619D01*
X131647619Y-81904761D01*
X131742857Y-81809523D01*
X131838095Y-81761904D01*
%TO.C,D4*%
D12*
X200526190Y-93469047D02*
X200026190Y-93469047D01*
X200026190Y-93350000D01*
X200050000Y-93278571D01*
X200097619Y-93230952D01*
X200145238Y-93207142D01*
X200240476Y-93183333D01*
X200311904Y-93183333D01*
X200407142Y-93207142D01*
X200454761Y-93230952D01*
X200502380Y-93278571D01*
X200526190Y-93350000D01*
X200526190Y-93469047D01*
X200192857Y-92754761D02*
X200526190Y-92754761D01*
X200002380Y-92873809D02*
X200359523Y-92992857D01*
X200359523Y-92683333D01*
%TO.C,D1*%
D11*
X103338095Y-125547619D02*
X103338095Y-126547619D01*
X103100000Y-126547619D01*
X102957142Y-126500000D01*
X102861904Y-126404761D01*
X102814285Y-126309523D01*
X102766666Y-126119047D01*
X102766666Y-125976190D01*
X102814285Y-125785714D01*
X102861904Y-125690476D01*
X102957142Y-125595238D01*
X103100000Y-125547619D01*
X103338095Y-125547619D01*
X101814285Y-125547619D02*
X102385714Y-125547619D01*
X102100000Y-125547619D02*
X102100000Y-126547619D01*
X102195238Y-126404761D01*
X102290476Y-126309523D01*
X102385714Y-126261904D01*
%TO.C,D9*%
X162147619Y-93661904D02*
X163147619Y-93661904D01*
X163147619Y-93900000D01*
X163100000Y-94042857D01*
X163004761Y-94138095D01*
X162909523Y-94185714D01*
X162719047Y-94233333D01*
X162576190Y-94233333D01*
X162385714Y-94185714D01*
X162290476Y-94138095D01*
X162195238Y-94042857D01*
X162147619Y-93900000D01*
X162147619Y-93661904D01*
X162147619Y-94709523D02*
X162147619Y-94900000D01*
X162195238Y-94995238D01*
X162242857Y-95042857D01*
X162385714Y-95138095D01*
X162576190Y-95185714D01*
X162957142Y-95185714D01*
X163052380Y-95138095D01*
X163100000Y-95090476D01*
X163147619Y-94995238D01*
X163147619Y-94804761D01*
X163100000Y-94709523D01*
X163052380Y-94661904D01*
X162957142Y-94614285D01*
X162719047Y-94614285D01*
X162623809Y-94661904D01*
X162576190Y-94709523D01*
X162528571Y-94804761D01*
X162528571Y-94995238D01*
X162576190Y-95090476D01*
X162623809Y-95138095D01*
X162719047Y-95185714D01*
%TO.C,D10*%
X156452380Y-95614285D02*
X155452380Y-95614285D01*
X155452380Y-95376190D01*
X155500000Y-95233333D01*
X155595238Y-95138095D01*
X155690476Y-95090476D01*
X155880952Y-95042857D01*
X156023809Y-95042857D01*
X156214285Y-95090476D01*
X156309523Y-95138095D01*
X156404761Y-95233333D01*
X156452380Y-95376190D01*
X156452380Y-95614285D01*
X156452380Y-94090476D02*
X156452380Y-94661904D01*
X156452380Y-94376190D02*
X155452380Y-94376190D01*
X155595238Y-94471428D01*
X155690476Y-94566666D01*
X155738095Y-94661904D01*
X155452380Y-93471428D02*
X155452380Y-93376190D01*
X155500000Y-93280952D01*
X155547619Y-93233333D01*
X155642857Y-93185714D01*
X155833333Y-93138095D01*
X156071428Y-93138095D01*
X156261904Y-93185714D01*
X156357142Y-93233333D01*
X156404761Y-93280952D01*
X156452380Y-93376190D01*
X156452380Y-93471428D01*
X156404761Y-93566666D01*
X156357142Y-93614285D01*
X156261904Y-93661904D01*
X156071428Y-93709523D01*
X155833333Y-93709523D01*
X155642857Y-93661904D01*
X155547619Y-93614285D01*
X155500000Y-93566666D01*
X155452380Y-93471428D01*
%TO.C,R31*%
D12*
X200573809Y-108278571D02*
X200811904Y-108111904D01*
X200573809Y-107992857D02*
X201073809Y-107992857D01*
X201073809Y-108183333D01*
X201050000Y-108230952D01*
X201026190Y-108254761D01*
X200978571Y-108278571D01*
X200907142Y-108278571D01*
X200859523Y-108254761D01*
X200835714Y-108230952D01*
X200811904Y-108183333D01*
X200811904Y-107992857D01*
X201073809Y-108445238D02*
X201073809Y-108754761D01*
X200883333Y-108588095D01*
X200883333Y-108659523D01*
X200859523Y-108707142D01*
X200835714Y-108730952D01*
X200788095Y-108754761D01*
X200669047Y-108754761D01*
X200621428Y-108730952D01*
X200597619Y-108707142D01*
X200573809Y-108659523D01*
X200573809Y-108516666D01*
X200597619Y-108469047D01*
X200621428Y-108445238D01*
X200573809Y-109230952D02*
X200573809Y-108945238D01*
X200573809Y-109088095D02*
X201073809Y-109088095D01*
X201002380Y-109040476D01*
X200954761Y-108992857D01*
X200930952Y-108945238D01*
%TO.C,C42*%
X171521428Y-106021428D02*
X171545238Y-105997619D01*
X171616666Y-105973809D01*
X171664285Y-105973809D01*
X171735714Y-105997619D01*
X171783333Y-106045238D01*
X171807142Y-106092857D01*
X171830952Y-106188095D01*
X171830952Y-106259523D01*
X171807142Y-106354761D01*
X171783333Y-106402380D01*
X171735714Y-106450000D01*
X171664285Y-106473809D01*
X171616666Y-106473809D01*
X171545238Y-106450000D01*
X171521428Y-106426190D01*
X171092857Y-106307142D02*
X171092857Y-105973809D01*
X171211904Y-106497619D02*
X171330952Y-106140476D01*
X171021428Y-106140476D01*
X170854761Y-106426190D02*
X170830952Y-106450000D01*
X170783333Y-106473809D01*
X170664285Y-106473809D01*
X170616666Y-106450000D01*
X170592857Y-106426190D01*
X170569047Y-106378571D01*
X170569047Y-106330952D01*
X170592857Y-106259523D01*
X170878571Y-105973809D01*
X170569047Y-105973809D01*
%TO.C,D2*%
D11*
X186104848Y-121436741D02*
X185104848Y-121436741D01*
X185104848Y-121198646D01*
X185152468Y-121055788D01*
X185247706Y-120960550D01*
X185342944Y-120912931D01*
X185533420Y-120865312D01*
X185676277Y-120865312D01*
X185866753Y-120912931D01*
X185961991Y-120960550D01*
X186057229Y-121055788D01*
X186104848Y-121198646D01*
X186104848Y-121436741D01*
X185200087Y-120484360D02*
X185152468Y-120436741D01*
X185104848Y-120341503D01*
X185104848Y-120103407D01*
X185152468Y-120008169D01*
X185200087Y-119960550D01*
X185295325Y-119912931D01*
X185390563Y-119912931D01*
X185533420Y-119960550D01*
X186104848Y-120531979D01*
X186104848Y-119912931D01*
%TO.C,L3*%
X183019134Y-123146265D02*
X183495325Y-123146265D01*
X183495325Y-124146265D01*
X182781039Y-124146265D02*
X182161991Y-124146265D01*
X182495325Y-123765312D01*
X182352468Y-123765312D01*
X182257229Y-123717693D01*
X182209610Y-123670074D01*
X182161991Y-123574836D01*
X182161991Y-123336741D01*
X182209610Y-123241503D01*
X182257229Y-123193884D01*
X182352468Y-123146265D01*
X182638182Y-123146265D01*
X182733420Y-123193884D01*
X182781039Y-123241503D01*
%TO.C,J4*%
X207566666Y-96452380D02*
X207566666Y-97166666D01*
X207519047Y-97309523D01*
X207423809Y-97404761D01*
X207280952Y-97452380D01*
X207185714Y-97452380D01*
X208471428Y-96785714D02*
X208471428Y-97452380D01*
X208233333Y-96404761D02*
X207995238Y-97119047D01*
X208614285Y-97119047D01*
%TO.C,C11*%
D12*
X184021428Y-103421428D02*
X184045238Y-103397619D01*
X184116666Y-103373809D01*
X184164285Y-103373809D01*
X184235714Y-103397619D01*
X184283333Y-103445238D01*
X184307142Y-103492857D01*
X184330952Y-103588095D01*
X184330952Y-103659523D01*
X184307142Y-103754761D01*
X184283333Y-103802380D01*
X184235714Y-103850000D01*
X184164285Y-103873809D01*
X184116666Y-103873809D01*
X184045238Y-103850000D01*
X184021428Y-103826190D01*
X183545238Y-103373809D02*
X183830952Y-103373809D01*
X183688095Y-103373809D02*
X183688095Y-103873809D01*
X183735714Y-103802380D01*
X183783333Y-103754761D01*
X183830952Y-103730952D01*
X183069047Y-103373809D02*
X183354761Y-103373809D01*
X183211904Y-103373809D02*
X183211904Y-103873809D01*
X183259523Y-103802380D01*
X183307142Y-103754761D01*
X183354761Y-103730952D01*
%TO.C,C5*%
D11*
X135166666Y-113642857D02*
X135214285Y-113595238D01*
X135357142Y-113547619D01*
X135452380Y-113547619D01*
X135595238Y-113595238D01*
X135690476Y-113690476D01*
X135738095Y-113785714D01*
X135785714Y-113976190D01*
X135785714Y-114119047D01*
X135738095Y-114309523D01*
X135690476Y-114404761D01*
X135595238Y-114500000D01*
X135452380Y-114547619D01*
X135357142Y-114547619D01*
X135214285Y-114500000D01*
X135166666Y-114452380D01*
X134261904Y-114547619D02*
X134738095Y-114547619D01*
X134785714Y-114071428D01*
X134738095Y-114119047D01*
X134642857Y-114166666D01*
X134404761Y-114166666D01*
X134309523Y-114119047D01*
X134261904Y-114071428D01*
X134214285Y-113976190D01*
X134214285Y-113738095D01*
X134261904Y-113642857D01*
X134309523Y-113595238D01*
X134404761Y-113547619D01*
X134642857Y-113547619D01*
X134738095Y-113595238D01*
X134785714Y-113642857D01*
%TO.C,R6*%
X140547619Y-121633333D02*
X141023809Y-121300000D01*
X140547619Y-121061904D02*
X141547619Y-121061904D01*
X141547619Y-121442857D01*
X141500000Y-121538095D01*
X141452380Y-121585714D01*
X141357142Y-121633333D01*
X141214285Y-121633333D01*
X141119047Y-121585714D01*
X141071428Y-121538095D01*
X141023809Y-121442857D01*
X141023809Y-121061904D01*
X141547619Y-122490476D02*
X141547619Y-122300000D01*
X141500000Y-122204761D01*
X141452380Y-122157142D01*
X141309523Y-122061904D01*
X141119047Y-122014285D01*
X140738095Y-122014285D01*
X140642857Y-122061904D01*
X140595238Y-122109523D01*
X140547619Y-122204761D01*
X140547619Y-122395238D01*
X140595238Y-122490476D01*
X140642857Y-122538095D01*
X140738095Y-122585714D01*
X140976190Y-122585714D01*
X141071428Y-122538095D01*
X141119047Y-122490476D01*
X141166666Y-122395238D01*
X141166666Y-122204761D01*
X141119047Y-122109523D01*
X141071428Y-122061904D01*
X140976190Y-122014285D01*
%TO.C,R10*%
D12*
X128221428Y-88773809D02*
X128388095Y-89011904D01*
X128507142Y-88773809D02*
X128507142Y-89273809D01*
X128316666Y-89273809D01*
X128269047Y-89250000D01*
X128245238Y-89226190D01*
X128221428Y-89178571D01*
X128221428Y-89107142D01*
X128245238Y-89059523D01*
X128269047Y-89035714D01*
X128316666Y-89011904D01*
X128507142Y-89011904D01*
X127745238Y-88773809D02*
X128030952Y-88773809D01*
X127888095Y-88773809D02*
X127888095Y-89273809D01*
X127935714Y-89202380D01*
X127983333Y-89154761D01*
X128030952Y-89130952D01*
X127435714Y-89273809D02*
X127388095Y-89273809D01*
X127340476Y-89250000D01*
X127316666Y-89226190D01*
X127292857Y-89178571D01*
X127269047Y-89083333D01*
X127269047Y-88964285D01*
X127292857Y-88869047D01*
X127316666Y-88821428D01*
X127340476Y-88797619D01*
X127388095Y-88773809D01*
X127435714Y-88773809D01*
X127483333Y-88797619D01*
X127507142Y-88821428D01*
X127530952Y-88869047D01*
X127554761Y-88964285D01*
X127554761Y-89083333D01*
X127530952Y-89178571D01*
X127507142Y-89226190D01*
X127483333Y-89250000D01*
X127435714Y-89273809D01*
%TO.C,Q5*%
X193426190Y-131452380D02*
X193450000Y-131404761D01*
X193497619Y-131357142D01*
X193569047Y-131285714D01*
X193592857Y-131238095D01*
X193592857Y-131190476D01*
X193473809Y-131214285D02*
X193497619Y-131166666D01*
X193545238Y-131119047D01*
X193640476Y-131095238D01*
X193807142Y-131095238D01*
X193902380Y-131119047D01*
X193950000Y-131166666D01*
X193973809Y-131214285D01*
X193973809Y-131309523D01*
X193950000Y-131357142D01*
X193902380Y-131404761D01*
X193807142Y-131428571D01*
X193640476Y-131428571D01*
X193545238Y-131404761D01*
X193497619Y-131357142D01*
X193473809Y-131309523D01*
X193473809Y-131214285D01*
X193973809Y-131880952D02*
X193973809Y-131642857D01*
X193735714Y-131619047D01*
X193759523Y-131642857D01*
X193783333Y-131690476D01*
X193783333Y-131809523D01*
X193759523Y-131857142D01*
X193735714Y-131880952D01*
X193688095Y-131904761D01*
X193569047Y-131904761D01*
X193521428Y-131880952D01*
X193497619Y-131857142D01*
X193473809Y-131809523D01*
X193473809Y-131690476D01*
X193497619Y-131642857D01*
X193521428Y-131619047D01*
%TO.C,T4*%
X202973809Y-131369047D02*
X202973809Y-131654761D01*
X202473809Y-131511904D02*
X202973809Y-131511904D01*
X202807142Y-132035714D02*
X202473809Y-132035714D01*
X202997619Y-131916666D02*
X202640476Y-131797619D01*
X202640476Y-132107142D01*
%TO.C,F3*%
D13*
X164666666Y-96250000D02*
X164433333Y-96250000D01*
X164433333Y-96616666D02*
X164433333Y-95916666D01*
X164766666Y-95916666D01*
X164966666Y-95916666D02*
X165400000Y-95916666D01*
X165166666Y-96183333D01*
X165266666Y-96183333D01*
X165333333Y-96216666D01*
X165366666Y-96250000D01*
X165400000Y-96316666D01*
X165400000Y-96483333D01*
X165366666Y-96550000D01*
X165333333Y-96583333D01*
X165266666Y-96616666D01*
X165066666Y-96616666D01*
X165000000Y-96583333D01*
X164966666Y-96550000D01*
%TO.C,R33*%
D12*
X198978571Y-134626190D02*
X198811904Y-134388095D01*
X198692857Y-134626190D02*
X198692857Y-134126190D01*
X198883333Y-134126190D01*
X198930952Y-134150000D01*
X198954761Y-134173809D01*
X198978571Y-134221428D01*
X198978571Y-134292857D01*
X198954761Y-134340476D01*
X198930952Y-134364285D01*
X198883333Y-134388095D01*
X198692857Y-134388095D01*
X199145238Y-134126190D02*
X199454761Y-134126190D01*
X199288095Y-134316666D01*
X199359523Y-134316666D01*
X199407142Y-134340476D01*
X199430952Y-134364285D01*
X199454761Y-134411904D01*
X199454761Y-134530952D01*
X199430952Y-134578571D01*
X199407142Y-134602380D01*
X199359523Y-134626190D01*
X199216666Y-134626190D01*
X199169047Y-134602380D01*
X199145238Y-134578571D01*
X199621428Y-134126190D02*
X199930952Y-134126190D01*
X199764285Y-134316666D01*
X199835714Y-134316666D01*
X199883333Y-134340476D01*
X199907142Y-134364285D01*
X199930952Y-134411904D01*
X199930952Y-134530952D01*
X199907142Y-134578571D01*
X199883333Y-134602380D01*
X199835714Y-134626190D01*
X199692857Y-134626190D01*
X199645238Y-134602380D01*
X199621428Y-134578571D01*
%TO.C,R38*%
X199621428Y-135773809D02*
X199788095Y-136011904D01*
X199907142Y-135773809D02*
X199907142Y-136273809D01*
X199716666Y-136273809D01*
X199669047Y-136250000D01*
X199645238Y-136226190D01*
X199621428Y-136178571D01*
X199621428Y-136107142D01*
X199645238Y-136059523D01*
X199669047Y-136035714D01*
X199716666Y-136011904D01*
X199907142Y-136011904D01*
X199454761Y-136273809D02*
X199145238Y-136273809D01*
X199311904Y-136083333D01*
X199240476Y-136083333D01*
X199192857Y-136059523D01*
X199169047Y-136035714D01*
X199145238Y-135988095D01*
X199145238Y-135869047D01*
X199169047Y-135821428D01*
X199192857Y-135797619D01*
X199240476Y-135773809D01*
X199383333Y-135773809D01*
X199430952Y-135797619D01*
X199454761Y-135821428D01*
X198859523Y-136059523D02*
X198907142Y-136083333D01*
X198930952Y-136107142D01*
X198954761Y-136154761D01*
X198954761Y-136178571D01*
X198930952Y-136226190D01*
X198907142Y-136250000D01*
X198859523Y-136273809D01*
X198764285Y-136273809D01*
X198716666Y-136250000D01*
X198692857Y-136226190D01*
X198669047Y-136178571D01*
X198669047Y-136154761D01*
X198692857Y-136107142D01*
X198716666Y-136083333D01*
X198764285Y-136059523D01*
X198859523Y-136059523D01*
X198907142Y-136035714D01*
X198930952Y-136011904D01*
X198954761Y-135964285D01*
X198954761Y-135869047D01*
X198930952Y-135821428D01*
X198907142Y-135797619D01*
X198859523Y-135773809D01*
X198764285Y-135773809D01*
X198716666Y-135797619D01*
X198692857Y-135821428D01*
X198669047Y-135869047D01*
X198669047Y-135964285D01*
X198692857Y-136011904D01*
X198716666Y-136035714D01*
X198764285Y-136059523D01*
%TO.C,R47*%
X202921428Y-135773809D02*
X203088095Y-136011904D01*
X203207142Y-135773809D02*
X203207142Y-136273809D01*
X203016666Y-136273809D01*
X202969047Y-136250000D01*
X202945238Y-136226190D01*
X202921428Y-136178571D01*
X202921428Y-136107142D01*
X202945238Y-136059523D01*
X202969047Y-136035714D01*
X203016666Y-136011904D01*
X203207142Y-136011904D01*
X202492857Y-136107142D02*
X202492857Y-135773809D01*
X202611904Y-136297619D02*
X202730952Y-135940476D01*
X202421428Y-135940476D01*
X202278571Y-136273809D02*
X201945238Y-136273809D01*
X202159523Y-135773809D01*
%TO.C,J5*%
D11*
X184666666Y-136452380D02*
X184666666Y-137166666D01*
X184619047Y-137309523D01*
X184523809Y-137404761D01*
X184380952Y-137452380D01*
X184285714Y-137452380D01*
X185619047Y-136452380D02*
X185142857Y-136452380D01*
X185095238Y-136928571D01*
X185142857Y-136880952D01*
X185238095Y-136833333D01*
X185476190Y-136833333D01*
X185571428Y-136880952D01*
X185619047Y-136928571D01*
X185666666Y-137023809D01*
X185666666Y-137261904D01*
X185619047Y-137357142D01*
X185571428Y-137404761D01*
X185476190Y-137452380D01*
X185238095Y-137452380D01*
X185142857Y-137404761D01*
X185095238Y-137357142D01*
%TO.C,R1*%
D12*
X125226190Y-89883333D02*
X124988095Y-90050000D01*
X125226190Y-90169047D02*
X124726190Y-90169047D01*
X124726190Y-89978571D01*
X124750000Y-89930952D01*
X124773809Y-89907142D01*
X124821428Y-89883333D01*
X124892857Y-89883333D01*
X124940476Y-89907142D01*
X124964285Y-89930952D01*
X124988095Y-89978571D01*
X124988095Y-90169047D01*
X125226190Y-89407142D02*
X125226190Y-89692857D01*
X125226190Y-89550000D02*
X124726190Y-89550000D01*
X124797619Y-89597619D01*
X124845238Y-89645238D01*
X124869047Y-89692857D01*
%TO.C,C3*%
D11*
X123233333Y-109557142D02*
X123185714Y-109604761D01*
X123042857Y-109652380D01*
X122947619Y-109652380D01*
X122804761Y-109604761D01*
X122709523Y-109509523D01*
X122661904Y-109414285D01*
X122614285Y-109223809D01*
X122614285Y-109080952D01*
X122661904Y-108890476D01*
X122709523Y-108795238D01*
X122804761Y-108700000D01*
X122947619Y-108652380D01*
X123042857Y-108652380D01*
X123185714Y-108700000D01*
X123233333Y-108747619D01*
X123566666Y-108652380D02*
X124185714Y-108652380D01*
X123852380Y-109033333D01*
X123995238Y-109033333D01*
X124090476Y-109080952D01*
X124138095Y-109128571D01*
X124185714Y-109223809D01*
X124185714Y-109461904D01*
X124138095Y-109557142D01*
X124090476Y-109604761D01*
X123995238Y-109652380D01*
X123709523Y-109652380D01*
X123614285Y-109604761D01*
X123566666Y-109557142D01*
%TO.C,T2*%
D12*
X154719047Y-82726190D02*
X155004761Y-82726190D01*
X154861904Y-83226190D02*
X154861904Y-82726190D01*
X155147619Y-82773809D02*
X155171428Y-82750000D01*
X155219047Y-82726190D01*
X155338095Y-82726190D01*
X155385714Y-82750000D01*
X155409523Y-82773809D01*
X155433333Y-82821428D01*
X155433333Y-82869047D01*
X155409523Y-82940476D01*
X155123809Y-83226190D01*
X155433333Y-83226190D01*
%TO.C,T1*%
X167280952Y-109973809D02*
X166995238Y-109973809D01*
X167138095Y-109473809D02*
X167138095Y-109973809D01*
X166566666Y-109473809D02*
X166852380Y-109473809D01*
X166709523Y-109473809D02*
X166709523Y-109973809D01*
X166757142Y-109902380D01*
X166804761Y-109854761D01*
X166852380Y-109830952D01*
%TO.C,P3*%
D11*
X147738095Y-80247619D02*
X147738095Y-81247619D01*
X147357142Y-81247619D01*
X147261904Y-81200000D01*
X147214285Y-81152380D01*
X147166666Y-81057142D01*
X147166666Y-80914285D01*
X147214285Y-80819047D01*
X147261904Y-80771428D01*
X147357142Y-80723809D01*
X147738095Y-80723809D01*
X146833333Y-81247619D02*
X146214285Y-81247619D01*
X146547619Y-80866666D01*
X146404761Y-80866666D01*
X146309523Y-80819047D01*
X146261904Y-80771428D01*
X146214285Y-80676190D01*
X146214285Y-80438095D01*
X146261904Y-80342857D01*
X146309523Y-80295238D01*
X146404761Y-80247619D01*
X146690476Y-80247619D01*
X146785714Y-80295238D01*
X146833333Y-80342857D01*
%TO.C,C1*%
X112142857Y-114583333D02*
X112095238Y-114535714D01*
X112047619Y-114392857D01*
X112047619Y-114297619D01*
X112095238Y-114154761D01*
X112190476Y-114059523D01*
X112285714Y-114011904D01*
X112476190Y-113964285D01*
X112619047Y-113964285D01*
X112809523Y-114011904D01*
X112904761Y-114059523D01*
X113000000Y-114154761D01*
X113047619Y-114297619D01*
X113047619Y-114392857D01*
X113000000Y-114535714D01*
X112952380Y-114583333D01*
X112047619Y-115535714D02*
X112047619Y-114964285D01*
X112047619Y-115250000D02*
X113047619Y-115250000D01*
X112904761Y-115154761D01*
X112809523Y-115059523D01*
X112761904Y-114964285D01*
%TO.C,C2*%
X107142857Y-98583333D02*
X107095238Y-98535714D01*
X107047619Y-98392857D01*
X107047619Y-98297619D01*
X107095238Y-98154761D01*
X107190476Y-98059523D01*
X107285714Y-98011904D01*
X107476190Y-97964285D01*
X107619047Y-97964285D01*
X107809523Y-98011904D01*
X107904761Y-98059523D01*
X108000000Y-98154761D01*
X108047619Y-98297619D01*
X108047619Y-98392857D01*
X108000000Y-98535714D01*
X107952380Y-98583333D01*
X107952380Y-98964285D02*
X108000000Y-99011904D01*
X108047619Y-99107142D01*
X108047619Y-99345238D01*
X108000000Y-99440476D01*
X107952380Y-99488095D01*
X107857142Y-99535714D01*
X107761904Y-99535714D01*
X107619047Y-99488095D01*
X107047619Y-98916666D01*
X107047619Y-99535714D01*
%TO.C,R36*%
D13*
X195783333Y-81350000D02*
X196116666Y-81116666D01*
X195783333Y-80950000D02*
X196483333Y-80950000D01*
X196483333Y-81216666D01*
X196450000Y-81283333D01*
X196416666Y-81316666D01*
X196350000Y-81350000D01*
X196250000Y-81350000D01*
X196183333Y-81316666D01*
X196150000Y-81283333D01*
X196116666Y-81216666D01*
X196116666Y-80950000D01*
X196483333Y-81583333D02*
X196483333Y-82016666D01*
X196216666Y-81783333D01*
X196216666Y-81883333D01*
X196183333Y-81950000D01*
X196150000Y-81983333D01*
X196083333Y-82016666D01*
X195916666Y-82016666D01*
X195850000Y-81983333D01*
X195816666Y-81950000D01*
X195783333Y-81883333D01*
X195783333Y-81683333D01*
X195816666Y-81616666D01*
X195850000Y-81583333D01*
X196483333Y-82616666D02*
X196483333Y-82483333D01*
X196450000Y-82416666D01*
X196416666Y-82383333D01*
X196316666Y-82316666D01*
X196183333Y-82283333D01*
X195916666Y-82283333D01*
X195850000Y-82316666D01*
X195816666Y-82350000D01*
X195783333Y-82416666D01*
X195783333Y-82550000D01*
X195816666Y-82616666D01*
X195850000Y-82650000D01*
X195916666Y-82683333D01*
X196083333Y-82683333D01*
X196150000Y-82650000D01*
X196183333Y-82616666D01*
X196216666Y-82550000D01*
X196216666Y-82416666D01*
X196183333Y-82350000D01*
X196150000Y-82316666D01*
X196083333Y-82283333D01*
%TO.C,F2*%
X154833333Y-87850000D02*
X155066666Y-87850000D01*
X155066666Y-87483333D02*
X155066666Y-88183333D01*
X154733333Y-88183333D01*
X154500000Y-88116666D02*
X154466666Y-88150000D01*
X154400000Y-88183333D01*
X154233333Y-88183333D01*
X154166666Y-88150000D01*
X154133333Y-88116666D01*
X154100000Y-88050000D01*
X154100000Y-87983333D01*
X154133333Y-87883333D01*
X154533333Y-87483333D01*
X154100000Y-87483333D01*
%TO.C,C22*%
D12*
X201221428Y-114621428D02*
X201245238Y-114597619D01*
X201316666Y-114573809D01*
X201364285Y-114573809D01*
X201435714Y-114597619D01*
X201483333Y-114645238D01*
X201507142Y-114692857D01*
X201530952Y-114788095D01*
X201530952Y-114859523D01*
X201507142Y-114954761D01*
X201483333Y-115002380D01*
X201435714Y-115050000D01*
X201364285Y-115073809D01*
X201316666Y-115073809D01*
X201245238Y-115050000D01*
X201221428Y-115026190D01*
X201030952Y-115026190D02*
X201007142Y-115050000D01*
X200959523Y-115073809D01*
X200840476Y-115073809D01*
X200792857Y-115050000D01*
X200769047Y-115026190D01*
X200745238Y-114978571D01*
X200745238Y-114930952D01*
X200769047Y-114859523D01*
X201054761Y-114573809D01*
X200745238Y-114573809D01*
X200554761Y-115026190D02*
X200530952Y-115050000D01*
X200483333Y-115073809D01*
X200364285Y-115073809D01*
X200316666Y-115050000D01*
X200292857Y-115026190D01*
X200269047Y-114978571D01*
X200269047Y-114930952D01*
X200292857Y-114859523D01*
X200578571Y-114573809D01*
X200269047Y-114573809D01*
%TO.C,C24*%
X177978571Y-110021428D02*
X178002380Y-110045238D01*
X178026190Y-110116666D01*
X178026190Y-110164285D01*
X178002380Y-110235714D01*
X177954761Y-110283333D01*
X177907142Y-110307142D01*
X177811904Y-110330952D01*
X177740476Y-110330952D01*
X177645238Y-110307142D01*
X177597619Y-110283333D01*
X177550000Y-110235714D01*
X177526190Y-110164285D01*
X177526190Y-110116666D01*
X177550000Y-110045238D01*
X177573809Y-110021428D01*
X177573809Y-109830952D02*
X177550000Y-109807142D01*
X177526190Y-109759523D01*
X177526190Y-109640476D01*
X177550000Y-109592857D01*
X177573809Y-109569047D01*
X177621428Y-109545238D01*
X177669047Y-109545238D01*
X177740476Y-109569047D01*
X178026190Y-109854761D01*
X178026190Y-109545238D01*
X177692857Y-109116666D02*
X178026190Y-109116666D01*
X177502380Y-109235714D02*
X177859523Y-109354761D01*
X177859523Y-109045238D01*
%TO.C,U6*%
X200526190Y-112280952D02*
X200930952Y-112280952D01*
X200978571Y-112257142D01*
X201002380Y-112233333D01*
X201026190Y-112185714D01*
X201026190Y-112090476D01*
X201002380Y-112042857D01*
X200978571Y-112019047D01*
X200930952Y-111995238D01*
X200526190Y-111995238D01*
X200526190Y-111542857D02*
X200526190Y-111638095D01*
X200550000Y-111685714D01*
X200573809Y-111709523D01*
X200645238Y-111757142D01*
X200740476Y-111780952D01*
X200930952Y-111780952D01*
X200978571Y-111757142D01*
X201002380Y-111733333D01*
X201026190Y-111685714D01*
X201026190Y-111590476D01*
X201002380Y-111542857D01*
X200978571Y-111519047D01*
X200930952Y-111495238D01*
X200811904Y-111495238D01*
X200764285Y-111519047D01*
X200740476Y-111542857D01*
X200716666Y-111590476D01*
X200716666Y-111685714D01*
X200740476Y-111733333D01*
X200764285Y-111757142D01*
X200811904Y-111780952D01*
%TO.C,JP1*%
D11*
X171583333Y-82897619D02*
X171583333Y-82183333D01*
X171630952Y-82040476D01*
X171726190Y-81945238D01*
X171869047Y-81897619D01*
X171964285Y-81897619D01*
X171107142Y-81897619D02*
X171107142Y-82897619D01*
X170726190Y-82897619D01*
X170630952Y-82850000D01*
X170583333Y-82802380D01*
X170535714Y-82707142D01*
X170535714Y-82564285D01*
X170583333Y-82469047D01*
X170630952Y-82421428D01*
X170726190Y-82373809D01*
X171107142Y-82373809D01*
X169583333Y-81897619D02*
X170154761Y-81897619D01*
X169869047Y-81897619D02*
X169869047Y-82897619D01*
X169964285Y-82754761D01*
X170059523Y-82659523D01*
X170154761Y-82611904D01*
%TO.C,JP2*%
X187083333Y-82897619D02*
X187083333Y-82183333D01*
X187130952Y-82040476D01*
X187226190Y-81945238D01*
X187369047Y-81897619D01*
X187464285Y-81897619D01*
X186607142Y-81897619D02*
X186607142Y-82897619D01*
X186226190Y-82897619D01*
X186130952Y-82850000D01*
X186083333Y-82802380D01*
X186035714Y-82707142D01*
X186035714Y-82564285D01*
X186083333Y-82469047D01*
X186130952Y-82421428D01*
X186226190Y-82373809D01*
X186607142Y-82373809D01*
X185654761Y-82802380D02*
X185607142Y-82850000D01*
X185511904Y-82897619D01*
X185273809Y-82897619D01*
X185178571Y-82850000D01*
X185130952Y-82802380D01*
X185083333Y-82707142D01*
X185083333Y-82611904D01*
X185130952Y-82469047D01*
X185702380Y-81897619D01*
X185083333Y-81897619D01*
%TO.C,C33*%
D12*
X189721428Y-109521428D02*
X189745238Y-109497619D01*
X189816666Y-109473809D01*
X189864285Y-109473809D01*
X189935714Y-109497619D01*
X189983333Y-109545238D01*
X190007142Y-109592857D01*
X190030952Y-109688095D01*
X190030952Y-109759523D01*
X190007142Y-109854761D01*
X189983333Y-109902380D01*
X189935714Y-109950000D01*
X189864285Y-109973809D01*
X189816666Y-109973809D01*
X189745238Y-109950000D01*
X189721428Y-109926190D01*
X189554761Y-109973809D02*
X189245238Y-109973809D01*
X189411904Y-109783333D01*
X189340476Y-109783333D01*
X189292857Y-109759523D01*
X189269047Y-109735714D01*
X189245238Y-109688095D01*
X189245238Y-109569047D01*
X189269047Y-109521428D01*
X189292857Y-109497619D01*
X189340476Y-109473809D01*
X189483333Y-109473809D01*
X189530952Y-109497619D01*
X189554761Y-109521428D01*
X189078571Y-109973809D02*
X188769047Y-109973809D01*
X188935714Y-109783333D01*
X188864285Y-109783333D01*
X188816666Y-109759523D01*
X188792857Y-109735714D01*
X188769047Y-109688095D01*
X188769047Y-109569047D01*
X188792857Y-109521428D01*
X188816666Y-109497619D01*
X188864285Y-109473809D01*
X189007142Y-109473809D01*
X189054761Y-109497619D01*
X189078571Y-109521428D01*
%TO.C,C30*%
X187121428Y-107121428D02*
X187145238Y-107097619D01*
X187216666Y-107073809D01*
X187264285Y-107073809D01*
X187335714Y-107097619D01*
X187383333Y-107145238D01*
X187407142Y-107192857D01*
X187430952Y-107288095D01*
X187430952Y-107359523D01*
X187407142Y-107454761D01*
X187383333Y-107502380D01*
X187335714Y-107550000D01*
X187264285Y-107573809D01*
X187216666Y-107573809D01*
X187145238Y-107550000D01*
X187121428Y-107526190D01*
X186954761Y-107573809D02*
X186645238Y-107573809D01*
X186811904Y-107383333D01*
X186740476Y-107383333D01*
X186692857Y-107359523D01*
X186669047Y-107335714D01*
X186645238Y-107288095D01*
X186645238Y-107169047D01*
X186669047Y-107121428D01*
X186692857Y-107097619D01*
X186740476Y-107073809D01*
X186883333Y-107073809D01*
X186930952Y-107097619D01*
X186954761Y-107121428D01*
X186335714Y-107573809D02*
X186288095Y-107573809D01*
X186240476Y-107550000D01*
X186216666Y-107526190D01*
X186192857Y-107478571D01*
X186169047Y-107383333D01*
X186169047Y-107264285D01*
X186192857Y-107169047D01*
X186216666Y-107121428D01*
X186240476Y-107097619D01*
X186288095Y-107073809D01*
X186335714Y-107073809D01*
X186383333Y-107097619D01*
X186407142Y-107121428D01*
X186430952Y-107169047D01*
X186454761Y-107264285D01*
X186454761Y-107383333D01*
X186430952Y-107478571D01*
X186407142Y-107526190D01*
X186383333Y-107550000D01*
X186335714Y-107573809D01*
%TO.C,C9*%
X171116666Y-103978571D02*
X171092857Y-104002380D01*
X171021428Y-104026190D01*
X170973809Y-104026190D01*
X170902380Y-104002380D01*
X170854761Y-103954761D01*
X170830952Y-103907142D01*
X170807142Y-103811904D01*
X170807142Y-103740476D01*
X170830952Y-103645238D01*
X170854761Y-103597619D01*
X170902380Y-103550000D01*
X170973809Y-103526190D01*
X171021428Y-103526190D01*
X171092857Y-103550000D01*
X171116666Y-103573809D01*
X171354761Y-104026190D02*
X171450000Y-104026190D01*
X171497619Y-104002380D01*
X171521428Y-103978571D01*
X171569047Y-103907142D01*
X171592857Y-103811904D01*
X171592857Y-103621428D01*
X171569047Y-103573809D01*
X171545238Y-103550000D01*
X171497619Y-103526190D01*
X171402380Y-103526190D01*
X171354761Y-103550000D01*
X171330952Y-103573809D01*
X171307142Y-103621428D01*
X171307142Y-103740476D01*
X171330952Y-103788095D01*
X171354761Y-103811904D01*
X171402380Y-103835714D01*
X171497619Y-103835714D01*
X171545238Y-103811904D01*
X171569047Y-103788095D01*
X171592857Y-103740476D01*
%TO.C,C18*%
X184021428Y-100221428D02*
X184045238Y-100197619D01*
X184116666Y-100173809D01*
X184164285Y-100173809D01*
X184235714Y-100197619D01*
X184283333Y-100245238D01*
X184307142Y-100292857D01*
X184330952Y-100388095D01*
X184330952Y-100459523D01*
X184307142Y-100554761D01*
X184283333Y-100602380D01*
X184235714Y-100650000D01*
X184164285Y-100673809D01*
X184116666Y-100673809D01*
X184045238Y-100650000D01*
X184021428Y-100626190D01*
X183545238Y-100173809D02*
X183830952Y-100173809D01*
X183688095Y-100173809D02*
X183688095Y-100673809D01*
X183735714Y-100602380D01*
X183783333Y-100554761D01*
X183830952Y-100530952D01*
X183259523Y-100459523D02*
X183307142Y-100483333D01*
X183330952Y-100507142D01*
X183354761Y-100554761D01*
X183354761Y-100578571D01*
X183330952Y-100626190D01*
X183307142Y-100650000D01*
X183259523Y-100673809D01*
X183164285Y-100673809D01*
X183116666Y-100650000D01*
X183092857Y-100626190D01*
X183069047Y-100578571D01*
X183069047Y-100554761D01*
X183092857Y-100507142D01*
X183116666Y-100483333D01*
X183164285Y-100459523D01*
X183259523Y-100459523D01*
X183307142Y-100435714D01*
X183330952Y-100411904D01*
X183354761Y-100364285D01*
X183354761Y-100269047D01*
X183330952Y-100221428D01*
X183307142Y-100197619D01*
X183259523Y-100173809D01*
X183164285Y-100173809D01*
X183116666Y-100197619D01*
X183092857Y-100221428D01*
X183069047Y-100269047D01*
X183069047Y-100364285D01*
X183092857Y-100411904D01*
X183116666Y-100435714D01*
X183164285Y-100459523D01*
%TO.C,C25*%
X141521428Y-79578571D02*
X141497619Y-79554761D01*
X141473809Y-79483333D01*
X141473809Y-79435714D01*
X141497619Y-79364285D01*
X141545238Y-79316666D01*
X141592857Y-79292857D01*
X141688095Y-79269047D01*
X141759523Y-79269047D01*
X141854761Y-79292857D01*
X141902380Y-79316666D01*
X141950000Y-79364285D01*
X141973809Y-79435714D01*
X141973809Y-79483333D01*
X141950000Y-79554761D01*
X141926190Y-79578571D01*
X141926190Y-79769047D02*
X141950000Y-79792857D01*
X141973809Y-79840476D01*
X141973809Y-79959523D01*
X141950000Y-80007142D01*
X141926190Y-80030952D01*
X141878571Y-80054761D01*
X141830952Y-80054761D01*
X141759523Y-80030952D01*
X141473809Y-79745238D01*
X141473809Y-80054761D01*
X141973809Y-80507142D02*
X141973809Y-80269047D01*
X141735714Y-80245238D01*
X141759523Y-80269047D01*
X141783333Y-80316666D01*
X141783333Y-80435714D01*
X141759523Y-80483333D01*
X141735714Y-80507142D01*
X141688095Y-80530952D01*
X141569047Y-80530952D01*
X141521428Y-80507142D01*
X141497619Y-80483333D01*
X141473809Y-80435714D01*
X141473809Y-80316666D01*
X141497619Y-80269047D01*
X141521428Y-80245238D01*
%TO.C,C10*%
X128678571Y-86821428D02*
X128702380Y-86845238D01*
X128726190Y-86916666D01*
X128726190Y-86964285D01*
X128702380Y-87035714D01*
X128654761Y-87083333D01*
X128607142Y-87107142D01*
X128511904Y-87130952D01*
X128440476Y-87130952D01*
X128345238Y-87107142D01*
X128297619Y-87083333D01*
X128250000Y-87035714D01*
X128226190Y-86964285D01*
X128226190Y-86916666D01*
X128250000Y-86845238D01*
X128273809Y-86821428D01*
X128726190Y-86345238D02*
X128726190Y-86630952D01*
X128726190Y-86488095D02*
X128226190Y-86488095D01*
X128297619Y-86535714D01*
X128345238Y-86583333D01*
X128369047Y-86630952D01*
X128226190Y-86035714D02*
X128226190Y-85988095D01*
X128250000Y-85940476D01*
X128273809Y-85916666D01*
X128321428Y-85892857D01*
X128416666Y-85869047D01*
X128535714Y-85869047D01*
X128630952Y-85892857D01*
X128678571Y-85916666D01*
X128702380Y-85940476D01*
X128726190Y-85988095D01*
X128726190Y-86035714D01*
X128702380Y-86083333D01*
X128678571Y-86107142D01*
X128630952Y-86130952D01*
X128535714Y-86154761D01*
X128416666Y-86154761D01*
X128321428Y-86130952D01*
X128273809Y-86107142D01*
X128250000Y-86083333D01*
X128226190Y-86035714D01*
%TO.C,C26*%
X210021428Y-89678571D02*
X209997619Y-89654761D01*
X209973809Y-89583333D01*
X209973809Y-89535714D01*
X209997619Y-89464285D01*
X210045238Y-89416666D01*
X210092857Y-89392857D01*
X210188095Y-89369047D01*
X210259523Y-89369047D01*
X210354761Y-89392857D01*
X210402380Y-89416666D01*
X210450000Y-89464285D01*
X210473809Y-89535714D01*
X210473809Y-89583333D01*
X210450000Y-89654761D01*
X210426190Y-89678571D01*
X210426190Y-89869047D02*
X210450000Y-89892857D01*
X210473809Y-89940476D01*
X210473809Y-90059523D01*
X210450000Y-90107142D01*
X210426190Y-90130952D01*
X210378571Y-90154761D01*
X210330952Y-90154761D01*
X210259523Y-90130952D01*
X209973809Y-89845238D01*
X209973809Y-90154761D01*
X210473809Y-90583333D02*
X210473809Y-90488095D01*
X210450000Y-90440476D01*
X210426190Y-90416666D01*
X210354761Y-90369047D01*
X210259523Y-90345238D01*
X210069047Y-90345238D01*
X210021428Y-90369047D01*
X209997619Y-90392857D01*
X209973809Y-90440476D01*
X209973809Y-90535714D01*
X209997619Y-90583333D01*
X210021428Y-90607142D01*
X210069047Y-90630952D01*
X210188095Y-90630952D01*
X210235714Y-90607142D01*
X210259523Y-90583333D01*
X210283333Y-90535714D01*
X210283333Y-90440476D01*
X210259523Y-90392857D01*
X210235714Y-90369047D01*
X210188095Y-90345238D01*
%TO.C,C29*%
X157521428Y-79878571D02*
X157497619Y-79854761D01*
X157473809Y-79783333D01*
X157473809Y-79735714D01*
X157497619Y-79664285D01*
X157545238Y-79616666D01*
X157592857Y-79592857D01*
X157688095Y-79569047D01*
X157759523Y-79569047D01*
X157854761Y-79592857D01*
X157902380Y-79616666D01*
X157950000Y-79664285D01*
X157973809Y-79735714D01*
X157973809Y-79783333D01*
X157950000Y-79854761D01*
X157926190Y-79878571D01*
X157926190Y-80069047D02*
X157950000Y-80092857D01*
X157973809Y-80140476D01*
X157973809Y-80259523D01*
X157950000Y-80307142D01*
X157926190Y-80330952D01*
X157878571Y-80354761D01*
X157830952Y-80354761D01*
X157759523Y-80330952D01*
X157473809Y-80045238D01*
X157473809Y-80354761D01*
X157473809Y-80592857D02*
X157473809Y-80688095D01*
X157497619Y-80735714D01*
X157521428Y-80759523D01*
X157592857Y-80807142D01*
X157688095Y-80830952D01*
X157878571Y-80830952D01*
X157926190Y-80807142D01*
X157950000Y-80783333D01*
X157973809Y-80735714D01*
X157973809Y-80640476D01*
X157950000Y-80592857D01*
X157926190Y-80569047D01*
X157878571Y-80545238D01*
X157759523Y-80545238D01*
X157711904Y-80569047D01*
X157688095Y-80592857D01*
X157664285Y-80640476D01*
X157664285Y-80735714D01*
X157688095Y-80783333D01*
X157711904Y-80807142D01*
X157759523Y-80830952D01*
%TO.C,C31*%
X198778571Y-98178571D02*
X198754761Y-98202380D01*
X198683333Y-98226190D01*
X198635714Y-98226190D01*
X198564285Y-98202380D01*
X198516666Y-98154761D01*
X198492857Y-98107142D01*
X198469047Y-98011904D01*
X198469047Y-97940476D01*
X198492857Y-97845238D01*
X198516666Y-97797619D01*
X198564285Y-97750000D01*
X198635714Y-97726190D01*
X198683333Y-97726190D01*
X198754761Y-97750000D01*
X198778571Y-97773809D01*
X198945238Y-97726190D02*
X199254761Y-97726190D01*
X199088095Y-97916666D01*
X199159523Y-97916666D01*
X199207142Y-97940476D01*
X199230952Y-97964285D01*
X199254761Y-98011904D01*
X199254761Y-98130952D01*
X199230952Y-98178571D01*
X199207142Y-98202380D01*
X199159523Y-98226190D01*
X199016666Y-98226190D01*
X198969047Y-98202380D01*
X198945238Y-98178571D01*
X199730952Y-98226190D02*
X199445238Y-98226190D01*
X199588095Y-98226190D02*
X199588095Y-97726190D01*
X199540476Y-97797619D01*
X199492857Y-97845238D01*
X199445238Y-97869047D01*
%TO.C,C32*%
X196621428Y-109421428D02*
X196645238Y-109397619D01*
X196716666Y-109373809D01*
X196764285Y-109373809D01*
X196835714Y-109397619D01*
X196883333Y-109445238D01*
X196907142Y-109492857D01*
X196930952Y-109588095D01*
X196930952Y-109659523D01*
X196907142Y-109754761D01*
X196883333Y-109802380D01*
X196835714Y-109850000D01*
X196764285Y-109873809D01*
X196716666Y-109873809D01*
X196645238Y-109850000D01*
X196621428Y-109826190D01*
X196454761Y-109873809D02*
X196145238Y-109873809D01*
X196311904Y-109683333D01*
X196240476Y-109683333D01*
X196192857Y-109659523D01*
X196169047Y-109635714D01*
X196145238Y-109588095D01*
X196145238Y-109469047D01*
X196169047Y-109421428D01*
X196192857Y-109397619D01*
X196240476Y-109373809D01*
X196383333Y-109373809D01*
X196430952Y-109397619D01*
X196454761Y-109421428D01*
X195954761Y-109826190D02*
X195930952Y-109850000D01*
X195883333Y-109873809D01*
X195764285Y-109873809D01*
X195716666Y-109850000D01*
X195692857Y-109826190D01*
X195669047Y-109778571D01*
X195669047Y-109730952D01*
X195692857Y-109659523D01*
X195978571Y-109373809D01*
X195669047Y-109373809D01*
%TO.C,C16*%
X177021428Y-96221428D02*
X177045238Y-96197619D01*
X177116666Y-96173809D01*
X177164285Y-96173809D01*
X177235714Y-96197619D01*
X177283333Y-96245238D01*
X177307142Y-96292857D01*
X177330952Y-96388095D01*
X177330952Y-96459523D01*
X177307142Y-96554761D01*
X177283333Y-96602380D01*
X177235714Y-96650000D01*
X177164285Y-96673809D01*
X177116666Y-96673809D01*
X177045238Y-96650000D01*
X177021428Y-96626190D01*
X176545238Y-96173809D02*
X176830952Y-96173809D01*
X176688095Y-96173809D02*
X176688095Y-96673809D01*
X176735714Y-96602380D01*
X176783333Y-96554761D01*
X176830952Y-96530952D01*
X176116666Y-96673809D02*
X176211904Y-96673809D01*
X176259523Y-96650000D01*
X176283333Y-96626190D01*
X176330952Y-96554761D01*
X176354761Y-96459523D01*
X176354761Y-96269047D01*
X176330952Y-96221428D01*
X176307142Y-96197619D01*
X176259523Y-96173809D01*
X176164285Y-96173809D01*
X176116666Y-96197619D01*
X176092857Y-96221428D01*
X176069047Y-96269047D01*
X176069047Y-96388095D01*
X176092857Y-96435714D01*
X176116666Y-96459523D01*
X176164285Y-96483333D01*
X176259523Y-96483333D01*
X176307142Y-96459523D01*
X176330952Y-96435714D01*
X176354761Y-96388095D01*
%TO.C,C17*%
X184021428Y-101821428D02*
X184045238Y-101797619D01*
X184116666Y-101773809D01*
X184164285Y-101773809D01*
X184235714Y-101797619D01*
X184283333Y-101845238D01*
X184307142Y-101892857D01*
X184330952Y-101988095D01*
X184330952Y-102059523D01*
X184307142Y-102154761D01*
X184283333Y-102202380D01*
X184235714Y-102250000D01*
X184164285Y-102273809D01*
X184116666Y-102273809D01*
X184045238Y-102250000D01*
X184021428Y-102226190D01*
X183545238Y-101773809D02*
X183830952Y-101773809D01*
X183688095Y-101773809D02*
X183688095Y-102273809D01*
X183735714Y-102202380D01*
X183783333Y-102154761D01*
X183830952Y-102130952D01*
X183378571Y-102273809D02*
X183045238Y-102273809D01*
X183259523Y-101773809D01*
%TO.C,C35*%
X194121428Y-115078571D02*
X194097619Y-115054761D01*
X194073809Y-114983333D01*
X194073809Y-114935714D01*
X194097619Y-114864285D01*
X194145238Y-114816666D01*
X194192857Y-114792857D01*
X194288095Y-114769047D01*
X194359523Y-114769047D01*
X194454761Y-114792857D01*
X194502380Y-114816666D01*
X194550000Y-114864285D01*
X194573809Y-114935714D01*
X194573809Y-114983333D01*
X194550000Y-115054761D01*
X194526190Y-115078571D01*
X194573809Y-115245238D02*
X194573809Y-115554761D01*
X194383333Y-115388095D01*
X194383333Y-115459523D01*
X194359523Y-115507142D01*
X194335714Y-115530952D01*
X194288095Y-115554761D01*
X194169047Y-115554761D01*
X194121428Y-115530952D01*
X194097619Y-115507142D01*
X194073809Y-115459523D01*
X194073809Y-115316666D01*
X194097619Y-115269047D01*
X194121428Y-115245238D01*
X194573809Y-116007142D02*
X194573809Y-115769047D01*
X194335714Y-115745238D01*
X194359523Y-115769047D01*
X194383333Y-115816666D01*
X194383333Y-115935714D01*
X194359523Y-115983333D01*
X194335714Y-116007142D01*
X194288095Y-116030952D01*
X194169047Y-116030952D01*
X194121428Y-116007142D01*
X194097619Y-115983333D01*
X194073809Y-115935714D01*
X194073809Y-115816666D01*
X194097619Y-115769047D01*
X194121428Y-115745238D01*
%TO.C,C40*%
X193621428Y-135821428D02*
X193645238Y-135797619D01*
X193716666Y-135773809D01*
X193764285Y-135773809D01*
X193835714Y-135797619D01*
X193883333Y-135845238D01*
X193907142Y-135892857D01*
X193930952Y-135988095D01*
X193930952Y-136059523D01*
X193907142Y-136154761D01*
X193883333Y-136202380D01*
X193835714Y-136250000D01*
X193764285Y-136273809D01*
X193716666Y-136273809D01*
X193645238Y-136250000D01*
X193621428Y-136226190D01*
X193192857Y-136107142D02*
X193192857Y-135773809D01*
X193311904Y-136297619D02*
X193430952Y-135940476D01*
X193121428Y-135940476D01*
X192835714Y-136273809D02*
X192788095Y-136273809D01*
X192740476Y-136250000D01*
X192716666Y-136226190D01*
X192692857Y-136178571D01*
X192669047Y-136083333D01*
X192669047Y-135964285D01*
X192692857Y-135869047D01*
X192716666Y-135821428D01*
X192740476Y-135797619D01*
X192788095Y-135773809D01*
X192835714Y-135773809D01*
X192883333Y-135797619D01*
X192907142Y-135821428D01*
X192930952Y-135869047D01*
X192954761Y-135964285D01*
X192954761Y-136083333D01*
X192930952Y-136178571D01*
X192907142Y-136226190D01*
X192883333Y-136250000D01*
X192835714Y-136273809D01*
%TO.C,C39*%
X203221428Y-86021428D02*
X203245238Y-85997619D01*
X203316666Y-85973809D01*
X203364285Y-85973809D01*
X203435714Y-85997619D01*
X203483333Y-86045238D01*
X203507142Y-86092857D01*
X203530952Y-86188095D01*
X203530952Y-86259523D01*
X203507142Y-86354761D01*
X203483333Y-86402380D01*
X203435714Y-86450000D01*
X203364285Y-86473809D01*
X203316666Y-86473809D01*
X203245238Y-86450000D01*
X203221428Y-86426190D01*
X203054761Y-86473809D02*
X202745238Y-86473809D01*
X202911904Y-86283333D01*
X202840476Y-86283333D01*
X202792857Y-86259523D01*
X202769047Y-86235714D01*
X202745238Y-86188095D01*
X202745238Y-86069047D01*
X202769047Y-86021428D01*
X202792857Y-85997619D01*
X202840476Y-85973809D01*
X202983333Y-85973809D01*
X203030952Y-85997619D01*
X203054761Y-86021428D01*
X202507142Y-85973809D02*
X202411904Y-85973809D01*
X202364285Y-85997619D01*
X202340476Y-86021428D01*
X202292857Y-86092857D01*
X202269047Y-86188095D01*
X202269047Y-86378571D01*
X202292857Y-86426190D01*
X202316666Y-86450000D01*
X202364285Y-86473809D01*
X202459523Y-86473809D01*
X202507142Y-86450000D01*
X202530952Y-86426190D01*
X202554761Y-86378571D01*
X202554761Y-86259523D01*
X202530952Y-86211904D01*
X202507142Y-86188095D01*
X202459523Y-86164285D01*
X202364285Y-86164285D01*
X202316666Y-86188095D01*
X202292857Y-86211904D01*
X202269047Y-86259523D01*
%TO.C,C38*%
X189721428Y-111421428D02*
X189745238Y-111397619D01*
X189816666Y-111373809D01*
X189864285Y-111373809D01*
X189935714Y-111397619D01*
X189983333Y-111445238D01*
X190007142Y-111492857D01*
X190030952Y-111588095D01*
X190030952Y-111659523D01*
X190007142Y-111754761D01*
X189983333Y-111802380D01*
X189935714Y-111850000D01*
X189864285Y-111873809D01*
X189816666Y-111873809D01*
X189745238Y-111850000D01*
X189721428Y-111826190D01*
X189554761Y-111873809D02*
X189245238Y-111873809D01*
X189411904Y-111683333D01*
X189340476Y-111683333D01*
X189292857Y-111659523D01*
X189269047Y-111635714D01*
X189245238Y-111588095D01*
X189245238Y-111469047D01*
X189269047Y-111421428D01*
X189292857Y-111397619D01*
X189340476Y-111373809D01*
X189483333Y-111373809D01*
X189530952Y-111397619D01*
X189554761Y-111421428D01*
X188959523Y-111659523D02*
X189007142Y-111683333D01*
X189030952Y-111707142D01*
X189054761Y-111754761D01*
X189054761Y-111778571D01*
X189030952Y-111826190D01*
X189007142Y-111850000D01*
X188959523Y-111873809D01*
X188864285Y-111873809D01*
X188816666Y-111850000D01*
X188792857Y-111826190D01*
X188769047Y-111778571D01*
X188769047Y-111754761D01*
X188792857Y-111707142D01*
X188816666Y-111683333D01*
X188864285Y-111659523D01*
X188959523Y-111659523D01*
X189007142Y-111635714D01*
X189030952Y-111611904D01*
X189054761Y-111564285D01*
X189054761Y-111469047D01*
X189030952Y-111421428D01*
X189007142Y-111397619D01*
X188959523Y-111373809D01*
X188864285Y-111373809D01*
X188816666Y-111397619D01*
X188792857Y-111421428D01*
X188769047Y-111469047D01*
X188769047Y-111564285D01*
X188792857Y-111611904D01*
X188816666Y-111635714D01*
X188864285Y-111659523D01*
%TO.C,C36*%
X159678571Y-83721428D02*
X159702380Y-83745238D01*
X159726190Y-83816666D01*
X159726190Y-83864285D01*
X159702380Y-83935714D01*
X159654761Y-83983333D01*
X159607142Y-84007142D01*
X159511904Y-84030952D01*
X159440476Y-84030952D01*
X159345238Y-84007142D01*
X159297619Y-83983333D01*
X159250000Y-83935714D01*
X159226190Y-83864285D01*
X159226190Y-83816666D01*
X159250000Y-83745238D01*
X159273809Y-83721428D01*
X159226190Y-83554761D02*
X159226190Y-83245238D01*
X159416666Y-83411904D01*
X159416666Y-83340476D01*
X159440476Y-83292857D01*
X159464285Y-83269047D01*
X159511904Y-83245238D01*
X159630952Y-83245238D01*
X159678571Y-83269047D01*
X159702380Y-83292857D01*
X159726190Y-83340476D01*
X159726190Y-83483333D01*
X159702380Y-83530952D01*
X159678571Y-83554761D01*
X159226190Y-82816666D02*
X159226190Y-82911904D01*
X159250000Y-82959523D01*
X159273809Y-82983333D01*
X159345238Y-83030952D01*
X159440476Y-83054761D01*
X159630952Y-83054761D01*
X159678571Y-83030952D01*
X159702380Y-83007142D01*
X159726190Y-82959523D01*
X159726190Y-82864285D01*
X159702380Y-82816666D01*
X159678571Y-82792857D01*
X159630952Y-82769047D01*
X159511904Y-82769047D01*
X159464285Y-82792857D01*
X159440476Y-82816666D01*
X159416666Y-82864285D01*
X159416666Y-82959523D01*
X159440476Y-83007142D01*
X159464285Y-83030952D01*
X159511904Y-83054761D01*
%TO.C,C13*%
X184021428Y-105021428D02*
X184045238Y-104997619D01*
X184116666Y-104973809D01*
X184164285Y-104973809D01*
X184235714Y-104997619D01*
X184283333Y-105045238D01*
X184307142Y-105092857D01*
X184330952Y-105188095D01*
X184330952Y-105259523D01*
X184307142Y-105354761D01*
X184283333Y-105402380D01*
X184235714Y-105450000D01*
X184164285Y-105473809D01*
X184116666Y-105473809D01*
X184045238Y-105450000D01*
X184021428Y-105426190D01*
X183545238Y-104973809D02*
X183830952Y-104973809D01*
X183688095Y-104973809D02*
X183688095Y-105473809D01*
X183735714Y-105402380D01*
X183783333Y-105354761D01*
X183830952Y-105330952D01*
X183378571Y-105473809D02*
X183069047Y-105473809D01*
X183235714Y-105283333D01*
X183164285Y-105283333D01*
X183116666Y-105259523D01*
X183092857Y-105235714D01*
X183069047Y-105188095D01*
X183069047Y-105069047D01*
X183092857Y-105021428D01*
X183116666Y-104997619D01*
X183164285Y-104973809D01*
X183307142Y-104973809D01*
X183354761Y-104997619D01*
X183378571Y-105021428D01*
%TO.C,C6*%
X133383333Y-104921428D02*
X133407142Y-104897619D01*
X133478571Y-104873809D01*
X133526190Y-104873809D01*
X133597619Y-104897619D01*
X133645238Y-104945238D01*
X133669047Y-104992857D01*
X133692857Y-105088095D01*
X133692857Y-105159523D01*
X133669047Y-105254761D01*
X133645238Y-105302380D01*
X133597619Y-105350000D01*
X133526190Y-105373809D01*
X133478571Y-105373809D01*
X133407142Y-105350000D01*
X133383333Y-105326190D01*
X132954761Y-105373809D02*
X133050000Y-105373809D01*
X133097619Y-105350000D01*
X133121428Y-105326190D01*
X133169047Y-105254761D01*
X133192857Y-105159523D01*
X133192857Y-104969047D01*
X133169047Y-104921428D01*
X133145238Y-104897619D01*
X133097619Y-104873809D01*
X133002380Y-104873809D01*
X132954761Y-104897619D01*
X132930952Y-104921428D01*
X132907142Y-104969047D01*
X132907142Y-105088095D01*
X132930952Y-105135714D01*
X132954761Y-105159523D01*
X133002380Y-105183333D01*
X133097619Y-105183333D01*
X133145238Y-105159523D01*
X133169047Y-105135714D01*
X133192857Y-105088095D01*
%TO.C,C19*%
X187821428Y-128021428D02*
X187845238Y-127997619D01*
X187916666Y-127973809D01*
X187964285Y-127973809D01*
X188035714Y-127997619D01*
X188083333Y-128045238D01*
X188107142Y-128092857D01*
X188130952Y-128188095D01*
X188130952Y-128259523D01*
X188107142Y-128354761D01*
X188083333Y-128402380D01*
X188035714Y-128450000D01*
X187964285Y-128473809D01*
X187916666Y-128473809D01*
X187845238Y-128450000D01*
X187821428Y-128426190D01*
X187345238Y-127973809D02*
X187630952Y-127973809D01*
X187488095Y-127973809D02*
X187488095Y-128473809D01*
X187535714Y-128402380D01*
X187583333Y-128354761D01*
X187630952Y-128330952D01*
X187107142Y-127973809D02*
X187011904Y-127973809D01*
X186964285Y-127997619D01*
X186940476Y-128021428D01*
X186892857Y-128092857D01*
X186869047Y-128188095D01*
X186869047Y-128378571D01*
X186892857Y-128426190D01*
X186916666Y-128450000D01*
X186964285Y-128473809D01*
X187059523Y-128473809D01*
X187107142Y-128450000D01*
X187130952Y-128426190D01*
X187154761Y-128378571D01*
X187154761Y-128259523D01*
X187130952Y-128211904D01*
X187107142Y-128188095D01*
X187059523Y-128164285D01*
X186964285Y-128164285D01*
X186916666Y-128188095D01*
X186892857Y-128211904D01*
X186869047Y-128259523D01*
%TO.C,C34*%
X188421428Y-95021428D02*
X188445238Y-94997619D01*
X188516666Y-94973809D01*
X188564285Y-94973809D01*
X188635714Y-94997619D01*
X188683333Y-95045238D01*
X188707142Y-95092857D01*
X188730952Y-95188095D01*
X188730952Y-95259523D01*
X188707142Y-95354761D01*
X188683333Y-95402380D01*
X188635714Y-95450000D01*
X188564285Y-95473809D01*
X188516666Y-95473809D01*
X188445238Y-95450000D01*
X188421428Y-95426190D01*
X188254761Y-95473809D02*
X187945238Y-95473809D01*
X188111904Y-95283333D01*
X188040476Y-95283333D01*
X187992857Y-95259523D01*
X187969047Y-95235714D01*
X187945238Y-95188095D01*
X187945238Y-95069047D01*
X187969047Y-95021428D01*
X187992857Y-94997619D01*
X188040476Y-94973809D01*
X188183333Y-94973809D01*
X188230952Y-94997619D01*
X188254761Y-95021428D01*
X187516666Y-95307142D02*
X187516666Y-94973809D01*
X187635714Y-95497619D02*
X187754761Y-95140476D01*
X187445238Y-95140476D01*
%TO.C,C21*%
X183778571Y-116977217D02*
X183754761Y-117001026D01*
X183683333Y-117024836D01*
X183635714Y-117024836D01*
X183564285Y-117001026D01*
X183516666Y-116953407D01*
X183492857Y-116905788D01*
X183469047Y-116810550D01*
X183469047Y-116739122D01*
X183492857Y-116643884D01*
X183516666Y-116596265D01*
X183564285Y-116548646D01*
X183635714Y-116524836D01*
X183683333Y-116524836D01*
X183754761Y-116548646D01*
X183778571Y-116572455D01*
X183969047Y-116572455D02*
X183992857Y-116548646D01*
X184040476Y-116524836D01*
X184159523Y-116524836D01*
X184207142Y-116548646D01*
X184230952Y-116572455D01*
X184254761Y-116620074D01*
X184254761Y-116667693D01*
X184230952Y-116739122D01*
X183945238Y-117024836D01*
X184254761Y-117024836D01*
X184730952Y-117024836D02*
X184445238Y-117024836D01*
X184588095Y-117024836D02*
X184588095Y-116524836D01*
X184540476Y-116596265D01*
X184492857Y-116643884D01*
X184445238Y-116667693D01*
%TO.C,C20*%
X183778571Y-118978571D02*
X183754761Y-119002380D01*
X183683333Y-119026190D01*
X183635714Y-119026190D01*
X183564285Y-119002380D01*
X183516666Y-118954761D01*
X183492857Y-118907142D01*
X183469047Y-118811904D01*
X183469047Y-118740476D01*
X183492857Y-118645238D01*
X183516666Y-118597619D01*
X183564285Y-118550000D01*
X183635714Y-118526190D01*
X183683333Y-118526190D01*
X183754761Y-118550000D01*
X183778571Y-118573809D01*
X183969047Y-118573809D02*
X183992857Y-118550000D01*
X184040476Y-118526190D01*
X184159523Y-118526190D01*
X184207142Y-118550000D01*
X184230952Y-118573809D01*
X184254761Y-118621428D01*
X184254761Y-118669047D01*
X184230952Y-118740476D01*
X183945238Y-119026190D01*
X184254761Y-119026190D01*
X184564285Y-118526190D02*
X184611904Y-118526190D01*
X184659523Y-118550000D01*
X184683333Y-118573809D01*
X184707142Y-118621428D01*
X184730952Y-118716666D01*
X184730952Y-118835714D01*
X184707142Y-118930952D01*
X184683333Y-118978571D01*
X184659523Y-119002380D01*
X184611904Y-119026190D01*
X184564285Y-119026190D01*
X184516666Y-119002380D01*
X184492857Y-118978571D01*
X184469047Y-118930952D01*
X184445238Y-118835714D01*
X184445238Y-118716666D01*
X184469047Y-118621428D01*
X184492857Y-118573809D01*
X184516666Y-118550000D01*
X184564285Y-118526190D01*
%TO.C,C8*%
X122783333Y-124621428D02*
X122807142Y-124597619D01*
X122878571Y-124573809D01*
X122926190Y-124573809D01*
X122997619Y-124597619D01*
X123045238Y-124645238D01*
X123069047Y-124692857D01*
X123092857Y-124788095D01*
X123092857Y-124859523D01*
X123069047Y-124954761D01*
X123045238Y-125002380D01*
X122997619Y-125050000D01*
X122926190Y-125073809D01*
X122878571Y-125073809D01*
X122807142Y-125050000D01*
X122783333Y-125026190D01*
X122497619Y-124859523D02*
X122545238Y-124883333D01*
X122569047Y-124907142D01*
X122592857Y-124954761D01*
X122592857Y-124978571D01*
X122569047Y-125026190D01*
X122545238Y-125050000D01*
X122497619Y-125073809D01*
X122402380Y-125073809D01*
X122354761Y-125050000D01*
X122330952Y-125026190D01*
X122307142Y-124978571D01*
X122307142Y-124954761D01*
X122330952Y-124907142D01*
X122354761Y-124883333D01*
X122402380Y-124859523D01*
X122497619Y-124859523D01*
X122545238Y-124835714D01*
X122569047Y-124811904D01*
X122592857Y-124764285D01*
X122592857Y-124669047D01*
X122569047Y-124621428D01*
X122545238Y-124597619D01*
X122497619Y-124573809D01*
X122402380Y-124573809D01*
X122354761Y-124597619D01*
X122330952Y-124621428D01*
X122307142Y-124669047D01*
X122307142Y-124764285D01*
X122330952Y-124811904D01*
X122354761Y-124835714D01*
X122402380Y-124859523D01*
%TO.C,C14*%
X194078571Y-121721428D02*
X194102380Y-121745238D01*
X194126190Y-121816666D01*
X194126190Y-121864285D01*
X194102380Y-121935714D01*
X194054761Y-121983333D01*
X194007142Y-122007142D01*
X193911904Y-122030952D01*
X193840476Y-122030952D01*
X193745238Y-122007142D01*
X193697619Y-121983333D01*
X193650000Y-121935714D01*
X193626190Y-121864285D01*
X193626190Y-121816666D01*
X193650000Y-121745238D01*
X193673809Y-121721428D01*
X194126190Y-121245238D02*
X194126190Y-121530952D01*
X194126190Y-121388095D02*
X193626190Y-121388095D01*
X193697619Y-121435714D01*
X193745238Y-121483333D01*
X193769047Y-121530952D01*
X193792857Y-120816666D02*
X194126190Y-120816666D01*
X193602380Y-120935714D02*
X193959523Y-121054761D01*
X193959523Y-120745238D01*
%TO.C,R43*%
X204521428Y-121673809D02*
X204688095Y-121911904D01*
X204807142Y-121673809D02*
X204807142Y-122173809D01*
X204616666Y-122173809D01*
X204569047Y-122150000D01*
X204545238Y-122126190D01*
X204521428Y-122078571D01*
X204521428Y-122007142D01*
X204545238Y-121959523D01*
X204569047Y-121935714D01*
X204616666Y-121911904D01*
X204807142Y-121911904D01*
X204092857Y-122007142D02*
X204092857Y-121673809D01*
X204211904Y-122197619D02*
X204330952Y-121840476D01*
X204021428Y-121840476D01*
X203878571Y-122173809D02*
X203569047Y-122173809D01*
X203735714Y-121983333D01*
X203664285Y-121983333D01*
X203616666Y-121959523D01*
X203592857Y-121935714D01*
X203569047Y-121888095D01*
X203569047Y-121769047D01*
X203592857Y-121721428D01*
X203616666Y-121697619D01*
X203664285Y-121673809D01*
X203807142Y-121673809D01*
X203854761Y-121697619D01*
X203878571Y-121721428D01*
%TO.C,R34*%
X202026190Y-103421428D02*
X201788095Y-103588095D01*
X202026190Y-103707142D02*
X201526190Y-103707142D01*
X201526190Y-103516666D01*
X201550000Y-103469047D01*
X201573809Y-103445238D01*
X201621428Y-103421428D01*
X201692857Y-103421428D01*
X201740476Y-103445238D01*
X201764285Y-103469047D01*
X201788095Y-103516666D01*
X201788095Y-103707142D01*
X201526190Y-103254761D02*
X201526190Y-102945238D01*
X201716666Y-103111904D01*
X201716666Y-103040476D01*
X201740476Y-102992857D01*
X201764285Y-102969047D01*
X201811904Y-102945238D01*
X201930952Y-102945238D01*
X201978571Y-102969047D01*
X202002380Y-102992857D01*
X202026190Y-103040476D01*
X202026190Y-103183333D01*
X202002380Y-103230952D01*
X201978571Y-103254761D01*
X201692857Y-102516666D02*
X202026190Y-102516666D01*
X201502380Y-102635714D02*
X201859523Y-102754761D01*
X201859523Y-102445238D01*
%TO.C,R37*%
X183978571Y-97526190D02*
X183811904Y-97288095D01*
X183692857Y-97526190D02*
X183692857Y-97026190D01*
X183883333Y-97026190D01*
X183930952Y-97050000D01*
X183954761Y-97073809D01*
X183978571Y-97121428D01*
X183978571Y-97192857D01*
X183954761Y-97240476D01*
X183930952Y-97264285D01*
X183883333Y-97288095D01*
X183692857Y-97288095D01*
X184145238Y-97026190D02*
X184454761Y-97026190D01*
X184288095Y-97216666D01*
X184359523Y-97216666D01*
X184407142Y-97240476D01*
X184430952Y-97264285D01*
X184454761Y-97311904D01*
X184454761Y-97430952D01*
X184430952Y-97478571D01*
X184407142Y-97502380D01*
X184359523Y-97526190D01*
X184216666Y-97526190D01*
X184169047Y-97502380D01*
X184145238Y-97478571D01*
X184621428Y-97026190D02*
X184954761Y-97026190D01*
X184740476Y-97526190D01*
%TO.C,R39*%
X161526190Y-83721428D02*
X161288095Y-83888095D01*
X161526190Y-84007142D02*
X161026190Y-84007142D01*
X161026190Y-83816666D01*
X161050000Y-83769047D01*
X161073809Y-83745238D01*
X161121428Y-83721428D01*
X161192857Y-83721428D01*
X161240476Y-83745238D01*
X161264285Y-83769047D01*
X161288095Y-83816666D01*
X161288095Y-84007142D01*
X161026190Y-83554761D02*
X161026190Y-83245238D01*
X161216666Y-83411904D01*
X161216666Y-83340476D01*
X161240476Y-83292857D01*
X161264285Y-83269047D01*
X161311904Y-83245238D01*
X161430952Y-83245238D01*
X161478571Y-83269047D01*
X161502380Y-83292857D01*
X161526190Y-83340476D01*
X161526190Y-83483333D01*
X161502380Y-83530952D01*
X161478571Y-83554761D01*
X161526190Y-83007142D02*
X161526190Y-82911904D01*
X161502380Y-82864285D01*
X161478571Y-82840476D01*
X161407142Y-82792857D01*
X161311904Y-82769047D01*
X161121428Y-82769047D01*
X161073809Y-82792857D01*
X161050000Y-82816666D01*
X161026190Y-82864285D01*
X161026190Y-82959523D01*
X161050000Y-83007142D01*
X161073809Y-83030952D01*
X161121428Y-83054761D01*
X161240476Y-83054761D01*
X161288095Y-83030952D01*
X161311904Y-83007142D01*
X161335714Y-82959523D01*
X161335714Y-82864285D01*
X161311904Y-82816666D01*
X161288095Y-82792857D01*
X161240476Y-82769047D01*
%TO.C,R41*%
X157473809Y-83078571D02*
X157711904Y-82911904D01*
X157473809Y-82792857D02*
X157973809Y-82792857D01*
X157973809Y-82983333D01*
X157950000Y-83030952D01*
X157926190Y-83054761D01*
X157878571Y-83078571D01*
X157807142Y-83078571D01*
X157759523Y-83054761D01*
X157735714Y-83030952D01*
X157711904Y-82983333D01*
X157711904Y-82792857D01*
X157807142Y-83507142D02*
X157473809Y-83507142D01*
X157997619Y-83388095D02*
X157640476Y-83269047D01*
X157640476Y-83578571D01*
X157473809Y-84030952D02*
X157473809Y-83745238D01*
X157473809Y-83888095D02*
X157973809Y-83888095D01*
X157902380Y-83840476D01*
X157854761Y-83792857D01*
X157830952Y-83745238D01*
%TO.C,R42*%
X209821428Y-121673809D02*
X209988095Y-121911904D01*
X210107142Y-121673809D02*
X210107142Y-122173809D01*
X209916666Y-122173809D01*
X209869047Y-122150000D01*
X209845238Y-122126190D01*
X209821428Y-122078571D01*
X209821428Y-122007142D01*
X209845238Y-121959523D01*
X209869047Y-121935714D01*
X209916666Y-121911904D01*
X210107142Y-121911904D01*
X209392857Y-122007142D02*
X209392857Y-121673809D01*
X209511904Y-122197619D02*
X209630952Y-121840476D01*
X209321428Y-121840476D01*
X209154761Y-122126190D02*
X209130952Y-122150000D01*
X209083333Y-122173809D01*
X208964285Y-122173809D01*
X208916666Y-122150000D01*
X208892857Y-122126190D01*
X208869047Y-122078571D01*
X208869047Y-122030952D01*
X208892857Y-121959523D01*
X209178571Y-121673809D01*
X208869047Y-121673809D01*
%TO.C,R44*%
X192978571Y-134626190D02*
X192811904Y-134388095D01*
X192692857Y-134626190D02*
X192692857Y-134126190D01*
X192883333Y-134126190D01*
X192930952Y-134150000D01*
X192954761Y-134173809D01*
X192978571Y-134221428D01*
X192978571Y-134292857D01*
X192954761Y-134340476D01*
X192930952Y-134364285D01*
X192883333Y-134388095D01*
X192692857Y-134388095D01*
X193407142Y-134292857D02*
X193407142Y-134626190D01*
X193288095Y-134102380D02*
X193169047Y-134459523D01*
X193478571Y-134459523D01*
X193883333Y-134292857D02*
X193883333Y-134626190D01*
X193764285Y-134102380D02*
X193645238Y-134459523D01*
X193954761Y-134459523D01*
%TO.C,R45*%
X159273809Y-79878571D02*
X159511904Y-79711904D01*
X159273809Y-79592857D02*
X159773809Y-79592857D01*
X159773809Y-79783333D01*
X159750000Y-79830952D01*
X159726190Y-79854761D01*
X159678571Y-79878571D01*
X159607142Y-79878571D01*
X159559523Y-79854761D01*
X159535714Y-79830952D01*
X159511904Y-79783333D01*
X159511904Y-79592857D01*
X159607142Y-80307142D02*
X159273809Y-80307142D01*
X159797619Y-80188095D02*
X159440476Y-80069047D01*
X159440476Y-80378571D01*
X159773809Y-80807142D02*
X159773809Y-80569047D01*
X159535714Y-80545238D01*
X159559523Y-80569047D01*
X159583333Y-80616666D01*
X159583333Y-80735714D01*
X159559523Y-80783333D01*
X159535714Y-80807142D01*
X159488095Y-80830952D01*
X159369047Y-80830952D01*
X159321428Y-80807142D01*
X159297619Y-80783333D01*
X159273809Y-80735714D01*
X159273809Y-80616666D01*
X159297619Y-80569047D01*
X159321428Y-80545238D01*
%TO.C,R11*%
X179978571Y-103826190D02*
X179811904Y-103588095D01*
X179692857Y-103826190D02*
X179692857Y-103326190D01*
X179883333Y-103326190D01*
X179930952Y-103350000D01*
X179954761Y-103373809D01*
X179978571Y-103421428D01*
X179978571Y-103492857D01*
X179954761Y-103540476D01*
X179930952Y-103564285D01*
X179883333Y-103588095D01*
X179692857Y-103588095D01*
X180454761Y-103826190D02*
X180169047Y-103826190D01*
X180311904Y-103826190D02*
X180311904Y-103326190D01*
X180264285Y-103397619D01*
X180216666Y-103445238D01*
X180169047Y-103469047D01*
X180930952Y-103826190D02*
X180645238Y-103826190D01*
X180788095Y-103826190D02*
X180788095Y-103326190D01*
X180740476Y-103397619D01*
X180692857Y-103445238D01*
X180645238Y-103469047D01*
%TO.C,R46*%
X145173809Y-85878571D02*
X145411904Y-85711904D01*
X145173809Y-85592857D02*
X145673809Y-85592857D01*
X145673809Y-85783333D01*
X145650000Y-85830952D01*
X145626190Y-85854761D01*
X145578571Y-85878571D01*
X145507142Y-85878571D01*
X145459523Y-85854761D01*
X145435714Y-85830952D01*
X145411904Y-85783333D01*
X145411904Y-85592857D01*
X145507142Y-86307142D02*
X145173809Y-86307142D01*
X145697619Y-86188095D02*
X145340476Y-86069047D01*
X145340476Y-86378571D01*
X145673809Y-86783333D02*
X145673809Y-86688095D01*
X145650000Y-86640476D01*
X145626190Y-86616666D01*
X145554761Y-86569047D01*
X145459523Y-86545238D01*
X145269047Y-86545238D01*
X145221428Y-86569047D01*
X145197619Y-86592857D01*
X145173809Y-86640476D01*
X145173809Y-86735714D01*
X145197619Y-86783333D01*
X145221428Y-86807142D01*
X145269047Y-86830952D01*
X145388095Y-86830952D01*
X145435714Y-86807142D01*
X145459523Y-86783333D01*
X145483333Y-86735714D01*
X145483333Y-86640476D01*
X145459523Y-86592857D01*
X145435714Y-86569047D01*
X145388095Y-86545238D01*
%TO.C,RT1*%
X133573809Y-103373809D02*
X133740476Y-103611904D01*
X133859523Y-103373809D02*
X133859523Y-103873809D01*
X133669047Y-103873809D01*
X133621428Y-103850000D01*
X133597619Y-103826190D01*
X133573809Y-103778571D01*
X133573809Y-103707142D01*
X133597619Y-103659523D01*
X133621428Y-103635714D01*
X133669047Y-103611904D01*
X133859523Y-103611904D01*
X133430952Y-103873809D02*
X133145238Y-103873809D01*
X133288095Y-103373809D02*
X133288095Y-103873809D01*
X132716666Y-103373809D02*
X133002380Y-103373809D01*
X132859523Y-103373809D02*
X132859523Y-103873809D01*
X132907142Y-103802380D01*
X132954761Y-103754761D01*
X133002380Y-103730952D01*
%TO.C,R7*%
X157683333Y-105573809D02*
X157850000Y-105811904D01*
X157969047Y-105573809D02*
X157969047Y-106073809D01*
X157778571Y-106073809D01*
X157730952Y-106050000D01*
X157707142Y-106026190D01*
X157683333Y-105978571D01*
X157683333Y-105907142D01*
X157707142Y-105859523D01*
X157730952Y-105835714D01*
X157778571Y-105811904D01*
X157969047Y-105811904D01*
X157516666Y-106073809D02*
X157183333Y-106073809D01*
X157397619Y-105573809D01*
%TO.C,R8*%
X157683333Y-107173809D02*
X157850000Y-107411904D01*
X157969047Y-107173809D02*
X157969047Y-107673809D01*
X157778571Y-107673809D01*
X157730952Y-107650000D01*
X157707142Y-107626190D01*
X157683333Y-107578571D01*
X157683333Y-107507142D01*
X157707142Y-107459523D01*
X157730952Y-107435714D01*
X157778571Y-107411904D01*
X157969047Y-107411904D01*
X157397619Y-107459523D02*
X157445238Y-107483333D01*
X157469047Y-107507142D01*
X157492857Y-107554761D01*
X157492857Y-107578571D01*
X157469047Y-107626190D01*
X157445238Y-107650000D01*
X157397619Y-107673809D01*
X157302380Y-107673809D01*
X157254761Y-107650000D01*
X157230952Y-107626190D01*
X157207142Y-107578571D01*
X157207142Y-107554761D01*
X157230952Y-107507142D01*
X157254761Y-107483333D01*
X157302380Y-107459523D01*
X157397619Y-107459523D01*
X157445238Y-107435714D01*
X157469047Y-107411904D01*
X157492857Y-107364285D01*
X157492857Y-107269047D01*
X157469047Y-107221428D01*
X157445238Y-107197619D01*
X157397619Y-107173809D01*
X157302380Y-107173809D01*
X157254761Y-107197619D01*
X157230952Y-107221428D01*
X157207142Y-107269047D01*
X157207142Y-107364285D01*
X157230952Y-107411904D01*
X157254761Y-107435714D01*
X157302380Y-107459523D01*
%TO.C,R9*%
X163683333Y-110773809D02*
X163850000Y-111011904D01*
X163969047Y-110773809D02*
X163969047Y-111273809D01*
X163778571Y-111273809D01*
X163730952Y-111250000D01*
X163707142Y-111226190D01*
X163683333Y-111178571D01*
X163683333Y-111107142D01*
X163707142Y-111059523D01*
X163730952Y-111035714D01*
X163778571Y-111011904D01*
X163969047Y-111011904D01*
X163445238Y-110773809D02*
X163350000Y-110773809D01*
X163302380Y-110797619D01*
X163278571Y-110821428D01*
X163230952Y-110892857D01*
X163207142Y-110988095D01*
X163207142Y-111178571D01*
X163230952Y-111226190D01*
X163254761Y-111250000D01*
X163302380Y-111273809D01*
X163397619Y-111273809D01*
X163445238Y-111250000D01*
X163469047Y-111226190D01*
X163492857Y-111178571D01*
X163492857Y-111059523D01*
X163469047Y-111011904D01*
X163445238Y-110988095D01*
X163397619Y-110964285D01*
X163302380Y-110964285D01*
X163254761Y-110988095D01*
X163230952Y-111011904D01*
X163207142Y-111059523D01*
%TO.C,R26*%
X179978571Y-102226190D02*
X179811904Y-101988095D01*
X179692857Y-102226190D02*
X179692857Y-101726190D01*
X179883333Y-101726190D01*
X179930952Y-101750000D01*
X179954761Y-101773809D01*
X179978571Y-101821428D01*
X179978571Y-101892857D01*
X179954761Y-101940476D01*
X179930952Y-101964285D01*
X179883333Y-101988095D01*
X179692857Y-101988095D01*
X180169047Y-101773809D02*
X180192857Y-101750000D01*
X180240476Y-101726190D01*
X180359523Y-101726190D01*
X180407142Y-101750000D01*
X180430952Y-101773809D01*
X180454761Y-101821428D01*
X180454761Y-101869047D01*
X180430952Y-101940476D01*
X180145238Y-102226190D01*
X180454761Y-102226190D01*
X180883333Y-101726190D02*
X180788095Y-101726190D01*
X180740476Y-101750000D01*
X180716666Y-101773809D01*
X180669047Y-101845238D01*
X180645238Y-101940476D01*
X180645238Y-102130952D01*
X180669047Y-102178571D01*
X180692857Y-102202380D01*
X180740476Y-102226190D01*
X180835714Y-102226190D01*
X180883333Y-102202380D01*
X180907142Y-102178571D01*
X180930952Y-102130952D01*
X180930952Y-102011904D01*
X180907142Y-101964285D01*
X180883333Y-101940476D01*
X180835714Y-101916666D01*
X180740476Y-101916666D01*
X180692857Y-101940476D01*
X180669047Y-101964285D01*
X180645238Y-102011904D01*
%TO.C,R32*%
X198973809Y-108278571D02*
X199211904Y-108111904D01*
X198973809Y-107992857D02*
X199473809Y-107992857D01*
X199473809Y-108183333D01*
X199450000Y-108230952D01*
X199426190Y-108254761D01*
X199378571Y-108278571D01*
X199307142Y-108278571D01*
X199259523Y-108254761D01*
X199235714Y-108230952D01*
X199211904Y-108183333D01*
X199211904Y-107992857D01*
X199473809Y-108445238D02*
X199473809Y-108754761D01*
X199283333Y-108588095D01*
X199283333Y-108659523D01*
X199259523Y-108707142D01*
X199235714Y-108730952D01*
X199188095Y-108754761D01*
X199069047Y-108754761D01*
X199021428Y-108730952D01*
X198997619Y-108707142D01*
X198973809Y-108659523D01*
X198973809Y-108516666D01*
X198997619Y-108469047D01*
X199021428Y-108445238D01*
X199426190Y-108945238D02*
X199450000Y-108969047D01*
X199473809Y-109016666D01*
X199473809Y-109135714D01*
X199450000Y-109183333D01*
X199426190Y-109207142D01*
X199378571Y-109230952D01*
X199330952Y-109230952D01*
X199259523Y-109207142D01*
X198973809Y-108921428D01*
X198973809Y-109230952D01*
%TO.C,R12*%
X170721428Y-108373809D02*
X170888095Y-108611904D01*
X171007142Y-108373809D02*
X171007142Y-108873809D01*
X170816666Y-108873809D01*
X170769047Y-108850000D01*
X170745238Y-108826190D01*
X170721428Y-108778571D01*
X170721428Y-108707142D01*
X170745238Y-108659523D01*
X170769047Y-108635714D01*
X170816666Y-108611904D01*
X171007142Y-108611904D01*
X170245238Y-108373809D02*
X170530952Y-108373809D01*
X170388095Y-108373809D02*
X170388095Y-108873809D01*
X170435714Y-108802380D01*
X170483333Y-108754761D01*
X170530952Y-108730952D01*
X170054761Y-108826190D02*
X170030952Y-108850000D01*
X169983333Y-108873809D01*
X169864285Y-108873809D01*
X169816666Y-108850000D01*
X169792857Y-108826190D01*
X169769047Y-108778571D01*
X169769047Y-108730952D01*
X169792857Y-108659523D01*
X170078571Y-108373809D01*
X169769047Y-108373809D01*
%TO.C,R21*%
X160178571Y-104426190D02*
X160011904Y-104188095D01*
X159892857Y-104426190D02*
X159892857Y-103926190D01*
X160083333Y-103926190D01*
X160130952Y-103950000D01*
X160154761Y-103973809D01*
X160178571Y-104021428D01*
X160178571Y-104092857D01*
X160154761Y-104140476D01*
X160130952Y-104164285D01*
X160083333Y-104188095D01*
X159892857Y-104188095D01*
X160369047Y-103973809D02*
X160392857Y-103950000D01*
X160440476Y-103926190D01*
X160559523Y-103926190D01*
X160607142Y-103950000D01*
X160630952Y-103973809D01*
X160654761Y-104021428D01*
X160654761Y-104069047D01*
X160630952Y-104140476D01*
X160345238Y-104426190D01*
X160654761Y-104426190D01*
X161130952Y-104426190D02*
X160845238Y-104426190D01*
X160988095Y-104426190D02*
X160988095Y-103926190D01*
X160940476Y-103997619D01*
X160892857Y-104045238D01*
X160845238Y-104069047D01*
%TO.C,R22*%
X160178571Y-102826190D02*
X160011904Y-102588095D01*
X159892857Y-102826190D02*
X159892857Y-102326190D01*
X160083333Y-102326190D01*
X160130952Y-102350000D01*
X160154761Y-102373809D01*
X160178571Y-102421428D01*
X160178571Y-102492857D01*
X160154761Y-102540476D01*
X160130952Y-102564285D01*
X160083333Y-102588095D01*
X159892857Y-102588095D01*
X160369047Y-102373809D02*
X160392857Y-102350000D01*
X160440476Y-102326190D01*
X160559523Y-102326190D01*
X160607142Y-102350000D01*
X160630952Y-102373809D01*
X160654761Y-102421428D01*
X160654761Y-102469047D01*
X160630952Y-102540476D01*
X160345238Y-102826190D01*
X160654761Y-102826190D01*
X160845238Y-102373809D02*
X160869047Y-102350000D01*
X160916666Y-102326190D01*
X161035714Y-102326190D01*
X161083333Y-102350000D01*
X161107142Y-102373809D01*
X161130952Y-102421428D01*
X161130952Y-102469047D01*
X161107142Y-102540476D01*
X160821428Y-102826190D01*
X161130952Y-102826190D01*
%TO.C,R23*%
X176378571Y-98226190D02*
X176211904Y-97988095D01*
X176092857Y-98226190D02*
X176092857Y-97726190D01*
X176283333Y-97726190D01*
X176330952Y-97750000D01*
X176354761Y-97773809D01*
X176378571Y-97821428D01*
X176378571Y-97892857D01*
X176354761Y-97940476D01*
X176330952Y-97964285D01*
X176283333Y-97988095D01*
X176092857Y-97988095D01*
X176569047Y-97773809D02*
X176592857Y-97750000D01*
X176640476Y-97726190D01*
X176759523Y-97726190D01*
X176807142Y-97750000D01*
X176830952Y-97773809D01*
X176854761Y-97821428D01*
X176854761Y-97869047D01*
X176830952Y-97940476D01*
X176545238Y-98226190D01*
X176854761Y-98226190D01*
X177021428Y-97726190D02*
X177330952Y-97726190D01*
X177164285Y-97916666D01*
X177235714Y-97916666D01*
X177283333Y-97940476D01*
X177307142Y-97964285D01*
X177330952Y-98011904D01*
X177330952Y-98130952D01*
X177307142Y-98178571D01*
X177283333Y-98202380D01*
X177235714Y-98226190D01*
X177092857Y-98226190D01*
X177045238Y-98202380D01*
X177021428Y-98178571D01*
%TO.C,R24*%
X176878571Y-102226190D02*
X176711904Y-101988095D01*
X176592857Y-102226190D02*
X176592857Y-101726190D01*
X176783333Y-101726190D01*
X176830952Y-101750000D01*
X176854761Y-101773809D01*
X176878571Y-101821428D01*
X176878571Y-101892857D01*
X176854761Y-101940476D01*
X176830952Y-101964285D01*
X176783333Y-101988095D01*
X176592857Y-101988095D01*
X177069047Y-101773809D02*
X177092857Y-101750000D01*
X177140476Y-101726190D01*
X177259523Y-101726190D01*
X177307142Y-101750000D01*
X177330952Y-101773809D01*
X177354761Y-101821428D01*
X177354761Y-101869047D01*
X177330952Y-101940476D01*
X177045238Y-102226190D01*
X177354761Y-102226190D01*
X177783333Y-101892857D02*
X177783333Y-102226190D01*
X177664285Y-101702380D02*
X177545238Y-102059523D01*
X177854761Y-102059523D01*
%TO.C,R25*%
X176878571Y-100626190D02*
X176711904Y-100388095D01*
X176592857Y-100626190D02*
X176592857Y-100126190D01*
X176783333Y-100126190D01*
X176830952Y-100150000D01*
X176854761Y-100173809D01*
X176878571Y-100221428D01*
X176878571Y-100292857D01*
X176854761Y-100340476D01*
X176830952Y-100364285D01*
X176783333Y-100388095D01*
X176592857Y-100388095D01*
X177069047Y-100173809D02*
X177092857Y-100150000D01*
X177140476Y-100126190D01*
X177259523Y-100126190D01*
X177307142Y-100150000D01*
X177330952Y-100173809D01*
X177354761Y-100221428D01*
X177354761Y-100269047D01*
X177330952Y-100340476D01*
X177045238Y-100626190D01*
X177354761Y-100626190D01*
X177807142Y-100126190D02*
X177569047Y-100126190D01*
X177545238Y-100364285D01*
X177569047Y-100340476D01*
X177616666Y-100316666D01*
X177735714Y-100316666D01*
X177783333Y-100340476D01*
X177807142Y-100364285D01*
X177830952Y-100411904D01*
X177830952Y-100530952D01*
X177807142Y-100578571D01*
X177783333Y-100602380D01*
X177735714Y-100626190D01*
X177616666Y-100626190D01*
X177569047Y-100602380D01*
X177545238Y-100578571D01*
%TO.C,R20*%
X179978571Y-105426190D02*
X179811904Y-105188095D01*
X179692857Y-105426190D02*
X179692857Y-104926190D01*
X179883333Y-104926190D01*
X179930952Y-104950000D01*
X179954761Y-104973809D01*
X179978571Y-105021428D01*
X179978571Y-105092857D01*
X179954761Y-105140476D01*
X179930952Y-105164285D01*
X179883333Y-105188095D01*
X179692857Y-105188095D01*
X180169047Y-104973809D02*
X180192857Y-104950000D01*
X180240476Y-104926190D01*
X180359523Y-104926190D01*
X180407142Y-104950000D01*
X180430952Y-104973809D01*
X180454761Y-105021428D01*
X180454761Y-105069047D01*
X180430952Y-105140476D01*
X180145238Y-105426190D01*
X180454761Y-105426190D01*
X180764285Y-104926190D02*
X180811904Y-104926190D01*
X180859523Y-104950000D01*
X180883333Y-104973809D01*
X180907142Y-105021428D01*
X180930952Y-105116666D01*
X180930952Y-105235714D01*
X180907142Y-105330952D01*
X180883333Y-105378571D01*
X180859523Y-105402380D01*
X180811904Y-105426190D01*
X180764285Y-105426190D01*
X180716666Y-105402380D01*
X180692857Y-105378571D01*
X180669047Y-105330952D01*
X180645238Y-105235714D01*
X180645238Y-105116666D01*
X180669047Y-105021428D01*
X180692857Y-104973809D01*
X180716666Y-104950000D01*
X180764285Y-104926190D01*
%TO.C,R27*%
X179978571Y-100626190D02*
X179811904Y-100388095D01*
X179692857Y-100626190D02*
X179692857Y-100126190D01*
X179883333Y-100126190D01*
X179930952Y-100150000D01*
X179954761Y-100173809D01*
X179978571Y-100221428D01*
X179978571Y-100292857D01*
X179954761Y-100340476D01*
X179930952Y-100364285D01*
X179883333Y-100388095D01*
X179692857Y-100388095D01*
X180169047Y-100173809D02*
X180192857Y-100150000D01*
X180240476Y-100126190D01*
X180359523Y-100126190D01*
X180407142Y-100150000D01*
X180430952Y-100173809D01*
X180454761Y-100221428D01*
X180454761Y-100269047D01*
X180430952Y-100340476D01*
X180145238Y-100626190D01*
X180454761Y-100626190D01*
X180621428Y-100126190D02*
X180954761Y-100126190D01*
X180740476Y-100626190D01*
%TO.C,R28*%
X192573809Y-127078571D02*
X192811904Y-126911904D01*
X192573809Y-126792857D02*
X193073809Y-126792857D01*
X193073809Y-126983333D01*
X193050000Y-127030952D01*
X193026190Y-127054761D01*
X192978571Y-127078571D01*
X192907142Y-127078571D01*
X192859523Y-127054761D01*
X192835714Y-127030952D01*
X192811904Y-126983333D01*
X192811904Y-126792857D01*
X193026190Y-127269047D02*
X193050000Y-127292857D01*
X193073809Y-127340476D01*
X193073809Y-127459523D01*
X193050000Y-127507142D01*
X193026190Y-127530952D01*
X192978571Y-127554761D01*
X192930952Y-127554761D01*
X192859523Y-127530952D01*
X192573809Y-127245238D01*
X192573809Y-127554761D01*
X192859523Y-127840476D02*
X192883333Y-127792857D01*
X192907142Y-127769047D01*
X192954761Y-127745238D01*
X192978571Y-127745238D01*
X193026190Y-127769047D01*
X193050000Y-127792857D01*
X193073809Y-127840476D01*
X193073809Y-127935714D01*
X193050000Y-127983333D01*
X193026190Y-128007142D01*
X192978571Y-128030952D01*
X192954761Y-128030952D01*
X192907142Y-128007142D01*
X192883333Y-127983333D01*
X192859523Y-127935714D01*
X192859523Y-127840476D01*
X192835714Y-127792857D01*
X192811904Y-127769047D01*
X192764285Y-127745238D01*
X192669047Y-127745238D01*
X192621428Y-127769047D01*
X192597619Y-127792857D01*
X192573809Y-127840476D01*
X192573809Y-127935714D01*
X192597619Y-127983333D01*
X192621428Y-128007142D01*
X192669047Y-128030952D01*
X192764285Y-128030952D01*
X192811904Y-128007142D01*
X192835714Y-127983333D01*
X192859523Y-127935714D01*
%TO.C,R19*%
X157921428Y-103973809D02*
X158088095Y-104211904D01*
X158207142Y-103973809D02*
X158207142Y-104473809D01*
X158016666Y-104473809D01*
X157969047Y-104450000D01*
X157945238Y-104426190D01*
X157921428Y-104378571D01*
X157921428Y-104307142D01*
X157945238Y-104259523D01*
X157969047Y-104235714D01*
X158016666Y-104211904D01*
X158207142Y-104211904D01*
X157445238Y-103973809D02*
X157730952Y-103973809D01*
X157588095Y-103973809D02*
X157588095Y-104473809D01*
X157635714Y-104402380D01*
X157683333Y-104354761D01*
X157730952Y-104330952D01*
X157207142Y-103973809D02*
X157111904Y-103973809D01*
X157064285Y-103997619D01*
X157040476Y-104021428D01*
X156992857Y-104092857D01*
X156969047Y-104188095D01*
X156969047Y-104378571D01*
X156992857Y-104426190D01*
X157016666Y-104450000D01*
X157064285Y-104473809D01*
X157159523Y-104473809D01*
X157207142Y-104450000D01*
X157230952Y-104426190D01*
X157254761Y-104378571D01*
X157254761Y-104259523D01*
X157230952Y-104211904D01*
X157207142Y-104188095D01*
X157159523Y-104164285D01*
X157064285Y-104164285D01*
X157016666Y-104188095D01*
X156992857Y-104211904D01*
X156969047Y-104259523D01*
%TO.C,R29*%
X190821428Y-127973809D02*
X190988095Y-128211904D01*
X191107142Y-127973809D02*
X191107142Y-128473809D01*
X190916666Y-128473809D01*
X190869047Y-128450000D01*
X190845238Y-128426190D01*
X190821428Y-128378571D01*
X190821428Y-128307142D01*
X190845238Y-128259523D01*
X190869047Y-128235714D01*
X190916666Y-128211904D01*
X191107142Y-128211904D01*
X190630952Y-128426190D02*
X190607142Y-128450000D01*
X190559523Y-128473809D01*
X190440476Y-128473809D01*
X190392857Y-128450000D01*
X190369047Y-128426190D01*
X190345238Y-128378571D01*
X190345238Y-128330952D01*
X190369047Y-128259523D01*
X190654761Y-127973809D01*
X190345238Y-127973809D01*
X190107142Y-127973809D02*
X190011904Y-127973809D01*
X189964285Y-127997619D01*
X189940476Y-128021428D01*
X189892857Y-128092857D01*
X189869047Y-128188095D01*
X189869047Y-128378571D01*
X189892857Y-128426190D01*
X189916666Y-128450000D01*
X189964285Y-128473809D01*
X190059523Y-128473809D01*
X190107142Y-128450000D01*
X190130952Y-128426190D01*
X190154761Y-128378571D01*
X190154761Y-128259523D01*
X190130952Y-128211904D01*
X190107142Y-128188095D01*
X190059523Y-128164285D01*
X189964285Y-128164285D01*
X189916666Y-128188095D01*
X189892857Y-128211904D01*
X189869047Y-128259523D01*
%TO.C,R18*%
X157921428Y-102373809D02*
X158088095Y-102611904D01*
X158207142Y-102373809D02*
X158207142Y-102873809D01*
X158016666Y-102873809D01*
X157969047Y-102850000D01*
X157945238Y-102826190D01*
X157921428Y-102778571D01*
X157921428Y-102707142D01*
X157945238Y-102659523D01*
X157969047Y-102635714D01*
X158016666Y-102611904D01*
X158207142Y-102611904D01*
X157445238Y-102373809D02*
X157730952Y-102373809D01*
X157588095Y-102373809D02*
X157588095Y-102873809D01*
X157635714Y-102802380D01*
X157683333Y-102754761D01*
X157730952Y-102730952D01*
X157159523Y-102659523D02*
X157207142Y-102683333D01*
X157230952Y-102707142D01*
X157254761Y-102754761D01*
X157254761Y-102778571D01*
X157230952Y-102826190D01*
X157207142Y-102850000D01*
X157159523Y-102873809D01*
X157064285Y-102873809D01*
X157016666Y-102850000D01*
X156992857Y-102826190D01*
X156969047Y-102778571D01*
X156969047Y-102754761D01*
X156992857Y-102707142D01*
X157016666Y-102683333D01*
X157064285Y-102659523D01*
X157159523Y-102659523D01*
X157207142Y-102635714D01*
X157230952Y-102611904D01*
X157254761Y-102564285D01*
X157254761Y-102469047D01*
X157230952Y-102421428D01*
X157207142Y-102397619D01*
X157159523Y-102373809D01*
X157064285Y-102373809D01*
X157016666Y-102397619D01*
X156992857Y-102421428D01*
X156969047Y-102469047D01*
X156969047Y-102564285D01*
X156992857Y-102611904D01*
X157016666Y-102635714D01*
X157064285Y-102659523D01*
%TO.C,R16*%
X160278571Y-109726190D02*
X160111904Y-109488095D01*
X159992857Y-109726190D02*
X159992857Y-109226190D01*
X160183333Y-109226190D01*
X160230952Y-109250000D01*
X160254761Y-109273809D01*
X160278571Y-109321428D01*
X160278571Y-109392857D01*
X160254761Y-109440476D01*
X160230952Y-109464285D01*
X160183333Y-109488095D01*
X159992857Y-109488095D01*
X160754761Y-109726190D02*
X160469047Y-109726190D01*
X160611904Y-109726190D02*
X160611904Y-109226190D01*
X160564285Y-109297619D01*
X160516666Y-109345238D01*
X160469047Y-109369047D01*
X161183333Y-109226190D02*
X161088095Y-109226190D01*
X161040476Y-109250000D01*
X161016666Y-109273809D01*
X160969047Y-109345238D01*
X160945238Y-109440476D01*
X160945238Y-109630952D01*
X160969047Y-109678571D01*
X160992857Y-109702380D01*
X161040476Y-109726190D01*
X161135714Y-109726190D01*
X161183333Y-109702380D01*
X161207142Y-109678571D01*
X161230952Y-109630952D01*
X161230952Y-109511904D01*
X161207142Y-109464285D01*
X161183333Y-109440476D01*
X161135714Y-109416666D01*
X161040476Y-109416666D01*
X160992857Y-109440476D01*
X160969047Y-109464285D01*
X160945238Y-109511904D01*
%TO.C,R15*%
X160178571Y-106026190D02*
X160011904Y-105788095D01*
X159892857Y-106026190D02*
X159892857Y-105526190D01*
X160083333Y-105526190D01*
X160130952Y-105550000D01*
X160154761Y-105573809D01*
X160178571Y-105621428D01*
X160178571Y-105692857D01*
X160154761Y-105740476D01*
X160130952Y-105764285D01*
X160083333Y-105788095D01*
X159892857Y-105788095D01*
X160654761Y-106026190D02*
X160369047Y-106026190D01*
X160511904Y-106026190D02*
X160511904Y-105526190D01*
X160464285Y-105597619D01*
X160416666Y-105645238D01*
X160369047Y-105669047D01*
X161107142Y-105526190D02*
X160869047Y-105526190D01*
X160845238Y-105764285D01*
X160869047Y-105740476D01*
X160916666Y-105716666D01*
X161035714Y-105716666D01*
X161083333Y-105740476D01*
X161107142Y-105764285D01*
X161130952Y-105811904D01*
X161130952Y-105930952D01*
X161107142Y-105978571D01*
X161083333Y-106002380D01*
X161035714Y-106026190D01*
X160916666Y-106026190D01*
X160869047Y-106002380D01*
X160845238Y-105978571D01*
%TO.C,R14*%
X160821428Y-107173809D02*
X160988095Y-107411904D01*
X161107142Y-107173809D02*
X161107142Y-107673809D01*
X160916666Y-107673809D01*
X160869047Y-107650000D01*
X160845238Y-107626190D01*
X160821428Y-107578571D01*
X160821428Y-107507142D01*
X160845238Y-107459523D01*
X160869047Y-107435714D01*
X160916666Y-107411904D01*
X161107142Y-107411904D01*
X160345238Y-107173809D02*
X160630952Y-107173809D01*
X160488095Y-107173809D02*
X160488095Y-107673809D01*
X160535714Y-107602380D01*
X160583333Y-107554761D01*
X160630952Y-107530952D01*
X159916666Y-107507142D02*
X159916666Y-107173809D01*
X160035714Y-107697619D02*
X160154761Y-107340476D01*
X159845238Y-107340476D01*
%TO.C,R13*%
X163278571Y-109626190D02*
X163111904Y-109388095D01*
X162992857Y-109626190D02*
X162992857Y-109126190D01*
X163183333Y-109126190D01*
X163230952Y-109150000D01*
X163254761Y-109173809D01*
X163278571Y-109221428D01*
X163278571Y-109292857D01*
X163254761Y-109340476D01*
X163230952Y-109364285D01*
X163183333Y-109388095D01*
X162992857Y-109388095D01*
X163754761Y-109626190D02*
X163469047Y-109626190D01*
X163611904Y-109626190D02*
X163611904Y-109126190D01*
X163564285Y-109197619D01*
X163516666Y-109245238D01*
X163469047Y-109269047D01*
X163921428Y-109126190D02*
X164230952Y-109126190D01*
X164064285Y-109316666D01*
X164135714Y-109316666D01*
X164183333Y-109340476D01*
X164207142Y-109364285D01*
X164230952Y-109411904D01*
X164230952Y-109530952D01*
X164207142Y-109578571D01*
X164183333Y-109602380D01*
X164135714Y-109626190D01*
X163992857Y-109626190D01*
X163945238Y-109602380D01*
X163921428Y-109578571D01*
%TO.C,R2*%
X107273809Y-125916666D02*
X107511904Y-125750000D01*
X107273809Y-125630952D02*
X107773809Y-125630952D01*
X107773809Y-125821428D01*
X107750000Y-125869047D01*
X107726190Y-125892857D01*
X107678571Y-125916666D01*
X107607142Y-125916666D01*
X107559523Y-125892857D01*
X107535714Y-125869047D01*
X107511904Y-125821428D01*
X107511904Y-125630952D01*
X107726190Y-126107142D02*
X107750000Y-126130952D01*
X107773809Y-126178571D01*
X107773809Y-126297619D01*
X107750000Y-126345238D01*
X107726190Y-126369047D01*
X107678571Y-126392857D01*
X107630952Y-126392857D01*
X107559523Y-126369047D01*
X107273809Y-126083333D01*
X107273809Y-126392857D01*
%TO.C,R40*%
X161073809Y-79878571D02*
X161311904Y-79711904D01*
X161073809Y-79592857D02*
X161573809Y-79592857D01*
X161573809Y-79783333D01*
X161550000Y-79830952D01*
X161526190Y-79854761D01*
X161478571Y-79878571D01*
X161407142Y-79878571D01*
X161359523Y-79854761D01*
X161335714Y-79830952D01*
X161311904Y-79783333D01*
X161311904Y-79592857D01*
X161407142Y-80307142D02*
X161073809Y-80307142D01*
X161597619Y-80188095D02*
X161240476Y-80069047D01*
X161240476Y-80378571D01*
X161573809Y-80664285D02*
X161573809Y-80711904D01*
X161550000Y-80759523D01*
X161526190Y-80783333D01*
X161478571Y-80807142D01*
X161383333Y-80830952D01*
X161264285Y-80830952D01*
X161169047Y-80807142D01*
X161121428Y-80783333D01*
X161097619Y-80759523D01*
X161073809Y-80711904D01*
X161073809Y-80664285D01*
X161097619Y-80616666D01*
X161121428Y-80592857D01*
X161169047Y-80569047D01*
X161264285Y-80545238D01*
X161383333Y-80545238D01*
X161478571Y-80569047D01*
X161526190Y-80592857D01*
X161550000Y-80616666D01*
X161573809Y-80664285D01*
%TO.C,R3*%
X123226190Y-89883333D02*
X122988095Y-90050000D01*
X123226190Y-90169047D02*
X122726190Y-90169047D01*
X122726190Y-89978571D01*
X122750000Y-89930952D01*
X122773809Y-89907142D01*
X122821428Y-89883333D01*
X122892857Y-89883333D01*
X122940476Y-89907142D01*
X122964285Y-89930952D01*
X122988095Y-89978571D01*
X122988095Y-90169047D01*
X122726190Y-89716666D02*
X122726190Y-89407142D01*
X122916666Y-89573809D01*
X122916666Y-89502380D01*
X122940476Y-89454761D01*
X122964285Y-89430952D01*
X123011904Y-89407142D01*
X123130952Y-89407142D01*
X123178571Y-89430952D01*
X123202380Y-89454761D01*
X123226190Y-89502380D01*
X123226190Y-89645238D01*
X123202380Y-89692857D01*
X123178571Y-89716666D01*
%TO.C,R4*%
D13*
X136316666Y-103616666D02*
X135983333Y-103850000D01*
X136316666Y-104016666D02*
X135616666Y-104016666D01*
X135616666Y-103750000D01*
X135650000Y-103683333D01*
X135683333Y-103650000D01*
X135750000Y-103616666D01*
X135850000Y-103616666D01*
X135916666Y-103650000D01*
X135950000Y-103683333D01*
X135983333Y-103750000D01*
X135983333Y-104016666D01*
X135850000Y-103016666D02*
X136316666Y-103016666D01*
X135583333Y-103183333D02*
X136083333Y-103350000D01*
X136083333Y-102916666D01*
%TO.C,D6*%
D12*
X179773809Y-96630952D02*
X180273809Y-96630952D01*
X180273809Y-96750000D01*
X180250000Y-96821428D01*
X180202380Y-96869047D01*
X180154761Y-96892857D01*
X180059523Y-96916666D01*
X179988095Y-96916666D01*
X179892857Y-96892857D01*
X179845238Y-96869047D01*
X179797619Y-96821428D01*
X179773809Y-96750000D01*
X179773809Y-96630952D01*
X180273809Y-97345238D02*
X180273809Y-97250000D01*
X180250000Y-97202380D01*
X180226190Y-97178571D01*
X180154761Y-97130952D01*
X180059523Y-97107142D01*
X179869047Y-97107142D01*
X179821428Y-97130952D01*
X179797619Y-97154761D01*
X179773809Y-97202380D01*
X179773809Y-97297619D01*
X179797619Y-97345238D01*
X179821428Y-97369047D01*
X179869047Y-97392857D01*
X179988095Y-97392857D01*
X180035714Y-97369047D01*
X180059523Y-97345238D01*
X180083333Y-97297619D01*
X180083333Y-97202380D01*
X180059523Y-97154761D01*
X180035714Y-97130952D01*
X179988095Y-97107142D01*
%TO.C,U5*%
X191319047Y-113926190D02*
X191319047Y-114330952D01*
X191342857Y-114378571D01*
X191366666Y-114402380D01*
X191414285Y-114426190D01*
X191509523Y-114426190D01*
X191557142Y-114402380D01*
X191580952Y-114378571D01*
X191604761Y-114330952D01*
X191604761Y-113926190D01*
X192080952Y-113926190D02*
X191842857Y-113926190D01*
X191819047Y-114164285D01*
X191842857Y-114140476D01*
X191890476Y-114116666D01*
X192009523Y-114116666D01*
X192057142Y-114140476D01*
X192080952Y-114164285D01*
X192104761Y-114211904D01*
X192104761Y-114330952D01*
X192080952Y-114378571D01*
X192057142Y-114402380D01*
X192009523Y-114426190D01*
X191890476Y-114426190D01*
X191842857Y-114402380D01*
X191819047Y-114378571D01*
%TO.C,U2*%
D11*
X193497619Y-102588095D02*
X192688095Y-102588095D01*
X192592857Y-102635714D01*
X192545238Y-102683333D01*
X192497619Y-102778571D01*
X192497619Y-102969047D01*
X192545238Y-103064285D01*
X192592857Y-103111904D01*
X192688095Y-103159523D01*
X193497619Y-103159523D01*
X193402380Y-103588095D02*
X193450000Y-103635714D01*
X193497619Y-103730952D01*
X193497619Y-103969047D01*
X193450000Y-104064285D01*
X193402380Y-104111904D01*
X193307142Y-104159523D01*
X193211904Y-104159523D01*
X193069047Y-104111904D01*
X192497619Y-103540476D01*
X192497619Y-104159523D01*
%TO.C,U3*%
D14*
X182961904Y-112309523D02*
X183609523Y-112309523D01*
X183685714Y-112271428D01*
X183723809Y-112233333D01*
X183761904Y-112157142D01*
X183761904Y-112004761D01*
X183723809Y-111928571D01*
X183685714Y-111890476D01*
X183609523Y-111852380D01*
X182961904Y-111852380D01*
X182961904Y-111547619D02*
X182961904Y-111052380D01*
X183266666Y-111319047D01*
X183266666Y-111204761D01*
X183304761Y-111128571D01*
X183342857Y-111090476D01*
X183419047Y-111052380D01*
X183609523Y-111052380D01*
X183685714Y-111090476D01*
X183723809Y-111128571D01*
X183761904Y-111204761D01*
X183761904Y-111433333D01*
X183723809Y-111509523D01*
X183685714Y-111547619D01*
%TO.C,R17*%
D11*
X158357142Y-115452380D02*
X158023809Y-114976190D01*
X157785714Y-115452380D02*
X157785714Y-114452380D01*
X158166666Y-114452380D01*
X158261904Y-114500000D01*
X158309523Y-114547619D01*
X158357142Y-114642857D01*
X158357142Y-114785714D01*
X158309523Y-114880952D01*
X158261904Y-114928571D01*
X158166666Y-114976190D01*
X157785714Y-114976190D01*
X159309523Y-115452380D02*
X158738095Y-115452380D01*
X159023809Y-115452380D02*
X159023809Y-114452380D01*
X158928571Y-114595238D01*
X158833333Y-114690476D01*
X158738095Y-114738095D01*
X159642857Y-114452380D02*
X160309523Y-114452380D01*
X159880952Y-115452380D01*
%TO.C,SWD1*%
X208666666Y-120404761D02*
X208809523Y-120452380D01*
X209047619Y-120452380D01*
X209142857Y-120404761D01*
X209190476Y-120357142D01*
X209238095Y-120261904D01*
X209238095Y-120166666D01*
X209190476Y-120071428D01*
X209142857Y-120023809D01*
X209047619Y-119976190D01*
X208857142Y-119928571D01*
X208761904Y-119880952D01*
X208714285Y-119833333D01*
X208666666Y-119738095D01*
X208666666Y-119642857D01*
X208714285Y-119547619D01*
X208761904Y-119500000D01*
X208857142Y-119452380D01*
X209095238Y-119452380D01*
X209238095Y-119500000D01*
X209571428Y-119452380D02*
X209809523Y-120452380D01*
X210000000Y-119738095D01*
X210190476Y-120452380D01*
X210428571Y-119452380D01*
X210809523Y-120452380D02*
X210809523Y-119452380D01*
X211047619Y-119452380D01*
X211190476Y-119500000D01*
X211285714Y-119595238D01*
X211333333Y-119690476D01*
X211380952Y-119880952D01*
X211380952Y-120023809D01*
X211333333Y-120214285D01*
X211285714Y-120309523D01*
X211190476Y-120404761D01*
X211047619Y-120452380D01*
X210809523Y-120452380D01*
X212333333Y-120452380D02*
X211761904Y-120452380D01*
X212047619Y-120452380D02*
X212047619Y-119452380D01*
X211952380Y-119595238D01*
X211857142Y-119690476D01*
X211761904Y-119738095D01*
%TO.C,P1*%
X196761904Y-124452380D02*
X196761904Y-123452380D01*
X197142857Y-123452380D01*
X197238095Y-123500000D01*
X197285714Y-123547619D01*
X197333333Y-123642857D01*
X197333333Y-123785714D01*
X197285714Y-123880952D01*
X197238095Y-123928571D01*
X197142857Y-123976190D01*
X196761904Y-123976190D01*
X198285714Y-124452380D02*
X197714285Y-124452380D01*
X198000000Y-124452380D02*
X198000000Y-123452380D01*
X197904761Y-123595238D01*
X197809523Y-123690476D01*
X197714285Y-123738095D01*
%TO.C,L4*%
D12*
X188033333Y-96980952D02*
X187842857Y-96980952D01*
X187842857Y-96580952D01*
X188338095Y-96714285D02*
X188338095Y-96980952D01*
X188242857Y-96561904D02*
X188147619Y-96847619D01*
X188395238Y-96847619D01*
%TO.C,L2*%
X193233333Y-124273809D02*
X193471428Y-124273809D01*
X193471428Y-124773809D01*
X193090476Y-124726190D02*
X193066666Y-124750000D01*
X193019047Y-124773809D01*
X192900000Y-124773809D01*
X192852380Y-124750000D01*
X192828571Y-124726190D01*
X192804761Y-124678571D01*
X192804761Y-124630952D01*
X192828571Y-124559523D01*
X193114285Y-124273809D01*
X192804761Y-124273809D01*
%TD*%
M02*
