G04 #@! TF.FileFunction,Copper,L1,Top,Signal*
%FSLAX46Y46*%
G04 Gerber Fmt 4.6, Leading zero omitted, Abs format (unit mm)*
G04 Created by KiCad (PCBNEW 4.0.4-stable) date 03/22/17 10:00:08*
%MOMM*%
%LPD*%
G01*
G04 APERTURE LIST*
%ADD10C,0.100000*%
%ADD11R,1.000000X1.600000*%
%ADD12R,1.000000X1.250000*%
%ADD13R,0.800000X0.750000*%
%ADD14R,2.400000X1.500000*%
%ADD15R,1.050000X1.500000*%
%ADD16R,1.060000X0.650000*%
%ADD17R,1.300000X0.700000*%
%ADD18R,0.500000X0.900000*%
%ADD19R,1.501140X5.300980*%
%ADD20R,1.200000X0.900000*%
%ADD21R,1.250000X1.000000*%
%ADD22R,0.750000X0.800000*%
%ADD23R,0.900000X0.500000*%
%ADD24C,1.800000*%
%ADD25R,1.550000X0.600000*%
%ADD26R,4.000000X3.100000*%
%ADD27C,5.000000*%
%ADD28R,1.300000X0.250000*%
%ADD29R,0.250000X1.300000*%
%ADD30C,3.650000*%
%ADD31R,1.500000X1.500000*%
%ADD32C,1.500000*%
%ADD33R,2.000000X0.400000*%
%ADD34C,2.500000*%
%ADD35R,2.500000X2.500000*%
%ADD36R,1.300000X1.300000*%
%ADD37C,1.300000*%
%ADD38R,1.800000X1.800000*%
%ADD39R,0.700000X1.300000*%
%ADD40R,0.800000X0.900000*%
%ADD41R,0.900000X0.800000*%
%ADD42R,0.900000X1.200000*%
%ADD43R,1.700000X1.700000*%
%ADD44O,1.700000X1.700000*%
%ADD45R,0.900000X1.700000*%
%ADD46R,1.700000X0.900000*%
%ADD47R,1.500000X2.400000*%
%ADD48R,1.500000X1.050000*%
%ADD49R,0.600000X1.550000*%
%ADD50R,1.300000X1.900000*%
%ADD51C,2.800000*%
%ADD52R,2.400000X2.400000*%
%ADD53C,2.400000*%
%ADD54C,2.000000*%
%ADD55C,1.520000*%
%ADD56C,2.700000*%
%ADD57C,0.800000*%
%ADD58R,0.700000X1.150000*%
%ADD59R,4.700000X1.550000*%
%ADD60R,4.200000X3.100000*%
%ADD61R,1.150000X0.700000*%
%ADD62R,1.550000X4.700000*%
%ADD63R,3.100000X4.200000*%
%ADD64R,3.100000X4.000000*%
%ADD65C,1.000000*%
%ADD66C,0.700000*%
%ADD67C,0.250000*%
%ADD68C,0.400000*%
%ADD69C,0.500000*%
%ADD70C,0.300000*%
%ADD71C,0.254000*%
%ADD72C,0.200000*%
G04 APERTURE END LIST*
D10*
D11*
X169300000Y-114800000D03*
X172300000Y-114800000D03*
D12*
X169300000Y-117000000D03*
X171300000Y-117000000D03*
D13*
X169450000Y-112800000D03*
X170950000Y-112800000D03*
D14*
X170050000Y-110700000D03*
D15*
X172425000Y-110700000D03*
D16*
X165200000Y-110550000D03*
X165200000Y-111500000D03*
X165200000Y-112450000D03*
X167400000Y-112450000D03*
X167400000Y-110550000D03*
X167400000Y-111500000D03*
D17*
X167300000Y-116250000D03*
X167300000Y-114350000D03*
D13*
X164750000Y-108900000D03*
X166250000Y-108900000D03*
D18*
X165450000Y-114300000D03*
X163950000Y-114300000D03*
D19*
X167941000Y-106300000D03*
X172259000Y-106300000D03*
D20*
X165200000Y-107250000D03*
X165200000Y-103950000D03*
D21*
X176300000Y-107900000D03*
X176300000Y-109900000D03*
X174300000Y-107900000D03*
X174300000Y-109900000D03*
D13*
X168250000Y-98500000D03*
X166750000Y-98500000D03*
D22*
X173800000Y-101600000D03*
X173800000Y-100100000D03*
D16*
X172000000Y-101600000D03*
X172000000Y-100650000D03*
X172000000Y-99700000D03*
X169800000Y-99700000D03*
X169800000Y-101600000D03*
D22*
X168000000Y-101750000D03*
X168000000Y-100250000D03*
D23*
X160800000Y-124650000D03*
X160800000Y-126150000D03*
X160800000Y-123150000D03*
X160800000Y-121650000D03*
X162800000Y-123150000D03*
X162800000Y-121650000D03*
X162800000Y-126150000D03*
X162800000Y-124650000D03*
D24*
X178500000Y-128190000D03*
X175960000Y-128190000D03*
X181040000Y-128190000D03*
X175960000Y-135810000D03*
X178500000Y-135810000D03*
X181040000Y-135810000D03*
D25*
X165000000Y-121795000D03*
X165000000Y-123065000D03*
X165000000Y-124335000D03*
X165000000Y-125605000D03*
X170400000Y-125605000D03*
X170400000Y-124335000D03*
X170400000Y-123065000D03*
X170400000Y-121795000D03*
D23*
X174500000Y-124350000D03*
X174500000Y-125850000D03*
X172600000Y-125850000D03*
X172600000Y-124350000D03*
D13*
X169850000Y-119900000D03*
X168350000Y-119900000D03*
D23*
X174500000Y-121450000D03*
X174500000Y-122950000D03*
X172600000Y-122950000D03*
X172600000Y-121450000D03*
D26*
X133500000Y-112900000D03*
X133500000Y-117300000D03*
D27*
X119620338Y-97074931D03*
X132620338Y-97074931D03*
D13*
X156250000Y-90600000D03*
X154750000Y-90600000D03*
X151750000Y-90600000D03*
X153250000Y-90600000D03*
D18*
X153250000Y-92200000D03*
X151750000Y-92200000D03*
X154750000Y-92200000D03*
X156250000Y-92200000D03*
D28*
X166650000Y-81350000D03*
X166650000Y-81850000D03*
X166650000Y-82350000D03*
X166650000Y-82850000D03*
X166650000Y-83350000D03*
X166650000Y-83850000D03*
X166650000Y-84350000D03*
X166650000Y-84850000D03*
X166650000Y-85350000D03*
X166650000Y-85850000D03*
X166650000Y-86350000D03*
X166650000Y-86850000D03*
D29*
X168250000Y-88450000D03*
X168750000Y-88450000D03*
X169250000Y-88450000D03*
X169750000Y-88450000D03*
X170250000Y-88450000D03*
X170750000Y-88450000D03*
X171250000Y-88450000D03*
X171750000Y-88450000D03*
X172250000Y-88450000D03*
X172750000Y-88450000D03*
X173250000Y-88450000D03*
X173750000Y-88450000D03*
D28*
X175350000Y-86850000D03*
X175350000Y-86350000D03*
X175350000Y-85850000D03*
X175350000Y-85350000D03*
X175350000Y-84850000D03*
X175350000Y-84350000D03*
X175350000Y-83850000D03*
X175350000Y-83350000D03*
X175350000Y-82850000D03*
X175350000Y-82350000D03*
X175350000Y-81850000D03*
X175350000Y-81350000D03*
D29*
X173750000Y-79750000D03*
X173250000Y-79750000D03*
X172750000Y-79750000D03*
X172250000Y-79750000D03*
X171750000Y-79750000D03*
X171250000Y-79750000D03*
X170750000Y-79750000D03*
X170250000Y-79750000D03*
X169750000Y-79750000D03*
X169250000Y-79750000D03*
X168750000Y-79750000D03*
X168250000Y-79750000D03*
D30*
X129170000Y-67650000D03*
X117300000Y-67650000D03*
D31*
X118790000Y-74000000D03*
D32*
X120060000Y-76540000D03*
X121330000Y-74000000D03*
X122600000Y-76540000D03*
X123870000Y-74000000D03*
X125140000Y-76540000D03*
X126410000Y-74000000D03*
X127680000Y-76540000D03*
D33*
X162500000Y-82800000D03*
X162500000Y-85200000D03*
X162500000Y-84000000D03*
D16*
X103500000Y-81650000D03*
X103500000Y-82600000D03*
X103500000Y-83550000D03*
X105700000Y-83550000D03*
X105700000Y-81650000D03*
X105700000Y-82600000D03*
D22*
X177300000Y-80450000D03*
X177300000Y-81950000D03*
D34*
X114500000Y-130500000D03*
X105000000Y-130500000D03*
D35*
X165700000Y-133200000D03*
D34*
X160700000Y-133200000D03*
D22*
X175101100Y-89653600D03*
X175101100Y-91153600D03*
D12*
X114500000Y-109000000D03*
X116500000Y-109000000D03*
X110000000Y-130200000D03*
X112000000Y-130200000D03*
X127000000Y-106700000D03*
X125000000Y-106700000D03*
D36*
X149500000Y-112750000D03*
D37*
X149500000Y-117750000D03*
D36*
X156750000Y-104750000D03*
D37*
X156750000Y-109750000D03*
D13*
X121250000Y-86000000D03*
X119750000Y-86000000D03*
X168150000Y-92200000D03*
X169650000Y-92200000D03*
X116750000Y-80200000D03*
X115250000Y-80200000D03*
X172850000Y-92200000D03*
X171350000Y-92200000D03*
X166450000Y-92200000D03*
X164950000Y-92200000D03*
X161750000Y-92200000D03*
X163250000Y-92200000D03*
X157250000Y-79200000D03*
X155750000Y-79200000D03*
X157250000Y-85600000D03*
X155750000Y-85600000D03*
D22*
X156700000Y-71750000D03*
X156700000Y-70250000D03*
D13*
X165150000Y-79600000D03*
X166650000Y-79600000D03*
D22*
X179100000Y-80450000D03*
X179100000Y-81950000D03*
D13*
X151850000Y-87200000D03*
X150350000Y-87200000D03*
D22*
X161900000Y-73750000D03*
X161900000Y-72250000D03*
D18*
X148350000Y-85000000D03*
X149850000Y-85000000D03*
D38*
X169700000Y-129600000D03*
D24*
X172240000Y-129600000D03*
D38*
X169700000Y-135200000D03*
D24*
X172240000Y-135200000D03*
D23*
X116700000Y-106050000D03*
X116700000Y-107550000D03*
D17*
X116300000Y-93050000D03*
X116300000Y-91150000D03*
X114100000Y-93050000D03*
X114100000Y-91150000D03*
D18*
X157750000Y-114000000D03*
X156250000Y-114000000D03*
D39*
X121450000Y-88000000D03*
X119550000Y-88000000D03*
D18*
X169850000Y-94000000D03*
X168350000Y-94000000D03*
X153250000Y-118000000D03*
X154750000Y-118000000D03*
X153250000Y-114000000D03*
X154750000Y-114000000D03*
X153250000Y-116000000D03*
X154750000Y-116000000D03*
X171150000Y-94000000D03*
X172650000Y-94000000D03*
X164750000Y-95800000D03*
X166250000Y-95800000D03*
X163450000Y-95800000D03*
X161950000Y-95800000D03*
X166250000Y-94000000D03*
X164750000Y-94000000D03*
X161950000Y-94000000D03*
X163450000Y-94000000D03*
D23*
X162300000Y-79650000D03*
X162300000Y-81150000D03*
D18*
X153450000Y-94000000D03*
X151950000Y-94000000D03*
D23*
X163700000Y-75250000D03*
X163700000Y-76750000D03*
X161900000Y-75250000D03*
X161900000Y-76750000D03*
X163700000Y-72050000D03*
X163700000Y-73550000D03*
D18*
X174250000Y-131200000D03*
X175750000Y-131200000D03*
X174250000Y-133100000D03*
X175750000Y-133100000D03*
D23*
X158500000Y-71750000D03*
X158500000Y-70250000D03*
D40*
X158200000Y-116000000D03*
X156300000Y-116000000D03*
X157250000Y-118000000D03*
D41*
X161700000Y-68250000D03*
X161700000Y-70150000D03*
X163700000Y-69200000D03*
D11*
X114000000Y-111500000D03*
X117000000Y-111500000D03*
D42*
X114650000Y-115350000D03*
X111350000Y-115350000D03*
D22*
X101500000Y-81250000D03*
X101500000Y-82750000D03*
D12*
X106700000Y-79700000D03*
X104700000Y-79700000D03*
D13*
X144550000Y-68350000D03*
X143050000Y-68350000D03*
D22*
X137300000Y-81650000D03*
X137300000Y-83150000D03*
D21*
X107900000Y-81600000D03*
X107900000Y-83600000D03*
D13*
X129850000Y-78800000D03*
X128350000Y-78800000D03*
D16*
X145200000Y-78550000D03*
X145200000Y-77600000D03*
X145200000Y-76650000D03*
X143000000Y-76650000D03*
X143000000Y-78550000D03*
X143000000Y-77600000D03*
D41*
X127100000Y-82350000D03*
X127100000Y-80450000D03*
X125100000Y-81400000D03*
D40*
X159850000Y-90800000D03*
X157950000Y-90800000D03*
X158900000Y-92800000D03*
D43*
X177180000Y-71540000D03*
D44*
X177180000Y-69000000D03*
X174640000Y-71540000D03*
X174640000Y-69000000D03*
X172100000Y-71540000D03*
X172100000Y-69000000D03*
X169560000Y-71540000D03*
X169560000Y-69000000D03*
X167020000Y-71540000D03*
X167020000Y-69000000D03*
D30*
X113370000Y-67650000D03*
X101500000Y-67650000D03*
D31*
X102990000Y-74000000D03*
D32*
X104260000Y-76540000D03*
X105530000Y-74000000D03*
X106800000Y-76540000D03*
X108070000Y-74000000D03*
X109340000Y-76540000D03*
X110610000Y-74000000D03*
X111880000Y-76540000D03*
D43*
X133100000Y-76340000D03*
D44*
X133100000Y-73800000D03*
D18*
X111500000Y-117500000D03*
X113000000Y-117500000D03*
D45*
X127950000Y-104300000D03*
X125050000Y-104300000D03*
X127950000Y-102000000D03*
X125050000Y-102000000D03*
D23*
X163600000Y-112950000D03*
X163600000Y-111450000D03*
D18*
X147000000Y-78850000D03*
X148500000Y-78850000D03*
X148700000Y-76700000D03*
X150200000Y-76700000D03*
X171350000Y-76000000D03*
X172850000Y-76000000D03*
X171350000Y-74400000D03*
X172850000Y-74400000D03*
D46*
X136300000Y-75550000D03*
X136300000Y-78450000D03*
D34*
X152500000Y-130500000D03*
X143000000Y-130500000D03*
X133500000Y-130500000D03*
X124000000Y-130500000D03*
D25*
X135200000Y-84305000D03*
X135200000Y-83035000D03*
X135200000Y-81765000D03*
X135200000Y-80495000D03*
X129800000Y-80495000D03*
X129800000Y-81765000D03*
X129800000Y-83035000D03*
X129800000Y-84305000D03*
D47*
X110600000Y-82550000D03*
D48*
X110600000Y-80175000D03*
D49*
X117905000Y-82300000D03*
X116635000Y-82300000D03*
X115365000Y-82300000D03*
X114095000Y-82300000D03*
X114095000Y-87700000D03*
X115365000Y-87700000D03*
X116635000Y-87700000D03*
X117905000Y-87700000D03*
D50*
X159251100Y-80803600D03*
X153751100Y-80803600D03*
X153751100Y-84003600D03*
X159251100Y-84003600D03*
D51*
X139735000Y-116800000D03*
X139735000Y-120200000D03*
X126265000Y-116800000D03*
X126265000Y-120200000D03*
D35*
X125300000Y-70500000D03*
D34*
X120300000Y-70500000D03*
D43*
X181500000Y-100640000D03*
D44*
X181500000Y-98100000D03*
D43*
X181500000Y-81500000D03*
D44*
X181500000Y-84040000D03*
X181500000Y-86580000D03*
X181500000Y-89120000D03*
X181500000Y-91660000D03*
X181500000Y-94200000D03*
D52*
X107400000Y-107000000D03*
D53*
X107400000Y-114500000D03*
D54*
X158500000Y-67800000D03*
X154000000Y-67800000D03*
X158500000Y-74300000D03*
X154000000Y-74300000D03*
D52*
X107300000Y-90400000D03*
D53*
X107300000Y-97900000D03*
D55*
X142700000Y-74200000D03*
X145240000Y-74200000D03*
X145240000Y-72200000D03*
X142700000Y-72200000D03*
D56*
X137970000Y-69500000D03*
X149970000Y-69500000D03*
D18*
X165450000Y-117600000D03*
X163950000Y-117600000D03*
X165450000Y-116000000D03*
X163950000Y-116000000D03*
D23*
X149450000Y-72300000D03*
X149450000Y-73800000D03*
D57*
X147080000Y-70600000D03*
X148080000Y-71250000D03*
X147080000Y-71900000D03*
X148080000Y-72550000D03*
X147080000Y-73200000D03*
D32*
X147300000Y-68325000D03*
X147300000Y-75475000D03*
D58*
X119865000Y-107875000D03*
X118595000Y-107875000D03*
X121135000Y-107875000D03*
D59*
X120500000Y-102400000D03*
D60*
X120500000Y-104700000D03*
D58*
X122405000Y-107875000D03*
D61*
X116325000Y-103235000D03*
X116325000Y-104505000D03*
X116325000Y-101965000D03*
D62*
X110850000Y-102600000D03*
D63*
X113150000Y-102600000D03*
D61*
X116325000Y-100695000D03*
D58*
X117635000Y-117625000D03*
X118905000Y-117625000D03*
X116365000Y-117625000D03*
D59*
X117000000Y-123100000D03*
D60*
X117000000Y-120800000D03*
D58*
X115095000Y-117625000D03*
D61*
X147875000Y-124740000D03*
X147875000Y-123470000D03*
X147875000Y-126010000D03*
D62*
X153350000Y-125375000D03*
D63*
X151050000Y-125375000D03*
D61*
X147875000Y-127280000D03*
D64*
X137100000Y-125000000D03*
X141500000Y-125000000D03*
D22*
X176400000Y-121550000D03*
X176400000Y-123050000D03*
D57*
X149900000Y-86200000D03*
X159300000Y-85800000D03*
X109000000Y-84500000D03*
D65*
X122500000Y-113500000D03*
X124500000Y-113500000D03*
X126500000Y-113500000D03*
X128500000Y-113500000D03*
X130500000Y-113500000D03*
X130500000Y-107500000D03*
X132500000Y-107500000D03*
X134500000Y-107500000D03*
X134500000Y-109500000D03*
X116500000Y-113500000D03*
X116500000Y-115500000D03*
X118500000Y-115500000D03*
X120500000Y-115500000D03*
D57*
X174800000Y-100000000D03*
X167000000Y-100100000D03*
X176000000Y-116000000D03*
X176000000Y-114000000D03*
X176000000Y-112000000D03*
X174000000Y-112000000D03*
X174000000Y-114000000D03*
X174000000Y-116000000D03*
X166200000Y-111500000D03*
X167100000Y-119825010D03*
X177300000Y-123900000D03*
X163700000Y-126800000D03*
D65*
X120500000Y-113500000D03*
X118500000Y-113500000D03*
X118500000Y-111500000D03*
X120500000Y-111500000D03*
X122500000Y-111500000D03*
X124500000Y-111500000D03*
X126500000Y-111500000D03*
X128500000Y-111500000D03*
X130500000Y-111500000D03*
X132500000Y-109500000D03*
X130500000Y-109500000D03*
X128500000Y-109500000D03*
X126500000Y-109500000D03*
X124500000Y-109500000D03*
X122500000Y-109500000D03*
X120500000Y-109500000D03*
X118500000Y-109500000D03*
D57*
X160500000Y-71200000D03*
X155500000Y-93200000D03*
X166300000Y-78400000D03*
X167900012Y-85457173D03*
X159100000Y-79000000D03*
X171100000Y-91199996D03*
X175900000Y-92000000D03*
X160900000Y-84000000D03*
X178834351Y-83156234D03*
X164100000Y-93000000D03*
X146400000Y-77600000D03*
X141800000Y-69450000D03*
X125900000Y-79000000D03*
X142100000Y-81800000D03*
X112500000Y-82400000D03*
X101050000Y-84000000D03*
X163200000Y-101000000D03*
X176600000Y-94700000D03*
X174480035Y-96800034D03*
X148500000Y-86800000D03*
X154130864Y-93024979D03*
X131700000Y-81000000D03*
X132700000Y-83600000D03*
X165100000Y-78400000D03*
X165300000Y-76499977D03*
X173100000Y-73600000D03*
X179500000Y-84200000D03*
X177100000Y-88200000D03*
X138900000Y-86199996D03*
X138500000Y-81600000D03*
D65*
X100500000Y-123000000D03*
X102500000Y-123000000D03*
X104500000Y-123000000D03*
X106500000Y-123000000D03*
X108500000Y-123000000D03*
X108500000Y-121000000D03*
X106500000Y-121000000D03*
X104500000Y-121000000D03*
X102500000Y-121000000D03*
X100500000Y-121000000D03*
D66*
X162764616Y-116550078D03*
D65*
X126500000Y-103000000D03*
X126500000Y-101000000D03*
X126500000Y-99000000D03*
X126500000Y-97000000D03*
X126500000Y-95000000D03*
X126500000Y-93000000D03*
X126500000Y-91000000D03*
X118500000Y-93000000D03*
X120500000Y-93000000D03*
X122500000Y-93000000D03*
X124500000Y-99000000D03*
X124500000Y-97000000D03*
X124500000Y-95000000D03*
X124500000Y-93000000D03*
X124500000Y-91000000D03*
X122500000Y-91000000D03*
X120500000Y-91000000D03*
X118500000Y-91000000D03*
X123700000Y-105000000D03*
X123700000Y-103600000D03*
X123700000Y-102200000D03*
X123700000Y-100800000D03*
X122300000Y-100800000D03*
X120900000Y-100800000D03*
X119500000Y-100800000D03*
X118100000Y-100800000D03*
D66*
X153100000Y-78400000D03*
X166099996Y-74400000D03*
X163900000Y-74400000D03*
D65*
X155500000Y-123000000D03*
X155500000Y-125000000D03*
X155500000Y-127000000D03*
X155500000Y-129000000D03*
X157000000Y-123000000D03*
X157000000Y-125000000D03*
X157000000Y-127000000D03*
X157000000Y-129000000D03*
X157000000Y-131000012D03*
D66*
X169700000Y-76900000D03*
X170235010Y-73200000D03*
X171300000Y-81200000D03*
X176947723Y-76900052D03*
X175500000Y-74600000D03*
X174576524Y-74734325D03*
X175369810Y-75782223D03*
X168100000Y-81200000D03*
X168900000Y-76200000D03*
X117100000Y-76600000D03*
X171600000Y-120600000D03*
X167800000Y-121500000D03*
X158100000Y-106900000D03*
X161700056Y-107300000D03*
X175100000Y-94500000D03*
X173459543Y-96604525D03*
X167500000Y-89924947D03*
X167300000Y-93200000D03*
X168903300Y-83796583D03*
X158857767Y-76702746D03*
X160177305Y-76722695D03*
X169100000Y-82800000D03*
X182353033Y-104007643D03*
X181850044Y-106814080D03*
X181924968Y-107781508D03*
X183200077Y-104735808D03*
X146900000Y-88200000D03*
X167500000Y-87800000D03*
X170500000Y-87200000D03*
X115700000Y-83800000D03*
X148149989Y-88255221D03*
X169198110Y-86823100D03*
X166500000Y-87800000D03*
X117100000Y-83800000D03*
X180500000Y-78400000D03*
X182300000Y-79200000D03*
X180900000Y-71200000D03*
X179100000Y-73039998D03*
D65*
X112999996Y-127000000D03*
X115000000Y-127000000D03*
X116999994Y-127000000D03*
X119000000Y-127000000D03*
X119000000Y-125000000D03*
X117000000Y-125000000D03*
X114999994Y-125000000D03*
X113000000Y-125000000D03*
X113000000Y-123000000D03*
X113000000Y-121000000D03*
D66*
X181700000Y-130900000D03*
D65*
X125500000Y-127000000D03*
X125500000Y-125000000D03*
X125500000Y-123000000D03*
X127500000Y-123000000D03*
X127500000Y-125000000D03*
X127500000Y-127000000D03*
X127500000Y-129000000D03*
X132000000Y-127000000D03*
X132000000Y-125000000D03*
X132000000Y-123000000D03*
X132000000Y-121000000D03*
X134000000Y-121000000D03*
X134000000Y-123000000D03*
X134000000Y-125000000D03*
X134000000Y-127000000D03*
X144100000Y-119200000D03*
X144100000Y-117600000D03*
X144100000Y-116200000D03*
X142500000Y-116200000D03*
X142500000Y-117600000D03*
X142500000Y-119199988D03*
X142500000Y-120800010D03*
D66*
X161100045Y-104487505D03*
D65*
X144000000Y-133500000D03*
X147000000Y-133500000D03*
X145500000Y-133500000D03*
X147000000Y-132000000D03*
X145500000Y-132000000D03*
X147000000Y-130500000D03*
X145500000Y-130500000D03*
X147000000Y-129000000D03*
X145500000Y-129000000D03*
X152500000Y-102000000D03*
X150500000Y-102000000D03*
X148500000Y-102000000D03*
X146500000Y-102000000D03*
X144500000Y-102000000D03*
X142500000Y-102000000D03*
X140500000Y-102000000D03*
X140500000Y-104000000D03*
X142500000Y-104000000D03*
X144500000Y-104000000D03*
X146500000Y-104000000D03*
X148500000Y-104000000D03*
X150500000Y-104000000D03*
X152500000Y-104000000D03*
X154500000Y-104000000D03*
D66*
X160650034Y-105515141D03*
X157049974Y-92006498D03*
X157500000Y-94000000D03*
X163900000Y-90374974D03*
X164924510Y-87874795D03*
X116700000Y-106050000D03*
X159592340Y-113512663D03*
X160449990Y-112201537D03*
X164024499Y-87875494D03*
X162908971Y-89349989D03*
D67*
X150350000Y-87200000D02*
X150350000Y-86650000D01*
X150350000Y-86650000D02*
X149900000Y-86200000D01*
X156575000Y-86400000D02*
X158700000Y-86400000D01*
X158700000Y-86400000D02*
X159300000Y-85800000D01*
X155750000Y-85600000D02*
X155775000Y-85600000D01*
X155775000Y-85600000D02*
X156575000Y-86400000D01*
D68*
X107900000Y-83600000D02*
X108100000Y-83600000D01*
X108100000Y-83600000D02*
X109000000Y-84500000D01*
D69*
X126500000Y-113500000D02*
X124500000Y-113500000D01*
X130500000Y-113500000D02*
X128500000Y-113500000D01*
X130500000Y-107500000D02*
X128500000Y-107500000D01*
X134500000Y-107500000D02*
X132500000Y-107500000D01*
X132500000Y-109500000D02*
X134500000Y-109500000D01*
X118500000Y-115500000D02*
X116500000Y-115500000D01*
X120500000Y-113500000D02*
X120500000Y-115500000D01*
D68*
X166750000Y-98500000D02*
X166750000Y-99850000D01*
X166750000Y-99850000D02*
X167000000Y-100100000D01*
D67*
X166675000Y-79600000D02*
X166650000Y-79600000D01*
X168566763Y-78774999D02*
X167500001Y-78774999D01*
X168750000Y-78958236D02*
X168566763Y-78774999D01*
X167500001Y-78774999D02*
X166675000Y-79600000D01*
X168750000Y-79750000D02*
X168750000Y-78958236D01*
D68*
X173800000Y-100100000D02*
X174700000Y-100100000D01*
X174700000Y-100100000D02*
X174800000Y-100000000D01*
X168000000Y-100250000D02*
X167150000Y-100250000D01*
X167150000Y-100250000D02*
X167000000Y-100100000D01*
D67*
X163600000Y-111450000D02*
X165150000Y-111450000D01*
X165150000Y-111450000D02*
X165200000Y-111500000D01*
D68*
X176000000Y-112000000D02*
X176000000Y-114000000D01*
X174000000Y-114000000D02*
X174000000Y-112000000D01*
X171300000Y-117000000D02*
X173000000Y-117000000D01*
X173000000Y-117000000D02*
X174000000Y-116000000D01*
X165000000Y-125605000D02*
X166175000Y-125605000D01*
X166175000Y-125605000D02*
X168800000Y-122980000D01*
X168800000Y-122980000D02*
X168800000Y-120400000D01*
X168800000Y-120400000D02*
X168350000Y-119950000D01*
X168350000Y-119950000D02*
X168350000Y-119900000D01*
X165200000Y-111500000D02*
X166200000Y-111500000D01*
X173250000Y-100650000D02*
X173800000Y-100100000D01*
X172000000Y-100650000D02*
X173250000Y-100650000D01*
X167174990Y-119900000D02*
X167100000Y-119825010D01*
X168350000Y-119900000D02*
X167174990Y-119900000D01*
X176400000Y-123050000D02*
X176450000Y-123050000D01*
X176450000Y-123050000D02*
X177300000Y-123900000D01*
D67*
X162800000Y-126150000D02*
X163050000Y-126150000D01*
X163050000Y-126150000D02*
X163700000Y-126800000D01*
X133500000Y-113000000D02*
X133500000Y-114600000D01*
X133500000Y-114600000D02*
X133300000Y-114800000D01*
X133300000Y-114800000D02*
X130500000Y-114800000D01*
X130500000Y-114800000D02*
X129547990Y-115752010D01*
X174500000Y-127500000D02*
X175275001Y-126724999D01*
X129547990Y-115752010D02*
X129547990Y-134648762D01*
X129547990Y-134648762D02*
X131299228Y-136400000D01*
X175275001Y-123525001D02*
X174700000Y-122950000D01*
X131299228Y-136400000D02*
X162800000Y-136400000D01*
X162800000Y-136400000D02*
X163900000Y-135300000D01*
X163900000Y-135300000D02*
X163900000Y-130200000D01*
X163900000Y-130200000D02*
X166600000Y-127500000D01*
X166600000Y-127500000D02*
X174500000Y-127500000D01*
X174700000Y-122950000D02*
X174500000Y-122950000D01*
X175275001Y-126724999D02*
X175275001Y-123525001D01*
D69*
X124500000Y-109500000D02*
X124500000Y-107200000D01*
X124500000Y-107200000D02*
X125000000Y-106700000D01*
D67*
X111500000Y-117500000D02*
X111500000Y-117700000D01*
X111500000Y-117700000D02*
X112325001Y-118525001D01*
X112325001Y-118525001D02*
X115689999Y-118525001D01*
X115689999Y-118525001D02*
X116365000Y-117850000D01*
X116365000Y-117850000D02*
X116365000Y-117625000D01*
D69*
X118500000Y-111500000D02*
X118500000Y-113500000D01*
X122500000Y-111500000D02*
X120500000Y-111500000D01*
X126500000Y-111500000D02*
X124500000Y-111500000D01*
X130500000Y-111500000D02*
X128500000Y-111500000D01*
X128500000Y-109500000D02*
X130500000Y-109500000D01*
X124500000Y-109500000D02*
X126500000Y-109500000D01*
X120500000Y-109500000D02*
X122500000Y-109500000D01*
X117000000Y-111500000D02*
X117000000Y-111000000D01*
X117000000Y-111000000D02*
X118500000Y-109500000D01*
D68*
X164750000Y-94000000D02*
X164750000Y-93650000D01*
X164750000Y-93650000D02*
X164100000Y-93000000D01*
X163450000Y-94000000D02*
X163450000Y-93650000D01*
X163450000Y-93650000D02*
X164100000Y-93000000D01*
X160500000Y-71200000D02*
X160850000Y-71200000D01*
X160850000Y-71200000D02*
X161900000Y-72250000D01*
X161700000Y-70150000D02*
X161550000Y-70150000D01*
X161550000Y-70150000D02*
X160500000Y-71200000D01*
X158500000Y-67800000D02*
X158500000Y-68450000D01*
X158500000Y-68450000D02*
X156700000Y-70250000D01*
D67*
X157152177Y-92675001D02*
X156727200Y-93099978D01*
X157424001Y-92675001D02*
X157152177Y-92675001D01*
X157724988Y-92374014D02*
X157424001Y-92675001D01*
X157950000Y-90800000D02*
X157950000Y-91500000D01*
X157724988Y-91725012D02*
X157724988Y-92374014D01*
X157950000Y-91500000D02*
X157724988Y-91725012D01*
X156727200Y-93099978D02*
X155600022Y-93099978D01*
X155600022Y-93099978D02*
X155500000Y-93200000D01*
X153250000Y-90600000D02*
X154750000Y-90600000D01*
X154750000Y-90600000D02*
X154775000Y-90600000D01*
X154775000Y-90600000D02*
X155500000Y-91325000D01*
X155500000Y-91325000D02*
X155500000Y-91350000D01*
X155500000Y-91350000D02*
X155500000Y-93200000D01*
D68*
X128350000Y-78800000D02*
X126100000Y-78800000D01*
X126100000Y-78800000D02*
X125900000Y-79000000D01*
X166650000Y-78750000D02*
X166300000Y-78400000D01*
X166650000Y-79600000D02*
X166650000Y-78750000D01*
D67*
X166650000Y-84850000D02*
X167550000Y-84850000D01*
X167900012Y-85200012D02*
X167900012Y-85457173D01*
X167550000Y-84850000D02*
X167900012Y-85200012D01*
X155750000Y-79200000D02*
X155775000Y-79200000D01*
X155775000Y-79200000D02*
X156475001Y-78499999D01*
X156475001Y-78499999D02*
X158599999Y-78499999D01*
X158599999Y-78499999D02*
X159100000Y-79000000D01*
D68*
X170675004Y-91199996D02*
X171100000Y-91199996D01*
X169675000Y-92200000D02*
X170675004Y-91199996D01*
X169650000Y-92200000D02*
X169675000Y-92200000D01*
X171124996Y-91199996D02*
X171100000Y-91199996D01*
X171350000Y-91425000D02*
X171124996Y-91199996D01*
X171350000Y-92200000D02*
X171350000Y-91425000D01*
D67*
X155750000Y-79200000D02*
X152900000Y-79200000D01*
X152900000Y-79200000D02*
X151900000Y-80200000D01*
X151900000Y-80200000D02*
X151900000Y-84600000D01*
X151900000Y-84600000D02*
X152900000Y-85600000D01*
X152900000Y-85600000D02*
X155750000Y-85600000D01*
X175101100Y-91153600D02*
X175101100Y-91201100D01*
X175101100Y-91201100D02*
X175900000Y-92000000D01*
X175101100Y-91153600D02*
X175101100Y-91128600D01*
X175101100Y-91128600D02*
X173261700Y-89289200D01*
X173261700Y-89289200D02*
X173261700Y-89270695D01*
X162500000Y-84000000D02*
X160900000Y-84000000D01*
X179100000Y-82890585D02*
X178834351Y-83156234D01*
X179100000Y-81950000D02*
X179100000Y-82890585D01*
D68*
X163250000Y-92200000D02*
X163300000Y-92200000D01*
X163300000Y-92200000D02*
X164100000Y-93000000D01*
X164950000Y-92200000D02*
X164900000Y-92200000D01*
X164900000Y-92200000D02*
X164100000Y-93000000D01*
X146130000Y-77600000D02*
X146400000Y-77600000D01*
X145200000Y-77600000D02*
X146130000Y-77600000D01*
X147080000Y-73200000D02*
X147680000Y-73800000D01*
X147680000Y-73800000D02*
X149450000Y-73800000D01*
X142725000Y-69450000D02*
X141800000Y-69450000D01*
X143050000Y-68350000D02*
X143050000Y-69125000D01*
X143050000Y-69125000D02*
X142725000Y-69450000D01*
X125100000Y-81400000D02*
X125100000Y-79800000D01*
X125100000Y-79800000D02*
X125900000Y-79000000D01*
X135200000Y-83035000D02*
X137185000Y-83035000D01*
X137185000Y-83035000D02*
X137300000Y-83150000D01*
X140750000Y-83150000D02*
X142100000Y-81800000D01*
X137300000Y-83150000D02*
X140750000Y-83150000D01*
X112500000Y-81000000D02*
X112500000Y-82400000D01*
X113700000Y-79800000D02*
X112500000Y-81000000D01*
X114700000Y-79800000D02*
X113700000Y-79800000D01*
X115100000Y-80200000D02*
X114700000Y-79800000D01*
X115250000Y-80200000D02*
X115100000Y-80200000D01*
X115250000Y-80200000D02*
X114095000Y-81355000D01*
X114095000Y-81355000D02*
X114095000Y-82300000D01*
D67*
X179100000Y-81950000D02*
X177300000Y-81950000D01*
X177300000Y-81950000D02*
X177200000Y-81850000D01*
X177200000Y-81850000D02*
X175350000Y-81850000D01*
D68*
X101500000Y-82750000D02*
X101500000Y-83550000D01*
X101500000Y-83550000D02*
X101050000Y-84000000D01*
D70*
X105700000Y-83550000D02*
X107850000Y-83550000D01*
D68*
X103500000Y-82600000D02*
X101650000Y-82600000D01*
X101650000Y-82600000D02*
X101500000Y-82750000D01*
D71*
X173261700Y-88320000D02*
X173261700Y-89270695D01*
D68*
X147700000Y-86000000D02*
X148100001Y-86400001D01*
X146900000Y-85200000D02*
X147700000Y-86000000D01*
D67*
X147700000Y-86000000D02*
X147700000Y-85850000D01*
X147700000Y-85850000D02*
X148350000Y-85200000D01*
X148350000Y-85200000D02*
X148350000Y-85000000D01*
D68*
X163765685Y-101000000D02*
X163200000Y-101000000D01*
X163925000Y-101000000D02*
X163765685Y-101000000D01*
X165200000Y-99725000D02*
X163925000Y-101000000D01*
X176999999Y-94300001D02*
X176600000Y-94700000D01*
X176999999Y-91007199D02*
X176999999Y-94300001D01*
X175646400Y-89653600D02*
X176999999Y-91007199D01*
X173045016Y-97300000D02*
X173099542Y-97354526D01*
X165200000Y-99725000D02*
X165200000Y-98554998D01*
X173099542Y-97354526D02*
X173925543Y-97354526D01*
X167225000Y-101750000D02*
X165200000Y-99725000D01*
X165200000Y-98554998D02*
X166454998Y-97300000D01*
X174080036Y-97200033D02*
X174480035Y-96800034D01*
X168000000Y-101750000D02*
X167225000Y-101750000D01*
X173925543Y-97354526D02*
X174080036Y-97200033D01*
X166454998Y-97300000D02*
X173045016Y-97300000D01*
X169800000Y-101600000D02*
X168150000Y-101600000D01*
X168150000Y-101600000D02*
X168000000Y-101750000D01*
X132700000Y-83600000D02*
X134299998Y-85199998D01*
X134299998Y-85199998D02*
X138315998Y-85199998D01*
X138315998Y-85199998D02*
X138515998Y-84999998D01*
X138515998Y-84999998D02*
X139284002Y-84999998D01*
X139284002Y-84999998D02*
X139484004Y-85200000D01*
X139484004Y-85200000D02*
X146900000Y-85200000D01*
X148100001Y-86400001D02*
X148500000Y-86800000D01*
X153250000Y-92200000D02*
X153250000Y-92350000D01*
X153250000Y-92350000D02*
X153900000Y-93000000D01*
X153900000Y-93000000D02*
X154105885Y-93000000D01*
X154105885Y-93000000D02*
X154130864Y-93024979D01*
X153250000Y-92200000D02*
X153250000Y-92450000D01*
X153250000Y-92450000D02*
X151950000Y-93750000D01*
X151950000Y-93750000D02*
X151950000Y-94000000D01*
X154750000Y-92200000D02*
X154750000Y-92405843D01*
X154530863Y-92624980D02*
X154130864Y-93024979D01*
X154750000Y-92405843D02*
X154530863Y-92624980D01*
X131700000Y-79600000D02*
X130900000Y-78800000D01*
X130900000Y-78800000D02*
X129850000Y-78800000D01*
X131700000Y-81000000D02*
X131700000Y-79600000D01*
X163700000Y-76750000D02*
X164150000Y-76750000D01*
X164150000Y-76750000D02*
X164500000Y-76400000D01*
X164500000Y-76400000D02*
X165200023Y-76400000D01*
X165200023Y-76400000D02*
X165300000Y-76499977D01*
X165150000Y-79600000D02*
X165150000Y-78450000D01*
X178430001Y-68399999D02*
X177030002Y-67000000D01*
X165150000Y-78450000D02*
X165100000Y-78400000D01*
X178430001Y-71539999D02*
X178430001Y-68399999D01*
X177180000Y-71540000D02*
X178430001Y-71539999D01*
X167169998Y-67000000D02*
X165300000Y-68869998D01*
X177030002Y-67000000D02*
X167169998Y-67000000D01*
X165300000Y-68869998D02*
X165300000Y-76499977D01*
D67*
X166650000Y-80975000D02*
X166650000Y-81350000D01*
X167875000Y-79750000D02*
X166650000Y-80975000D01*
X168250000Y-79750000D02*
X167875000Y-79750000D01*
D68*
X163700000Y-76750000D02*
X161900000Y-76750000D01*
D67*
X165150000Y-79600000D02*
X165100000Y-79600000D01*
X165150000Y-80650000D02*
X165425000Y-80650000D01*
X165425000Y-80650000D02*
X166125000Y-81350000D01*
X166125000Y-81350000D02*
X166650000Y-81350000D01*
X165150000Y-79600000D02*
X165150000Y-80650000D01*
D68*
X181500000Y-73800000D02*
X179240000Y-71540000D01*
X179240000Y-71540000D02*
X177180000Y-71540000D01*
X181500000Y-81500000D02*
X181500000Y-73800000D01*
D67*
X172850000Y-74800000D02*
X172850000Y-73850000D01*
X172850000Y-73850000D02*
X173100000Y-73600000D01*
X172850000Y-74800000D02*
X172850000Y-76400000D01*
D68*
X179500000Y-84200000D02*
X179500000Y-83600000D01*
X181500000Y-81600000D02*
X181500000Y-81500000D01*
X179500000Y-83600000D02*
X181500000Y-81600000D01*
X175101100Y-89653600D02*
X175646400Y-89653600D01*
X175646400Y-89653600D02*
X177100000Y-88200000D01*
X129800000Y-80495000D02*
X129800000Y-78850000D01*
X129800000Y-78850000D02*
X129750000Y-78800000D01*
D67*
X181500000Y-81500000D02*
X180125000Y-81500000D01*
X180125000Y-81500000D02*
X179100000Y-80475000D01*
X179100000Y-80475000D02*
X179100000Y-80450000D01*
X179100000Y-80450000D02*
X177300000Y-80450000D01*
X177300000Y-80450000D02*
X175875000Y-80450000D01*
X175875000Y-80450000D02*
X175350000Y-80975000D01*
X175350000Y-80975000D02*
X175350000Y-81350000D01*
D71*
X175101100Y-89553600D02*
X174251100Y-89553600D01*
X174251100Y-89553600D02*
X173744300Y-89046800D01*
X173744300Y-89046800D02*
X173744300Y-88320000D01*
X166501100Y-81360400D02*
X166784700Y-81360400D01*
D68*
X119100000Y-84600000D02*
X121650000Y-84600000D01*
X121650000Y-84600000D02*
X124050000Y-87000000D01*
X124050000Y-87000000D02*
X143300000Y-87000000D01*
X153925022Y-96225022D02*
X158850002Y-101150002D01*
X143300000Y-87000000D02*
X150249977Y-93949976D01*
X150249977Y-95175999D02*
X151299000Y-96225022D01*
X158850002Y-111892475D02*
X157742477Y-113000000D01*
X150249977Y-93949976D02*
X150249977Y-95175999D01*
X151299000Y-96225022D02*
X153925022Y-96225022D01*
X158850002Y-101150002D02*
X158850002Y-111892475D01*
X157742477Y-113000000D02*
X157050000Y-113000000D01*
X157050000Y-113000000D02*
X156250000Y-113800000D01*
X156250000Y-113800000D02*
X156250000Y-114000000D01*
X116750000Y-80200000D02*
X118300000Y-80200000D01*
X118300000Y-80200000D02*
X119100000Y-81000000D01*
X119100000Y-81000000D02*
X119100000Y-84600000D01*
X119100000Y-84600000D02*
X118500000Y-85200000D01*
X118500000Y-85200000D02*
X112800000Y-85200000D01*
X112800000Y-85200000D02*
X110600000Y-83000000D01*
X110600000Y-83000000D02*
X110600000Y-82550000D01*
X116750000Y-80200000D02*
X117905000Y-81355000D01*
X117905000Y-81355000D02*
X117905000Y-82300000D01*
D70*
X109300000Y-82075000D02*
X109300000Y-82300000D01*
X109300000Y-82300000D02*
X109550000Y-82550000D01*
X109550000Y-82550000D02*
X110600000Y-82550000D01*
X107900000Y-81600000D02*
X108825000Y-81600000D01*
X108825000Y-81600000D02*
X109300000Y-82075000D01*
X107900000Y-81600000D02*
X107900000Y-82400000D01*
X107900000Y-82400000D02*
X107700000Y-82600000D01*
X107700000Y-82600000D02*
X106530000Y-82600000D01*
X106530000Y-82600000D02*
X105700000Y-82600000D01*
D68*
X169900000Y-118600000D02*
X162289996Y-118600000D01*
X162289996Y-118600000D02*
X160500000Y-116810004D01*
X160500000Y-116810004D02*
X160500000Y-112951538D01*
X160500000Y-112951538D02*
X160089989Y-112951538D01*
X160089989Y-112951538D02*
X159450013Y-112311562D01*
X159450013Y-112311562D02*
X159450013Y-100650013D01*
X159450013Y-100650013D02*
X154425011Y-95625011D01*
X154425011Y-95625011D02*
X151547532Y-95625011D01*
X151547532Y-95625011D02*
X150849988Y-94927467D01*
X150849988Y-94927467D02*
X150849988Y-93549988D01*
X150849988Y-93549988D02*
X143500000Y-86200000D01*
X143500000Y-86200000D02*
X138100000Y-86200000D01*
X176300000Y-107900000D02*
X177800000Y-107900000D01*
X177800000Y-107900000D02*
X178700000Y-108800000D01*
X178700000Y-108800000D02*
X178700000Y-116600000D01*
X178700000Y-116600000D02*
X176700000Y-118600000D01*
X176700000Y-118600000D02*
X169900000Y-118600000D01*
X169900000Y-118600000D02*
X169850000Y-118650000D01*
X169850000Y-118650000D02*
X169850000Y-119900000D01*
D67*
X177900000Y-116400000D02*
X177900000Y-109375000D01*
X177900000Y-109375000D02*
X176425000Y-107900000D01*
X176425000Y-107900000D02*
X176300000Y-107900000D01*
X176349999Y-117950001D02*
X177900000Y-116400000D01*
X170300000Y-116289998D02*
X170300000Y-117710002D01*
X170300000Y-117710002D02*
X170539999Y-117950001D01*
X170539999Y-117950001D02*
X176349999Y-117950001D01*
X168664997Y-116049999D02*
X170060001Y-116049999D01*
X170060001Y-116049999D02*
X170300000Y-116289998D01*
X165450000Y-114300000D02*
X165450000Y-114500000D01*
X165450000Y-114500000D02*
X166350000Y-115400000D01*
X166350000Y-115400000D02*
X168014998Y-115400000D01*
X168014998Y-115400000D02*
X168664997Y-116049999D01*
D68*
X173800000Y-101600000D02*
X173800000Y-102400000D01*
X173800000Y-102400000D02*
X176300000Y-104900000D01*
X176300000Y-104900000D02*
X176300000Y-107900000D01*
D67*
X171144999Y-101524999D02*
X171220000Y-101600000D01*
X171220000Y-101600000D02*
X172000000Y-101600000D01*
D68*
X170400000Y-121795000D02*
X170400000Y-120450000D01*
X170400000Y-120450000D02*
X169850000Y-119900000D01*
D67*
X172259000Y-106300000D02*
X172259000Y-104400080D01*
X172259000Y-104400080D02*
X171183429Y-103324509D01*
X171183429Y-103324509D02*
X166675491Y-103324509D01*
X166675491Y-103324509D02*
X166050000Y-103950000D01*
X166050000Y-103950000D02*
X165200000Y-103950000D01*
X177175000Y-107900000D02*
X176300000Y-107900000D01*
X176300000Y-107900000D02*
X176300000Y-106100000D01*
X171144999Y-99775001D02*
X171220000Y-99700000D01*
X171220000Y-99700000D02*
X172000000Y-99700000D01*
X171144999Y-101524999D02*
X171144999Y-99775001D01*
D68*
X172000000Y-101600000D02*
X173800000Y-101600000D01*
X138334315Y-86199996D02*
X138900000Y-86199996D01*
X138100004Y-86199996D02*
X138334315Y-86199996D01*
X138100000Y-86200000D02*
X138100004Y-86199996D01*
X138100000Y-86200000D02*
X134251458Y-86200000D01*
X125500000Y-86000000D02*
X118500000Y-79000000D01*
X118500000Y-79000000D02*
X112925000Y-79000000D01*
X112925000Y-79000000D02*
X111750000Y-80175000D01*
X134251458Y-86200000D02*
X134051458Y-86000000D01*
X134051458Y-86000000D02*
X125500000Y-86000000D01*
X111750000Y-80175000D02*
X110600000Y-80175000D01*
X137300000Y-81650000D02*
X138450000Y-81650000D01*
X138450000Y-81650000D02*
X138500000Y-81600000D01*
X137300000Y-81650000D02*
X135315000Y-81650000D01*
X135315000Y-81650000D02*
X135200000Y-81765000D01*
D70*
X107875000Y-78500000D02*
X104225000Y-78500000D01*
X104225000Y-78500000D02*
X101500000Y-81225000D01*
X101500000Y-81225000D02*
X101500000Y-81250000D01*
X110600000Y-80175000D02*
X109550000Y-80175000D01*
X109550000Y-80175000D02*
X107875000Y-78500000D01*
D68*
X103500000Y-81650000D02*
X101900000Y-81650000D01*
X101900000Y-81650000D02*
X101500000Y-81250000D01*
X121250000Y-86000000D02*
X121300000Y-86050000D01*
X121300000Y-86050000D02*
X121300000Y-87850000D01*
X121300000Y-87850000D02*
X121450000Y-88000000D01*
D67*
X165200000Y-110550000D02*
X165200000Y-109975000D01*
X164750000Y-107750000D02*
X164750000Y-108275000D01*
X165150000Y-107350000D02*
X164750000Y-107750000D01*
X164750000Y-108275000D02*
X164750000Y-108900000D01*
X164750000Y-109525000D02*
X164750000Y-108900000D01*
X165300000Y-107350000D02*
X165150000Y-107350000D01*
X165200000Y-109975000D02*
X164750000Y-109525000D01*
X162300000Y-79650000D02*
X161650000Y-79650000D01*
X161650000Y-79650000D02*
X160100000Y-81200000D01*
X160100000Y-81200000D02*
X159647500Y-81200000D01*
X159647500Y-81200000D02*
X159251100Y-80803600D01*
X159251100Y-80803600D02*
X159251100Y-80503600D01*
X159251100Y-80503600D02*
X157947500Y-79200000D01*
X157947500Y-79200000D02*
X157900000Y-79200000D01*
X157900000Y-79200000D02*
X157250000Y-79200000D01*
X115095000Y-117625000D02*
X115095000Y-115795000D01*
X115095000Y-115795000D02*
X114650000Y-115350000D01*
X113000000Y-117500000D02*
X114970000Y-117500000D01*
X114970000Y-117500000D02*
X115095000Y-117625000D01*
D69*
X102500000Y-123000000D02*
X100500000Y-123000000D01*
X105000000Y-125500000D02*
X102500000Y-123000000D01*
X104500000Y-123000000D02*
X102500000Y-123000000D01*
X108500000Y-123000000D02*
X106500000Y-123000000D01*
X106500000Y-121000000D02*
X108500000Y-121000000D01*
X102500000Y-121000000D02*
X104500000Y-121000000D01*
X105000000Y-130500000D02*
X105000000Y-125500000D01*
D67*
X164750000Y-95800000D02*
X164750000Y-96000000D01*
X162764616Y-116055104D02*
X162764616Y-116550078D01*
X164750000Y-96000000D02*
X161624998Y-99125002D01*
X161624998Y-99125002D02*
X161624998Y-104013454D01*
X161624998Y-104013454D02*
X161925047Y-104313503D01*
X161925047Y-104313503D02*
X161925047Y-106092609D01*
X161800000Y-108899004D02*
X161800000Y-115090488D01*
X161925047Y-106092609D02*
X161025046Y-106992610D01*
X161025046Y-106992610D02*
X161025046Y-108124050D01*
X161025046Y-108124050D02*
X161800000Y-108899004D01*
X161800000Y-115090488D02*
X162764616Y-116055104D01*
D68*
X162764616Y-116550078D02*
X163399922Y-116550078D01*
X163399922Y-116550078D02*
X163950000Y-116000000D01*
X126500000Y-99000000D02*
X126500000Y-101000000D01*
X126500000Y-97000000D02*
X126500000Y-99000000D01*
X126500000Y-93000000D02*
X126500000Y-95000000D01*
X124500000Y-91000000D02*
X126500000Y-91000000D01*
X120500000Y-93000000D02*
X118500000Y-93000000D01*
X122500000Y-91000000D02*
X122500000Y-93000000D01*
X124500000Y-95000000D02*
X124500000Y-97000000D01*
X124500000Y-91000000D02*
X124500000Y-93000000D01*
X120500000Y-91000000D02*
X122500000Y-91000000D01*
X118500000Y-92419060D02*
X118500000Y-91000000D01*
X119620338Y-97074931D02*
X119620338Y-93539398D01*
X119620338Y-93539398D02*
X118500000Y-92419060D01*
X123700000Y-102200000D02*
X123700000Y-103600000D01*
X122300000Y-100800000D02*
X123700000Y-100800000D01*
X119500000Y-100800000D02*
X120900000Y-100800000D01*
X120500000Y-102400000D02*
X119700000Y-102400000D01*
X119700000Y-102400000D02*
X118100000Y-100800000D01*
X119750000Y-86000000D02*
X119750000Y-86250000D01*
X119750000Y-86250000D02*
X120500000Y-87000000D01*
X120500000Y-87000000D02*
X120500000Y-92600000D01*
X120500000Y-92600000D02*
X120300001Y-92799999D01*
X119750000Y-86000000D02*
X115890000Y-86000000D01*
X115890000Y-86000000D02*
X115365000Y-86525000D01*
X115365000Y-86525000D02*
X115365000Y-87700000D01*
D67*
X168150000Y-92200000D02*
X168150000Y-93800000D01*
X168150000Y-93800000D02*
X168350000Y-94000000D01*
X170750000Y-89350000D02*
X170750000Y-88450000D01*
X170750000Y-89859232D02*
X170750000Y-89350000D01*
X168409232Y-92200000D02*
X170750000Y-89859232D01*
X168150000Y-92200000D02*
X168409232Y-92200000D01*
X172650000Y-94000000D02*
X172900000Y-93750000D01*
X172900000Y-93750000D02*
X172900000Y-92250000D01*
X172900000Y-92250000D02*
X172850000Y-92200000D01*
X172850000Y-92200000D02*
X172850000Y-91575000D01*
X172850000Y-91575000D02*
X171250000Y-89975000D01*
X171250000Y-89975000D02*
X171250000Y-89350000D01*
X171250000Y-89350000D02*
X171250000Y-88450000D01*
X166450000Y-92200000D02*
X166450000Y-93800000D01*
X166450000Y-93800000D02*
X166250000Y-94000000D01*
X166250000Y-94000000D02*
X166250000Y-95800000D01*
X170250000Y-89722821D02*
X170250000Y-89350000D01*
X168472822Y-91499999D02*
X170250000Y-89722821D01*
X170250000Y-89350000D02*
X170250000Y-88450000D01*
X167175001Y-91499999D02*
X168472822Y-91499999D01*
X166475000Y-92200000D02*
X167175001Y-91499999D01*
X166450000Y-92200000D02*
X166475000Y-92200000D01*
X165562832Y-91049988D02*
X168286422Y-91049988D01*
X169750000Y-89350000D02*
X169750000Y-88450000D01*
X169750000Y-89586410D02*
X169750000Y-89350000D01*
X165112821Y-91499999D02*
X165562832Y-91049988D01*
X162475001Y-91499999D02*
X165112821Y-91499999D01*
X168286422Y-91049988D02*
X169750000Y-89586410D01*
X161775000Y-92200000D02*
X162475001Y-91499999D01*
X161750000Y-92200000D02*
X161775000Y-92200000D01*
X161950000Y-95800000D02*
X161950000Y-94000000D01*
X161750000Y-92200000D02*
X161750000Y-93800000D01*
X161750000Y-93800000D02*
X161950000Y-94000000D01*
D70*
X104700000Y-79700000D02*
X104700000Y-83180000D01*
X104700000Y-83180000D02*
X104330000Y-83550000D01*
X104330000Y-83550000D02*
X103500000Y-83550000D01*
D67*
X166650000Y-82350000D02*
X165050000Y-82350000D01*
X165050000Y-82350000D02*
X163100000Y-80400000D01*
X163100000Y-80400000D02*
X161764998Y-80400000D01*
X161764998Y-80400000D02*
X160300000Y-81864998D01*
X160300000Y-81864998D02*
X160300000Y-82654700D01*
X160300000Y-82654700D02*
X159251100Y-83703600D01*
X159251100Y-83703600D02*
X159251100Y-84003600D01*
X159251100Y-84003600D02*
X159251100Y-84303600D01*
X157954700Y-85600000D02*
X157900000Y-85600000D01*
X159251100Y-84303600D02*
X157954700Y-85600000D01*
X157900000Y-85600000D02*
X157250000Y-85600000D01*
X166650000Y-84350000D02*
X165550000Y-84350000D01*
X150100000Y-81000000D02*
X152350001Y-78749999D01*
X165550000Y-84350000D02*
X163500000Y-86400000D01*
X163500000Y-86400000D02*
X160100000Y-86400000D01*
X160100000Y-86400000D02*
X159500000Y-87000000D01*
X159500000Y-87000000D02*
X156300000Y-87000000D01*
X152900000Y-86400000D02*
X150100000Y-83600000D01*
X156300000Y-87000000D02*
X155700000Y-86400000D01*
X155700000Y-86400000D02*
X152900000Y-86400000D01*
X150100000Y-83600000D02*
X150100000Y-81000000D01*
X152350001Y-78749999D02*
X152750001Y-78749999D01*
X152750001Y-78749999D02*
X153100000Y-78400000D01*
X158500000Y-71750000D02*
X158500000Y-72250000D01*
X158500000Y-72250000D02*
X161500000Y-75250000D01*
X161500000Y-75250000D02*
X161900000Y-75250000D01*
X156700000Y-71750000D02*
X158500000Y-71750000D01*
X154000000Y-67800000D02*
X154000000Y-74300000D01*
X154000000Y-74300000D02*
X156550000Y-71750000D01*
X156550000Y-71750000D02*
X156700000Y-71750000D01*
X154999999Y-66800001D02*
X154000000Y-67800000D01*
X176822491Y-66050011D02*
X155749989Y-66050011D01*
X180024998Y-69252518D02*
X176822491Y-66050011D01*
X180024998Y-71324002D02*
X180024998Y-69252518D01*
X155749989Y-66050011D02*
X154999999Y-66800001D01*
X183125012Y-74424016D02*
X180024998Y-71324002D01*
X181500000Y-91660000D02*
X183125012Y-90034988D01*
X183125012Y-90034988D02*
X183125012Y-74424016D01*
X151850000Y-87200000D02*
X155700000Y-87200000D01*
X155700000Y-87200000D02*
X156100000Y-87600000D01*
X156100000Y-87600000D02*
X159900000Y-87600000D01*
X163663589Y-87000000D02*
X165313589Y-85350000D01*
X159900000Y-87600000D02*
X160500000Y-87000000D01*
X160500000Y-87000000D02*
X163663589Y-87000000D01*
X165313589Y-85350000D02*
X166650000Y-85350000D01*
X149850000Y-85000000D02*
X150350000Y-85000000D01*
X150350000Y-85000000D02*
X151850000Y-86500000D01*
X151850000Y-86500000D02*
X151850000Y-86575000D01*
X151850000Y-86575000D02*
X151850000Y-87200000D01*
X169800000Y-99700000D02*
X169450000Y-99700000D01*
X169450000Y-99700000D02*
X168250000Y-98500000D01*
X166449995Y-74749999D02*
X166099996Y-74400000D01*
X166450995Y-74749999D02*
X166449995Y-74749999D01*
X170250000Y-79750000D02*
X170250000Y-78549004D01*
X170250000Y-78549004D02*
X166450995Y-74749999D01*
X161900000Y-73750000D02*
X163500000Y-73750000D01*
X163500000Y-73750000D02*
X163700000Y-73550000D01*
X163700000Y-75250000D02*
X163700000Y-74600000D01*
X163700000Y-74600000D02*
X163900000Y-74400000D01*
X163900000Y-74400000D02*
X163900000Y-73750000D01*
X163900000Y-73750000D02*
X163700000Y-73550000D01*
D68*
X116200000Y-106800000D02*
X121800000Y-106800000D01*
X121800000Y-106800000D02*
X122405000Y-107405000D01*
X122405000Y-107405000D02*
X122405000Y-107794000D01*
D67*
X122405000Y-107668270D02*
X122405000Y-107794000D01*
D68*
X114100000Y-93050000D02*
X114100000Y-98400000D01*
X114100000Y-98400000D02*
X115225001Y-99525001D01*
X115225001Y-99525001D02*
X115225001Y-105975001D01*
X115225001Y-105975001D02*
X116050000Y-106800000D01*
X116050000Y-106800000D02*
X116200000Y-106800000D01*
D67*
X116200000Y-106800000D02*
X115500000Y-107500000D01*
X115500000Y-107500000D02*
X115500000Y-112150000D01*
X115500000Y-112150000D02*
X112300000Y-115350000D01*
X112300000Y-115350000D02*
X111350000Y-115350000D01*
X147000000Y-78850000D02*
X145500000Y-78850000D01*
X145500000Y-78850000D02*
X145200000Y-78550000D01*
X145200000Y-76650000D02*
X148650000Y-76650000D01*
X148650000Y-76650000D02*
X148700000Y-76700000D01*
X143000000Y-76650000D02*
X142795000Y-76650000D01*
X142795000Y-76650000D02*
X141614999Y-75469999D01*
X141614999Y-75469999D02*
X141614999Y-73285001D01*
X141614999Y-73285001D02*
X141940001Y-72959999D01*
X141940001Y-72959999D02*
X142700000Y-72200000D01*
X142700000Y-72200000D02*
X143634198Y-72200000D01*
X143634198Y-72200000D02*
X144719199Y-71114999D01*
X144719199Y-71114999D02*
X146294999Y-71114999D01*
X146294999Y-71114999D02*
X146680001Y-71500001D01*
X146680001Y-71500001D02*
X147080000Y-71900000D01*
X143000000Y-78550000D02*
X143490002Y-78550000D01*
X143490002Y-78550000D02*
X143855001Y-78185001D01*
X143855001Y-78185001D02*
X143855001Y-75355001D01*
X143855001Y-75355001D02*
X143785001Y-75285001D01*
X142700000Y-74200000D02*
X143785001Y-75285001D01*
X143785001Y-75285001D02*
X145898997Y-75285001D01*
X145898997Y-75285001D02*
X146783999Y-74399999D01*
X146783999Y-74399999D02*
X147816001Y-74399999D01*
X147816001Y-74399999D02*
X148016002Y-74600000D01*
X148016002Y-74600000D02*
X149935002Y-74600000D01*
X149935002Y-74600000D02*
X150225001Y-74310001D01*
X150225001Y-74310001D02*
X150225001Y-71789999D01*
X150225001Y-71789999D02*
X149685002Y-71250000D01*
X149685002Y-71250000D02*
X148645685Y-71250000D01*
X148645685Y-71250000D02*
X148080000Y-71250000D01*
X155863589Y-94000000D02*
X153950000Y-94000000D01*
X159200000Y-91500000D02*
X158764998Y-91500000D01*
X157610401Y-93125012D02*
X157338578Y-93125012D01*
X158174999Y-92560414D02*
X157610401Y-93125012D01*
X158764998Y-91500000D02*
X158174999Y-92089999D01*
X153950000Y-94000000D02*
X153450000Y-94000000D01*
X159850000Y-90850000D02*
X159200000Y-91500000D01*
X157338578Y-93125012D02*
X156913601Y-93549989D01*
X156313600Y-93549989D02*
X155863589Y-94000000D01*
X156913601Y-93549989D02*
X156313600Y-93549989D01*
X159850000Y-90800000D02*
X159850000Y-90850000D01*
X158174999Y-92089999D02*
X158174999Y-92560414D01*
X160500000Y-90800000D02*
X159850000Y-90800000D01*
X169250000Y-88450000D02*
X169250000Y-89449014D01*
X160749988Y-91049988D02*
X160500000Y-90800000D01*
X164926421Y-91049988D02*
X160749988Y-91049988D01*
X169250000Y-89449014D02*
X168099037Y-90599977D01*
X165376432Y-90599977D02*
X164926421Y-91049988D01*
X168099037Y-90599977D02*
X165376432Y-90599977D01*
D69*
X157000000Y-123000000D02*
X155500000Y-123000000D01*
X155500000Y-127000000D02*
X155500000Y-125000000D01*
X157000000Y-127000000D02*
X157000000Y-125000000D01*
X157000000Y-129707106D02*
X157000000Y-129000000D01*
X157000000Y-130000002D02*
X157000000Y-129707106D01*
X156500001Y-130500001D02*
X157000000Y-130000002D01*
X156500001Y-130500013D02*
X157000000Y-131000012D01*
X156500001Y-130500001D02*
X156500001Y-130500013D01*
X152500000Y-130500000D02*
X156500001Y-130500001D01*
D67*
X170235010Y-73200000D02*
X170235010Y-76364990D01*
X170235010Y-76364990D02*
X170049999Y-76550001D01*
X170049999Y-76550001D02*
X169700000Y-76900000D01*
X169064585Y-81200000D02*
X170805026Y-81200000D01*
X167774987Y-82489598D02*
X169064585Y-81200000D01*
X168625014Y-85774986D02*
X168625014Y-85109171D01*
X167774987Y-84310412D02*
X167774987Y-82489598D01*
X167550000Y-86850000D02*
X168625014Y-85774986D01*
X168625014Y-85109171D02*
X168248014Y-84732171D01*
X168196746Y-84732171D02*
X167774987Y-84310412D01*
X170805026Y-81200000D02*
X171300000Y-81200000D01*
X168248014Y-84732171D02*
X168196746Y-84732171D01*
X166650000Y-86850000D02*
X167550000Y-86850000D01*
X176947723Y-78352277D02*
X176947723Y-77395026D01*
X168434414Y-84282160D02*
X168383146Y-84282160D01*
X168250000Y-86816600D02*
X169075025Y-85991575D01*
X168224998Y-84124012D02*
X168224998Y-82675998D01*
X176947723Y-77395026D02*
X176947723Y-76900052D01*
X168250000Y-88450000D02*
X168250000Y-86816600D01*
X168224998Y-82675998D02*
X168976005Y-81924991D01*
X169075025Y-84922771D02*
X168434414Y-84282160D01*
X173375009Y-81924991D02*
X176947723Y-78352277D01*
X168976005Y-81924991D02*
X173375009Y-81924991D01*
X169075025Y-85991575D02*
X169075025Y-84922771D01*
X168383146Y-84282160D02*
X168224998Y-84124012D01*
X175500000Y-74600000D02*
X175849999Y-74250001D01*
X175849999Y-74250001D02*
X175849999Y-70209999D01*
X175849999Y-70209999D02*
X175489999Y-69849999D01*
X175489999Y-69849999D02*
X174640000Y-69000000D01*
X171250000Y-79750000D02*
X171250000Y-77904357D01*
X172100000Y-72742081D02*
X172100000Y-71540000D01*
X172100000Y-77054357D02*
X172100000Y-72742081D01*
X171250000Y-77904357D02*
X172100000Y-77054357D01*
X171350000Y-74400000D02*
X172100000Y-74400000D01*
X170750000Y-73684014D02*
X170750000Y-76400000D01*
X170910012Y-70189988D02*
X170910012Y-73524002D01*
X172100000Y-69000000D02*
X170910012Y-70189988D01*
X170910012Y-73524002D02*
X170750000Y-73684014D01*
X170750000Y-76400000D02*
X170750000Y-78850000D01*
X171350000Y-76000000D02*
X170750000Y-76000000D01*
X170750000Y-78850000D02*
X170750000Y-79750000D01*
X174226525Y-76437065D02*
X174226525Y-75084324D01*
X172250000Y-78413590D02*
X174226525Y-76437065D01*
X174226525Y-75084324D02*
X174576524Y-74734325D01*
X172250000Y-79750000D02*
X172250000Y-78413590D01*
X173300000Y-68460998D02*
X172664002Y-67825000D01*
X173425001Y-76602179D02*
X173425001Y-75275995D01*
X173425001Y-75275995D02*
X173825002Y-74875994D01*
X171750000Y-78040768D02*
X172740799Y-77049969D01*
X172977211Y-77049969D02*
X173425001Y-76602179D01*
X173825002Y-73251998D02*
X173300000Y-72726996D01*
X171750000Y-79750000D02*
X171750000Y-78040768D01*
X170409999Y-68150001D02*
X169560000Y-69000000D01*
X173825002Y-74875994D02*
X173825002Y-73251998D01*
X173300000Y-72726996D02*
X173300000Y-68460998D01*
X172740799Y-77049969D02*
X172977211Y-77049969D01*
X172664002Y-67825000D02*
X170735000Y-67825000D01*
X170735000Y-67825000D02*
X170409999Y-68150001D01*
X175019811Y-76483777D02*
X175019811Y-76132222D01*
X172750000Y-79750000D02*
X172750000Y-78753588D01*
X172750000Y-78753588D02*
X175019811Y-76483777D01*
X175019811Y-76132222D02*
X175369810Y-75782223D01*
X168100000Y-81200000D02*
X167450000Y-81850000D01*
X167450000Y-81850000D02*
X166650000Y-81850000D01*
X168900000Y-75800000D02*
X168900000Y-76200000D01*
X168900000Y-74000000D02*
X168900000Y-75800000D01*
X168195001Y-73295001D02*
X168900000Y-74000000D01*
X167020000Y-69000000D02*
X168195001Y-70175001D01*
X168195001Y-70175001D02*
X168195001Y-73295001D01*
X118790000Y-74000000D02*
X118790000Y-73690000D01*
X118700000Y-73600000D02*
X118724999Y-73575001D01*
X118724999Y-73575001D02*
X118724999Y-69743999D01*
X118790000Y-73690000D02*
X118700000Y-73600000D01*
X118724999Y-69743999D02*
X119543999Y-68924999D01*
X119543999Y-68924999D02*
X122224999Y-68924999D01*
X122224999Y-68924999D02*
X123800000Y-70500000D01*
X123800000Y-70500000D02*
X125300000Y-70500000D01*
X102990000Y-74000000D02*
X102990000Y-73110000D01*
X102990000Y-73110000D02*
X103175001Y-72924999D01*
X103175001Y-72924999D02*
X116714999Y-72924999D01*
X116714999Y-72924999D02*
X117790000Y-74000000D01*
X117790000Y-74000000D02*
X118790000Y-74000000D01*
X133100000Y-73800000D02*
X129800000Y-70500000D01*
X129800000Y-70500000D02*
X125300000Y-70500000D01*
X118790000Y-74000000D02*
X118790000Y-77490000D01*
X118790000Y-77490000D02*
X124500000Y-83200000D01*
X124500000Y-83200000D02*
X126250000Y-83200000D01*
X126250000Y-83200000D02*
X127100000Y-82350000D01*
X127100000Y-82350000D02*
X127800000Y-82350000D01*
X127800000Y-82350000D02*
X128485000Y-83035000D01*
X128485000Y-83035000D02*
X128775000Y-83035000D01*
X128775000Y-83035000D02*
X129800000Y-83035000D01*
X120809999Y-78709999D02*
X120809999Y-78000000D01*
X120809999Y-78000000D02*
X120809999Y-77289999D01*
X135949999Y-78099999D02*
X120909998Y-78099999D01*
X136300000Y-78450000D02*
X135949999Y-78099999D01*
X120909998Y-78099999D02*
X120809999Y-78000000D01*
X116084999Y-77615001D02*
X117100000Y-76600000D01*
X104260000Y-76540000D02*
X105335001Y-77615001D01*
X105335001Y-77615001D02*
X116084999Y-77615001D01*
X120060000Y-76540000D02*
X120060000Y-70740000D01*
X120060000Y-70740000D02*
X120300000Y-70500000D01*
X127100000Y-80450000D02*
X127050000Y-80450000D01*
X127050000Y-80450000D02*
X126100000Y-81400000D01*
X126100000Y-81400000D02*
X126100000Y-82000000D01*
X126100000Y-82000000D02*
X125700000Y-82400000D01*
X125700000Y-82400000D02*
X124500000Y-82400000D01*
X124500000Y-82400000D02*
X120809999Y-78709999D01*
X120809999Y-77289999D02*
X120060000Y-76540000D01*
X127100000Y-80450000D02*
X127150000Y-80450000D01*
X127150000Y-80450000D02*
X128465000Y-81765000D01*
X128465000Y-81765000D02*
X128775000Y-81765000D01*
X128775000Y-81765000D02*
X129800000Y-81765000D01*
X136300000Y-75550000D02*
X133890000Y-75550000D01*
X133890000Y-75550000D02*
X133100000Y-76340000D01*
X141500000Y-125000000D02*
X139700000Y-125000000D01*
X139450010Y-125249990D02*
X139450010Y-134450010D01*
X139700000Y-125000000D02*
X139450010Y-125249990D01*
X139949990Y-134949990D02*
X161350010Y-134949990D01*
X139450010Y-134450010D02*
X139949990Y-134949990D01*
X161350010Y-134949990D02*
X162349990Y-133950010D01*
X161200000Y-127050000D02*
X160800000Y-126650000D01*
X162349990Y-133950010D02*
X162349990Y-129750010D01*
X162349990Y-129750010D02*
X161200000Y-128600020D01*
X161200000Y-128600020D02*
X161200000Y-127050000D01*
X160800000Y-126650000D02*
X160800000Y-126150000D01*
X153250000Y-116000000D02*
X152750000Y-116000000D01*
X152750000Y-116000000D02*
X152500000Y-116250000D01*
X152500000Y-116250000D02*
X152500000Y-117000000D01*
X156300000Y-116000000D02*
X156300000Y-116050000D01*
X156300000Y-116050000D02*
X155350000Y-117000000D01*
X155350000Y-117000000D02*
X152500000Y-117000000D01*
X149250000Y-120250000D02*
X148250000Y-120250000D01*
X152500000Y-117000000D02*
X149250000Y-120250000D01*
D68*
X116635000Y-87700000D02*
X116650000Y-87715000D01*
X116650000Y-87715000D02*
X116650000Y-89150000D01*
X116650000Y-89150000D02*
X116300000Y-89500000D01*
X116300000Y-89500000D02*
X116300000Y-91150000D01*
X114100000Y-91150000D02*
X114100000Y-87705000D01*
X114100000Y-87705000D02*
X114095000Y-87700000D01*
D67*
X114095000Y-91145000D02*
X114100000Y-91150000D01*
X165000000Y-123065000D02*
X162885000Y-123065000D01*
X162885000Y-123065000D02*
X162800000Y-123150000D01*
X160800000Y-123150000D02*
X162800000Y-123150000D01*
X165000000Y-124335000D02*
X163115000Y-124335000D01*
X163115000Y-124335000D02*
X162800000Y-124650000D01*
X160800000Y-124650000D02*
X162800000Y-124650000D01*
X157750000Y-114000000D02*
X158500000Y-114000000D01*
X158500000Y-114000000D02*
X159000000Y-114500000D01*
X159000000Y-114500000D02*
X159000000Y-117300000D01*
X159000000Y-117300000D02*
X158300000Y-118000000D01*
X158300000Y-118000000D02*
X157250000Y-118000000D01*
X154750000Y-118000000D02*
X157250000Y-118000000D01*
D68*
X117905000Y-87700000D02*
X119250000Y-87700000D01*
X119250000Y-87700000D02*
X119550000Y-88000000D01*
D67*
X169850000Y-94200000D02*
X169850000Y-94000000D01*
X171600000Y-120600000D02*
X173000000Y-119200000D01*
X174403198Y-96075024D02*
X174128174Y-95800000D01*
X171450000Y-95800000D02*
X169850000Y-94200000D01*
X174860413Y-96075024D02*
X174403198Y-96075024D01*
X176199912Y-102063503D02*
X176199912Y-97414523D01*
X179800000Y-105663591D02*
X176199912Y-102063503D01*
X176199912Y-97414523D02*
X174860413Y-96075024D01*
X178700000Y-119200000D02*
X179800000Y-118100000D01*
X173000000Y-119200000D02*
X178700000Y-119200000D01*
X179800000Y-118100000D02*
X179800000Y-105663591D01*
X174128174Y-95800000D02*
X171450000Y-95800000D01*
X165000000Y-121795000D02*
X167505000Y-121795000D01*
X167505000Y-121795000D02*
X167800000Y-121500000D01*
X162800000Y-121650000D02*
X164855000Y-121650000D01*
X164855000Y-121650000D02*
X165000000Y-121795000D01*
X153250000Y-114000000D02*
X153250000Y-114300000D01*
X153250000Y-114300000D02*
X154750000Y-115800000D01*
X154750000Y-115800000D02*
X154750000Y-116000000D01*
X158200000Y-116000000D02*
X158200000Y-115950000D01*
X158200000Y-115950000D02*
X157474999Y-115224999D01*
X157474999Y-115224999D02*
X155325001Y-115224999D01*
X155325001Y-115224999D02*
X154750000Y-115800000D01*
X173459543Y-96604525D02*
X165895475Y-96604525D01*
X165895475Y-96604525D02*
X162400000Y-100100000D01*
X162400000Y-100100000D02*
X162400000Y-106600056D01*
X162400000Y-106600056D02*
X162050055Y-106950001D01*
X162050055Y-106950001D02*
X161700056Y-107300000D01*
X154750000Y-114000000D02*
X154750000Y-113350000D01*
X154750000Y-113350000D02*
X155200000Y-112900000D01*
X155200000Y-112900000D02*
X156000000Y-112900000D01*
X156000000Y-112900000D02*
X156425009Y-112474991D01*
X156425009Y-112474991D02*
X156925009Y-112474991D01*
X156925009Y-112474991D02*
X158200000Y-111200000D01*
X158200000Y-111200000D02*
X158200000Y-107000000D01*
X158200000Y-107000000D02*
X158100000Y-106900000D01*
X173575001Y-91564999D02*
X173575001Y-92975001D01*
X173575001Y-92975001D02*
X174750001Y-94150001D01*
X171750000Y-88450000D02*
X171750000Y-89739998D01*
X171750000Y-89739998D02*
X173575001Y-91564999D01*
X174750001Y-94150001D02*
X175100000Y-94500000D01*
X172600000Y-122950000D02*
X172600000Y-122800000D01*
X172600000Y-122800000D02*
X173950000Y-121450000D01*
X173950000Y-121450000D02*
X174500000Y-121450000D01*
X170400000Y-124335000D02*
X171015000Y-124335000D01*
X171015000Y-124335000D02*
X172400000Y-122950000D01*
X172400000Y-122950000D02*
X172600000Y-122950000D01*
X174500000Y-124350000D02*
X174300000Y-124350000D01*
X174300000Y-124350000D02*
X172800000Y-125850000D01*
X172800000Y-125850000D02*
X172600000Y-125850000D01*
X170400000Y-125605000D02*
X172355000Y-125605000D01*
X172355000Y-125605000D02*
X172600000Y-125850000D01*
X180349944Y-118386467D02*
X180349944Y-105577124D01*
X171150000Y-94700000D02*
X171150000Y-94000000D01*
X174589598Y-95625013D02*
X174314574Y-95349989D01*
X176649923Y-97228123D02*
X175046813Y-95625013D01*
X171799989Y-95349989D02*
X171150000Y-94700000D01*
X173300000Y-121450000D02*
X174750000Y-120000000D01*
X180349944Y-105577124D02*
X176649923Y-101877103D01*
X172600000Y-121450000D02*
X173300000Y-121450000D01*
X176649923Y-101877103D02*
X176649923Y-97228123D01*
X174750000Y-120000000D02*
X178736411Y-120000000D01*
X174314574Y-95349989D02*
X171799989Y-95349989D01*
X175046813Y-95625013D02*
X174589598Y-95625013D01*
X178736411Y-120000000D02*
X180349944Y-118386467D01*
X170400000Y-123065000D02*
X170875000Y-123065000D01*
X170875000Y-123065000D02*
X172490000Y-121450000D01*
X172490000Y-121450000D02*
X172600000Y-121450000D01*
X169274999Y-94360003D02*
X168860001Y-94775001D01*
X167300000Y-94600000D02*
X167300000Y-93694974D01*
X167300000Y-93694974D02*
X167300000Y-93200000D01*
X177099934Y-97041723D02*
X175233213Y-95175002D01*
X168860001Y-94775001D02*
X167475001Y-94775001D01*
X171660001Y-93224999D02*
X169339999Y-93224999D01*
X177099934Y-101690703D02*
X177099934Y-97041723D01*
X171725001Y-93289999D02*
X171660001Y-93224999D01*
X171725001Y-94360003D02*
X171725001Y-93289999D01*
X180799955Y-118572867D02*
X180799955Y-105390724D01*
X172264976Y-94899978D02*
X171725001Y-94360003D01*
X174500974Y-94899978D02*
X172264976Y-94899978D01*
X175233213Y-95175002D02*
X174775998Y-95175002D01*
X176400000Y-121550000D02*
X177822822Y-121550000D01*
X177822822Y-121550000D02*
X180799955Y-118572867D01*
X169339999Y-93224999D02*
X169274999Y-93289999D01*
X167475001Y-94775001D02*
X167300000Y-94600000D01*
X174775998Y-95175002D02*
X174500974Y-94899978D01*
X169274999Y-93289999D02*
X169274999Y-94360003D01*
X180799955Y-105390724D02*
X177099934Y-101690703D01*
X173964998Y-122200000D02*
X175125000Y-122200000D01*
X175125000Y-122200000D02*
X175775000Y-121550000D01*
X175775000Y-121550000D02*
X176400000Y-121550000D01*
X172600000Y-124350000D02*
X172800000Y-124350000D01*
X172800000Y-124350000D02*
X173724999Y-123425001D01*
X173724999Y-123425001D02*
X173724999Y-122439999D01*
X173724999Y-122439999D02*
X173964998Y-122200000D01*
X168115417Y-89924947D02*
X167994974Y-89924947D01*
X168750000Y-89290364D02*
X168115417Y-89924947D01*
X168750000Y-88450000D02*
X168750000Y-89290364D01*
X167994974Y-89924947D02*
X167500000Y-89924947D01*
X163950000Y-114300000D02*
X163950000Y-113300000D01*
X163950000Y-113300000D02*
X163600000Y-112950000D01*
X165200000Y-112450000D02*
X164100000Y-112450000D01*
X164100000Y-112450000D02*
X163600000Y-112950000D01*
X166650000Y-82850000D02*
X164550000Y-82850000D01*
X164550000Y-82850000D02*
X162850000Y-81150000D01*
X162850000Y-81150000D02*
X162300000Y-81150000D01*
X175150000Y-83350000D02*
X169949004Y-83350000D01*
X169502421Y-83796583D02*
X169398274Y-83796583D01*
X169949004Y-83350000D02*
X169502421Y-83796583D01*
X169398274Y-83796583D02*
X168903300Y-83796583D01*
X155763685Y-76800000D02*
X155963711Y-76599974D01*
X151700000Y-76800000D02*
X155763685Y-76800000D01*
X149650000Y-78850000D02*
X151700000Y-76800000D01*
X148500000Y-78850000D02*
X149650000Y-78850000D01*
X155963711Y-76599974D02*
X158754995Y-76599974D01*
X158754995Y-76599974D02*
X158857767Y-76702746D01*
X159454610Y-76000000D02*
X159827306Y-76372696D01*
X150700000Y-76700000D02*
X151400000Y-76000000D01*
X150200000Y-76700000D02*
X150700000Y-76700000D01*
X159827306Y-76372696D02*
X160177305Y-76722695D01*
X151400000Y-76000000D02*
X159454610Y-76000000D01*
X169150000Y-82850000D02*
X169100000Y-82800000D01*
X175350000Y-82850000D02*
X169150000Y-82850000D01*
X163700000Y-69200000D02*
X163700000Y-72050000D01*
X175350000Y-85850000D02*
X177322822Y-85850000D01*
X181612519Y-103657644D02*
X182003034Y-103657644D01*
X178899978Y-100945103D02*
X181612519Y-103657644D01*
X178899978Y-87427156D02*
X178899978Y-100945103D01*
X177322822Y-85850000D02*
X178899978Y-87427156D01*
X182003034Y-103657644D02*
X182353033Y-104007643D01*
X177274999Y-128975001D02*
X175750000Y-130500000D01*
X177274999Y-127601999D02*
X177274999Y-128975001D01*
X181249966Y-123627032D02*
X177274999Y-127601999D01*
X181249966Y-107414158D02*
X181249966Y-123627032D01*
X181850044Y-106814080D02*
X181249966Y-107414158D01*
X175750000Y-130500000D02*
X175750000Y-131200000D01*
X175350000Y-85350000D02*
X177459233Y-85350000D01*
X177459233Y-85350000D02*
X179349989Y-87240756D01*
X182300000Y-102900000D02*
X183200077Y-103800077D01*
X179349989Y-87240756D02*
X179349989Y-100758701D01*
X179349989Y-100758701D02*
X181491288Y-102900000D01*
X181491288Y-102900000D02*
X182300000Y-102900000D01*
X183200077Y-104240834D02*
X183200077Y-104735808D01*
X183200077Y-103800077D02*
X183200077Y-104240834D01*
X179814999Y-127621411D02*
X181924968Y-125511442D01*
X179814999Y-128835001D02*
X179814999Y-127621411D01*
X175750000Y-132900000D02*
X179814999Y-128835001D01*
X175750000Y-133100000D02*
X175750000Y-132900000D01*
X181924968Y-108276482D02*
X181924968Y-107781508D01*
X181924968Y-125511442D02*
X181924968Y-108276482D01*
X158500000Y-70250000D02*
X159700000Y-70250000D01*
X159700000Y-70250000D02*
X161000000Y-68950000D01*
X161000000Y-68950000D02*
X161000000Y-68900000D01*
X161000000Y-68900000D02*
X161650000Y-68250000D01*
X161650000Y-68250000D02*
X161700000Y-68250000D01*
X167500000Y-87800000D02*
X166169064Y-89130936D01*
X166169064Y-89130936D02*
X163688920Y-89130936D01*
X163688920Y-89130936D02*
X163232972Y-88674988D01*
X163232972Y-88674988D02*
X162584970Y-88674988D01*
X162584970Y-88674988D02*
X162274992Y-88984966D01*
X162274992Y-88984966D02*
X147684966Y-88984966D01*
X147684966Y-88984966D02*
X147249999Y-88549999D01*
X147249999Y-88549999D02*
X146900000Y-88200000D01*
X171625001Y-87474999D02*
X170774999Y-87474999D01*
X170774999Y-87474999D02*
X170500000Y-87200000D01*
X175350000Y-86350000D02*
X172750000Y-86350000D01*
X172750000Y-86350000D02*
X171625001Y-87474999D01*
X115365000Y-82300000D02*
X115365000Y-83465000D01*
X115365000Y-83465000D02*
X115700000Y-83800000D01*
X166500000Y-87800000D02*
X165624998Y-88675002D01*
X163419372Y-88224977D02*
X162398570Y-88224977D01*
X165624998Y-88675002D02*
X163869397Y-88675002D01*
X163869397Y-88675002D02*
X163419372Y-88224977D01*
X162398570Y-88224977D02*
X162173577Y-88449970D01*
X162173577Y-88449970D02*
X148949970Y-88449970D01*
X148949970Y-88449970D02*
X148755221Y-88255221D01*
X148755221Y-88255221D02*
X148149989Y-88255221D01*
X175350000Y-84850000D02*
X171171210Y-84850000D01*
X169548109Y-86473101D02*
X169198110Y-86823100D01*
X171171210Y-84850000D02*
X169548109Y-86473101D01*
X116635000Y-83335000D02*
X117100000Y-83800000D01*
X116635000Y-82300000D02*
X116635000Y-83335000D01*
X165750000Y-83350000D02*
X166650000Y-83350000D01*
X163850000Y-83350000D02*
X165750000Y-83350000D01*
X163300000Y-82800000D02*
X163850000Y-83350000D01*
X162500000Y-82800000D02*
X163300000Y-82800000D01*
X162500000Y-85200000D02*
X163750000Y-85200000D01*
X163750000Y-85200000D02*
X165100000Y-83850000D01*
X165100000Y-83850000D02*
X165750000Y-83850000D01*
X165750000Y-83850000D02*
X166650000Y-83850000D01*
X177150000Y-84350000D02*
X179800000Y-87000000D01*
X179800000Y-87000000D02*
X179800000Y-100040000D01*
X175350000Y-84350000D02*
X177150000Y-84350000D01*
X179800000Y-100040000D02*
X180400000Y-100640000D01*
X180400000Y-100640000D02*
X181500000Y-100640000D01*
X175350000Y-83850000D02*
X177286411Y-83850000D01*
X177286411Y-83850000D02*
X180300000Y-86863589D01*
X180300000Y-95500000D02*
X181500000Y-96700000D01*
X181500000Y-96700000D02*
X181500000Y-96897919D01*
X180300000Y-86863589D02*
X180300000Y-95500000D01*
X181500000Y-96897919D02*
X181500000Y-98100000D01*
X181500000Y-89120000D02*
X182675001Y-87944999D01*
X182675001Y-87944999D02*
X182675001Y-86015999D01*
X182675001Y-86015999D02*
X182059002Y-85400000D01*
X182059002Y-85400000D02*
X179472821Y-85400000D01*
X179472821Y-85400000D02*
X176422821Y-82350000D01*
X176422821Y-82350000D02*
X176250000Y-82350000D01*
X176250000Y-82350000D02*
X175350000Y-82350000D01*
X180500000Y-78400000D02*
X178313599Y-76213599D01*
X178313599Y-76213599D02*
X176562809Y-76213599D01*
X176562809Y-76213599D02*
X173750000Y-79026408D01*
X173750000Y-79026408D02*
X173750000Y-79750000D01*
X182675001Y-80389999D02*
X182675001Y-79575001D01*
X182675001Y-79575001D02*
X182300000Y-79200000D01*
X182675001Y-82864999D02*
X182675001Y-80389999D01*
X181500000Y-84040000D02*
X182675001Y-82864999D01*
X129800000Y-84305000D02*
X130275000Y-84305000D01*
X133900000Y-80680000D02*
X133900000Y-80134998D01*
X177008890Y-65600000D02*
X180900000Y-69491110D01*
X180900000Y-69491110D02*
X180900000Y-70705026D01*
X130275000Y-84305000D02*
X133900000Y-80680000D01*
X135900000Y-70400000D02*
X135900000Y-68800000D01*
X133900000Y-80134998D02*
X134434998Y-79600000D01*
X134434998Y-79600000D02*
X137100000Y-79600000D01*
X137100000Y-79600000D02*
X137700000Y-79000000D01*
X137700000Y-72200000D02*
X135900000Y-70400000D01*
X137700000Y-79000000D02*
X137700000Y-72200000D01*
X135900000Y-68800000D02*
X139100000Y-65600000D01*
X139100000Y-65600000D02*
X177008890Y-65600000D01*
X180900000Y-70705026D02*
X180900000Y-71200000D01*
X173250000Y-79750000D02*
X173250000Y-78889998D01*
X173250000Y-78889998D02*
X179100000Y-73039998D01*
X164190585Y-77600000D02*
X164565598Y-77224987D01*
X135300000Y-80400000D02*
X135500000Y-80600000D01*
X135500000Y-80600000D02*
X149027179Y-80600000D01*
X164565598Y-77224987D02*
X168289572Y-77224987D01*
X158475399Y-77274988D02*
X158800411Y-77600000D01*
X158800411Y-77600000D02*
X164190585Y-77600000D01*
X149027179Y-80600000D02*
X152352191Y-77274988D01*
X135200000Y-80495000D02*
X135205000Y-80495000D01*
X135205000Y-80495000D02*
X135300000Y-80400000D01*
X152352191Y-77274988D02*
X158475399Y-77274988D01*
X169750000Y-78685415D02*
X169750000Y-79750000D01*
X168289572Y-77224987D02*
X169750000Y-78685415D01*
X168103172Y-77674998D02*
X164751998Y-77674998D01*
X169250000Y-78821826D02*
X168103172Y-77674998D01*
X169250000Y-79750000D02*
X169250000Y-78821826D01*
X141195000Y-84305000D02*
X136225000Y-84305000D01*
X144300000Y-81200000D02*
X141195000Y-84305000D01*
X136225000Y-84305000D02*
X135200000Y-84305000D01*
X158614011Y-78050011D02*
X158288999Y-77724999D01*
X149263590Y-81200000D02*
X144300000Y-81200000D01*
X158288999Y-77724999D02*
X152738591Y-77724999D01*
X152738591Y-77724999D02*
X149263590Y-81200000D01*
X164376985Y-78050011D02*
X158614011Y-78050011D01*
X164751998Y-77674998D02*
X164376985Y-78050011D01*
D70*
X105700000Y-81650000D02*
X105700000Y-80700000D01*
X105700000Y-80700000D02*
X106700000Y-79700000D01*
D68*
X116300000Y-93050000D02*
X116300000Y-93800000D01*
X116300000Y-93800000D02*
X115000000Y-95100000D01*
X115000000Y-95100000D02*
X115000000Y-98300000D01*
X115000000Y-98300000D02*
X116325000Y-99625000D01*
X116325000Y-99625000D02*
X116325000Y-100695000D01*
D67*
X149000000Y-121250000D02*
X149000000Y-126380000D01*
X149000000Y-126380000D02*
X148100000Y-127280000D01*
X148100000Y-127280000D02*
X147875000Y-127280000D01*
X153250000Y-118000000D02*
X152250000Y-118000000D01*
X152250000Y-118000000D02*
X149000000Y-121250000D01*
D69*
X113499995Y-127499999D02*
X112999996Y-127000000D01*
X114500000Y-130500000D02*
X114500000Y-128500004D01*
X114500000Y-128500004D02*
X113499995Y-127499999D01*
X116999994Y-127000000D02*
X115000000Y-127000000D01*
X119000000Y-125000000D02*
X119000000Y-127000000D01*
X114999994Y-125000000D02*
X117000000Y-125000000D01*
X112500001Y-124500001D02*
X113000000Y-125000000D01*
X112500001Y-123499999D02*
X112500001Y-124500001D01*
X113000000Y-123000000D02*
X113000000Y-125000000D01*
D67*
X182049999Y-130550001D02*
X181700000Y-130900000D01*
X183049989Y-129550011D02*
X182049999Y-130550001D01*
X177999956Y-87799956D02*
X177999956Y-101317903D01*
X177500011Y-87300011D02*
X177999956Y-87799956D01*
X172750000Y-87550000D02*
X172999989Y-87300011D01*
X177999956Y-101317903D02*
X183049989Y-106367936D01*
X172750000Y-88450000D02*
X172750000Y-87550000D01*
X183049989Y-106367936D02*
X183049989Y-129550011D01*
X172999989Y-87300011D02*
X177500011Y-87300011D01*
X181628001Y-137035001D02*
X177185001Y-137035001D01*
X175350000Y-86850000D02*
X177686411Y-86850000D01*
X177185001Y-137035001D02*
X176859999Y-136709999D01*
X176859999Y-136709999D02*
X175960000Y-135810000D01*
X177686411Y-86850000D02*
X178449967Y-87613556D01*
X178449967Y-101131503D02*
X183500000Y-106181536D01*
X178449967Y-87613556D02*
X178449967Y-101131503D01*
X183500000Y-135163002D02*
X181628001Y-137035001D01*
X183500000Y-106181536D02*
X183500000Y-135163002D01*
X175775002Y-94175998D02*
X175775002Y-94975002D01*
X174401099Y-91501099D02*
X174401099Y-92802095D01*
X181024999Y-131224001D02*
X181040000Y-131239002D01*
X182599978Y-106554336D02*
X182599978Y-129001020D01*
X177549945Y-101504303D02*
X182599978Y-106554336D01*
X177549945Y-96749945D02*
X177549945Y-101504303D01*
X175775002Y-94975002D02*
X177549945Y-96749945D01*
X172250000Y-88450000D02*
X172250000Y-89350000D01*
X172250000Y-89350000D02*
X174401099Y-91501099D01*
X181040000Y-131239002D02*
X181040000Y-134537208D01*
X174401099Y-92802095D02*
X175775002Y-94175998D01*
X181040000Y-134537208D02*
X181040000Y-135810000D01*
X181024999Y-130575999D02*
X181024999Y-131224001D01*
X182599978Y-129001020D02*
X181024999Y-130575999D01*
D69*
X125500000Y-123000000D02*
X125500000Y-125000000D01*
X127500000Y-125000000D02*
X127500000Y-123000000D01*
X127500000Y-129000000D02*
X127500000Y-127000000D01*
D67*
X137000000Y-125000000D02*
X138800000Y-125000000D01*
X162136411Y-135400000D02*
X162800000Y-134736411D01*
X162800000Y-129400000D02*
X161900000Y-128500000D01*
X161900000Y-128500000D02*
X161900000Y-125964998D01*
X138800000Y-125000000D02*
X139000000Y-125200000D01*
X139000000Y-125200000D02*
X139000000Y-134900000D01*
X139000000Y-134900000D02*
X139500000Y-135400000D01*
X139500000Y-135400000D02*
X162136411Y-135400000D01*
X162800000Y-134736411D02*
X162800000Y-129400000D01*
X161900000Y-125964998D02*
X161335002Y-125400000D01*
X161335002Y-125400000D02*
X160264998Y-125400000D01*
X160024999Y-125160001D02*
X160024999Y-122225001D01*
X160264998Y-125400000D02*
X160024999Y-125160001D01*
X160024999Y-122225001D02*
X160600000Y-121650000D01*
X160600000Y-121650000D02*
X160800000Y-121650000D01*
X133500000Y-117300000D02*
X133500000Y-115500000D01*
X131700000Y-135900000D02*
X162600000Y-135900000D01*
X133500000Y-115500000D02*
X133300000Y-115300000D01*
X133300000Y-115300000D02*
X130900000Y-115300000D01*
X130900000Y-115300000D02*
X130100000Y-116100000D01*
X130100000Y-116100000D02*
X130100000Y-134300000D01*
X130100000Y-134300000D02*
X131700000Y-135900000D01*
X162600000Y-135900000D02*
X163300000Y-135200000D01*
X163300000Y-135200000D02*
X163300000Y-130100000D01*
X163300000Y-130100000D02*
X166400000Y-127000000D01*
X166400000Y-127000000D02*
X174100000Y-127000000D01*
X174100000Y-127000000D02*
X174500000Y-126600000D01*
X174500000Y-126600000D02*
X174500000Y-125850000D01*
D69*
X132000000Y-125000000D02*
X132000000Y-127000000D01*
X132000000Y-121000000D02*
X132000000Y-123000000D01*
X134000000Y-123000000D02*
X134000000Y-121000000D01*
X134000000Y-127000000D02*
X134000000Y-125000000D01*
X144100000Y-116200000D02*
X144100000Y-117600000D01*
X142500000Y-117600000D02*
X142500000Y-116200000D01*
X142500000Y-117585102D02*
X142500000Y-117600000D01*
X141714898Y-116800000D02*
X142500000Y-117585102D01*
X139735000Y-116800000D02*
X141714898Y-116800000D01*
X142500000Y-120800010D02*
X142500000Y-119199988D01*
D67*
X163450000Y-95800000D02*
X163450000Y-96000000D01*
X163450000Y-96000000D02*
X161100045Y-98349955D01*
X161100045Y-98349955D02*
X161100045Y-103992531D01*
X161100045Y-103992531D02*
X161100045Y-104487505D01*
D68*
X160500035Y-108341516D02*
X160500035Y-106775144D01*
X161200000Y-109041481D02*
X160500035Y-108341516D01*
X160500035Y-106775144D02*
X161400036Y-105875143D01*
X162700000Y-117800000D02*
X161200000Y-116300000D01*
X163950000Y-117600000D02*
X163300000Y-117600000D01*
X163100000Y-117800000D02*
X162700000Y-117800000D01*
X161400036Y-105875143D02*
X161400036Y-104787496D01*
X163300000Y-117600000D02*
X163100000Y-117800000D01*
X161200000Y-116300000D02*
X161200000Y-109041481D01*
X161400036Y-104787496D02*
X161100045Y-104487505D01*
D69*
X145500000Y-133500000D02*
X144000000Y-133500000D01*
X145500000Y-132000000D02*
X145500000Y-133500000D01*
X146500001Y-132499999D02*
X147000000Y-132000000D01*
X146292894Y-132500000D02*
X146500001Y-132499999D01*
X145999999Y-132499999D02*
X146500001Y-132499999D01*
X146000000Y-132500000D02*
X146292894Y-132500000D01*
X145500000Y-132000000D02*
X146000000Y-132500000D01*
X145999999Y-132499999D02*
X146292894Y-132500000D01*
X147000000Y-129000000D02*
X147000000Y-130500000D01*
X144792894Y-129000000D02*
X145500000Y-129000000D01*
X144500000Y-129000000D02*
X144792894Y-129000000D01*
X143000000Y-130500000D02*
X144500000Y-129000000D01*
X144500000Y-130000000D02*
X145000001Y-129499999D01*
X144500000Y-130500000D02*
X144500000Y-130000000D01*
X145000001Y-129499999D02*
X145500000Y-129000000D01*
X150500000Y-102000000D02*
X152500000Y-102000000D01*
X146500000Y-102000000D02*
X148500000Y-102000000D01*
X142500000Y-102000000D02*
X144500000Y-102000000D01*
X140500000Y-104000000D02*
X140500000Y-102000000D01*
X144500000Y-104000000D02*
X142500000Y-104000000D01*
X148500000Y-104000000D02*
X146500000Y-104000000D01*
X152500000Y-104000000D02*
X150500000Y-104000000D01*
X156750000Y-104750000D02*
X155250000Y-104750000D01*
X155250000Y-104750000D02*
X154500000Y-104000000D01*
D68*
X167300000Y-116250000D02*
X168050000Y-117000000D01*
X168050000Y-117000000D02*
X169300000Y-117000000D01*
D67*
X160650034Y-105020167D02*
X160650034Y-105515141D01*
X160425035Y-96925035D02*
X160425035Y-104795168D01*
X160425035Y-104795168D02*
X160650034Y-105020167D01*
X157500000Y-94000000D02*
X160425035Y-96925035D01*
X157049974Y-92006498D02*
X156443502Y-92006498D01*
X156443502Y-92006498D02*
X156250000Y-92200000D01*
X156250000Y-90600000D02*
X156250000Y-92200000D01*
X163524999Y-90024999D02*
X163874974Y-90374974D01*
X163874974Y-90374974D02*
X163900000Y-90374974D01*
X164924510Y-87379821D02*
X164924510Y-87874795D01*
X164924510Y-87175490D02*
X164924510Y-87379821D01*
X157289999Y-90024999D02*
X163524999Y-90024999D01*
X165750000Y-86350000D02*
X164924510Y-87175490D01*
X156714998Y-90600000D02*
X157289999Y-90024999D01*
X166650000Y-86350000D02*
X165750000Y-86350000D01*
X156250000Y-90600000D02*
X156714998Y-90600000D01*
X147300000Y-75475000D02*
X149696412Y-75475000D01*
X149696412Y-75475000D02*
X151319999Y-73851413D01*
X151319999Y-73851413D02*
X151319999Y-70849999D01*
X151319999Y-70849999D02*
X149970000Y-69500000D01*
X137970000Y-69500000D02*
X139879188Y-69500000D01*
X139879188Y-69500000D02*
X141729189Y-67649999D01*
X141729189Y-67649999D02*
X143824999Y-67649999D01*
X143824999Y-67649999D02*
X144525000Y-68350000D01*
X144525000Y-68350000D02*
X144550000Y-68350000D01*
X144550000Y-68350000D02*
X147275000Y-68350000D01*
X147275000Y-68350000D02*
X147300000Y-68325000D01*
X147300000Y-68325000D02*
X148795000Y-68325000D01*
X148795000Y-68325000D02*
X149970000Y-69500000D01*
D71*
X150101100Y-69003600D02*
X150101100Y-69253600D01*
D67*
X151374999Y-94710001D02*
X151764998Y-95100000D01*
X160099991Y-111851538D02*
X160449990Y-112201537D01*
X159975024Y-111726571D02*
X160099991Y-111851538D01*
X151750000Y-92200000D02*
X151750000Y-92900000D01*
X159975024Y-100175024D02*
X159975024Y-111726571D01*
X151374999Y-93275001D02*
X151374999Y-94710001D01*
X151750000Y-92900000D02*
X151374999Y-93275001D01*
X151764998Y-95100000D02*
X154900000Y-95100000D01*
X154900000Y-95100000D02*
X159975024Y-100175024D01*
X160700000Y-133200000D02*
X159450001Y-131950001D01*
X159450001Y-131950001D02*
X159450001Y-113655002D01*
X159450001Y-113655002D02*
X159592340Y-113512663D01*
X164024499Y-87380520D02*
X164024499Y-87875494D01*
X165555019Y-85850000D02*
X164024499Y-87380520D01*
X157008651Y-89454938D02*
X162804022Y-89454938D01*
X154125000Y-89800000D02*
X156663589Y-89800000D01*
X162804022Y-89454938D02*
X162908971Y-89349989D01*
X156663589Y-89800000D02*
X157008651Y-89454938D01*
X166650000Y-85850000D02*
X165555019Y-85850000D01*
X151750000Y-90600000D02*
X151750000Y-89975000D01*
X151750000Y-89975000D02*
X151925000Y-89800000D01*
X151925000Y-89800000D02*
X154125000Y-89800000D01*
X151750000Y-90600000D02*
X151750000Y-92200000D01*
X151750000Y-92400000D02*
X151750000Y-92200000D01*
X148080000Y-72550000D02*
X149200000Y-72550000D01*
X149200000Y-72550000D02*
X149450000Y-72300000D01*
D68*
X127950000Y-102000000D02*
X127950000Y-104300000D01*
X127000000Y-106700000D02*
X127000000Y-105250000D01*
X127000000Y-105250000D02*
X127950000Y-104300000D01*
D67*
X172240000Y-129600000D02*
X173840000Y-131200000D01*
X173840000Y-131200000D02*
X174250000Y-131200000D01*
X174250000Y-131200000D02*
X174250000Y-131000000D01*
X172240000Y-135200000D02*
X174250000Y-133190000D01*
X174250000Y-133190000D02*
X174250000Y-133100000D01*
D70*
G36*
X136350000Y-107062132D02*
X136350000Y-113337868D01*
X135437868Y-114250000D01*
X129670711Y-114250000D01*
X129613309Y-114261418D01*
X129399453Y-114350000D01*
X122500000Y-114350000D01*
X122458211Y-114355939D01*
X122419731Y-114373284D01*
X122393934Y-114393934D01*
X121393934Y-115393934D01*
X121368584Y-115427683D01*
X121353640Y-115467157D01*
X121350000Y-115500000D01*
X121350000Y-117437868D01*
X120437868Y-118350000D01*
X116562132Y-118350000D01*
X115897177Y-117685045D01*
X115897177Y-117050000D01*
X115891463Y-116978339D01*
X115853822Y-116856795D01*
X115783811Y-116750549D01*
X115686972Y-116668014D01*
X115670000Y-116660363D01*
X115670000Y-115795000D01*
X115664816Y-115742133D01*
X115660188Y-115689228D01*
X115659344Y-115686323D01*
X115659049Y-115683315D01*
X115650000Y-115653343D01*
X115650000Y-112813173D01*
X115906586Y-112556587D01*
X115940313Y-112515527D01*
X115974440Y-112474856D01*
X115975896Y-112472207D01*
X115977816Y-112469870D01*
X116002896Y-112423096D01*
X116028503Y-112376517D01*
X116029419Y-112373630D01*
X116030845Y-112370970D01*
X116046363Y-112320214D01*
X116062435Y-112269549D01*
X116062772Y-112266546D01*
X116063656Y-112263654D01*
X116069021Y-112210831D01*
X116074944Y-112158028D01*
X116074985Y-112152113D01*
X116074996Y-112152007D01*
X116074987Y-112151908D01*
X116075000Y-112150000D01*
X116075000Y-107738172D01*
X116363173Y-107450000D01*
X121530762Y-107450000D01*
X121602823Y-107522061D01*
X121602823Y-108450000D01*
X121608537Y-108521661D01*
X121646178Y-108643205D01*
X121716189Y-108749451D01*
X121813028Y-108831986D01*
X121929026Y-108884275D01*
X122055000Y-108902177D01*
X122755000Y-108902177D01*
X122826661Y-108896463D01*
X122948205Y-108858822D01*
X123054451Y-108788811D01*
X123136986Y-108691972D01*
X123189275Y-108575974D01*
X123207177Y-108450000D01*
X123207177Y-107300000D01*
X123201463Y-107228339D01*
X123177202Y-107150000D01*
X125846855Y-107150000D01*
X125846855Y-107325000D01*
X125855109Y-107428510D01*
X125909478Y-107604074D01*
X126010606Y-107757541D01*
X126150484Y-107876758D01*
X126318038Y-107952286D01*
X126500000Y-107978145D01*
X127500000Y-107978145D01*
X127603510Y-107969891D01*
X127779074Y-107915522D01*
X127932541Y-107814394D01*
X128051758Y-107674516D01*
X128127286Y-107506962D01*
X128153145Y-107325000D01*
X128153145Y-106658987D01*
X128662132Y-106150000D01*
X135437868Y-106150000D01*
X136350000Y-107062132D01*
X136350000Y-107062132D01*
G37*
X136350000Y-107062132D02*
X136350000Y-113337868D01*
X135437868Y-114250000D01*
X129670711Y-114250000D01*
X129613309Y-114261418D01*
X129399453Y-114350000D01*
X122500000Y-114350000D01*
X122458211Y-114355939D01*
X122419731Y-114373284D01*
X122393934Y-114393934D01*
X121393934Y-115393934D01*
X121368584Y-115427683D01*
X121353640Y-115467157D01*
X121350000Y-115500000D01*
X121350000Y-117437868D01*
X120437868Y-118350000D01*
X116562132Y-118350000D01*
X115897177Y-117685045D01*
X115897177Y-117050000D01*
X115891463Y-116978339D01*
X115853822Y-116856795D01*
X115783811Y-116750549D01*
X115686972Y-116668014D01*
X115670000Y-116660363D01*
X115670000Y-115795000D01*
X115664816Y-115742133D01*
X115660188Y-115689228D01*
X115659344Y-115686323D01*
X115659049Y-115683315D01*
X115650000Y-115653343D01*
X115650000Y-112813173D01*
X115906586Y-112556587D01*
X115940313Y-112515527D01*
X115974440Y-112474856D01*
X115975896Y-112472207D01*
X115977816Y-112469870D01*
X116002896Y-112423096D01*
X116028503Y-112376517D01*
X116029419Y-112373630D01*
X116030845Y-112370970D01*
X116046363Y-112320214D01*
X116062435Y-112269549D01*
X116062772Y-112266546D01*
X116063656Y-112263654D01*
X116069021Y-112210831D01*
X116074944Y-112158028D01*
X116074985Y-112152113D01*
X116074996Y-112152007D01*
X116074987Y-112151908D01*
X116075000Y-112150000D01*
X116075000Y-107738172D01*
X116363173Y-107450000D01*
X121530762Y-107450000D01*
X121602823Y-107522061D01*
X121602823Y-108450000D01*
X121608537Y-108521661D01*
X121646178Y-108643205D01*
X121716189Y-108749451D01*
X121813028Y-108831986D01*
X121929026Y-108884275D01*
X122055000Y-108902177D01*
X122755000Y-108902177D01*
X122826661Y-108896463D01*
X122948205Y-108858822D01*
X123054451Y-108788811D01*
X123136986Y-108691972D01*
X123189275Y-108575974D01*
X123207177Y-108450000D01*
X123207177Y-107300000D01*
X123201463Y-107228339D01*
X123177202Y-107150000D01*
X125846855Y-107150000D01*
X125846855Y-107325000D01*
X125855109Y-107428510D01*
X125909478Y-107604074D01*
X126010606Y-107757541D01*
X126150484Y-107876758D01*
X126318038Y-107952286D01*
X126500000Y-107978145D01*
X127500000Y-107978145D01*
X127603510Y-107969891D01*
X127779074Y-107915522D01*
X127932541Y-107814394D01*
X128051758Y-107674516D01*
X128127286Y-107506962D01*
X128153145Y-107325000D01*
X128153145Y-106658987D01*
X128662132Y-106150000D01*
X135437868Y-106150000D01*
X136350000Y-107062132D01*
G36*
X127850000Y-90562132D02*
X127850000Y-100597339D01*
X127500000Y-100597339D01*
X127412415Y-100604323D01*
X127263860Y-100650328D01*
X127134004Y-100735897D01*
X127033128Y-100854256D01*
X126969219Y-100996032D01*
X126947339Y-101150000D01*
X126947339Y-102850000D01*
X126954323Y-102937585D01*
X127000328Y-103086140D01*
X127039944Y-103146259D01*
X127033128Y-103154256D01*
X126969219Y-103296032D01*
X126947339Y-103450000D01*
X126947339Y-104242001D01*
X126839340Y-104350000D01*
X126000000Y-104350000D01*
X125958211Y-104355939D01*
X125919731Y-104373284D01*
X125893934Y-104393934D01*
X124765529Y-105522339D01*
X124500000Y-105522339D01*
X124412415Y-105529323D01*
X124263860Y-105575328D01*
X124134004Y-105660897D01*
X124033128Y-105779256D01*
X123969219Y-105921032D01*
X123947339Y-106075000D01*
X123947339Y-106340529D01*
X123937868Y-106350000D01*
X122410660Y-106350000D01*
X122330330Y-106269670D01*
X122276840Y-106225733D01*
X122223725Y-106181165D01*
X122220267Y-106179264D01*
X122217221Y-106176762D01*
X122156174Y-106144028D01*
X122095456Y-106110648D01*
X122091698Y-106109456D01*
X122088222Y-106107592D01*
X122021954Y-106087332D01*
X121955934Y-106066389D01*
X121952016Y-106065950D01*
X121948243Y-106064796D01*
X121879284Y-106057791D01*
X121810472Y-106050073D01*
X121802769Y-106050019D01*
X121802618Y-106050004D01*
X121802478Y-106050017D01*
X121800000Y-106050000D01*
X117702661Y-106050000D01*
X117702661Y-105800000D01*
X117695677Y-105712415D01*
X117649672Y-105563860D01*
X117564103Y-105434004D01*
X117445744Y-105333128D01*
X117303968Y-105269219D01*
X117150000Y-105247339D01*
X117113133Y-105247339D01*
X116967425Y-105186089D01*
X116794531Y-105150599D01*
X116618036Y-105149367D01*
X116444663Y-105182440D01*
X116284031Y-105247339D01*
X116250000Y-105247339D01*
X116162415Y-105254323D01*
X116013860Y-105300328D01*
X115975001Y-105325934D01*
X115975001Y-101597661D01*
X116900000Y-101597661D01*
X116987585Y-101590677D01*
X117136140Y-101544672D01*
X117265996Y-101459103D01*
X117366872Y-101340744D01*
X117430781Y-101198968D01*
X117452661Y-101045000D01*
X117452661Y-100345000D01*
X117445677Y-100257415D01*
X117399672Y-100108860D01*
X117314103Y-99979004D01*
X117195744Y-99878128D01*
X117075000Y-99823700D01*
X117075000Y-99625000D01*
X117068243Y-99556093D01*
X117062201Y-99487036D01*
X117061101Y-99483249D01*
X117060716Y-99479324D01*
X117040685Y-99412976D01*
X117021364Y-99346473D01*
X117019550Y-99342974D01*
X117018410Y-99339197D01*
X116985871Y-99278000D01*
X116954003Y-99216521D01*
X116951543Y-99213440D01*
X116949691Y-99209956D01*
X116905893Y-99156254D01*
X116862683Y-99102126D01*
X116857272Y-99096639D01*
X116857178Y-99096524D01*
X116857072Y-99096436D01*
X116855330Y-99094670D01*
X115750000Y-97989340D01*
X115750000Y-95410660D01*
X116830330Y-94330330D01*
X116874289Y-94276813D01*
X116918835Y-94223725D01*
X116920734Y-94220270D01*
X116923239Y-94217221D01*
X116955983Y-94156154D01*
X116989352Y-94095456D01*
X116990545Y-94091696D01*
X116992408Y-94088221D01*
X117004460Y-94048802D01*
X117053510Y-94044891D01*
X117229074Y-93990522D01*
X117382541Y-93889394D01*
X117501758Y-93749516D01*
X117577286Y-93581962D01*
X117603145Y-93400000D01*
X117603145Y-92700000D01*
X117594891Y-92596490D01*
X117540522Y-92420926D01*
X117439394Y-92267459D01*
X117299516Y-92148242D01*
X117194927Y-92101097D01*
X117229074Y-92090522D01*
X117382541Y-91989394D01*
X117501758Y-91849516D01*
X117577286Y-91681962D01*
X117603145Y-91500000D01*
X117603145Y-90800000D01*
X117594891Y-90696490D01*
X117540522Y-90520926D01*
X117439394Y-90367459D01*
X117299516Y-90248242D01*
X117131962Y-90172714D01*
X117050000Y-90161066D01*
X117050000Y-89810660D01*
X117180330Y-89680330D01*
X117205243Y-89650000D01*
X126937868Y-89650000D01*
X127850000Y-90562132D01*
X127850000Y-90562132D01*
G37*
X127850000Y-90562132D02*
X127850000Y-100597339D01*
X127500000Y-100597339D01*
X127412415Y-100604323D01*
X127263860Y-100650328D01*
X127134004Y-100735897D01*
X127033128Y-100854256D01*
X126969219Y-100996032D01*
X126947339Y-101150000D01*
X126947339Y-102850000D01*
X126954323Y-102937585D01*
X127000328Y-103086140D01*
X127039944Y-103146259D01*
X127033128Y-103154256D01*
X126969219Y-103296032D01*
X126947339Y-103450000D01*
X126947339Y-104242001D01*
X126839340Y-104350000D01*
X126000000Y-104350000D01*
X125958211Y-104355939D01*
X125919731Y-104373284D01*
X125893934Y-104393934D01*
X124765529Y-105522339D01*
X124500000Y-105522339D01*
X124412415Y-105529323D01*
X124263860Y-105575328D01*
X124134004Y-105660897D01*
X124033128Y-105779256D01*
X123969219Y-105921032D01*
X123947339Y-106075000D01*
X123947339Y-106340529D01*
X123937868Y-106350000D01*
X122410660Y-106350000D01*
X122330330Y-106269670D01*
X122276840Y-106225733D01*
X122223725Y-106181165D01*
X122220267Y-106179264D01*
X122217221Y-106176762D01*
X122156174Y-106144028D01*
X122095456Y-106110648D01*
X122091698Y-106109456D01*
X122088222Y-106107592D01*
X122021954Y-106087332D01*
X121955934Y-106066389D01*
X121952016Y-106065950D01*
X121948243Y-106064796D01*
X121879284Y-106057791D01*
X121810472Y-106050073D01*
X121802769Y-106050019D01*
X121802618Y-106050004D01*
X121802478Y-106050017D01*
X121800000Y-106050000D01*
X117702661Y-106050000D01*
X117702661Y-105800000D01*
X117695677Y-105712415D01*
X117649672Y-105563860D01*
X117564103Y-105434004D01*
X117445744Y-105333128D01*
X117303968Y-105269219D01*
X117150000Y-105247339D01*
X117113133Y-105247339D01*
X116967425Y-105186089D01*
X116794531Y-105150599D01*
X116618036Y-105149367D01*
X116444663Y-105182440D01*
X116284031Y-105247339D01*
X116250000Y-105247339D01*
X116162415Y-105254323D01*
X116013860Y-105300328D01*
X115975001Y-105325934D01*
X115975001Y-101597661D01*
X116900000Y-101597661D01*
X116987585Y-101590677D01*
X117136140Y-101544672D01*
X117265996Y-101459103D01*
X117366872Y-101340744D01*
X117430781Y-101198968D01*
X117452661Y-101045000D01*
X117452661Y-100345000D01*
X117445677Y-100257415D01*
X117399672Y-100108860D01*
X117314103Y-99979004D01*
X117195744Y-99878128D01*
X117075000Y-99823700D01*
X117075000Y-99625000D01*
X117068243Y-99556093D01*
X117062201Y-99487036D01*
X117061101Y-99483249D01*
X117060716Y-99479324D01*
X117040685Y-99412976D01*
X117021364Y-99346473D01*
X117019550Y-99342974D01*
X117018410Y-99339197D01*
X116985871Y-99278000D01*
X116954003Y-99216521D01*
X116951543Y-99213440D01*
X116949691Y-99209956D01*
X116905893Y-99156254D01*
X116862683Y-99102126D01*
X116857272Y-99096639D01*
X116857178Y-99096524D01*
X116857072Y-99096436D01*
X116855330Y-99094670D01*
X115750000Y-97989340D01*
X115750000Y-95410660D01*
X116830330Y-94330330D01*
X116874289Y-94276813D01*
X116918835Y-94223725D01*
X116920734Y-94220270D01*
X116923239Y-94217221D01*
X116955983Y-94156154D01*
X116989352Y-94095456D01*
X116990545Y-94091696D01*
X116992408Y-94088221D01*
X117004460Y-94048802D01*
X117053510Y-94044891D01*
X117229074Y-93990522D01*
X117382541Y-93889394D01*
X117501758Y-93749516D01*
X117577286Y-93581962D01*
X117603145Y-93400000D01*
X117603145Y-92700000D01*
X117594891Y-92596490D01*
X117540522Y-92420926D01*
X117439394Y-92267459D01*
X117299516Y-92148242D01*
X117194927Y-92101097D01*
X117229074Y-92090522D01*
X117382541Y-91989394D01*
X117501758Y-91849516D01*
X117577286Y-91681962D01*
X117603145Y-91500000D01*
X117603145Y-90800000D01*
X117594891Y-90696490D01*
X117540522Y-90520926D01*
X117439394Y-90367459D01*
X117299516Y-90248242D01*
X117131962Y-90172714D01*
X117050000Y-90161066D01*
X117050000Y-89810660D01*
X117180330Y-89680330D01*
X117205243Y-89650000D01*
X126937868Y-89650000D01*
X127850000Y-90562132D01*
G36*
X108173140Y-85155361D02*
X108316181Y-85303485D01*
X108485269Y-85421003D01*
X108673962Y-85503442D01*
X108875074Y-85547659D01*
X109080945Y-85551971D01*
X109283732Y-85516215D01*
X109475712Y-85441750D01*
X109649573Y-85331415D01*
X109798691Y-85189412D01*
X109826493Y-85150000D01*
X111547918Y-85150000D01*
X112198959Y-85801041D01*
X112259647Y-85850891D01*
X112319778Y-85901346D01*
X112323693Y-85903498D01*
X112327149Y-85906337D01*
X112396367Y-85943451D01*
X112465149Y-85981265D01*
X112469409Y-85982616D01*
X112473349Y-85984729D01*
X112548477Y-86007698D01*
X112623275Y-86031425D01*
X112627713Y-86031923D01*
X112631992Y-86033231D01*
X112710161Y-86041171D01*
X112788132Y-86049917D01*
X112796866Y-86049978D01*
X112797033Y-86049995D01*
X112797188Y-86049980D01*
X112800000Y-86050000D01*
X114660428Y-86050000D01*
X114658663Y-86052149D01*
X114621549Y-86121367D01*
X114583735Y-86190149D01*
X114582384Y-86194409D01*
X114580271Y-86198349D01*
X114557298Y-86273489D01*
X114550793Y-86293995D01*
X114395000Y-86271855D01*
X113795000Y-86271855D01*
X113691490Y-86280109D01*
X113515926Y-86334478D01*
X113362459Y-86435606D01*
X113243242Y-86575484D01*
X113167714Y-86743038D01*
X113141855Y-86925000D01*
X113141855Y-88475000D01*
X113150109Y-88578510D01*
X113204478Y-88754074D01*
X113250000Y-88823156D01*
X113250000Y-90184990D01*
X113170926Y-90209478D01*
X113017459Y-90310606D01*
X112898242Y-90450484D01*
X112822714Y-90618038D01*
X112796855Y-90800000D01*
X112796855Y-91500000D01*
X112805109Y-91603510D01*
X112859478Y-91779074D01*
X112960606Y-91932541D01*
X113100484Y-92051758D01*
X113205073Y-92098903D01*
X113170926Y-92109478D01*
X113017459Y-92210606D01*
X112898242Y-92350484D01*
X112822714Y-92518038D01*
X112796855Y-92700000D01*
X112796855Y-93400000D01*
X112805109Y-93503510D01*
X112859478Y-93679074D01*
X112960606Y-93832541D01*
X113100484Y-93951758D01*
X113250000Y-94019155D01*
X113250000Y-98400000D01*
X113257660Y-98478124D01*
X113264505Y-98556358D01*
X113265752Y-98560649D01*
X113266188Y-98565099D01*
X113288887Y-98640280D01*
X113310787Y-98715662D01*
X113312844Y-98719630D01*
X113314136Y-98723910D01*
X113351004Y-98793249D01*
X113387130Y-98862943D01*
X113389918Y-98866436D01*
X113392017Y-98870383D01*
X113441649Y-98931238D01*
X113490626Y-98992590D01*
X113496763Y-98998814D01*
X113496865Y-98998939D01*
X113496981Y-98999035D01*
X113498959Y-99001041D01*
X114375001Y-99877083D01*
X114375001Y-105975001D01*
X114382661Y-106053125D01*
X114389506Y-106131359D01*
X114390753Y-106135650D01*
X114391189Y-106140100D01*
X114413888Y-106215281D01*
X114435788Y-106290663D01*
X114437845Y-106294631D01*
X114439137Y-106298911D01*
X114476005Y-106368250D01*
X114512131Y-106437944D01*
X114514919Y-106441437D01*
X114517018Y-106445384D01*
X114566650Y-106506239D01*
X114615627Y-106567591D01*
X114621764Y-106573815D01*
X114621866Y-106573940D01*
X114621982Y-106574036D01*
X114623960Y-106576042D01*
X114850000Y-106802082D01*
X114850000Y-107080037D01*
X114822165Y-107131950D01*
X114787670Y-107194695D01*
X114786437Y-107198582D01*
X114784512Y-107202172D01*
X114763582Y-107270630D01*
X114741936Y-107338868D01*
X114741482Y-107342917D01*
X114740290Y-107346815D01*
X114733054Y-107418055D01*
X114725076Y-107489179D01*
X114725020Y-107497147D01*
X114725005Y-107497295D01*
X114725018Y-107497433D01*
X114725000Y-107500000D01*
X114725000Y-111828985D01*
X113703985Y-112850000D01*
X111500000Y-112850000D01*
X111458211Y-112855939D01*
X111419731Y-112873284D01*
X111393934Y-112893934D01*
X110393934Y-113893934D01*
X110368584Y-113927683D01*
X110353640Y-113967157D01*
X110350000Y-114000000D01*
X110350000Y-114398421D01*
X110348242Y-114400484D01*
X110272714Y-114568038D01*
X110246855Y-114750000D01*
X110246855Y-115950000D01*
X110255109Y-116053510D01*
X110309478Y-116229074D01*
X110350000Y-116290568D01*
X110350000Y-136337868D01*
X109437868Y-137250000D01*
X99394581Y-137250000D01*
X99349742Y-137226158D01*
X99308675Y-137192664D01*
X99274898Y-137151836D01*
X99249693Y-137105221D01*
X99234022Y-137054595D01*
X99225000Y-136968758D01*
X99225000Y-114655553D01*
X105547569Y-114655553D01*
X105613062Y-115012396D01*
X105746619Y-115349723D01*
X105943152Y-115654683D01*
X106195177Y-115915662D01*
X106493093Y-116122719D01*
X106825553Y-116267967D01*
X107179893Y-116345874D01*
X107542617Y-116353472D01*
X107899909Y-116290472D01*
X108238159Y-116159273D01*
X108544485Y-115964873D01*
X108807217Y-115714677D01*
X109016348Y-115418214D01*
X109163914Y-115086776D01*
X109244293Y-114732988D01*
X109250079Y-114318598D01*
X109179610Y-113962704D01*
X109041356Y-113627275D01*
X108840584Y-113325088D01*
X108584940Y-113067654D01*
X108284162Y-112864776D01*
X107949707Y-112724184D01*
X107594313Y-112651233D01*
X107231518Y-112648700D01*
X106875141Y-112716682D01*
X106538755Y-112852591D01*
X106235174Y-113051249D01*
X105975961Y-113305089D01*
X105770989Y-113604444D01*
X105628065Y-113937909D01*
X105552634Y-114292785D01*
X105547569Y-114655553D01*
X99225000Y-114655553D01*
X99225000Y-98055553D01*
X105447569Y-98055553D01*
X105513062Y-98412396D01*
X105646619Y-98749723D01*
X105843152Y-99054683D01*
X106095177Y-99315662D01*
X106393093Y-99522719D01*
X106725553Y-99667967D01*
X107079893Y-99745874D01*
X107442617Y-99753472D01*
X107799909Y-99690472D01*
X108138159Y-99559273D01*
X108444485Y-99364873D01*
X108707217Y-99114677D01*
X108916348Y-98818214D01*
X109063914Y-98486776D01*
X109144293Y-98132988D01*
X109150079Y-97718598D01*
X109079610Y-97362704D01*
X108941356Y-97027275D01*
X108740584Y-96725088D01*
X108484940Y-96467654D01*
X108184162Y-96264776D01*
X107849707Y-96124184D01*
X107494313Y-96051233D01*
X107131518Y-96048700D01*
X106775141Y-96116682D01*
X106438755Y-96252591D01*
X106135174Y-96451249D01*
X105875961Y-96705089D01*
X105670989Y-97004444D01*
X105528065Y-97337909D01*
X105452634Y-97692785D01*
X105447569Y-98055553D01*
X99225000Y-98055553D01*
X99225000Y-85287132D01*
X99362132Y-85150000D01*
X108169685Y-85150000D01*
X108173140Y-85155361D01*
X108173140Y-85155361D01*
G37*
X108173140Y-85155361D02*
X108316181Y-85303485D01*
X108485269Y-85421003D01*
X108673962Y-85503442D01*
X108875074Y-85547659D01*
X109080945Y-85551971D01*
X109283732Y-85516215D01*
X109475712Y-85441750D01*
X109649573Y-85331415D01*
X109798691Y-85189412D01*
X109826493Y-85150000D01*
X111547918Y-85150000D01*
X112198959Y-85801041D01*
X112259647Y-85850891D01*
X112319778Y-85901346D01*
X112323693Y-85903498D01*
X112327149Y-85906337D01*
X112396367Y-85943451D01*
X112465149Y-85981265D01*
X112469409Y-85982616D01*
X112473349Y-85984729D01*
X112548477Y-86007698D01*
X112623275Y-86031425D01*
X112627713Y-86031923D01*
X112631992Y-86033231D01*
X112710161Y-86041171D01*
X112788132Y-86049917D01*
X112796866Y-86049978D01*
X112797033Y-86049995D01*
X112797188Y-86049980D01*
X112800000Y-86050000D01*
X114660428Y-86050000D01*
X114658663Y-86052149D01*
X114621549Y-86121367D01*
X114583735Y-86190149D01*
X114582384Y-86194409D01*
X114580271Y-86198349D01*
X114557298Y-86273489D01*
X114550793Y-86293995D01*
X114395000Y-86271855D01*
X113795000Y-86271855D01*
X113691490Y-86280109D01*
X113515926Y-86334478D01*
X113362459Y-86435606D01*
X113243242Y-86575484D01*
X113167714Y-86743038D01*
X113141855Y-86925000D01*
X113141855Y-88475000D01*
X113150109Y-88578510D01*
X113204478Y-88754074D01*
X113250000Y-88823156D01*
X113250000Y-90184990D01*
X113170926Y-90209478D01*
X113017459Y-90310606D01*
X112898242Y-90450484D01*
X112822714Y-90618038D01*
X112796855Y-90800000D01*
X112796855Y-91500000D01*
X112805109Y-91603510D01*
X112859478Y-91779074D01*
X112960606Y-91932541D01*
X113100484Y-92051758D01*
X113205073Y-92098903D01*
X113170926Y-92109478D01*
X113017459Y-92210606D01*
X112898242Y-92350484D01*
X112822714Y-92518038D01*
X112796855Y-92700000D01*
X112796855Y-93400000D01*
X112805109Y-93503510D01*
X112859478Y-93679074D01*
X112960606Y-93832541D01*
X113100484Y-93951758D01*
X113250000Y-94019155D01*
X113250000Y-98400000D01*
X113257660Y-98478124D01*
X113264505Y-98556358D01*
X113265752Y-98560649D01*
X113266188Y-98565099D01*
X113288887Y-98640280D01*
X113310787Y-98715662D01*
X113312844Y-98719630D01*
X113314136Y-98723910D01*
X113351004Y-98793249D01*
X113387130Y-98862943D01*
X113389918Y-98866436D01*
X113392017Y-98870383D01*
X113441649Y-98931238D01*
X113490626Y-98992590D01*
X113496763Y-98998814D01*
X113496865Y-98998939D01*
X113496981Y-98999035D01*
X113498959Y-99001041D01*
X114375001Y-99877083D01*
X114375001Y-105975001D01*
X114382661Y-106053125D01*
X114389506Y-106131359D01*
X114390753Y-106135650D01*
X114391189Y-106140100D01*
X114413888Y-106215281D01*
X114435788Y-106290663D01*
X114437845Y-106294631D01*
X114439137Y-106298911D01*
X114476005Y-106368250D01*
X114512131Y-106437944D01*
X114514919Y-106441437D01*
X114517018Y-106445384D01*
X114566650Y-106506239D01*
X114615627Y-106567591D01*
X114621764Y-106573815D01*
X114621866Y-106573940D01*
X114621982Y-106574036D01*
X114623960Y-106576042D01*
X114850000Y-106802082D01*
X114850000Y-107080037D01*
X114822165Y-107131950D01*
X114787670Y-107194695D01*
X114786437Y-107198582D01*
X114784512Y-107202172D01*
X114763582Y-107270630D01*
X114741936Y-107338868D01*
X114741482Y-107342917D01*
X114740290Y-107346815D01*
X114733054Y-107418055D01*
X114725076Y-107489179D01*
X114725020Y-107497147D01*
X114725005Y-107497295D01*
X114725018Y-107497433D01*
X114725000Y-107500000D01*
X114725000Y-111828985D01*
X113703985Y-112850000D01*
X111500000Y-112850000D01*
X111458211Y-112855939D01*
X111419731Y-112873284D01*
X111393934Y-112893934D01*
X110393934Y-113893934D01*
X110368584Y-113927683D01*
X110353640Y-113967157D01*
X110350000Y-114000000D01*
X110350000Y-114398421D01*
X110348242Y-114400484D01*
X110272714Y-114568038D01*
X110246855Y-114750000D01*
X110246855Y-115950000D01*
X110255109Y-116053510D01*
X110309478Y-116229074D01*
X110350000Y-116290568D01*
X110350000Y-136337868D01*
X109437868Y-137250000D01*
X99394581Y-137250000D01*
X99349742Y-137226158D01*
X99308675Y-137192664D01*
X99274898Y-137151836D01*
X99249693Y-137105221D01*
X99234022Y-137054595D01*
X99225000Y-136968758D01*
X99225000Y-114655553D01*
X105547569Y-114655553D01*
X105613062Y-115012396D01*
X105746619Y-115349723D01*
X105943152Y-115654683D01*
X106195177Y-115915662D01*
X106493093Y-116122719D01*
X106825553Y-116267967D01*
X107179893Y-116345874D01*
X107542617Y-116353472D01*
X107899909Y-116290472D01*
X108238159Y-116159273D01*
X108544485Y-115964873D01*
X108807217Y-115714677D01*
X109016348Y-115418214D01*
X109163914Y-115086776D01*
X109244293Y-114732988D01*
X109250079Y-114318598D01*
X109179610Y-113962704D01*
X109041356Y-113627275D01*
X108840584Y-113325088D01*
X108584940Y-113067654D01*
X108284162Y-112864776D01*
X107949707Y-112724184D01*
X107594313Y-112651233D01*
X107231518Y-112648700D01*
X106875141Y-112716682D01*
X106538755Y-112852591D01*
X106235174Y-113051249D01*
X105975961Y-113305089D01*
X105770989Y-113604444D01*
X105628065Y-113937909D01*
X105552634Y-114292785D01*
X105547569Y-114655553D01*
X99225000Y-114655553D01*
X99225000Y-98055553D01*
X105447569Y-98055553D01*
X105513062Y-98412396D01*
X105646619Y-98749723D01*
X105843152Y-99054683D01*
X106095177Y-99315662D01*
X106393093Y-99522719D01*
X106725553Y-99667967D01*
X107079893Y-99745874D01*
X107442617Y-99753472D01*
X107799909Y-99690472D01*
X108138159Y-99559273D01*
X108444485Y-99364873D01*
X108707217Y-99114677D01*
X108916348Y-98818214D01*
X109063914Y-98486776D01*
X109144293Y-98132988D01*
X109150079Y-97718598D01*
X109079610Y-97362704D01*
X108941356Y-97027275D01*
X108740584Y-96725088D01*
X108484940Y-96467654D01*
X108184162Y-96264776D01*
X107849707Y-96124184D01*
X107494313Y-96051233D01*
X107131518Y-96048700D01*
X106775141Y-96116682D01*
X106438755Y-96252591D01*
X106135174Y-96451249D01*
X105875961Y-96705089D01*
X105670989Y-97004444D01*
X105528065Y-97337909D01*
X105452634Y-97692785D01*
X105447569Y-98055553D01*
X99225000Y-98055553D01*
X99225000Y-85287132D01*
X99362132Y-85150000D01*
X108169685Y-85150000D01*
X108173140Y-85155361D01*
G36*
X158850000Y-120062132D02*
X158850000Y-133437868D01*
X157937868Y-134350000D01*
X150312132Y-134350000D01*
X149400000Y-133437868D01*
X149400000Y-126793173D01*
X149406586Y-126786587D01*
X149440313Y-126745527D01*
X149474440Y-126704856D01*
X149475896Y-126702207D01*
X149477816Y-126699870D01*
X149502896Y-126653096D01*
X149528503Y-126606517D01*
X149529419Y-126603630D01*
X149530845Y-126600970D01*
X149546359Y-126550226D01*
X149562435Y-126499549D01*
X149562772Y-126496544D01*
X149563656Y-126493653D01*
X149569021Y-126440836D01*
X149574944Y-126388028D01*
X149574985Y-126382113D01*
X149574996Y-126382007D01*
X149574987Y-126381908D01*
X149575000Y-126380000D01*
X149575000Y-121488172D01*
X151913172Y-119150000D01*
X157937868Y-119150000D01*
X158850000Y-120062132D01*
X158850000Y-120062132D01*
G37*
X158850000Y-120062132D02*
X158850000Y-133437868D01*
X157937868Y-134350000D01*
X150312132Y-134350000D01*
X149400000Y-133437868D01*
X149400000Y-126793173D01*
X149406586Y-126786587D01*
X149440313Y-126745527D01*
X149474440Y-126704856D01*
X149475896Y-126702207D01*
X149477816Y-126699870D01*
X149502896Y-126653096D01*
X149528503Y-126606517D01*
X149529419Y-126603630D01*
X149530845Y-126600970D01*
X149546359Y-126550226D01*
X149562435Y-126499549D01*
X149562772Y-126496544D01*
X149563656Y-126493653D01*
X149569021Y-126440836D01*
X149574944Y-126388028D01*
X149574985Y-126382113D01*
X149574996Y-126382007D01*
X149574987Y-126381908D01*
X149575000Y-126380000D01*
X149575000Y-121488172D01*
X151913172Y-119150000D01*
X157937868Y-119150000D01*
X158850000Y-120062132D01*
G36*
X128772990Y-115985122D02*
X128772990Y-134648762D01*
X128779976Y-134720011D01*
X128786215Y-134791325D01*
X128787353Y-134795240D01*
X128787750Y-134799294D01*
X128808428Y-134867785D01*
X128828413Y-134936572D01*
X128830290Y-134940192D01*
X128831467Y-134944092D01*
X128850000Y-134978947D01*
X128850000Y-136337868D01*
X127937868Y-137250000D01*
X121562132Y-137250000D01*
X120650000Y-136337868D01*
X120650000Y-119812132D01*
X122106066Y-118356066D01*
X122131416Y-118322317D01*
X122146360Y-118282843D01*
X122150000Y-118250000D01*
X122150000Y-116062132D01*
X123062132Y-115150000D01*
X127937868Y-115150000D01*
X128772990Y-115985122D01*
X128772990Y-115985122D01*
G37*
X128772990Y-115985122D02*
X128772990Y-134648762D01*
X128779976Y-134720011D01*
X128786215Y-134791325D01*
X128787353Y-134795240D01*
X128787750Y-134799294D01*
X128808428Y-134867785D01*
X128828413Y-134936572D01*
X128830290Y-134940192D01*
X128831467Y-134944092D01*
X128850000Y-134978947D01*
X128850000Y-136337868D01*
X127937868Y-137250000D01*
X121562132Y-137250000D01*
X120650000Y-136337868D01*
X120650000Y-119812132D01*
X122106066Y-118356066D01*
X122131416Y-118322317D01*
X122146360Y-118282843D01*
X122150000Y-118250000D01*
X122150000Y-116062132D01*
X123062132Y-115150000D01*
X127937868Y-115150000D01*
X128772990Y-115985122D01*
G36*
X148350000Y-120312132D02*
X148350000Y-126216827D01*
X148089005Y-126477823D01*
X147300000Y-126477823D01*
X147228339Y-126483537D01*
X147106795Y-126521178D01*
X147000549Y-126591189D01*
X146918014Y-126688028D01*
X146865725Y-126804026D01*
X146847823Y-126930000D01*
X146847823Y-127350000D01*
X140962132Y-127350000D01*
X140050000Y-126437868D01*
X140050000Y-123562132D01*
X140962132Y-122650000D01*
X143000000Y-122650000D01*
X143041789Y-122644061D01*
X143080269Y-122626716D01*
X143106066Y-122606066D01*
X144106066Y-121606066D01*
X144131416Y-121572317D01*
X144146360Y-121532843D01*
X144150000Y-121500000D01*
X144150000Y-120312132D01*
X144339701Y-120122431D01*
X144356710Y-120119432D01*
X144530406Y-120052060D01*
X144687709Y-119952233D01*
X144822625Y-119823753D01*
X144930017Y-119671515D01*
X145005794Y-119501318D01*
X145019018Y-119443114D01*
X145062132Y-119400000D01*
X147437868Y-119400000D01*
X148350000Y-120312132D01*
X148350000Y-120312132D01*
G37*
X148350000Y-120312132D02*
X148350000Y-126216827D01*
X148089005Y-126477823D01*
X147300000Y-126477823D01*
X147228339Y-126483537D01*
X147106795Y-126521178D01*
X147000549Y-126591189D01*
X146918014Y-126688028D01*
X146865725Y-126804026D01*
X146847823Y-126930000D01*
X146847823Y-127350000D01*
X140962132Y-127350000D01*
X140050000Y-126437868D01*
X140050000Y-123562132D01*
X140962132Y-122650000D01*
X143000000Y-122650000D01*
X143041789Y-122644061D01*
X143080269Y-122626716D01*
X143106066Y-122606066D01*
X144106066Y-121606066D01*
X144131416Y-121572317D01*
X144146360Y-121532843D01*
X144150000Y-121500000D01*
X144150000Y-120312132D01*
X144339701Y-120122431D01*
X144356710Y-120119432D01*
X144530406Y-120052060D01*
X144687709Y-119952233D01*
X144822625Y-119823753D01*
X144930017Y-119671515D01*
X145005794Y-119501318D01*
X145019018Y-119443114D01*
X145062132Y-119400000D01*
X147437868Y-119400000D01*
X148350000Y-120312132D01*
G36*
X149399977Y-94302058D02*
X149399977Y-95175999D01*
X149407637Y-95254123D01*
X149414482Y-95332357D01*
X149415729Y-95336648D01*
X149416165Y-95341098D01*
X149438864Y-95416279D01*
X149460764Y-95491661D01*
X149462821Y-95495629D01*
X149464113Y-95499909D01*
X149500981Y-95569248D01*
X149537107Y-95638942D01*
X149539895Y-95642435D01*
X149541994Y-95646382D01*
X149591626Y-95707237D01*
X149640603Y-95768589D01*
X149646740Y-95774813D01*
X149646842Y-95774938D01*
X149646958Y-95775034D01*
X149648936Y-95777040D01*
X150697960Y-96826063D01*
X150758623Y-96875892D01*
X150818778Y-96926368D01*
X150822693Y-96928521D01*
X150826149Y-96931359D01*
X150895348Y-96968463D01*
X150964149Y-97006287D01*
X150968411Y-97007639D01*
X150972350Y-97009751D01*
X151047463Y-97032715D01*
X151122275Y-97056447D01*
X151126713Y-97056945D01*
X151130992Y-97058253D01*
X151209161Y-97066193D01*
X151287132Y-97074939D01*
X151295866Y-97075000D01*
X151296033Y-97075017D01*
X151296188Y-97075002D01*
X151299000Y-97075022D01*
X153572940Y-97075022D01*
X157850000Y-101352081D01*
X157850000Y-105929614D01*
X157816292Y-105936044D01*
X157634462Y-106009508D01*
X157470364Y-106116891D01*
X157330249Y-106254102D01*
X157219453Y-106415915D01*
X157142197Y-106596167D01*
X157101423Y-106787992D01*
X157098685Y-106984083D01*
X157134087Y-107176971D01*
X157206280Y-107359310D01*
X157312514Y-107524154D01*
X157425000Y-107640636D01*
X157425000Y-108637143D01*
X157371303Y-108600924D01*
X157136280Y-108502129D01*
X156886544Y-108450866D01*
X156631608Y-108449086D01*
X156381180Y-108496858D01*
X156144801Y-108592361D01*
X155931474Y-108731959D01*
X155749324Y-108910333D01*
X155605289Y-109120690D01*
X155504857Y-109355017D01*
X155451851Y-109604389D01*
X155448291Y-109859308D01*
X155494313Y-110110062D01*
X155588164Y-110347102D01*
X155726269Y-110561399D01*
X155903367Y-110744790D01*
X156112714Y-110890289D01*
X156346334Y-110992356D01*
X156595330Y-111047101D01*
X156850217Y-111052440D01*
X157101287Y-111008170D01*
X157338977Y-110915976D01*
X157425000Y-110861384D01*
X157425000Y-110862868D01*
X156937868Y-111350000D01*
X153000000Y-111350000D01*
X152958211Y-111355939D01*
X152919731Y-111373284D01*
X152893934Y-111393934D01*
X151893934Y-112393934D01*
X151868584Y-112427683D01*
X151853640Y-112467157D01*
X151850000Y-112500000D01*
X151850000Y-115830037D01*
X151822165Y-115881950D01*
X151787670Y-115944695D01*
X151786437Y-115948582D01*
X151784512Y-115952172D01*
X151763582Y-116020630D01*
X151741936Y-116088868D01*
X151741482Y-116092917D01*
X151740290Y-116096815D01*
X151733054Y-116168055D01*
X151725076Y-116239179D01*
X151725020Y-116247147D01*
X151725005Y-116247295D01*
X151725018Y-116247433D01*
X151725000Y-116250000D01*
X151725000Y-116678984D01*
X150796982Y-117607002D01*
X150750537Y-117372441D01*
X150653386Y-117136734D01*
X150512302Y-116924386D01*
X150332661Y-116743486D01*
X150121303Y-116600924D01*
X149886280Y-116502129D01*
X149636544Y-116450866D01*
X149381608Y-116449086D01*
X149131180Y-116496858D01*
X148894801Y-116592361D01*
X148681474Y-116731959D01*
X148499324Y-116910333D01*
X148355289Y-117120690D01*
X148254857Y-117355017D01*
X148201851Y-117604389D01*
X148198291Y-117859308D01*
X148244313Y-118110062D01*
X148338164Y-118347102D01*
X148476269Y-118561399D01*
X148513545Y-118600000D01*
X144750000Y-118600000D01*
X144708211Y-118605939D01*
X144669731Y-118623284D01*
X144643934Y-118643934D01*
X143643934Y-119643934D01*
X143618584Y-119677683D01*
X143603640Y-119717157D01*
X143600000Y-119750000D01*
X143600000Y-120937868D01*
X142687868Y-121850000D01*
X138062132Y-121850000D01*
X137150000Y-120937868D01*
X137150000Y-106500000D01*
X137144061Y-106458211D01*
X137126716Y-106419731D01*
X137106066Y-106393934D01*
X136106066Y-105393934D01*
X136072317Y-105368584D01*
X136032843Y-105353640D01*
X136000000Y-105350000D01*
X130062132Y-105350000D01*
X129150000Y-104437868D01*
X129150000Y-90562132D01*
X130062132Y-89650000D01*
X144747918Y-89650000D01*
X149399977Y-94302058D01*
X149399977Y-94302058D01*
G37*
X149399977Y-94302058D02*
X149399977Y-95175999D01*
X149407637Y-95254123D01*
X149414482Y-95332357D01*
X149415729Y-95336648D01*
X149416165Y-95341098D01*
X149438864Y-95416279D01*
X149460764Y-95491661D01*
X149462821Y-95495629D01*
X149464113Y-95499909D01*
X149500981Y-95569248D01*
X149537107Y-95638942D01*
X149539895Y-95642435D01*
X149541994Y-95646382D01*
X149591626Y-95707237D01*
X149640603Y-95768589D01*
X149646740Y-95774813D01*
X149646842Y-95774938D01*
X149646958Y-95775034D01*
X149648936Y-95777040D01*
X150697960Y-96826063D01*
X150758623Y-96875892D01*
X150818778Y-96926368D01*
X150822693Y-96928521D01*
X150826149Y-96931359D01*
X150895348Y-96968463D01*
X150964149Y-97006287D01*
X150968411Y-97007639D01*
X150972350Y-97009751D01*
X151047463Y-97032715D01*
X151122275Y-97056447D01*
X151126713Y-97056945D01*
X151130992Y-97058253D01*
X151209161Y-97066193D01*
X151287132Y-97074939D01*
X151295866Y-97075000D01*
X151296033Y-97075017D01*
X151296188Y-97075002D01*
X151299000Y-97075022D01*
X153572940Y-97075022D01*
X157850000Y-101352081D01*
X157850000Y-105929614D01*
X157816292Y-105936044D01*
X157634462Y-106009508D01*
X157470364Y-106116891D01*
X157330249Y-106254102D01*
X157219453Y-106415915D01*
X157142197Y-106596167D01*
X157101423Y-106787992D01*
X157098685Y-106984083D01*
X157134087Y-107176971D01*
X157206280Y-107359310D01*
X157312514Y-107524154D01*
X157425000Y-107640636D01*
X157425000Y-108637143D01*
X157371303Y-108600924D01*
X157136280Y-108502129D01*
X156886544Y-108450866D01*
X156631608Y-108449086D01*
X156381180Y-108496858D01*
X156144801Y-108592361D01*
X155931474Y-108731959D01*
X155749324Y-108910333D01*
X155605289Y-109120690D01*
X155504857Y-109355017D01*
X155451851Y-109604389D01*
X155448291Y-109859308D01*
X155494313Y-110110062D01*
X155588164Y-110347102D01*
X155726269Y-110561399D01*
X155903367Y-110744790D01*
X156112714Y-110890289D01*
X156346334Y-110992356D01*
X156595330Y-111047101D01*
X156850217Y-111052440D01*
X157101287Y-111008170D01*
X157338977Y-110915976D01*
X157425000Y-110861384D01*
X157425000Y-110862868D01*
X156937868Y-111350000D01*
X153000000Y-111350000D01*
X152958211Y-111355939D01*
X152919731Y-111373284D01*
X152893934Y-111393934D01*
X151893934Y-112393934D01*
X151868584Y-112427683D01*
X151853640Y-112467157D01*
X151850000Y-112500000D01*
X151850000Y-115830037D01*
X151822165Y-115881950D01*
X151787670Y-115944695D01*
X151786437Y-115948582D01*
X151784512Y-115952172D01*
X151763582Y-116020630D01*
X151741936Y-116088868D01*
X151741482Y-116092917D01*
X151740290Y-116096815D01*
X151733054Y-116168055D01*
X151725076Y-116239179D01*
X151725020Y-116247147D01*
X151725005Y-116247295D01*
X151725018Y-116247433D01*
X151725000Y-116250000D01*
X151725000Y-116678984D01*
X150796982Y-117607002D01*
X150750537Y-117372441D01*
X150653386Y-117136734D01*
X150512302Y-116924386D01*
X150332661Y-116743486D01*
X150121303Y-116600924D01*
X149886280Y-116502129D01*
X149636544Y-116450866D01*
X149381608Y-116449086D01*
X149131180Y-116496858D01*
X148894801Y-116592361D01*
X148681474Y-116731959D01*
X148499324Y-116910333D01*
X148355289Y-117120690D01*
X148254857Y-117355017D01*
X148201851Y-117604389D01*
X148198291Y-117859308D01*
X148244313Y-118110062D01*
X148338164Y-118347102D01*
X148476269Y-118561399D01*
X148513545Y-118600000D01*
X144750000Y-118600000D01*
X144708211Y-118605939D01*
X144669731Y-118623284D01*
X144643934Y-118643934D01*
X143643934Y-119643934D01*
X143618584Y-119677683D01*
X143603640Y-119717157D01*
X143600000Y-119750000D01*
X143600000Y-120937868D01*
X142687868Y-121850000D01*
X138062132Y-121850000D01*
X137150000Y-120937868D01*
X137150000Y-106500000D01*
X137144061Y-106458211D01*
X137126716Y-106419731D01*
X137106066Y-106393934D01*
X136106066Y-105393934D01*
X136072317Y-105368584D01*
X136032843Y-105353640D01*
X136000000Y-105350000D01*
X130062132Y-105350000D01*
X129150000Y-104437868D01*
X129150000Y-90562132D01*
X130062132Y-89650000D01*
X144747918Y-89650000D01*
X149399977Y-94302058D01*
G36*
X148550000Y-129062132D02*
X148550000Y-133337868D01*
X147637868Y-134250000D01*
X141162132Y-134250000D01*
X140250000Y-133337868D01*
X140250000Y-129062132D01*
X141162132Y-128150000D01*
X147637868Y-128150000D01*
X148550000Y-129062132D01*
X148550000Y-129062132D01*
G37*
X148550000Y-129062132D02*
X148550000Y-133337868D01*
X147637868Y-134250000D01*
X141162132Y-134250000D01*
X140250000Y-133337868D01*
X140250000Y-129062132D01*
X141162132Y-128150000D01*
X147637868Y-128150000D01*
X148550000Y-129062132D01*
G36*
X119850000Y-120062132D02*
X119850000Y-136337868D01*
X118937868Y-137250000D01*
X112062132Y-137250000D01*
X111150000Y-136337868D01*
X111150000Y-130847130D01*
X111153145Y-130825000D01*
X111153145Y-129575000D01*
X111150000Y-129535560D01*
X111150000Y-120062132D01*
X111990727Y-119221405D01*
X112019696Y-119237331D01*
X112023583Y-119238564D01*
X112027173Y-119240489D01*
X112095631Y-119261419D01*
X112163869Y-119283065D01*
X112167918Y-119283519D01*
X112171816Y-119284711D01*
X112243096Y-119291952D01*
X112314180Y-119299925D01*
X112322138Y-119299981D01*
X112322297Y-119299997D01*
X112322445Y-119299983D01*
X112325001Y-119300001D01*
X115689999Y-119300001D01*
X115761248Y-119293015D01*
X115832562Y-119286776D01*
X115836477Y-119285638D01*
X115840531Y-119285241D01*
X115909022Y-119264563D01*
X115977809Y-119244578D01*
X115981429Y-119242701D01*
X115985329Y-119241524D01*
X116048510Y-119207930D01*
X116112094Y-119174971D01*
X116115280Y-119172427D01*
X116118877Y-119170515D01*
X116144031Y-119150000D01*
X118937868Y-119150000D01*
X119850000Y-120062132D01*
X119850000Y-120062132D01*
G37*
X119850000Y-120062132D02*
X119850000Y-136337868D01*
X118937868Y-137250000D01*
X112062132Y-137250000D01*
X111150000Y-136337868D01*
X111150000Y-130847130D01*
X111153145Y-130825000D01*
X111153145Y-129575000D01*
X111150000Y-129535560D01*
X111150000Y-120062132D01*
X111990727Y-119221405D01*
X112019696Y-119237331D01*
X112023583Y-119238564D01*
X112027173Y-119240489D01*
X112095631Y-119261419D01*
X112163869Y-119283065D01*
X112167918Y-119283519D01*
X112171816Y-119284711D01*
X112243096Y-119291952D01*
X112314180Y-119299925D01*
X112322138Y-119299981D01*
X112322297Y-119299997D01*
X112322445Y-119299983D01*
X112325001Y-119300001D01*
X115689999Y-119300001D01*
X115761248Y-119293015D01*
X115832562Y-119286776D01*
X115836477Y-119285638D01*
X115840531Y-119285241D01*
X115909022Y-119264563D01*
X115977809Y-119244578D01*
X115981429Y-119242701D01*
X115985329Y-119241524D01*
X116048510Y-119207930D01*
X116112094Y-119174971D01*
X116115280Y-119172427D01*
X116118877Y-119170515D01*
X116144031Y-119150000D01*
X118937868Y-119150000D01*
X119850000Y-120062132D01*
G36*
X136350000Y-116762132D02*
X136350000Y-121500000D01*
X136355939Y-121541789D01*
X136373284Y-121580269D01*
X136393934Y-121606066D01*
X138350000Y-123562132D01*
X138350000Y-133937868D01*
X137437868Y-134850000D01*
X131562132Y-134850000D01*
X130650000Y-133937868D01*
X130650000Y-116762132D01*
X131562132Y-115850000D01*
X135437868Y-115850000D01*
X136350000Y-116762132D01*
X136350000Y-116762132D01*
G37*
X136350000Y-116762132D02*
X136350000Y-121500000D01*
X136355939Y-121541789D01*
X136373284Y-121580269D01*
X136393934Y-121606066D01*
X138350000Y-123562132D01*
X138350000Y-133937868D01*
X137437868Y-134850000D01*
X131562132Y-134850000D01*
X130650000Y-133937868D01*
X130650000Y-116762132D01*
X131562132Y-115850000D01*
X135437868Y-115850000D01*
X136350000Y-116762132D01*
D72*
G36*
X168600000Y-108900000D02*
X168607879Y-108938906D01*
X168629289Y-108970711D01*
X169229289Y-109570711D01*
X169262371Y-109592650D01*
X169300000Y-109600000D01*
X170858578Y-109600000D01*
X171200000Y-109941422D01*
X171200000Y-111400000D01*
X168941422Y-111400000D01*
X168370711Y-110829289D01*
X168337629Y-110807350D01*
X168300000Y-110800000D01*
X168089701Y-110800000D01*
X168088671Y-110799296D01*
X167930000Y-110767164D01*
X166908586Y-110767164D01*
X166800000Y-110658578D01*
X166800000Y-110500000D01*
X166792121Y-110461094D01*
X166770711Y-110429289D01*
X165800000Y-109458578D01*
X165800000Y-108541422D01*
X165941422Y-108400000D01*
X166300000Y-108400000D01*
X166338906Y-108392121D01*
X166370711Y-108370711D01*
X166770711Y-107970711D01*
X166792650Y-107937629D01*
X166800000Y-107900000D01*
X166800000Y-104141422D01*
X167091913Y-103849509D01*
X168600000Y-103849509D01*
X168600000Y-108900000D01*
X168600000Y-108900000D01*
G37*
X168600000Y-108900000D02*
X168607879Y-108938906D01*
X168629289Y-108970711D01*
X169229289Y-109570711D01*
X169262371Y-109592650D01*
X169300000Y-109600000D01*
X170858578Y-109600000D01*
X171200000Y-109941422D01*
X171200000Y-111400000D01*
X168941422Y-111400000D01*
X168370711Y-110829289D01*
X168337629Y-110807350D01*
X168300000Y-110800000D01*
X168089701Y-110800000D01*
X168088671Y-110799296D01*
X167930000Y-110767164D01*
X166908586Y-110767164D01*
X166800000Y-110658578D01*
X166800000Y-110500000D01*
X166792121Y-110461094D01*
X166770711Y-110429289D01*
X165800000Y-109458578D01*
X165800000Y-108541422D01*
X165941422Y-108400000D01*
X166300000Y-108400000D01*
X166338906Y-108392121D01*
X166370711Y-108370711D01*
X166770711Y-107970711D01*
X166792650Y-107937629D01*
X166800000Y-107900000D01*
X166800000Y-104141422D01*
X167091913Y-103849509D01*
X168600000Y-103849509D01*
X168600000Y-108900000D01*
G36*
X173600000Y-104541422D02*
X173600000Y-105100000D01*
X173607879Y-105138906D01*
X173629289Y-105170711D01*
X174029289Y-105570711D01*
X174062371Y-105592650D01*
X174100000Y-105600000D01*
X177058578Y-105600000D01*
X177400000Y-105941422D01*
X177400000Y-108458578D01*
X177058578Y-108800000D01*
X171541422Y-108800000D01*
X171400000Y-108658578D01*
X171400000Y-103941422D01*
X171541422Y-103800000D01*
X172858578Y-103800000D01*
X173600000Y-104541422D01*
X173600000Y-104541422D01*
G37*
X173600000Y-104541422D02*
X173600000Y-105100000D01*
X173607879Y-105138906D01*
X173629289Y-105170711D01*
X174029289Y-105570711D01*
X174062371Y-105592650D01*
X174100000Y-105600000D01*
X177058578Y-105600000D01*
X177400000Y-105941422D01*
X177400000Y-108458578D01*
X177058578Y-108800000D01*
X171541422Y-108800000D01*
X171400000Y-108658578D01*
X171400000Y-103941422D01*
X171541422Y-103800000D01*
X172858578Y-103800000D01*
X173600000Y-104541422D01*
G36*
X168616795Y-111955470D02*
X168644931Y-111983471D01*
X168700000Y-112000000D01*
X169658578Y-112000000D01*
X170000000Y-112341422D01*
X170000000Y-114658578D01*
X169658578Y-115000000D01*
X168541422Y-115000000D01*
X168370711Y-114829289D01*
X168337629Y-114807350D01*
X168300000Y-114800000D01*
X166561803Y-114800000D01*
X166400000Y-114476393D01*
X166400000Y-112282963D01*
X166652572Y-112178603D01*
X166877812Y-111953755D01*
X166999861Y-111659828D01*
X167000088Y-111400000D01*
X168246482Y-111400000D01*
X168616795Y-111955470D01*
X168616795Y-111955470D01*
G37*
X168616795Y-111955470D02*
X168644931Y-111983471D01*
X168700000Y-112000000D01*
X169658578Y-112000000D01*
X170000000Y-112341422D01*
X170000000Y-114658578D01*
X169658578Y-115000000D01*
X168541422Y-115000000D01*
X168370711Y-114829289D01*
X168337629Y-114807350D01*
X168300000Y-114800000D01*
X166561803Y-114800000D01*
X166400000Y-114476393D01*
X166400000Y-112282963D01*
X166652572Y-112178603D01*
X166877812Y-111953755D01*
X166999861Y-111659828D01*
X167000088Y-111400000D01*
X168246482Y-111400000D01*
X168616795Y-111955470D01*
D70*
G36*
X177325000Y-109937132D02*
X177325000Y-115662868D01*
X175837868Y-117150000D01*
X170875000Y-117150000D01*
X170875000Y-116289998D01*
X170869816Y-116237131D01*
X170865188Y-116184226D01*
X170864344Y-116181321D01*
X170864049Y-116178313D01*
X170848710Y-116127508D01*
X170833880Y-116076462D01*
X170832487Y-116073775D01*
X170831614Y-116070883D01*
X170806701Y-116024029D01*
X170782236Y-115976830D01*
X170780348Y-115974465D01*
X170778930Y-115971798D01*
X170745385Y-115930667D01*
X170712224Y-115889128D01*
X170708073Y-115884919D01*
X170708003Y-115884833D01*
X170707924Y-115884767D01*
X170706587Y-115883412D01*
X170650000Y-115826825D01*
X170650000Y-112180278D01*
X170845417Y-112050000D01*
X171600000Y-112050000D01*
X171641789Y-112044061D01*
X171680269Y-112026716D01*
X171706066Y-112006066D01*
X172006066Y-111706066D01*
X172031416Y-111672317D01*
X172046360Y-111632843D01*
X172050000Y-111600000D01*
X172050000Y-109962132D01*
X172362132Y-109650000D01*
X177037868Y-109650000D01*
X177325000Y-109937132D01*
X177325000Y-109937132D01*
G37*
X177325000Y-109937132D02*
X177325000Y-115662868D01*
X175837868Y-117150000D01*
X170875000Y-117150000D01*
X170875000Y-116289998D01*
X170869816Y-116237131D01*
X170865188Y-116184226D01*
X170864344Y-116181321D01*
X170864049Y-116178313D01*
X170848710Y-116127508D01*
X170833880Y-116076462D01*
X170832487Y-116073775D01*
X170831614Y-116070883D01*
X170806701Y-116024029D01*
X170782236Y-115976830D01*
X170780348Y-115974465D01*
X170778930Y-115971798D01*
X170745385Y-115930667D01*
X170712224Y-115889128D01*
X170708073Y-115884919D01*
X170708003Y-115884833D01*
X170707924Y-115884767D01*
X170706587Y-115883412D01*
X170650000Y-115826825D01*
X170650000Y-112180278D01*
X170845417Y-112050000D01*
X171600000Y-112050000D01*
X171641789Y-112044061D01*
X171680269Y-112026716D01*
X171706066Y-112006066D01*
X172006066Y-111706066D01*
X172031416Y-111672317D01*
X172046360Y-111632843D01*
X172050000Y-111600000D01*
X172050000Y-109962132D01*
X172362132Y-109650000D01*
X177037868Y-109650000D01*
X177325000Y-109937132D01*
M02*
