M48
;DRILL file {KiCad 4.0.4-stable} date 03/22/17 10:11:04
;FORMAT={-:-/ absolute / metric / decimal}
FMAT,2
METRIC,TZ
T1C0.300
T2C0.400
T3C0.500
T4C0.800
T5C0.810
T6C0.900
T7C1.000
T8C1.100
T9C1.200
T10C1.300
T11C1.600
T12C2.300
T13C3.000
%
G90
G05
M71
T1
X115.7Y-83.8
X116.7Y-106.05
X117.1Y-76.6
X117.1Y-83.8
X146.9Y-88.2
X148.15Y-88.255
X153.1Y-78.4
X157.05Y-92.006
X157.5Y-94.
X158.1Y-106.9
X158.858Y-76.703
X159.592Y-113.513
X160.177Y-76.723
X160.45Y-112.202
X160.65Y-105.515
X161.1Y-104.488
X161.7Y-107.3
X162.765Y-116.55
X162.909Y-89.35
X163.9Y-74.4
X163.9Y-90.375
X164.024Y-87.875
X164.925Y-87.875
X166.1Y-74.4
X166.5Y-87.8
X167.3Y-93.2
X167.5Y-87.8
X167.5Y-89.925
X167.8Y-121.5
X168.1Y-81.2
X168.9Y-76.2
X168.903Y-83.797
X169.1Y-82.8
X169.198Y-86.823
X169.7Y-76.9
X170.235Y-73.2
X170.5Y-87.2
X171.3Y-81.2
X171.6Y-120.6
X173.46Y-96.605
X174.577Y-74.734
X175.1Y-94.5
X175.37Y-75.782
X175.5Y-74.6
X176.948Y-76.9
X179.1Y-73.04
X180.5Y-78.4
X180.9Y-71.2
X181.7Y-130.9
X181.85Y-106.814
X181.925Y-107.782
X182.3Y-79.2
X182.353Y-104.008
X183.2Y-104.736
T2
X101.05Y-84.
X109.Y-84.5
X112.5Y-82.4
X125.9Y-79.
X131.7Y-81.
X132.7Y-83.6
X138.5Y-81.6
X138.9Y-86.2
X141.8Y-69.45
X142.1Y-81.8
X146.4Y-77.6
X147.08Y-70.6
X147.08Y-71.9
X147.08Y-73.2
X148.08Y-71.25
X148.08Y-72.55
X148.5Y-86.8
X149.9Y-86.2
X154.131Y-93.025
X155.5Y-93.2
X159.1Y-79.
X159.3Y-85.8
X160.5Y-71.2
X160.9Y-84.
X163.2Y-101.
X163.7Y-126.8
X164.1Y-93.
X165.1Y-78.4
X165.3Y-76.5
X166.2Y-111.5
X166.3Y-78.4
X167.Y-100.1
X167.1Y-119.825
X167.9Y-85.457
X171.1Y-91.2
X173.1Y-73.6
X174.Y-112.
X174.Y-114.
X174.Y-116.
X174.48Y-96.8
X174.8Y-100.
X175.9Y-92.
X176.Y-112.
X176.Y-114.
X176.Y-116.
X176.6Y-94.7
X177.1Y-88.2
X177.3Y-123.9
X178.834Y-83.156
X179.5Y-84.2
T3
X100.5Y-121.
X100.5Y-123.
X102.5Y-121.
X102.5Y-123.
X104.5Y-121.
X104.5Y-123.
X106.5Y-121.
X106.5Y-123.
X108.5Y-121.
X108.5Y-123.
X113.Y-127.
X113.Y-121.
X113.Y-123.
X113.Y-125.
X115.Y-125.
X115.Y-127.
X116.5Y-113.5
X116.5Y-115.5
X117.Y-127.
X117.Y-125.
X118.1Y-100.8
X118.5Y-91.
X118.5Y-93.
X118.5Y-109.5
X118.5Y-111.5
X118.5Y-113.5
X118.5Y-115.5
X119.Y-125.
X119.Y-127.
X119.5Y-100.8
X120.5Y-91.
X120.5Y-93.
X120.5Y-109.5
X120.5Y-111.5
X120.5Y-113.5
X120.5Y-115.5
X120.9Y-100.8
X122.3Y-100.8
X122.5Y-91.
X122.5Y-93.
X122.5Y-109.5
X122.5Y-111.5
X122.5Y-113.5
X123.7Y-100.8
X123.7Y-102.2
X123.7Y-103.6
X123.7Y-105.
X124.5Y-91.
X124.5Y-93.
X124.5Y-95.
X124.5Y-97.
X124.5Y-99.
X124.5Y-109.5
X124.5Y-111.5
X124.5Y-113.5
X125.5Y-123.
X125.5Y-125.
X125.5Y-127.
X126.5Y-91.
X126.5Y-93.
X126.5Y-95.
X126.5Y-97.
X126.5Y-99.
X126.5Y-101.
X126.5Y-103.
X126.5Y-109.5
X126.5Y-111.5
X126.5Y-113.5
X127.5Y-123.
X127.5Y-125.
X127.5Y-127.
X127.5Y-129.
X128.5Y-109.5
X128.5Y-111.5
X128.5Y-113.5
X130.5Y-107.5
X130.5Y-109.5
X130.5Y-111.5
X130.5Y-113.5
X132.Y-121.
X132.Y-123.
X132.Y-125.
X132.Y-127.
X132.5Y-107.5
X132.5Y-109.5
X134.Y-121.
X134.Y-123.
X134.Y-125.
X134.Y-127.
X134.5Y-107.5
X134.5Y-109.5
X140.5Y-102.
X140.5Y-104.
X142.5Y-102.
X142.5Y-104.
X142.5Y-116.2
X142.5Y-117.6
X142.5Y-119.2
X142.5Y-120.8
X144.Y-133.5
X144.1Y-116.2
X144.1Y-117.6
X144.1Y-119.2
X144.5Y-102.
X144.5Y-104.
X145.5Y-129.
X145.5Y-130.5
X145.5Y-132.
X145.5Y-133.5
X146.5Y-102.
X146.5Y-104.
X147.Y-129.
X147.Y-130.5
X147.Y-132.
X147.Y-133.5
X148.5Y-102.
X148.5Y-104.
X150.5Y-102.
X150.5Y-104.
X152.5Y-102.
X152.5Y-104.
X154.5Y-104.
X155.5Y-123.
X155.5Y-125.
X155.5Y-127.
X155.5Y-129.
X157.Y-123.
X157.Y-125.
X157.Y-127.
X157.Y-129.
X157.Y-131.
T4
X149.5Y-112.75
X149.5Y-117.75
X156.75Y-104.75
X156.75Y-109.75
T5
X142.7Y-72.2
X142.7Y-74.2
X145.24Y-72.2
X145.24Y-74.2
T6
X102.99Y-74.
X104.26Y-76.54
X105.53Y-74.
X106.8Y-76.54
X108.07Y-74.
X109.34Y-76.54
X110.61Y-74.
X111.88Y-76.54
X118.79Y-74.
X120.06Y-76.54
X121.33Y-74.
X122.6Y-76.54
X123.87Y-74.
X125.14Y-76.54
X126.41Y-74.
X127.68Y-76.54
X169.7Y-129.6
X169.7Y-135.2
X172.24Y-129.6
X172.24Y-135.2
T7
X133.1Y-73.8
X133.1Y-76.34
X147.3Y-68.325
X147.3Y-75.475
X167.02Y-69.
X167.02Y-71.54
X169.56Y-69.
X169.56Y-71.54
X172.1Y-69.
X172.1Y-71.54
X174.64Y-69.
X174.64Y-71.54
X175.96Y-128.19
X175.96Y-135.81
X177.18Y-69.
X177.18Y-71.54
X178.5Y-128.19
X178.5Y-135.81
X181.04Y-128.19
X181.04Y-135.81
X181.5Y-81.5
X181.5Y-84.04
X181.5Y-86.58
X181.5Y-89.12
X181.5Y-91.66
X181.5Y-94.2
X181.5Y-98.1
X181.5Y-100.64
T8
X154.Y-67.8
X154.Y-74.3
X158.5Y-67.8
X158.5Y-74.3
T9
X107.3Y-90.4
X107.3Y-97.9
X107.4Y-107.
X107.4Y-114.5
T10
X105.Y-130.5
X114.5Y-130.5
X120.3Y-70.5
X124.Y-130.5
X125.3Y-70.5
X133.5Y-130.5
X143.Y-130.5
X152.5Y-130.5
X160.7Y-133.2
X165.7Y-133.2
T11
X126.265Y-116.8
X126.265Y-120.2
X139.735Y-116.8
X139.735Y-120.2
T12
X137.97Y-69.5
X149.97Y-69.5
T13
X119.62Y-97.075
X132.62Y-97.075
T0
M30
