%TF.GenerationSoftware,KiCad,Pcbnew,(2017-11-18 revision ff5ee05de)-makepkg*%
%TF.CreationDate,2017-12-11T11:21:48+01:00*%
%TF.ProjectId,MPPT_charger_20A,4D5050545F636861726765725F323041,0.9*%
%TF.SameCoordinates,Original*%
%TF.FileFunction,Profile,NP*%
%FSLAX46Y46*%
G04 Gerber Fmt 4.6, Leading zero omitted, Abs format (unit mm)*
G04 Created by KiCad (PCBNEW (2017-11-18 revision ff5ee05de)-makepkg) date 12/11/17 11:21:48*
%MOMM*%
%LPD*%
G01*
G04 APERTURE LIST*
%ADD10C,0.150000*%
G04 APERTURE END LIST*
D10*
X153500000Y-78000000D02*
G75*
G02X153000000Y-77500000I0J500000D01*
G01*
X158500000Y-77500000D02*
G75*
G02X158000000Y-78000000I-500000J0D01*
G01*
X158000000Y-78000000D02*
X153500000Y-78000000D01*
X158500000Y-77500000D02*
X205000000Y-77500000D01*
X106500000Y-77500000D02*
X153000000Y-77500000D01*
X205000000Y-82000000D02*
X205000000Y-77500000D01*
X208500000Y-130000000D02*
X213000000Y-130000000D01*
X205000000Y-138000000D02*
X205000000Y-133500000D01*
X103000000Y-130000000D02*
X98500000Y-130000000D01*
X106500000Y-133500000D02*
X106500000Y-138000000D01*
X106500000Y-82000000D02*
X106500000Y-77500000D01*
X98500000Y-85500000D02*
X103000000Y-85500000D01*
X103000000Y-85500000D02*
G75*
G03X106500000Y-82000000I0J3500000D01*
G01*
X98500000Y-130000000D02*
X98500000Y-85500000D01*
X213000000Y-85500000D02*
X208500000Y-85500000D01*
X205000000Y-82000000D02*
G75*
G03X208500000Y-85500000I3500000J0D01*
G01*
X213000000Y-130000000D02*
X213000000Y-85500000D01*
X208500000Y-130000000D02*
G75*
G03X205000000Y-133500000I0J-3500000D01*
G01*
X106500000Y-138000000D02*
X205000000Y-138000000D01*
X106500000Y-133500000D02*
G75*
G03X103000000Y-130000000I-3500000J0D01*
G01*
M02*
