M48
;DRILL file {KiCad (2017-06-06 revision a18d72b5d)-makepkg} date 08/15/17 07:40:26
;FORMAT={-:-/ absolute / metric / decimal}
FMAT,2
METRIC,TZ
T1C0.300
T2C0.400
T3C0.650
T4C0.700
T5C0.900
T6C1.000
T7C1.200
T8C1.300
T9C1.600
T10C3.200
%
G90
G05
M71
T1
X99.9Y-127.2
X125.2Y-102.4
X132.5Y-83.6
X132.5Y-84.8
X133.Y-80.3
X134.Y-105.3
X142.6Y-78.6
X153.425Y-99.464
X154.09Y-100.199
X154.2Y-79.1
X157.9Y-104.8
X160.095Y-105.305
X168.709Y-104.075
X168.9Y-90.4
X169.982Y-105.425
X170.244Y-108.55
X170.6Y-101.3
X170.6Y-110.8
X171.187Y-99.74
X175.787Y-106.796
X177.1Y-89.9
X177.5Y-135.
X177.8Y-112.2
X178.4Y-106.1
X180.1Y-98.8
X181.291Y-106.927
X182.1Y-100.4
X182.1Y-102.
X182.1Y-103.6
X182.1Y-105.2
X182.7Y-98.5
X183.1Y-95.3
X183.8Y-134.75
X184.55Y-95.319
X185.85Y-96.295
X185.9Y-95.2
X188.3Y-116.9
X190.079Y-103.485
X190.1Y-101.155
X190.215Y-102.047
X190.7Y-132.4
X191.3Y-105.8
X191.5Y-126.3
X191.565Y-101.973
X192.3Y-105.5
X193.3Y-100.4
X193.3Y-137.
X195.103Y-105.594
X195.9Y-101.
X196.098Y-102.088
X196.4Y-107.3
X196.7Y-99.5
X197.925Y-115.508
X198.2Y-108.9
X198.2Y-110.4
X200.3Y-101.
X201.2Y-100.8
X201.5Y-89.7
X201.5Y-91.4
X202.3Y-95.8
X202.7Y-99.4
X203.9Y-94.263
X203.91Y-93.278
X205.3Y-90.4
X205.647Y-97.323
X206.4Y-91.3
X206.9Y-93.3
X207.2Y-94.5
X209.158Y-95.65
T2
X101.5Y-88.
X101.5Y-90.
X101.5Y-92.
X101.5Y-94.
X101.5Y-96.
X101.5Y-98.
X102.5Y-103.
X102.5Y-105.
X102.5Y-107.
X102.5Y-109.
X103.5Y-88.
X103.5Y-98.
X104.5Y-103.
X104.5Y-105.
X104.5Y-107.
X104.5Y-109.
X104.5Y-111.
X104.5Y-113.
X104.5Y-115.
X104.5Y-117.
X104.5Y-119.
X104.5Y-121.
X104.5Y-123.
X105.5Y-88.
X105.5Y-98.
X106.5Y-105.
X106.5Y-107.
X106.5Y-109.
X106.5Y-111.
X106.5Y-113.
X106.5Y-115.
X106.5Y-117.
X106.5Y-119.
X106.5Y-121.
X106.5Y-123.
X106.5Y-130.
X106.578Y-128.17
X107.5Y-86.
X107.5Y-88.
X107.5Y-98.
X108.5Y-105.
X108.5Y-107.
X108.5Y-109.
X108.5Y-111.
X108.5Y-113.
X108.5Y-115.
X108.5Y-117.
X108.5Y-119.
X108.5Y-121.
X108.5Y-123.
X108.5Y-128.
X108.5Y-130.
X109.5Y-80.
X109.5Y-82.
X109.5Y-84.
X109.5Y-86.
X109.5Y-92.
X109.5Y-94.
X109.5Y-96.
X109.5Y-98.
X110.5Y-121.
X110.5Y-123.
X111.5Y-80.
X111.5Y-92.
X111.5Y-94.
X111.5Y-96.
X111.5Y-98.
X111.5Y-100.
X112.5Y-121.
X112.5Y-123.
X113.5Y-80.
X113.5Y-92.
X113.5Y-94.
X113.5Y-96.
X113.5Y-98.
X113.5Y-100.
X113.5Y-102.
X114.5Y-119.
X114.5Y-121.
X114.5Y-123.
X114.5Y-128.
X114.5Y-130.
X115.5Y-80.
X115.5Y-92.
X115.5Y-96.
X115.5Y-98.
X115.5Y-100.
X115.5Y-102.
X116.5Y-128.
X116.5Y-130.
X117.5Y-80.
X117.5Y-90.
X117.5Y-92.
X117.5Y-96.
X117.5Y-98.
X117.5Y-100.
X117.5Y-102.
X118.5Y-126.
X118.5Y-128.
X119.Y-97.5
X119.Y-99.
X119.Y-100.5
X119.5Y-80.
X119.5Y-90.
X119.5Y-92.
X119.5Y-96.
X119.5Y-102.
X121.5Y-80.
X121.5Y-90.
X121.5Y-92.
X122.Y-96.
X122.Y-102.
X123.5Y-80.
X123.5Y-82.
X123.5Y-84.
X123.5Y-86.
X123.5Y-88.
X123.5Y-90.
X123.5Y-92.
X123.5Y-96.
X123.5Y-102.
X127.5Y-91.
X127.5Y-98.5
X127.5Y-100.
X127.5Y-125.
X127.5Y-127.
X127.5Y-129.
X127.5Y-131.
X127.5Y-133.
X128.Y-101.5
X128.Y-103.
X128.Y-107.
X128.Y-108.5
X128.Y-110.
X128.Y-111.5
X128.Y-113.
X129.Y-91.
X129.Y-98.5
X129.5Y-107.
X129.5Y-108.5
X129.5Y-110.
X129.5Y-111.5
X129.5Y-113.
X129.5Y-123.
X129.5Y-125.
X129.5Y-127.
X129.5Y-129.
X129.5Y-131.
X129.5Y-133.
X130.5Y-91.
X130.5Y-98.5
X131.Y-107.
X131.Y-108.5
X131.Y-110.
X131.5Y-123.
X131.5Y-125.
X131.5Y-127.
X132.Y-91.
X132.Y-97.
X132.Y-98.5
X132.5Y-107.
X132.5Y-108.5
X132.5Y-110.
X133.5Y-91.
X133.5Y-92.5
X133.5Y-94.
X133.5Y-95.5
X133.5Y-97.
X133.5Y-98.5
X133.5Y-119.
X133.5Y-123.
X133.5Y-125.
X133.5Y-127.
X134.Y-107.
X134.Y-108.5
X134.Y-110.
X135.Y-91.
X135.Y-92.5
X135.Y-94.
X135.Y-95.5
X135.Y-97.
X135.Y-98.5
X135.5Y-117.
X135.5Y-119.
X135.5Y-121.
X137.Y-86.3
X137.5Y-117.
X137.5Y-119.
X137.5Y-121.
X137.5Y-123.
X137.5Y-125.
X137.5Y-127.
X137.5Y-129.
X137.5Y-131.
X137.5Y-133.
X139.5Y-117.
X139.5Y-127.
X139.5Y-129.
X139.5Y-133.
X139.8Y-78.8
X140.Y-103.5
X141.5Y-127.
X141.5Y-133.
X142.Y-105.5
X142.3Y-81.5
X144.Y-107.5
X145.7Y-84.1
X145.9Y-86.4
X146.Y-107.5
X146.Y-109.5
X148.Y-107.5
X148.Y-109.5
X149.5Y-88.8
X150.Y-107.5
X150.Y-109.5
X152.Y-107.5
X152.Y-109.5
X154.Y-107.5
X154.Y-109.5
X154.036Y-97.775
X154.2Y-80.9
X155.225Y-93.7
X156.Y-107.5
X156.Y-109.5
X156.3Y-94.6
X156.7Y-80.7
X157.1Y-100.
X162.1Y-81.8
X162.3Y-86.2
X165.8Y-102.8
X166.5Y-125.
X166.5Y-126.5
X167.Y-128.5
X167.Y-130.5
X167.Y-132.5
X168.Y-125.
X168.Y-126.5
X168.Y-136.
X168.5Y-132.5
X169.5Y-125.
X169.5Y-126.5
X169.6Y-95.8
X170.Y-136.
X170.5Y-132.5
X170.917Y-113.138
X171.Y-120.5
X171.Y-122.
X171.Y-123.5
X171.Y-125.
X171.Y-126.5
X171.1Y-105.8
X171.52Y-109.696
X171.6Y-98.1
X172.Y-128.5
X172.Y-130.5
X172.Y-132.5
X172.Y-136.
X172.5Y-123.5
X172.5Y-125.
X172.5Y-126.5
X172.767Y-102.912
X174.Y-123.5
X174.Y-125.
X174.Y-126.5
X174.Y-136.
X175.5Y-123.5
X175.5Y-125.
X175.5Y-126.5
X175.5Y-128.5
X175.5Y-130.5
X175.5Y-132.5
X175.5Y-134.5
X176.9Y-120.
X177.347Y-107.527
X178.4Y-98.1
X179.6Y-119.9
X179.9Y-96.
X185.8Y-106.3
X185.9Y-135.5
X186.5Y-116.8
X186.5Y-118.2
X188.5Y-135.6
X189.Y-119.7
X189.1Y-115.8
X189.3Y-110.7
X189.315Y-125.393
X190.4Y-95.3
X190.9Y-118.2
X191.3Y-135.6
X191.6Y-110.6
X192.9Y-116.6
X193.5Y-94.2
X194.1Y-119.
X195.8Y-110.6
X195.9Y-133.4
X196.568Y-111.241
X197.5Y-132.
X199.475Y-114.
X199.6Y-97.
X200.5Y-94.
X201.3Y-85.6
X201.9Y-128.8
X201.93Y-96.775
X203.052Y-129.605
X203.1Y-102.3
X204.267Y-100.733
X204.5Y-129.2
X205.1Y-98.1
X210.Y-91.7
X210.075Y-97.735
X211.1Y-120.6
T3
X146.58Y-82.7
X151.42Y-82.7
T5
X202.96Y-125.1
X205.5Y-125.1
X166.305Y-91.83
X167.575Y-89.29
X168.845Y-91.83
X170.115Y-89.29
X171.385Y-91.83
X172.655Y-89.29
X173.925Y-91.83
X175.195Y-89.29
X208.06Y-125.1
X210.6Y-125.1
X181.805Y-91.83
X183.075Y-89.29
X184.345Y-91.83
X185.615Y-89.29
X186.885Y-91.83
X188.155Y-89.29
X189.425Y-91.83
X190.695Y-89.29
T6
X198.16Y-121.6
X200.7Y-121.6
X132.5Y-114.
X137.5Y-114.
X206.5Y-100.
X206.5Y-102.54
X206.5Y-105.08
X206.5Y-107.62
X206.5Y-110.16
X209.04Y-100.
X209.04Y-102.54
X209.04Y-105.08
X209.04Y-107.62
X209.04Y-110.16
X201.6Y-80.86
X201.6Y-83.4
X198.2Y-117.8
X200.74Y-117.8
X203.28Y-117.8
X205.82Y-117.8
X208.36Y-117.8
X210.9Y-117.8
T7
X107.Y-95.5
X107.Y-103.
X181.19Y-130.5
X185.Y-130.5
X188.81Y-130.5
X112.Y-111.5
X112.Y-119.
T8
X122.Y-130.5
X131.5Y-130.5
X141.Y-130.5
X150.5Y-130.5
X160.Y-130.5
X169.5Y-130.5
T9
X147.03Y-120.
X147.03Y-123.4
X160.5Y-120.
X160.5Y-123.4
T10
X129.5Y-95.
X142.5Y-95.
T4
X146.27Y-79.37G85X146.27Y-79.87
G05
X151.73Y-79.37G85X151.73Y-79.87
G05
T0
M30
